<?xml version="1.0" encoding="utf-8"?>
<!-- Generator: Adobe Illustrator 19.2.0, SVG Export Plug-In . SVG Version: 6.00 Build 0)  -->
<svg version="1.1" id="Layer_1" xmlns="http://www.w3.org/2000/svg" xmlns:xlink="http://www.w3.org/1999/xlink" x="0px" y="0px"
	 viewBox="0 0 36 12.2"  xml:space="preserve">
<style type="text/css">
	.st0{fill:orange;}
</style>
<g>
	<g>
		<polygon class="st0" points="0,12.2 14.5,12.2 20.1,0 5.6,0 		"/>
		<g>
			<path class="st0" d="M24.1,3c-1,0-1.9,0.4-2.5,1.3h0V0h-1.5v11.8h1.4v-1.1h0c0.3,0.5,0.9,1.3,2.4,1.3c2.9,0,3.8-2.8,3.8-4.8
				C27.7,4.8,26.4,3,24.1,3z M23.9,10.8c-0.9,0-2.4-0.6-2.4-2.9c0-1.4,0.2-3.7,2.3-3.7c2.2,0,2.4,2.1,2.4,3.2
				C26.2,9.4,25.5,10.8,23.9,10.8z"/>
			<path class="st0" d="M32.6,4.3c1.2,0,1.9,0.7,2,1.8H36C35.9,4.6,35,3,32.8,3c-2.9,0-4.1,2.1-4.1,4.8c0,2.5,1.4,4.3,3.9,4.3
				c2.5,0,3.4-1.9,3.5-3.3h-1.4c-0.2,1.3-1.1,2-2.1,2c-2,0-2.4-1.8-2.4-3.3C30.2,6,30.8,4.3,32.6,4.3z"/>
		</g>
	</g>
</g>
</svg>
