<?xml version="1.0" encoding="utf-8"?>
<!-- Generator: Adobe Illustrator 24.0.1, SVG Export Plug-In . SVG Version: 6.00 Build 0)  -->
<svg version="1.1" id="Layer_1" xmlns="http://www.w3.org/2000/svg" xmlns:xlink="http://www.w3.org/1999/xlink" x="0px" y="0px"
	 viewBox="0 0 3021.3 581.2" style="enable-background:new 0 0 3021.3 581.2;" xml:space="preserve">
<style type="text/css">
	.st0{fill:#2B2B2B;}
	.st1{fill:#D9D9D9;}
	.st2{fill:#EDEDED;}
	.st3{fill:#F5F5F5;}
	.st4{fill:#B4B4B4;}
</style>
<path class="st0" d="M2016.5,225c0.1-1.3,0.9-2.1,1.7-2.9c7.4-7.8,14.9-15.5,22.3-23.3c9.9-10.5,19.6-21,29.6-31.4
	c1.9-2,3.3-4.7,6.5-5.1c4.6,7,9.9,13.5,15.4,19.9c8.9,10.4,17.9,20.6,23.7,33.3c5.7,12.6,11.8,25.2,22.4,34.6
	c9.4,8.3,19.6,15.6,29.5,23.3c1.1,0.9,2.5,2.6,3.5,2.4c6.5-1.2,13,0.3,20.4-0.9c-5.5-7.4-10.6-14.2-15.9-21.2
	c1.7-0.2,2.8-0.4,3.8-0.5c-11.9-21.4-27.6-39.8-44.3-57.6c7.6,2,15.2,3.5,22.8,4.9c12.1,2.1,24.4,3.4,36,7.6
	c17.7,6.4,35.2,13,52.8,19.5c10,3.8,20.1,7.6,30.1,11.4c24.4,9.2,48.9,18.3,73.3,27.6c19.6,7.4,39.2,14.9,58.8,22.4
	c15.4,5.8,30.9,11.4,46.2,17.4c21.5,8.5,43.3,15.5,65.7,21.2c20.1,5.1,40,10.6,60,16c20.6,5.6,41.2,11.3,61.8,16.9
	c20,5.4,40,10.7,60,16.1c20.8,5.6,41.5,11.3,62.3,16.9c23.8,6.4,47.5,12.8,71.3,19.2c10.7,2.9,21.4,6.3,32.3,8.7
	c13.3,2.9,26.8,5.2,40.2,7.5c8.6,1.5,17,4.4,25.8,4.6c3.1,1.8,6.8,0.8,10.1,1.9c0.7,0,1.4,0,2,0c5.6,0,11.3,0,16.9,0c1,0,2,0,3.1,0
	c0.7,0.1,1-0.3,1.1-0.9c1,0.1,2,0.1,3,0.2c-0.4,2.2-2.5,2.1-3.9,2.6c-42.4,14.4-84.7,28.8-127.1,43.1c-14.5,4.9-29.4,4.9-44.2,2.1
	c-23.8-4.4-47.8-8-71.2-14.1c-43.7-11.5-87.2-23.6-130.8-35.4c-31.6-8.5-63.2-16.9-94.8-25.4c-37.7-10.1-75.6-19.6-112.9-30.8
	c-21-6.2-41.1-15.3-61.6-23c-26-9.8-51.9-19.6-77.9-29.5c-23.8-9-47.6-18-71.3-27.1c-4.9-1.9-8.6-2.6-13.4,1.5
	c-15.5,13.2-31.8,25.5-47.7,38.3c-1.6,1.3-3.2,1.5-5,1.6c-9.4,0.9-17.7-0.3-24.8-7.9c-6-6.3-14.1-10.4-20.4-16.7
	c-5-5-9.2-10.6-12.1-17c-8.2-18.7-19.1-35.7-32.9-50.7c-1.1-1.2-2.4-7.4-6-1.7c-5-2.2-2.2-6.2-1.8-9.4c0.4-2.7,3.5-2.7,5.5-3.8
	c2.7-1.4,7.4,2,7.9-1.1C2024.4,227.4,2018.9,227.1,2016.5,225z"/>
<path class="st0" d="M695.6,275.3c-1.4-1.7-3.3-1.9-5.4-2.1c-17.8-1.6-35.6-3.3-53.4-4.9c-28.6-2.5-56.6-9.1-84.8-13.8
	c-31.5-5.3-63-10.8-94.5-16.3c-25.5-4.5-50.9-9-76.3-13.6c-13.1-2.4-26.2-3.7-39.5-4.4c-10.6-0.5-21.1-1.9-31.7-2.8
	c-1.6-0.1-3.5-0.3-4.9,0.3c-9.2,3.5-18.2,1.9-27.4,0.1c-6.7-1.3-13.4-3.1-20.1-3.3c-7-0.1-14.1,1.6-21.2,2.2c-10.5,0.9-21,1-31.4,0
	c-12.5-1.2-25-3.1-37.5-4.5c-8.7-1-17.4-1.5-24.3-8.5c-3.1-3.1-7.1-5-12.1-4.7c-6.1,0.3-10.2-4.5-14.7-7.7
	c-31-22.3-61.9-44.6-92.7-67.2c-4.2-3.1-9.2-5.2-12-10c7.8-0.3,15.4,0.7,24.3,2.5c-2.5,1.6-3.7,2.4-4.9,3.1c1.3,0.8,2.6,1.7,4.2,1.4
	c2-0.4,3.2,1.3,3.1,2.4c-0.4,3.7,1.8,3.6,4.4,3.8c9.2,0.8,18.5,1.7,27.7,2.9c8.7,1.2,17.3,3.1,26.1,2.9c0.5,1.6,1.9,1,2.9,1
	c5.7,0,11.4-0.2,17.1-0.3c0.7,0,1.5,0,2.2,0l0.4,0.1l0.4-0.1c7.1,1,14.5,0.5,21.2-1.2c9.2-2.4,17.7-0.3,26.5,0.9
	c9.1,1.2,18,3.7,27.3,3.7c6.5,0,12.5-3,19.1-2.2c4.4,0.5,8.8,1.9,13.2,0.9c0.6,0,1.2,0,1.8,0c0.7,0.1,1.3,0.2,2,0.4
	c7.6,1.2,15.2,2.2,23,1.6c2.2,1.2,4.6,1.3,7.1,1.3c7.5,0,14.9,1.2,22.3,2.5c9.2,1.6,18.2,4.3,27.6,4.5c5.2,1.9,10.6,2.7,16.1,2.9
	l0.4,0.2l0.5,0c1.1,1.8,2.7,0.7,4.1,0.9l0.4,0.2l0.4-0.1c1.5,1.9,3.5,0.7,5.2,0.9l0.4,0.2l0.4-0.1c1.5,1.9,3.5,0.7,5.2,0.9l0.4,0.2
	l0.4-0.1c1.4,1.9,3.5,0.5,5.3,1.1l-0.1,0c1.8,1.9,4,0.7,6,0.8c5.5,1.2,11.1,2.5,16.6,3.6c13.8,2.6,27.6,5.2,41.5,7.7
	c12.5,2.2,25.1,4.1,37.6,6.3c13.8,2.4,27.6,5.2,41.4,7.6c16.1,2.8,32.3,5.1,48.2,8.3c14.4,2.9,28.8,4.9,43.4,5.9
	c4.4,0.3,8.9,0.4,13.3,1c12.5,1.8,25.1,2.5,37.7,3.8c8.3,0.9,16.7,1.3,25.1,2.1c12.6,1.2,25.1,2.9,37.6,3.8
	c8.7,0.7,17.4,1.7,26.1,2.3c11.1,0.7,22.2,2.9,33.4,2.8c0.4,0.3,0.7,0.6,1.1,0.9c1,0,2.1,0,3.1,0c8.8,0.6,17.6,1.6,26.4,2.2
	c11.8,0.8,23.6,2.9,35.4,3.8c10.7,0.9,21.4,1.6,32.1,3.1c0.1,0.3,0,0.6-0.2,0.9c-0.6,0.1-1.2,0.1-1.8,0.2c-0.4,0.3-0.8,0.6-1.2,0.8
	c-0.6,0.1-1.2,0.1-1.8,0.2c-0.4,0.3-0.8,0.6-1.2,0.8c-0.6,0.1-1.2,0.1-1.8,0.2c-0.4,0.3-0.8,0.6-1.2,0.9c-0.6,0-1.2,0.1-1.8,0.1
	c-0.4,0.3-0.8,0.6-1.2,0.9c-0.3-0.1-0.6,0-0.8,0.1c-0.9-0.2-1.8-0.3-2.2,0.9c-0.3,0-0.6,0-0.8,0.2c-1.1,0-2.4-0.6-3.2,0.8
	c-0.3-0.1-0.6,0-0.8,0.2c-0.9-0.2-1.8-0.2-2.2,0.9c-0.3-0.1-0.6,0-0.8,0.1c-0.9-0.2-1.8-0.2-2.2,0.8c-0.3-0.1-0.6,0-0.8,0.2
	c-0.9-0.2-1.8-0.2-2.2,0.9c-0.3-0.1-0.6,0-0.8,0.1c-0.9-0.2-1.8-0.2-2.2,0.9c-0.3-0.1-0.6,0-0.8,0.2c-1.2,0-2.8-0.8-3.1,1.3
	c-0.4-0.5-0.8-0.5-1.1,0.1l-0.1,0.3c-0.8-1.5-1.4-0.4-2,0.2c-0.3-0.1-0.5-0.1-0.7,0.1c-0.9-0.1-1.8-0.1-2.3,0.9
	c-0.3-0.1-0.5-0.1-0.7,0.1c-0.9-0.1-1.8-0.1-2.3,0.9c-1.5-0.5-2.7,0.2-3.8,1.1c-1.2,0-2.5-0.5-3.3,0.9c-0.3-0.1-0.5-0.1-0.7,0.1
	c-0.9-0.1-1.8-0.1-2.3,0.9c-0.3-0.1-0.5-0.1-0.7,0.1c-0.9-0.1-1.8-0.1-2.3,0.9c-0.3-0.1-0.5-0.1-0.7,0.1c-0.9-0.1-1.8-0.1-2.3,0.9
	c-0.3-0.1-0.5-0.1-0.7,0.1c-0.9-0.1-1.8-0.1-2.3,0.9c-6.9,0.9-13.4,3.4-19.8,6.1c-2.6,1.1-3.4,3.4-4.2,5.8l0.2,0
	c-0.6,0.1-1,0.4-0.9,1.1c-1.4,2.9-4.3,3.2-6.9,3.9c-12.7,3-25.5,5.1-38,9c-8.1,2.5-15.8,6.4-24.2,8.1c-0.3,0.3-0.6,0.5-0.9,0.8
	C697,275.1,696.3,275.2,695.6,275.3z"/>
<path class="st0" d="M1913.6,490.5c-5.8,6.9-13.6,11.5-20.4,17.2c-11.3,9.5-23,18.5-34.4,27.8c-4,3.2-5.7,2.9-6.9-1.9
	c-2-7.6-2.8-15.3-3.4-23.1c-1.2-16.8-0.5-33.9-6.1-50.2c-5-14.6-10.8-28.9-16.9-43.1c-8.2-19.4-16.5-38.8-23.1-58.9
	c-3.2-9.6-7.5-18.8-13-27.4c-2.3-3.6-10.5-6.6-14.2-5.2c-0.8,0.3-1.4,1.3-2,2.1c-6.4,8.5-12.9,16.8-19,25.5c-2.2,3.2-5,3.5-7.8,2.5
	c-14.5-5.2-28.1-12-39.4-22.7c-17.6-16.5-18.5-38.2-7.1-57.6c10.4-17.6,20.8-35.1,31.3-52.6c1.1-1.8,1.8-4,4.1-4.7
	c0,0.6,0,1.3-0.1,1.9c-4.4,16.7-1.1,31.4,10.8,44.3c12.4,13.4,28.1,21.3,44.7,27.8c2.7,1.1,5.9,2.5,8.8-0.3
	c-1.2-0.6-2.4-1.1-3.5-1.6c-16.2-7.9-30.9-17.6-43.1-31.1c-5.4-6-10-12.3-12-20.2c-2-7.7,2-17.4,9.1-20.7c-7.1,9-5.7,18.3-3.1,27.6
	c1.4-0.6,0-2.3,1.2-3c0.8,2.4,1.6,4.8,2.3,7.2c1.3,4,1.3,4,4.3,5.7c-2.5-7.8-3.9-15.5-3.2-23.4c0.8-9.4,5-16.3,16.6-16.2
	c4.1,0.1,7.9,1.2,12.4,0.4c14.3-2.8,27.8-8.6,42.5-9.7c12.6-1,24.7-0.7,36.6,4c4,1.6,7.9,4.2,12.5,3.4c2.1-0.4,2.8,1.3,3.1,2.4
	c1.4,5,4.7,6.2,9.4,5.7c1.6-0.2,3.3,0.1,5,0.2c-5.6,9.3-13.2,16.9-19.5,25.6c-4.6,6.3-9.7,12.2-14.6,18.2c-3.3-5-6.2-10.2-10-14.8
	c-8.8-10.8-18.4-20.8-34.2-19.3c-3,0.3-5.5-1.1-7.7-2.6c-9.2-6.4-9-6.4-18.2-0.5c-2.5,1.6-3.3,3.5-2.9,6.2c0.4,2.7,1.4,5.4,1.5,8.1
	c0.1,4.3,2.2,6.1,6.3,6.9c2.9,0.6,4.1,3.5,5.3,6c0.9,2,1.8,4.5,4.4,4.9c7,1.1,14.3,5.5,20.8-1.6c0.5-0.5,1-0.3,1.7-0.1
	c3.4,1.2,6.9,1.8,10.6,1.7c1.8,0,3.5,1.1,4.6,2.6c4,5.9,8,11.8,10.9,18.3c4.7,10.8,8.1,22.1,12.6,32.9c9.8,23.8,20.3,47.4,30.4,71.1
	c7.7,17.8,13.4,36.1,13.9,55.7c0.3,11.8,1.3,23.6,3.2,35.2C1909.5,481.8,1909.3,487,1913.6,490.5z"/>
<path class="st0" d="M902.8,215.3c6.6,11.4,10.9,23.8,16.6,35.6c5,10.5,9.4,21.3,14.1,31.9c2.5,5.5,2.4,5.7-3.2,7.7
	c-44.5,16.2-89,32.4-133.5,48.5c-32.5,11.8-65,23.4-97.5,35.2c-16.1,5.8-32.1,11.8-48.2,17.8c-2.8,1.1-4.8,0.7-7-1.6
	c-18.1-19.7-37.4-38.4-56.3-57.3c-1.6-1.6-2.4-3.5-3.3-5.4c18.9-7.3,38.2-13.4,57.3-20.3c33.3-12.1,66.9-23,100.1-35.4
	c14-5.2,28.4-9.7,42.6-14.5c12.2-4.2,24.2-8.6,36.3-12.9c19.1-6.6,38.2-13.2,57.3-19.9C886.4,221.6,895,219.5,902.8,215.3z"/>
<path class="st0" d="M1653.5,366.2c-2.3,7.4-7.2,13.4-11,19.9c-7,12.1-14.6,23.8-21.6,35.8c-1.8,3.1-3.8,3.6-6.9,3
	c-11.4-2.1-21.9-6.6-32.4-11.1c-20.6-8.9-40.3-19.7-61.8-26.3c-18.6-5.7-37-11.8-55.8-16.8c-17.5-4.7-33.8-12-50.1-19.3
	c-20.3-9.1-40.6-18.2-61-27.1c-2.8-1.2-4.4-2.6-4.2-5.8c0.4-5.6-0.5-11.3,0.8-16.9c0.8-3.4,0-6.8-1.7-10.1
	c-2.8-5.6-6.6-10.9-6.2-17.6c0.1-1.3-0.6-2.5-2-2.4c-3.8,0.3-4.7-2.4-5.5-5.2c-2-7.5-6.3-14.3-7.8-22c-0.5-2.6-0.2-4.8,0.1-7.3
	c0.9-9.4,1.2-18.9,2.3-28.2c1.4-12.1,0.9-24.4,3.9-36.4c3.3,7.6,6.7,15.2,9.1,23.2c0.7,2.3,1.3,4.8,4.8,3.9c1.8-0.5,1.8,0.9,2.3,2.3
	c1.3,3.6,0.6,7.9,3.1,11.1c5.9,7.5,6.4,16.2,5.8,25.1c-0.1,2,0,4,0,6c0,10.7,0.1,10.6,10,15c28.7,12.8,57.2,25.7,85.9,38.4
	c5.1,2.3,10.2,5,16,5.1c0.2,0.5,0.4,1,1.1,0.8c0.6,0.1,1.2,0.1,1.9,0.2c0.2,0.5,0.5,1,1.1,0.8c0.7,0.1,1.3,0.2,2,0.3
	c0.4,1.1,1.2,0.9,2.1,0.7c0.6,0.1,1.2,0.1,1.8,0.2c0.2,0.5,0.5,1,1.1,0.8c0.7,0.1,1.3,0.2,2,0.3c16.8,5.9,34,10.6,51.1,15.7
	c15.1,5,30.2,9.9,44.8,16.2c0.2,0.5,0.5,1,1.1,0.8c0.3,0.1,0.6,0.2,0.9,0.2c0.2,0.5,0.5,1,1.1,0.8c0.3,0.1,0.6,0.2,0.9,0.2
	c1.2,1.1,2.4,2,4.2,1.8c0.3,0.1,0.5,0.2,0.8,0.2c0.2,0.5,0.5,1,1.1,0.8c0.3,0.1,0.6,0.2,0.9,0.2c10.4,6.3,21.9,10.1,32.9,15
	c5.6,2.5,11.1,5.3,17.3,5.8c0.3,0.1,0.5,0.2,0.8,0.2c0.2,0.5,0.5,1,1.1,0.8C1645.5,366.2,1649.5,366.5,1653.5,366.2z"/>
<path class="st0" d="M1292.5,234.1c0.5,22.1-2.3,44.1-2,66.2c0,2.6-0.9,4.2-4,3.3c-14.8-4-30.2-2.5-45.1-5.4c-9.5-1.9-18.8-4-27.7-8
	c-7.9-3.6-8.6-4.7-9.5-15.5c-4.1,2.7-7.1,6.2-10.5,9.1c-19.9,16.3-39.6,32.8-59.3,49.2c-4.6,3.8-7.8,8.6-11.1,13.4
	c-2.3,3.3-5.1,5.6-8.8,7c-2.2,0.9-4.6,1.7-3.3,5c0.4,1.1-0.1,2-1.1,2.5c-9.6,4.9-17.3,13.1-27.9,16.3c-2.8,0.9-5,1.1-7.4-0.9
	c-3.8-3.1-8.7-2.9-13.2-4c-1.9-0.5-3.4-0.7-4.1-2.9c-6.3-20.5-12.6-41-18.9-61.4c-0.1-0.5-0.1-1-0.1-1.5c1.1,0.2,2.2,0.4,3.3,0.7
	c4.6,1.3,10.1,0.4,13.7,3.9c3.1,3,5.5,2.4,8.9,1.3c10.4-3.3,18.2-11.1,27.8-15.7c4.5-2.2,4.9-4.2,2.7-8.2c5.6-1.1,10.7-3.4,13.9-8.1
	c4.9-7.1,9.7-14,17-18.9c7.7-5.2,14-12.3,21.8-17.4c0.7,0.1,1-0.3,1.2-0.8c1.3-1.1,2.5-2.1,3.8-3.2c0.7,0.2,1-0.3,1.2-0.8
	c1.3-1.1,2.5-2.1,3.8-3.2c0.7,0.1,1-0.3,1.2-0.8c0.9-1,1.9-1.9,2.8-2.9c1.5,0,2.5-0.9,3.2-2.1c0.3-0.3,0.6-0.6,0.8-0.9
	c16.3-12.4,32.2-25.3,45.9-40.6c3.9-4.3,11-6.7,18.5-2.8c6.6,3.4,12.3,8,17.6,12.9c7.1,6.4,12.9,14.1,19.1,21.3
	c-0.2,0.7,0.3,1,0.8,1.2c0.2,2.1-1.3,1.8-2.6,1.8c-4.8,0-9.5-0.1-14.3-0.1c-0.7-1.4-2-0.7-3.1-0.7c-1.3-0.1-2.6-0.2-3.9-0.3
	c-9.5-3.5-19.1-6.7-29.1-8.7c-0.3-0.1-0.5-0.2-0.8-0.2c-0.2-0.5-0.5-1-1.1-0.8c-3.4-0.4-6.7-0.8-10.1-1.1c-0.9-0.1-2.1-0.5-2.7,0.5
	c-0.7,1.4,0.7,2.1,1.5,2.7c4.3,3,8.8,5.7,14.1,6.8c0.2,0.5,0.5,1,1.1,0.8c0.6,0.1,1.2,0.1,1.9,0.2c0.2,0.5,0.5,1,1.1,0.8
	c0.6,0.1,1.2,0.1,1.9,0.2c0.2,0.5,0.5,1,1.1,0.8c0.7,0.1,1.3,0.2,2,0.3c5.5,2.1,11.3,2.9,17.1,3.7c1.3,0.1,2.6,0.2,3.9,0.3
	c1.5,1.7,3.4,0.5,5.1,0.6c0.5,0.4,1.1,1,1.6,1c9.2,0,18.2,1.9,27.4,1.1c4.3-0.3,1.4-2.5,0.8-4c0.2-0.7-0.3-0.9-0.8-1.1
	c0-0.3,0-0.6-0.2-0.9c0.2-0.7-0.3-0.9-0.8-1.1l0.1,0.1c-1.6-2.4-1.8-5.3-2.3-8c1.2-1.2,1.7,0.1,2,0.8c1.8,3.8,4.3,7.1,6.8,10.5
	c2.2,3.1,2.4,5.5-2.3,5.8c-0.6,0.1-0.7,0.4-0.7,0.9C1285.6,234.1,1289.1,234.1,1292.5,234.1z"/>
<path class="st1" d="M757.5,209.3c-11.2,0.1-22.2-2-33.4-2.8c-8.7-0.6-17.4-1.6-26.1-2.3c-12.6-0.9-25.1-2.6-37.6-3.8
	c-8.4-0.8-16.7-1.3-25.1-2.1c-12.6-1.3-25.2-2-37.7-3.8c-4.4-0.6-8.8-0.7-13.3-1c-14.6-1-29-2.9-43.4-5.9c-16-3.2-32.2-5.5-48.2-8.3
	c-13.8-2.4-27.6-5.2-41.4-7.6c-12.5-2.2-25.1-4.1-37.6-6.3c-13.8-2.4-27.7-5-41.5-7.7c-5.6-1.1-11.1-2.4-16.6-3.6
	c-1.9-1.3-3.9-0.9-6-0.8c0,0,0.1,0,0.1,0c-1.5-1.8-3.5-1-5.3-1.1l-0.4,0.1l-0.4-0.2c-1.5-1.6-3.4-0.9-5.2-0.9l-0.4,0.1l-0.4-0.2
	c-1.5-1.6-3.4-1-5.2-0.9l-0.4,0.1l-0.4-0.2c-1.1-1.5-2.7-1-4.1-0.9l-0.5,0l-0.4-0.2c-5.1-2.4-10.6-2.7-16.1-2.9
	c-9.4-0.2-18.4-2.9-27.6-4.5c-7.4-1.3-14.8-2.5-22.3-2.5c-2.5,0-4.9-0.1-7.1-1.3c-4.1-0.6-8.2-1.5-12.3-1.6c-3.6,0-7.1-2-10.7-0.1
	c-0.7-0.1-1.3-0.2-2-0.4c-0.6,0-1.2,0-1.8,0c-4.5,1-8.9-0.4-13.2-0.9c-6.5-0.8-12.6,2.2-19.1,2.2c-9.3,0-18.2-2.5-27.3-3.7
	c-8.8-1.2-17.2-3.3-26.5-0.9c-6.6,1.8-14,2.3-21.2,1.2c-0.3-0.2-0.6-0.2-0.8,0.1c-0.7,0-1.5,0-2.2,0c-6.6-1.4-13.3-0.5-20-0.8
	c-8.8,0.2-17.4-1.7-26.1-2.9c-9.2-1.2-18.5-2.1-27.7-2.9c-2.6-0.2-4.7-0.1-4.4-3.8c0.1-1.1-1.1-2.8-3.1-2.4
	c-1.6,0.3-2.8-0.6-4.2-1.4c1.2-0.8,2.4-1.5,4.9-3.1c-8.9-1.7-16.5-2.8-24.3-2.5c-1-1-2.6-1.3-1-3.6c4.1-5.9,11-9.1,14.4-15.8
	c0.6-1.3,4.1-1.3,6.3-1.5c21.1-1.6,42.3-2.7,63.5-1.8c5.9,0.3,12.7-0.1,16.8,6.1c2.8,5.3,7.1,1.8,10.8,1.9c0.7,0,1.5,0,2.2,0
	c0.3,0.3,0.5,0.5,0.8,0.8c9.9-0.3,19.6,1.3,29.2,3.2c8.7,2.1,17.3,4.5,26,6.3c15.6,3.2,31.2,5.6,47.1,6.5c0.3-0.1,0.6-0.1,0.8,0.1
	c1,1.4,2.5,0.9,3.8,0.9c6.7,2.2,13.8,2.4,20.7,4.1c11.8,2.9,24.1,2.7,36,5.5c10.2,2.4,20.7,3.4,31.1,5.3c11.1,2,22.1,4.3,33.2,6.4
	c5.6,1.1,11.1,3.1,16.9,2.6c6.8-0.6,13.9-0.2,20.1,1.3c10.7,2.6,21.6,0.4,32.1,2.7c3.1,0.6,5.8,2.8,9.2,2.2c1.1,1.5,2.7,1.1,4.2,0.9
	c0.3-0.1,0.6-0.1,0.8,0.1c9,4,18.5,4.5,28.1,4.9c4.6,2.3,9.6,0.8,14.4,1.9c13,2.8,26.2,4.8,39.3,7.1c3.7,0.6,7.3-0.2,10.6-1.3
	c3-1,5.3-0.5,7.8,0.9c5.3,2.9,10.5,6.5,16.3,8.2c7.5,2.2,15.5,2.9,23.4,4.3c14.4,2.4,28.8,3.9,43.5,4.2c2.7,0,5.8,0.4,8.7,1
	c2.6,1.1,5.2,2.4,8.1,0.7c1.3,0.1,2.6,0.2,3.9,0.3c3.6,2,7.4,0.7,11.1,0.9c14.3-0.5,28.7,0.9,42.9,2.3c16.2,1.6,32.6,2.5,48.7,5.8
	c3.1,0.6,6.6-0.1,9.4,2.1c2.4,2.3,4.8,4.3,7.9,1c0.7,0,1.4,0,2.1,0c-0.3,5.9,3,12-1,17.7c-1,0-2.1,0-3.1,0
	C758.2,209.9,757.8,209.6,757.5,209.3z"/>
<path class="st0" d="M1667.6,260.3c0.1,1.2-0.3,2.2-0.8,3.3c-10.1,18.5-20.3,37-30.1,55.7c-3.7,7-8.8,10-16.7,10.1
	c-13,0.1-25.9-0.7-38.7-2.9c-1.8-0.3-4.2-1-4.8,1.9c-0.9-0.2-1.9-0.3-2.8-0.6c-10.8-4.2-21.6-8.4-32.4-12.5
	c-6.3-2.4-12.7-4.8-19.1-7.2c0.1-0.3,0.2-0.6,0.3-0.9c3,1,6,2,9,2.9c6.6,2.4,13.1,4.9,19.8,7.1c0.9,0.3,2.1,2.3,3.3,0.2
	c0.2-0.1,0.5-0.1,0.8-0.1c5.6,4.5,12.7,4.9,18.9,7.7c-4.3-6.7-20.8-15.9-32.7-18.7c-0.3-0.1-0.5-0.2-0.8-0.2c-0.2-0.5-0.5-1-1.1-0.8
	c-11.7-3.8-23.4-7.5-35.1-11.3c-2.9-9.8-0.9-19.1,2.3-28.5c5.8-16.9,11.2-34,16.8-51c0.5-1.6,0.4-3.8,2.7-4.4
	c0.9,3.4,0,6.8,0.8,10.3c2.9,13.5,10.5,24.1,20.4,33c6.1,5.5,12.8,10.5,21.7,11c0.8,0.1,1.5,0.4,2-0.4c0.6-1-0.5-1.4-1.1-1.8
	c-2.5-1.8-5.2-3.3-7.6-5.1c-8.4-6.3-18.3-11.2-23.8-20.6c-7.7-12.9-8.8-26.7,1.3-37.1c0.2,0.3,0.5,0.5,0.7,0.8
	c0.2,2.1-2.4,3.5-1.7,6.1c7.3-7.7,15.4-8,24.2-3.4c2.7,1.4,5.7,2.3,8.6,3.3c9.3,3.2,19.1,3.4,28.7,4.9c8.5,1.3,16,3.8,19.5,12.7
	c0.4,1,0.6,2.5,2.6,2.4c7.6-0.5,13.6,3.7,19.9,7c4.8,2.5,9.2,5.7,12.6,10c0.9,1.1,2,2.4,1.5,4c-0.5,1.8-2.2,0.7-3.4,1
	c-7.2,1.6-13.6-0.8-19.9-3.8c-11.6-5.4-21.7-13.4-33.6-18.1c-3.9-1.6-7.2-2.8-6-8c0.2-1-0.3-1.8-1-2.7c-5.1-6.6-17.5-7.4-23.5-1.5
	c-2.1,2.1-4.2,4.3-6.4,6.3c-1.7,1.6-2.6,2.6-0.7,5.2c1.8,2.3,3.3,5.7,1.4,8.9c-2.3,3.9-1.9,6.7,2.5,8.7c1.1,0.5,1.9,1.9,2.9,2.7
	c5,4,9.4,9,16.3,10.1c3.4,0.5,6.8,0.8,10.1,1.5c10.7,2.4,21.6,2.8,32.4,4.7c5.9,1,11.9,0.2,17.8,1.1
	C1653.3,264.6,1660.5,263.6,1667.6,260.3z"/>
<path class="st1" d="M2966.5,435.1c-1,0-2,0-3.1,0c-5.6-1.5-11.3-1.5-16.9,0c-0.7,0-1.4,0-2,0c-2.8-3.6-6.7-1.2-10.1-1.9
	c-8.8-0.2-17.2-3.1-25.8-4.6c-13.4-2.3-26.9-4.6-40.2-7.5c-10.9-2.4-21.5-5.8-32.3-8.7c-23.8-6.4-47.5-12.8-71.3-19.2
	c-20.8-5.6-41.5-11.3-62.3-16.9c-20-5.4-40-10.6-60-16.1c-20.6-5.6-41.2-11.3-61.8-16.9c-20-5.4-40-10.9-60-16
	c-22.4-5.7-44.2-12.7-65.7-21.2c-15.3-6.1-30.8-11.6-46.2-17.4c2.8-1.3,4.4-3.9,6.7-5.8c2.7-2.3,4.4-7,9.6-4.1
	c1.4,0.8,2.4-1.2,2.6-2.8c1,0.1,2,0.2,3,0.3c0.4,0.3,0.8,0.6,1.1,0.9c1,0,1.9,0.1,2.9,0.1c0.4,0.3,0.8,0.6,1.1,0.9
	c3.5-0.5,6.4,2,9.9,2.1c0.4,0.3,0.8,0.6,1.2,0.8c0.6,0.1,1.2,0.1,1.8,0.2c3.5,4.7,7.4,5.8,13.9,3.9c15.3,10.9,32.7,17.2,50.4,23.1
	c23.8,7.9,48.4,12.7,72.7,18.8c26.4,6.7,53,12.6,78.9,21.3c26.3,8.9,52.8,16.9,79.3,25.3c12.6,4,25.5,7.4,37.8,12.4c-1,0-2,0.2-3,0
	c-12.1-3.1-24.2-6.4-36.3-9.5c-2.7-0.7-5.4-1.4-7.5-3.3c-1.1-0.5-2.2-1.4-3.2,0.1c-0.6-0.1-1.3-0.2-1.9-0.3
	c-0.4-0.3-0.8-0.6-1.2-0.8c-0.6-0.1-1.2-0.1-1.8-0.2c-0.3-1.4-0.8-2.2-2.1-0.7c-0.6-0.1-1.3-0.2-1.9-0.3c-0.4-0.3-0.8-0.6-1.2-0.8
	c-0.6-0.1-1.2-0.1-1.8-0.2c-0.1-0.9-0.5-1.6-1.4-1.8c-6.8-2-13.7-3.9-20.5-5.8c-0.9-0.2-1.6,0.2-2.1,0.9c-0.6-0.1-1.3-0.2-1.9-0.3
	c-0.4-0.3-0.8-0.6-1.2-0.8c-0.6-0.1-1.2-0.1-1.8-0.2c-0.3-1.4-0.8-2.2-2.1-0.7c-0.6-0.1-1.3-0.2-1.9-0.3c-0.4-0.3-0.8-0.6-1.2-0.8
	c-2.2,0.6-4.2-0.7-6.2-1.2c-8.9-2.2-17.4-5.7-26.5-6.9c-2,0.4-3.8-1.6-6.2-0.6c2.1,1.4,4.1,1.8,6.3,1.5c0.6,0.1,1.2,0.1,1.8,0.2
	c0.4,0.3,0.8,0.6,1.2,0.8c0.9,0.1,1.9,0.1,2.8,0.2c0.4,0.3,0.8,0.6,1.2,0.8c0.6,0.1,1.2,0.1,1.8,0.2c0.4,0.3,0.8,0.6,1.2,0.8
	c0.9,0.1,1.9,0.1,2.8,0.2c0.4,0.3,0.8,0.6,1.2,0.8c0.6,0.1,1.2,0.1,1.8,0.2c0.4,0.3,0.8,0.6,1.2,0.8c0.6,0.1,1.2,0.1,1.8,0.2
	c0.3,1.4,0.8,2.2,2.1,0.7c0.6,0.1,1.3,0.2,1.9,0.3c0.4,0.3,0.8,0.6,1.2,0.8c0.6,0.1,1.2,0.1,1.8,0.2c1.1,2.4,2.7,3.1,5.1,1.7
	c0.6,0.1,1.3,0.2,1.9,0.3c1.1,2.4,2.7,3.1,5.1,1.7c0.6,0.1,1.3,0.2,1.9,0.3c0.3,1.5,0.8,2.2,2.1,0.7c0.6,0.1,1.3,0.2,1.9,0.3
	c0.4,0.3,0.8,0.6,1.2,0.8c0.6,0.1,1.2,0.1,1.8,0.2c0.3,1.5,0.8,2.2,2.1,0.7c0.6,0.1,1.3,0.2,1.9,0.3c0.4,0.3,0.8,0.6,1.2,0.8
	c0.6,0.1,1.2,0.1,1.8,0.2c1.1,2.4,2.8,3,5.1,1.7c0.6,0.1,1.3,0.2,1.9,0.3c0.3,1.5,0.8,2.2,2.1,0.7c0.6,0.1,1.3,0.2,1.9,0.3
	c0.4,0.3,0.8,0.6,1.2,0.8c0.9,0.1,1.9,0.1,2.8,0.2c0.4,0.3,0.8,0.6,1.2,0.8c0.6,0.1,1.2,0.1,1.8,0.2c0.4,0.3,0.8,0.6,1.2,0.8l0.4,0
	l0.4,0.2c0.9,1,2,1,3.2,0.8l0.4,0l0.4,0.2c0.5,0.7,1.3,0.9,2.2,0.9c1,0,2.1-0.2,3,0.1c10.6,3.1,21.1,6.4,31.7,9.3
	c6,1.6,11.7,4.3,18,4.7c8.3,3.7,17.3,5.3,25.9,8c13.9,4.2,27.9,8.2,41.9,12.2c-0.6,0.6-2.1,0.1-2,1.4c0,0.2,1.5,0.3,2.2,0.4
	c4.2,1.9,8.3,3.7,13.1,2.9c1,0.1,2,0.2,3,0.2c0.4,0.3,0.7,0.6,1.1,0.8c0.3,0,0.6,0,0.9,0.2c0.3,0.3,0.7,0.6,1,0.8
	c8.6,1.7,17.2,3.5,25.9,5c9.3,1.6,18.7,2.8,28.1,4.2c1.7,1.1,3.3,1.2,4.9,0c1.3,0,2.7,0,4,0c0.4,1.7,1.7,1.8,3.1,1.8
	c9.3,0,18.7,0.4,27.9-0.3c3.2-0.2,7.4,1.1,10-2.5c1-0.1,1.9-0.2,2.9-0.3c2.9,2.1,5.4-0.2,8.1-0.7c2.3,0.3,4.1-2.1,7-0.7
	c-6.6,7-15.1,9.3-24,10.8c-1-0.1-2-0.1-3-0.2C2967.2,434.5,2966.9,434.8,2966.5,435.1z"/>
<path class="st2" d="M1531.6,310.1c-3-1-6-2-9-2.9c-0.1,0.3-0.2,0.6-0.3,0.9c6.4,2.4,12.7,4.8,19.1,7.2c10.8,4.2,21.6,8.4,32.4,12.5
	c0.9,0.3,1.9,0.4,2.8,0.6c7.1,2.8,14,6.1,20.1,10.8c11.5,9,25.4,12.3,38.7,17.1c6.6,2.3,13.2,4.8,18.2,9.9c-4.1,0.3-8.1,0-12-1.1
	c-0.4-0.3-0.8-0.5-1.1-0.8c-0.3,0-0.6,0-0.8-0.2c-0.2-1.6-1.7-1.9-2.9-2.4c-10.4-4.2-20.7-8.5-31.2-12.7c-5.3-2.1-10.1-5.7-16.1-5.8
	c-0.3,0-0.6,0-0.9-0.2c-0.4-0.3-0.8-0.5-1.1-0.8c-0.3,0-0.6,0-0.8-0.2c-0.6-2.3-2.5-1.8-4.2-1.8c-0.3,0-0.6,0-0.9-0.2
	c-0.4-0.3-0.8-0.5-1.1-0.8c-0.3,0-0.6,0-0.9-0.2c-0.4-0.3-0.8-0.5-1.1-0.8c-14.6-6.3-29.7-11.2-44.8-16.2c-0.3-1.9-2-2-3.4-2.5
	c-14.1-4.8-28.2-9.4-42.6-13.1c-1.6-0.4-3.4-1.8-5.1-0.1c-0.7-0.1-1.3-0.2-2-0.3c-0.4-0.3-0.8-0.5-1.1-0.8c-0.6-0.1-1.2-0.1-1.8-0.2
	c-0.3-1.3-0.8-2-2.1-0.7c-0.7-0.1-1.3-0.2-2-0.3c-0.4-0.3-0.8-0.5-1.1-0.8c-0.6-0.1-1.2-0.1-1.9-0.2c-0.4-0.3-0.8-0.5-1.1-0.8
	c-5.8-0.1-10.9-2.9-16-5.1c-28.7-12.7-57.2-25.7-85.9-38.4c-9.9-4.4-10-4.3-10-15c0-2-0.1-4,0-6c0.6-9,0.1-17.6-5.8-25.1
	c-2.5-3.2-1.8-7.5-3.1-11.1c-0.5-1.4-0.5-2.7-2.3-2.3c-3.5,0.9-4.1-1.6-4.8-3.9c-2.4-8-5.7-15.6-9.1-23.2c-0.1-2.2-0.5-4.1,2-5.9
	c2-1.4,2.6-4.5,3.2-7.4c0.7-3.7,2.5-7,7.4-7c1.8,0,3.6-1.6,5.4-1.6c2.9,0,5.6-2.6,8.6-1c6.7,3.5,11.6,8.8,14.3,15.9
	c0.9,2.5,4.2,6.5-2.2,7.4c-1.2,0.2-0.8,2.1-0.5,3.1c2.5,7.4,2.2,15.1,2.6,22.7c0.7,14.1,0.3,28.3,0.1,42.4c-0.1,4,1.4,5.8,5.1,7
	c17,5.8,33.8,12,50.8,17.7c6.9,2.3,14,4.1,21.5,3.7c1.2-0.1,2.7-0.8,3.9,1.1c5.3,8.8,14.8,11.4,23.5,14.8c8.6,3.3,17.5,6,26.3,8.9
	c11.7,3.8,23.4,7.5,35.1,11.3c0.4,0.3,0.8,0.5,1.1,0.8c0.3,0,0.6,0,0.8,0.2c1.3,3.2,4.6,3.6,7.2,4.7c3.4,1.5,6.9,2.9,10,5.1
	c-1,1.5-2.3,0.8-3.3,1.1c-0.3,0-0.5,0-0.8,0.1c-0.4-0.7-0.6-1.7-1.2-2c-6.3-3-12.9-5.2-19.7-6.8
	C1532.5,308.2,1531.9,309,1531.6,310.1z"/>
<path class="st3" d="M1667.6,260.3c-7.1,3.3-14.3,4.3-22.1,3.2c-5.8-0.9-11.8-0.1-17.8-1.1c-10.7-1.8-21.7-2.3-32.4-4.7
	c-3.3-0.7-6.8-1-10.1-1.5c-6.9-1-11.3-6-16.3-10.1c-1-0.8-1.7-2.2-2.9-2.7c-4.4-2-4.8-4.8-2.5-8.7c1.8-3.2,0.3-6.6-1.4-8.9
	c-1.9-2.5-1.1-3.6,0.7-5.2c2.2-2,4.3-4.2,6.4-6.3c5.9-5.9,18.3-5.1,23.5,1.5c0.7,0.8,1.2,1.6,1,2.7c-1.3,5.1,2,6.4,6,8
	c11.9,4.7,22.1,12.7,33.6,18.1c6.3,3,12.7,5.4,19.9,3.8c1.2-0.3,2.8,0.9,3.4-1c0.5-1.6-0.6-2.9-1.5-4c-3.5-4.2-7.8-7.5-12.6-10
	c-6.3-3.3-12.3-7.5-19.9-7c-2,0.1-2.2-1.5-2.6-2.4c-3.5-8.9-10.9-11.4-19.5-12.7c-9.6-1.5-19.4-1.7-28.7-4.9c-2.9-1-5.9-1.8-8.6-3.3
	c-8.8-4.6-16.9-4.2-24.2,3.4c-0.7-2.7,1.9-4,1.7-6.1c0.9-0.3,1.1-0.9,0.7-1.7c-0.4,0.3-0.9,0.6-1.3,1c-10.1,10.4-9,24.2-1.3,37.1
	c5.6,9.4,15.4,14.2,23.8,20.6c2.4,1.8,5.1,3.3,7.6,5.1c0.5,0.4,1.6,0.8,1.1,1.8c-0.5,0.8-1.1,0.4-2,0.4c-8.9-0.5-15.6-5.5-21.7-11
	c-9.9-8.9-17.5-19.5-20.4-33c-0.8-3.5,0.1-6.9-0.8-10.3c0.6-10.6,5.8-17.9,16.1-21.5c12.4-4.4,24.5-2.1,36.7-0.1
	c14.8,2.4,29.1,6.6,42.8,12.7c14.6,6.4,28.8,13.5,39.7,25.6c5.7,6.3,9.7,13.7,10.8,22.2C1672.9,253.2,1670.7,257.1,1667.6,260.3z
	 M1555.9,192.9c7.1,1.3,14,3.7,21.1,5C1570.6,193.9,1563.4,192.6,1555.9,192.9z"/>
<path class="st3" d="M2246.5,227.4c-17.6-6.5-35.2-13.1-52.8-19.5c-11.6-4.2-23.9-5.4-36-7.6c-7.6-1.3-15.2-2.8-22.8-4.9
	c16.7,17.8,32.4,36.1,44.3,57.6c-1,0.1-2.1,0.3-3.8,0.5c5.3,7.1,10.4,13.9,15.9,21.2c-7.3,1.2-13.9-0.3-20.4,0.9
	c-1,0.2-2.3-1.6-3.5-2.4c-9.9-7.7-20.2-15-29.5-23.3c-10.5-9.3-16.6-22-22.4-34.6c-5.8-12.7-14.8-22.9-23.7-33.3
	c-5.5-6.4-10.8-12.9-15.4-19.9c4.9-1,9.4,1.2,14,2c21.6,3.8,42.8,9.3,63.5,16.1c28.1,9.3,56.2,18.9,83.6,30.4
	c3.6,1.5,7.3,2.9,11,4.3c2.9,4.1,3.4,7.9-1.7,10.8C2246.6,226.2,2246.6,226.9,2246.5,227.4z"/>
<path class="st3" d="M1913.6,490.5c-4.3-3.4-4.1-8.7-4.9-13.2c-1.9-11.6-2.9-23.4-3.2-35.2c-0.5-19.6-6.3-37.9-13.9-55.7
	c-10.2-23.7-20.6-47.3-30.4-71.1c-4.5-10.8-7.9-22.1-12.6-32.9c-2.9-6.5-6.9-12.4-10.9-18.3c-1-1.5-2.8-2.6-4.6-2.6
	c-3.7,0.1-7.2-0.5-10.6-1.7c-0.7-0.3-1.3-0.4-1.7,0.1c-6.4,7.1-13.7,2.7-20.8,1.6c-2.6-0.4-3.5-2.9-4.4-4.9c-1.2-2.6-2.4-5.5-5.3-6
	c-4.1-0.8-6.2-2.6-6.3-6.9c-0.1-2.7-1.1-5.4-1.5-8.1c-0.4-2.6,0.4-4.5,2.9-6.2c9.1-6,9-6,18.2,0.5c2.2,1.5,4.7,2.9,7.7,2.6
	c15.8-1.5,25.4,8.4,34.2,19.3c3.7,4.6,6.7,9.9,10,14.8c11.5,18.6,23,37.1,34.4,55.7c2.5,4.1,4.4,8,3,13.6
	c-1.4,5.7-0.5,11.5,3.4,17.1c5.7,8.2,12.8,15.7,15.4,25.9c2,7.7,3.7,15.4,3.8,23.4c0,6.9,1.9,13.8,1.1,20.7c-0.1,1.1,0.9,2.7-1,3.4
	c-3.8-9-2.4-19.1-5.8-29.1c-0.1,2.8-0.2,4.7-0.4,7.8c-1.6-5.5-2.9-9.8-4.2-14.1c-0.1,3.3,0.5,6.4,1.4,9.4c2.5,9,3.9,18.2,7.2,27
	c0.6,5.3,2.1,10.7,1.6,15.9c-1.4,14.9-0.5,29.8-0.8,44.7C1914.5,488.8,1914.8,489.9,1913.6,490.5z"/>
<path class="st0" d="M1999.5,282.2c0.1,1.9-1.4,2.9-2.6,4.1c-15.3,15-30.5,30.2-46.1,44.9c-4.2,4-8.6,7.9-12.7,11.9
	c-0.8,0.8-1.5,1.8-3.2,1.5c0.1-0.7,0.1-1.4,0.4-1.9c3.1-6.5,2.7-12.9-0.8-19.1c-3.3-5.9-1.8-12.4-1.9-18.6c0-3.5-0.7-6.1-4-7.8
	c-1.3-0.7-2.4-1.8-3.4-2.9c-4.5-5.5-4.3-5.7,0.6-11c15-16.4,29.7-33.1,44.7-49.5c3.7-4.1,7.2-8.5,11.9-11.6c2.6,3.5,5.2,7.1,8.9,9.2
	c2.9,1.7,3.2,3.6,3.1,6.4c-0.2,6.2-0.8,12.8,1.7,18.4c3.6,8.2,5.8,16.1,2,24.6C1997.4,282.9,1998.9,282.1,1999.5,282.2z"/>
<path class="st3" d="M1889.6,222.5c-1.7-0.1-3.3-0.4-5-0.2c-4.7,0.6-8-0.7-9.4-5.7c-0.3-1.1-0.9-2.8-3.1-2.4
	c-4.6,0.8-8.5-1.8-12.5-3.4c-11.8-4.7-24-4.9-36.6-4c-14.7,1.1-28.2,6.9-42.5,9.7c-4.5,0.9-8.3-0.3-12.4-0.4
	c-11.6-0.2-15.8,6.7-16.6,16.2c-0.6,7.9,0.7,15.6,3.2,23.4c-3-1.7-3-1.7-4.3-5.7c-0.8-2.4-1.6-4.8-2.3-7.2c-1.2,0.7,0.2,2.4-1.2,3
	c-2.6-9.3-4.1-18.6,3.1-27.6c-7.1,3.3-11.1,13.1-9.1,20.7c2.1,7.9,6.6,14.2,12,20.2c12.2,13.5,26.9,23.2,43.1,31.1
	c1.1,0.5,2.3,1,3.5,1.6c-3,2.8-6.1,1.4-8.8,0.3c-16.6-6.5-32.3-14.4-44.7-27.8c-11.9-12.9-15.2-27.5-10.8-44.3
	c0.2-0.6,0.1-1.2,0.1-1.9c4.7-14.9,16.4-21.3,31.3-22.1c17.3-0.9,34.7-0.8,51.9-3.7c10.7-1.8,21.7-2.2,32.4-4.2
	c4.6-0.8,9.2-1.7,13.3-4c8.2-4.7,14.7,1.1,21.8,3.3c0.9,0.3,1.6,2.3,1.6,3.9c0,2.4,1.2,4.8,2.8,6c4.8,3.5,4.9,7.6,3.2,12.5
	C1892.2,214.1,1892.4,218.8,1889.6,222.5z"/>
<path class="st1" d="M1165.7,229.5c-0.3,0.3-0.6,0.6-0.8,0.9c-1.6-0.1-3,0.2-3.2,2.1c-0.9,1-1.9,1.9-2.8,2.9
	c-0.4,0.3-0.8,0.6-1.2,0.8c-1.3,1.1-2.5,2.1-3.8,3.2c-0.4,0.3-0.8,0.6-1.2,0.8c-1.3,1.1-2.5,2.1-3.8,3.2c-0.4,0.3-0.8,0.6-1.2,0.8
	c-7.9,5.1-14.1,12.1-21.8,17.4c-7.3,4.9-12.1,11.9-17,18.9c-3.3,4.7-8.3,7-13.9,8.1c2.2,3.9,1.8,6-2.7,8.2
	c-9.5,4.6-17.3,12.4-27.8,15.7c-3.4,1.1-5.8,1.7-8.9-1.3c-3.6-3.5-9.1-2.6-13.7-3.9c-1.1-0.3-2.2-0.5-3.3-0.7
	c-1.8-5.2-2.9-10.7-4-16.1c-1-5.6,2.1-9.1,6.7-11.1c4.5-1.9,9.1-3.9,14.2-4.3c4.4,3.9,8.2,2.9,11.1-2.7c5.3-2.2,11-3,16.5-4.4
	c9.5-2.4,16.9-8.7,25-13.8c1.5-0.9,2.9-2,4.3-3c0.4-0.3,0.8-0.6,1.2-0.8c0.6-0.4,1.2-0.8,1.8-1.2c2.3,0.2,3.9-0.5,4.1-3.1
	c0.6-0.6,1.2-1.2,1.9-1.9c0.4-0.4,0.8-0.7,1.2-1.1c0.2-1.1,1.2-0.8,1.9-0.9c7.6-0.4,11.2-7.1,16.6-11c2.7-1.9,6-3.9,5.5-8.2
	c0.6-0.6,1.2-1.2,1.9-1.9c0.4-0.3,0.8-0.6,1.2-0.8c2.7-2.4,5.3-4.8,8-7.2c-0.3,6.2-3.2,11.3-7.1,16c-1,1.2-2.5,2.8-1,4.4
	c1.5,1.5,3,0.2,4.3-0.9c2.4-2.1,5.3-3.3,8.2-4.5C1163.7,227.3,1165.1,227.1,1165.7,229.5z"/>
<path class="st0" d="M1015.7,323c-3.1,4.6-8.3,3.7-12.5,3.9c-8.7,0.6-17.6,1.1-26.4-0.6c-1.8-0.3-3.1-0.7-3.9-2.5
	c-9.1-22.5-18.3-44.9-27.4-67.4c11.7,1.7,23.4,2.7,35.2,0.9c4.1-0.6,8.4-0.7,11.9-3.4c4.6,16.4,11.1,32.1,16.4,48.2
	C1011.3,309.1,1014.5,315.7,1015.7,323z"/>
<path class="st4" d="M820.8,244.4c-12.1,4.3-24.1,8.8-36.3,12.9c-14.2,4.9-28.6,9.3-42.6,14.5c-33.2,12.3-66.8,23.3-100.1,35.4
	c-19,6.9-38.4,13-57.3,20.3c-0.9-2.6,4.4-19.9,6.6-20.2c3.5-0.5,6.8-1.4,10.3-2.2c0.4-0.3,0.8-0.6,1.2-0.9c0.2-0.2,0.5-0.2,0.8-0.1
	c4.5-0.2,8.3-1.5,10.2-6.1c0,0-0.1,0.1-0.1,0.1c0.6,0,1.1-0.1,1.2-0.9c11.1-1.7,22.3-3,33.4-5.3c10.2-2.1,19.6-6.8,29.7-9.5
	c6.2-1.7,12-4.8,18-7.2c0.7-0.1,1.4-0.2,2-0.2c0.7,0.1,0.8-0.3,0.9-0.8c8.4-1.8,16.1-5.6,24.2-8.1c12.5-3.9,25.3-6,38-9
	c2.6-0.6,5.5-1,6.9-3.9c0.7,0,1-0.4,0.9-1.1c0,0-0.2,0-0.2,0c3.8-0.2,4.2-2.8,4.2-5.8c6.4-2.7,12.8-5.2,19.8-6.1
	c0.9,0.2,1.9,0.3,2.3-0.9c0.2-0.2,0.4-0.2,0.7-0.1c1,0.2,1.9,0.3,2.3-0.9c0.2-0.2,0.4-0.2,0.7-0.1c1,0.2,1.9,0.3,2.3-0.9
	c0.2-0.2,0.4-0.2,0.7-0.1c1,0.2,1.9,0.3,2.3-0.9c0.2-0.2,0.4-0.2,0.7-0.1c1.3,0.3,2.5,0.5,3.3-0.9c1.1-0.9,2.3-1.6,3.8-1.1
	c0.9,0.1,1.9,0.3,2.3-0.9c0.2-0.2,0.5-0.2,0.7-0.1c1,0.2,1.9,0.3,2.3-0.9c0.2-0.2,0.4-0.2,0.7-0.1c0.7-0.1,1.3-0.2,2-0.2
	c0,0,0.1-0.3,0.1-0.3C820.4,235.9,818.2,240.4,820.8,244.4z"/>
<path class="st2" d="M1165.7,229.5c-0.5-2.4-2-2.2-3.7-1.4c-2.9,1.2-5.8,2.4-8.2,4.5c-1.3,1.1-2.8,2.4-4.3,0.9c-1.5-1.5,0-3.2,1-4.4
	c3.9-4.7,6.8-9.7,7.1-16c6-6.5,12.2-12.8,17.6-19.9c0.3-0.4,0.9-0.7,1-1.1c1.8-8.7,8.5-10.4,15.8-12.3c7-1.9,12.7-6.9,18.4-11.3
	c3.8-2.9,7.6-3.1,11.4-2.2c13.5,2.8,25.4,8.9,35.8,18c0.4,0.3,0.8,0.5,1.1,0.8c1,1,1.9,1.9,2.9,2.9c-0.2,1.8,0.6,3.1,1.7,4.5
	c4.4,5.3,8.8,10.7,13.1,16.1c1.2,1.5,3.9,3.1,0,4.7c-0.6-0.6-1.3-1.3-1.9-1.9c-0.3-0.4-0.5-0.8-0.8-1.2c-2.9-3.9-7.5-5.9-10.5-9.3
	c-5.2-5.8-10.9-11-16.2-16.7c-0.8-0.9-1.7-1.5-2.9-0.2c2.9,3.4,5.7,6.8,8.5,10.1c0.1,1.5,0,3.2,2.4,2.3l0.1,0.1
	c-0.7,1.9,0.3,3.1,1.5,4.4c3.8,4.3,7.1,9.1,11.3,13c3.6,3.4,5.7,8.5,10.8,10.4c0,0-0.1-0.1-0.1-0.1c0.3,0.4,0.5,0.8,0.8,1.1
	c0.1,0.3,0.2,0.6,0.2,0.9c0.3,0.4,0.5,0.8,0.8,1.1c0.6,1.5,3.4,3.6-0.8,4c-9.2,0.7-18.3-1.2-27.4-1.1c-0.5,0-1.1-0.7-1.6-1
	c-1.4-2.7-3.2-2.1-5.1-0.6c-1.3-0.1-2.6-0.2-3.9-0.3c-5.1-3.8-11-4.4-17.1-3.7c-0.7-0.1-1.3-0.2-2-0.3c-0.4-0.3-0.8-0.5-1.1-0.8
	c-0.6-0.1-1.2-0.1-1.9-0.2c-0.4-0.3-0.8-0.5-1.1-0.8c-0.6-0.1-1.2-0.1-1.9-0.2c-0.4-0.3-0.8-0.5-1.1-0.8c-5.2-1.2-9.8-3.8-14.1-6.8
	c-0.8-0.6-2.2-1.3-1.5-2.7c0.5-1,1.8-0.6,2.7-0.5c3.4,0.3,6.7,0.7,10.1,1.1c0.4,0.3,0.8,0.5,1.1,0.8c0.3,0,0.6,0,0.8,0.2
	c3.2,4,8.2,4.1,12.4,5.4c5.4,1.6,10.6,4.7,16.6,3.4c1.3,0.1,2.6,0.2,3.9,0.3c0.6,2,1.6,2.2,3.1,0.7c4.8,0,9.5,0.1,14.3,0.1
	c1.3,0,2.8,0.4,2.6-1.8c-0.3-0.4-0.5-0.8-0.8-1.2c-6.2-7.2-12-14.9-19.1-21.3c-5.4-4.9-11.1-9.5-17.6-12.9
	c-7.4-3.9-14.6-1.6-18.5,2.8C1197.8,204.2,1182,217.1,1165.7,229.5z M1240.7,179.1c-0.4-0.2-0.6-0.5-1-0.6c-0.2,0-0.5,0.3-0.7,0.4
	c0.3,0.3,0.6,0.6,0.9,0.7C1240,179.6,1240.3,179.3,1240.7,179.1z"/>
<path class="st2" d="M2246.5,227.4c0.1-0.5,0.1-1.2,0.4-1.4c5.1-2.9,4.6-6.7,1.7-10.8c4,1.4,8,2.8,12,4.2c0.4,0.3,0.8,0.5,1.1,0.8
	c1.3,0.4,2.6,0.8,3.9,1.2c0.4,0.3,0.7,0.5,1.1,0.8c2.3,0.7,4.6,1.5,6.9,2.2c0.4,0.3,0.8,0.5,1.1,0.8c9.5,3.7,18.8,8,28.6,10.8
	c27.5,7.9,55.1,15.4,82.1,25.1c13.1,4.7,26.3,8.8,39.5,13.2c1,0.3,1.8,1.1,2.8,1.7c-0.3,1.6-1.2,3.6-2.6,2.8
	c-5.2-2.9-6.8,1.8-9.6,4.1c-2.3,1.9-3.9,4.5-6.7,5.8c-19.6-7.5-39.2-14.9-58.8-22.4c-24.4-9.2-48.9-18.4-73.3-27.6
	C2266.5,235,2256.5,231.2,2246.5,227.4z"/>
<path class="st1" d="M820.8,244.4c-2.6-4-0.4-8.5-1.5-12.7c0.3-0.6,0.7-0.6,1.1-0.1c1-0.4,2.1-0.8,3.1-1.3c0.3-0.2,0.5-0.2,0.8-0.2
	c0.7-0.3,1.5-0.6,2.2-0.9c0.3-0.2,0.5-0.2,0.8-0.1c0.8,0,1.6-0.1,2.2-0.9c0.3-0.2,0.5-0.2,0.8-0.2c0.8,0,1.6-0.1,2.2-0.8
	c0.3-0.2,0.5-0.2,0.8-0.1c0.8,0,1.6-0.1,2.2-0.9c0.3-0.2,0.5-0.2,0.8-0.2c1.2,0.1,2.3,0.1,3.2-0.8c0.3-0.2,0.5-0.2,0.8-0.2
	c0.8,0,1.6-0.1,2.2-0.9c0.2-0.2,0.5-0.2,0.8-0.1c0.4-0.3,0.8-0.6,1.2-0.9c0.6,0,1.2-0.1,1.8-0.1c0.4-0.3,0.8-0.6,1.2-0.9
	c0.6-0.1,1.2-0.1,1.8-0.2c0.4-0.3,0.8-0.6,1.2-0.8c0.6-0.1,1.2-0.1,1.8-0.2c0.4-0.3,0.8-0.6,1.2-0.8c0.6-0.1,1.2-0.1,1.8-0.2
	c0.7-0.1,1.5,0.5,1.9-0.5c-0.6-0.1-1.2-0.3-1.8-0.4c-10.7-1.5-21.4-2.2-32.1-3.1c-11.8-1-23.6-3-35.4-3.8
	c-8.8-0.6-17.6-1.7-26.4-2.2c4-5.7,0.7-11.8,1-17.7c7.6,1.3,15.3,2.7,22.9,3.9c11.9,1.8,23.8,3.5,35.7,5.3
	c9.6,1.5,19.2,3.1,28.8,4.7c12.2,2,24.3,4.2,36.5,5.9c5.5,0.8,11.1,0.6,16.3,3.1c-7.8,4.2-16.4,6.3-24.7,9.2
	C859,231.2,839.9,237.8,820.8,244.4z"/>
<path class="st1" d="M992.6,253.9c-3.5,2.8-7.8,2.8-11.9,3.4c-11.8,1.8-23.5,0.8-35.2-0.9c-1.4-0.9-1.6-1.6,0.2-2.2
	c2.9-1,5.7-2,8.6-3c6.6-2.2,8.7-6,6.9-12.5c-1.2-4.4-3.4-8.4-7-11.7c2.1-1.3,5.3-0.2,5.8-3.2c0.4-2.4-1.2-4-2.9-5.5
	c-1.2-1.1-1-1.7-0.2-3.1c2-3.6,5.2-5.6,8.6-7.4c0.6-0.3,1.5-0.8,1.7-0.6c5.7,4.7,5.8-2.6,8.7-3.9c0.6-0.3,1-0.8,1.6-1.2
	c2.3,0.2,3.4-0.7,3.1-3.1c1.3-1.3,2.6-2.6,3.9-3.9c0.4-0.3,0.8-0.6,1.2-0.8c1,0,1.9,0,2.9,0c0.2,2.5-1.6,4.1-2.9,5.9
	c-0.3,0.4-0.6,0.8-0.8,1.2c0,0,0.1-0.1,0.1-0.1c-6.6,2.9-9.4,12.3-5,18.9c2.5,3.7,2.8,6.9,1.1,11.1c-1.7,4.1-3.2,8.9,0.8,12.9
	c1.6,1.3,3.3,2.6,4.9,3.9c0.5,0.8,1.3,1,2.2,1c0.3,0,0.6,0,0.9,0.1c0.3,0.3,0.6,0.6,1,0.9l-0.1-0.1c0.4,1,1,1.6,2,2.1
	C992.6,252.8,992.6,253.4,992.6,253.9z"/>
<path class="st3" d="M1999.5,282.2c-0.7-0.2-2.2,0.7-1.2-1.4c3.8-8.5,1.6-16.5-2-24.6c-2.5-5.7-2-12.2-1.7-18.4
	c0.1-2.8-0.2-4.7-3.1-6.4c-3.7-2.1-6.3-5.7-8.9-9.2c2.9-5.4,7.6-2.2,11.1-1.8c7.7,0.9,15.2,2.9,22.8,4.5c2.4,2.1,7.9,2.3,7.5,5.1
	c-0.5,3.2-5.2-0.3-7.9,1.1c-2,1.1-5.1,1.1-5.5,3.8c-0.4,3.2-3.2,7.1,1.8,9.4c1,1.1,2,2.2,3,3.3c0.9,1.1,2.6,1.8,2.1,3.6
	c-0.6,2.1-2.7,0.5-3.8,1.6c0.7,1.6,0.7,3.7,3.1,4.4c2,0.6,3.6,1.9,2.7,4.2c-1.4,3.3-2.9,6.6-6.7,7.8c-1,0.3-1-1-1.5-1.5
	c-1.6-1.7-0.2-3.9-1.2-5.9C2008.2,269.7,2006.6,277.4,1999.5,282.2z"/>
<path class="st0" d="M985.5,200.3c1.3-1.8,3.1-3.4,2.9-5.9c2.6,0.4,2.6,2.8,3.2,4.5c7.2,21.8,14.3,43.6,21.6,65.4
	c0.8,2.4,0.6,4.2-1,6.3c-2.1,2.7-2.8,6.4-5.6,8.7c-1.7-0.9-1.8-2.7-2.3-4.2c-6.8-19.7-13.6-39.5-20.4-59.2c-0.6-1.8-0.4-4.1-2.7-5
	c-0.5-3.8,2.9-6.1,3.7-9.4c0,0-0.1,0.1-0.1,0.1C985.2,201.3,985.7,201,985.5,200.3z"/>
<path class="st4" d="M981.1,210.8c2.3,0.9,2.1,3.2,2.7,5c6.9,19.7,13.6,39.5,20.4,59.2c0.5,1.5,0.6,3.3,2.3,4.2
	c-1.3,3.7-1.2,7.2,0.1,10.9c3.4,9.6,6.6,19.2,10,28.8c0.5,1.6,2.1,3.3-1,4c-1.2-7.3-4.4-13.9-6.7-20.8
	c-5.3-16.1-11.7-31.9-16.4-48.2c0-0.6,0-1.1,0-1.7c0.5-0.4,2.1,0.9,1.5-0.8c-0.6-1.8-0.7-4-2.5-5.2l0,0.1c0.2-1.2,0.1-2.3-1-3.1
	l0,0.1c0.1-1.2,0.1-2.3-1-3.1l0,0.1c0.1-1.2,0.1-2.3-1-3.1l0,0.1c-0.3-4.5-2.6-8.5-3.8-12.8C983.6,219.9,980.7,215.8,981.1,210.8z"
	/>
<path class="st0" d="M2730.5,375.3l-0.4-0.2l-0.4,0c-0.8-1.5-2-0.9-3.2-0.8l-0.4-0.2l-0.4,0c-0.4-0.3-0.8-0.6-1.2-0.8
	c-0.6-0.1-1.2-0.1-1.8-0.2c-0.4-0.3-0.8-0.6-1.2-0.8c-0.9-0.1-1.9-0.1-2.8-0.2c-0.4-0.3-0.8-0.6-1.2-0.8c-0.6-0.1-1.3-0.2-1.9-0.3
	c-0.4-1-1.3-0.8-2.1-0.7c-0.6-0.1-1.3-0.2-1.9-0.3c-1.6-0.9-3.2-1.7-5.1-1.7c-0.6-0.1-1.2-0.1-1.8-0.2c-0.4-0.3-0.8-0.6-1.2-0.8
	c-0.6-0.1-1.3-0.2-1.9-0.3c-0.4-1-1.3-0.8-2.1-0.7c-0.6-0.1-1.2-0.1-1.8-0.2c-0.4-0.3-0.8-0.6-1.2-0.8c-0.6-0.1-1.3-0.2-1.9-0.3
	c-0.4-1-1.3-0.8-2.1-0.7c-0.6-0.1-1.3-0.2-1.9-0.3c-1.6-0.9-3.2-1.7-5.1-1.7c-0.6-0.1-1.3-0.2-1.9-0.3c-1.6-0.9-3.2-1.7-5.1-1.7
	c-0.6-0.1-1.2-0.1-1.8-0.2c-0.4-0.3-0.8-0.6-1.2-0.8c-0.6-0.1-1.3-0.2-1.9-0.3c-0.4-1-1.3-0.8-2.1-0.7c-0.6-0.1-1.2-0.1-1.8-0.2
	c-0.4-0.3-0.8-0.6-1.2-0.8c-0.6-0.1-1.2-0.1-1.8-0.2c-0.4-0.3-0.8-0.6-1.2-0.8c-0.9-0.1-1.9-0.1-2.8-0.2c-0.4-0.3-0.8-0.6-1.2-0.8
	c-0.6-0.1-1.2-0.1-1.8-0.2c-0.4-0.3-0.8-0.6-1.2-0.8c-0.9-0.1-1.9-0.1-2.8-0.2c-0.4-0.3-0.8-0.6-1.2-0.8c-0.6-0.1-1.2-0.1-1.8-0.2
	c-0.2-0.3-0.2-0.6-0.1-0.9c9.1,1.1,17.7,4.6,26.5,6.9c2,0.5,3.9,1.7,6.2,1.2c0.4,0.3,0.8,0.6,1.2,0.8c0.6,0.1,1.3,0.2,1.9,0.3
	c0.4,1,1.2,0.9,2.1,0.7c0.6,0.1,1.2,0.1,1.8,0.2c0.4,0.3,0.8,0.6,1.2,0.8c0.6,0.1,1.3,0.2,1.9,0.3c8,2.2,16,4.5,24.1,6.7
	c0.6,0.1,1.2,0.1,1.8,0.2c0.4,0.3,0.8,0.6,1.2,0.8c0.6,0.1,1.3,0.2,1.9,0.3c0.4,1,1.3,0.8,2.1,0.7c0.6,0.1,1.2,0.1,1.8,0.2
	c0.4,0.3,0.8,0.6,1.2,0.8c0.6,0.1,1.3,0.2,1.9,0.3c1.1,1.2,2.2,1.5,3.2-0.1c2.2,1.9,4.8,2.6,7.5,3.3c12.1,3.1,24.2,6.4,36.3,9.5
	c0.9,0.2,2,0,3,0c2.2,2.1,5.1,1.9,8,2.3c-1.1,1.6-2.6,1.4-4,1.8c-6.3-0.5-12-3.1-18-4.7c-10.6-2.9-21.2-6.2-31.7-9.3
	c-0.9-0.3-2,0-3-0.1C2732.3,375.1,2731.4,375.2,2730.5,375.3z"/>
<path class="st3" d="M1276.4,213.3c3.9-1.5,1.2-3.2,0-4.7c-4.3-5.4-8.7-10.8-13.1-16.1c-1.1-1.3-1.9-2.7-1.7-4.5
	c14.2,12.7,25.2,27.6,30.9,46c-3.5,0-6.9,0-10.4,0c0-0.5,0.1-0.8,0.7-0.9c4.7-0.4,4.5-2.8,2.3-5.8c-2.4-3.4-4.9-6.7-6.8-10.5
	c-0.3-0.7-0.8-2-2-0.8c0,0,0.2,0.2,0.2,0.2C1277.9,215.3,1276,214.4,1276.4,213.3z M1282.6,218.2l-0.3-0.3L1282.6,218.2
	c0,0.3,0.1,0.6,0.2,0.9c0.1-0.1,0.3-0.2,0.4-0.2C1283,218.7,1282.8,218.4,1282.6,218.2z"/>
<path class="st3" d="M227.9,116.2c-15.9-0.9-31.6-3.3-47.1-6.5c-8.7-1.8-17.3-4.2-26-6.3c9.4,0.2,18.5,2.8,27.7,4.2
	c10.5,1.7,21,3.6,31.4,5.6C218.6,114.2,223.2,115.2,227.9,116.2z"/>
<path class="st0" d="M1913.8,427.3c-3.3-8.8-4.7-18-7.2-27c-0.8-3-1.5-6.2-1.4-9.4c1.3,4.3,2.6,8.6,4.2,14.1
	c0.2-3.1,0.3-5.1,0.4-7.8c3.4,10,2,20.1,5.8,29.1C1915.2,426.9,1914.6,427.2,1913.8,427.3z"/>
<path class="st3" d="M2976.5,425.3c-2.5,3.7-6.8,2.3-10,2.5c-9.3,0.7-18.6,0.3-27.9,0.3c-1.4,0-2.7-0.1-3.1-1.8
	C2949.2,425.9,2962.9,426.7,2976.5,425.3z"/>
<path class="st3" d="M1146.5,223.1c0.5,4.3-2.8,6.2-5.5,8.2c-5.3,3.9-8.9,10.5-16.6,11C1131.2,235.1,1140,230.4,1146.5,223.1z"/>
<path class="st3" d="M464.8,153.2c-9.6-0.4-19.2-0.9-28.1-4.9C446.2,149.2,455.5,150.9,464.8,153.2z"/>
<path class="st3" d="M1066.6,272.4c-2.8,5.7-6.6,6.6-11.1,2.7C1059.1,273.7,1062.7,272.5,1066.6,272.4z"/>
<path class="st2" d="M2462.4,285.2c-6.5,1.9-10.4,0.8-13.9-3.9C2453.2,282.5,2458,283,2462.4,285.2z"/>
<path class="st3" d="M2866.6,415.1c-4.8,0.9-8.9-1-13.1-2.9l0,0c0.8-0.1,1.6-0.2,2-1.1C2859.3,412.3,2863.6,411.8,2866.6,415.1z"/>
<path class="st3" d="M613.5,298c-1.8,4.6-5.7,5.9-10.2,6.1C606.4,301.6,609.8,299.5,613.5,298z"/>
<path class="st2" d="M122.6,99.5c-3.7-0.2-8.1,3.4-10.8-1.9C115.3,98.6,118.8,99.6,122.6,99.5z"/>
<path class="st1" d="M760.6,192.4c-3.1,3.4-5.5,1.3-7.9-1C755.4,190.5,757.9,192.3,760.6,192.4z"/>
<path class="st2" d="M651.8,181.2c-3.7-0.2-7.5,1.1-11.1-0.9C644.4,180.6,648.2,179.2,651.8,181.2z"/>
<path class="st2" d="M636.7,180.1c-2.9,1.6-5.5,0.4-8.1-0.7C631.4,179.6,634.2,178.3,636.7,180.1z"/>
<path class="st3" d="M2987.5,424.4c-2.7,0.4-5.2,2.7-8.1,0.7C2982,423.3,2984.8,424.5,2987.5,424.4z"/>
<path class="st3" d="M1119.5,246.1c-0.2,2.6-1.8,3.3-4.1,3.1C1116.5,247.8,1117.5,246.2,1119.5,246.1z"/>
<path class="st3" d="M980.5,199.1c0.3,2.4-0.8,3.3-3.1,3.1C978.5,201.2,979.5,200.1,980.5,199.1z"/>
<path class="st3" d="M2931.5,426.3c-1.6,1.3-3.3,1.1-4.9,0C2928.2,426.3,2929.8,426.3,2931.5,426.3z"/>
<path class="st3" d="M232.5,117.2c-1.4,0-2.8,0.5-3.8-0.9C230,116.7,231.6,115.3,232.5,117.2z"/>
<path class="st3" d="M435.9,148.2c-1.5,0.2-3,0.6-4.2-0.9C433.1,147.5,434.8,146.5,435.9,148.2z"/>
<path class="st3" d="M2853.5,412.2c-0.8-0.1-2.2-0.2-2.2-0.4c-0.1-1.3,1.4-0.8,2-1.4l0.2,0C2853.5,411,2853.5,411.6,2853.5,412.2
	L2853.5,412.2z"/>
<path class="st1" d="M2853.5,412.2c0-0.6,0-1.2-0.1-1.8c0.8-0.2,1.8-0.8,2.1,0.7C2855.1,412,2854.3,412.1,2853.5,412.2z"/>
<path class="st3" d="M1258.7,185.2c-0.4-0.3-0.8-0.5-1.1-0.8C1258.3,184.2,1258.6,184.7,1258.7,185.2z"/>
<path class="st3" d="M985.6,194.4c-0.4,0.3-0.8,0.6-1.2,0.8C984.6,194.7,984.9,194.2,985.6,194.4z"/>
<path class="st3" d="M2261.7,220.2c-0.4-0.3-0.8-0.5-1.1-0.8C2261.3,219.2,2261.5,219.7,2261.7,220.2z"/>
<path class="st2" d="M125.5,100.3c-0.3-0.3-0.5-0.5-0.8-0.8C125.4,99.4,125.5,99.8,125.5,100.3z"/>
<path class="st3" d="M1122.6,243.1c-0.4,0.4-0.8,0.7-1.2,1.1C1121.8,243.9,1122.2,243.5,1122.6,243.1z"/>
<path class="st3" d="M602.6,304.3c-0.4,0.3-0.8,0.6-1.2,0.9C601.8,304.9,602.2,304.6,602.6,304.3z"/>
<path class="st3" d="M2274.7,225.2c-0.4-0.3-0.8-0.5-1.1-0.8C2274.3,224.2,2274.5,224.7,2274.7,225.2z"/>
<path class="st3" d="M614.6,297.3c-0.1,0.7-0.6,0.8-1.2,0.9C613.8,297.9,614.2,297.6,614.6,297.3z"/>
<path class="st2" d="M2446.7,281.2c-0.4-0.3-0.8-0.6-1.2-0.8C2446.2,280.2,2446.5,280.7,2446.7,281.2z"/>
<path class="st2" d="M2435.7,278.2c-0.4-0.3-0.8-0.6-1.1-0.9C2435.3,277.2,2435.5,277.6,2435.7,278.2z"/>
<path class="st2" d="M2431.7,277.2c-0.4-0.3-0.8-0.6-1.1-0.9C2431.3,276.2,2431.5,276.6,2431.7,277.2z"/>
<path class="st3" d="M1113.6,250.4c-0.4,0.3-0.8,0.6-1.2,0.8C1112.6,250.7,1112.9,250.2,1113.6,250.4z"/>
<path class="st3" d="M2266.7,222.2c-0.4-0.3-0.7-0.5-1.1-0.8C2266.3,221.2,2266.5,221.7,2266.7,222.2z"/>
<path class="st3" d="M2870.6,416.2c-0.4-0.3-0.7-0.6-1.1-0.8C2870.2,415.2,2870.5,415.6,2870.6,416.2z"/>
<path class="st3" d="M2872.6,417.2c-0.3-0.3-0.7-0.6-1-0.8C2872.2,416.2,2872.5,416.6,2872.6,417.2z"/>
<path class="st3" d="M1149.6,220.4c-0.4,0.3-0.8,0.6-1.2,0.8C1148.6,220.7,1148.9,220.2,1149.6,220.4z"/>
<path class="st3" d="M2946.5,435.1c5.6-1.5,11.3-1.5,16.9,0C2957.8,435.1,2952.2,435.1,2946.5,435.1z"/>
<path class="st3" d="M2934.4,433.2c3.3,0.7,7.3-1.7,10.1,1.9C2941.2,434,2937.5,435.1,2934.4,433.2z"/>
<path class="st3" d="M2966.5,435.1c0.4-0.3,0.7-0.6,1.1-0.9C2967.5,434.8,2967.2,435.2,2966.5,435.1z"/>
<path class="st2" d="M230.5,136.4c3.5-1.9,7.1,0,10.7,0.1c4.1,0,8.2,1,12.3,1.6C245.8,138.6,238.1,137.6,230.5,136.4z"/>
<path class="st1" d="M96.5,133.3c6.7,0.2,13.4-0.6,20,0.8c-5.7,0.1-11.4,0.2-17.1,0.3C98.4,134.3,97.1,134.9,96.5,133.3z"/>
<path class="st2" d="M310.5,146.3c5.5,0.2,11,0.5,16.1,2.9C321.1,149,315.7,148.2,310.5,146.3z"/>
<path class="st3" d="M772.6,246.3c0.1,3-0.4,5.6-4.2,5.8C769.1,249.7,770,247.4,772.6,246.3z"/>
<path class="st3" d="M349.6,153.3c2-0.2,4.1-0.5,6,0.8C353.5,154,351.3,155.2,349.6,153.3z"/>
<path class="st3" d="M332.4,150.3c1.8-0.1,3.7-0.7,5.2,0.9C335.8,151,333.9,152.2,332.4,150.3z"/>
<path class="st3" d="M338.4,151.3c1.8,0,3.7-0.7,5.2,0.9C341.8,152,339.9,153.2,338.4,151.3z"/>
<path class="st3" d="M344.4,152.3c1.8,0,3.8-0.8,5.3,1.1C347.9,152.8,345.8,154.2,344.4,152.3z"/>
<path class="st3" d="M327.4,149.3c1.5-0.1,3-0.6,4.1,0.9C330.2,150,328.5,151.1,327.4,149.3z"/>
<path class="st3" d="M839.6,225.4c-0.9,1-2,0.9-3.2,0.8C837.1,224.7,838.4,225.3,839.6,225.4z"/>
<path class="st3" d="M823.6,230.4c-1,0.4-2.1,0.9-3.1,1.3C820.8,229.5,822.4,230.4,823.6,230.4z"/>
<path class="st3" d="M855.5,219.3c0.6,0.1,1.2,0.3,1.8,0.4c-0.4,1-1.3,0.4-1.9,0.5C855.6,219.9,855.6,219.6,855.5,219.3z"/>
<path class="st3" d="M807.6,235.3c-0.8,1.4-2,1.2-3.3,0.9C805.1,234.8,806.4,235.3,807.6,235.3z"/>
<path class="st3" d="M835.6,226.4c-0.5,0.7-1.3,0.9-2.2,0.9C833.8,226.1,834.7,226.2,835.6,226.4z"/>
<path class="st2" d="M226.8,136c0.6,0,1.2,0,1.8,0C227.9,136.1,227.3,136.1,226.8,136z"/>
<path class="st3" d="M842.6,224.4c-0.5,0.7-1.3,0.9-2.2,0.9C840.8,224.1,841.7,224.2,842.6,224.4z"/>
<path class="st3" d="M794.6,239.3c-0.4,1.2-1.3,1.1-2.3,0.9C792.8,239.2,793.7,239.2,794.6,239.3z"/>
<path class="st3" d="M813.6,233.3c-0.4,1.2-1.3,1.1-2.3,0.9C811.8,233.2,812.7,233.2,813.6,233.3z"/>
<path class="st3" d="M816.6,232.3c-0.4,1.2-1.3,1.1-2.3,0.9C814.8,232.2,815.7,232.2,816.6,232.3z"/>
<path class="st3" d="M826.6,229.4c-0.7,0.3-1.5,0.6-2.2,0.9C824.8,229.1,825.7,229.2,826.6,229.4z"/>
<path class="st3" d="M829.6,228.4c-0.5,0.7-1.3,0.9-2.2,0.9C827.8,228.1,828.7,228.2,829.6,228.4z"/>
<path class="st3" d="M832.6,227.4c-0.6,0.7-1.3,0.9-2.2,0.8C830.8,227.1,831.7,227.2,832.6,227.4z"/>
<path class="st3" d="M803.6,236.3c-0.4,1.2-1.3,1.1-2.3,0.9C801.8,236.2,802.7,236.2,803.6,236.3z"/>
<path class="st3" d="M800.6,237.3c-0.4,1.2-1.3,1.1-2.3,0.9C798.8,237.2,799.7,237.2,800.6,237.3z"/>
<path class="st3" d="M797.6,238.3c-0.4,1.2-1.3,1.1-2.3,0.9C795.8,238.2,796.7,238.2,797.6,238.3z"/>
<path class="st1" d="M118.7,134.1c0.3-0.2,0.5-0.3,0.8-0.1l-0.4,0.1L118.7,134.1z"/>
<path class="st1" d="M757.5,209.3c0.4,0.3,0.7,0.6,1.1,0.9C758.2,209.9,757.8,209.6,757.5,209.3z"/>
<path class="st3" d="M844.6,223.4c-0.4,0.3-0.8,0.6-1.2,0.9C843.8,223.9,844.2,223.6,844.6,223.4z"/>
<path d="M698.5,274.2c-0.1,0.5-0.2,0.9-0.9,0.8C698,274.8,698.3,274.5,698.5,274.2z"/>
<path class="st3" d="M819.2,232c-0.7,0.1-1.3,0.2-2,0.2C817.9,231.6,818.4,230.5,819.2,232z"/>
<path class="st3" d="M768.6,252.2c0.1,0.7-0.2,1-0.9,1.1C767.6,252.6,768,252.3,768.6,252.2z"/>
<path class="st3" d="M847.6,222.4c-0.4,0.3-0.8,0.6-1.2,0.9C846.8,222.9,847.2,222.6,847.6,222.4z"/>
<path class="st3" d="M850.6,221.4c-0.4,0.3-0.8,0.6-1.2,0.8C849.8,221.9,850.2,221.6,850.6,221.4z"/>
<path class="st3" d="M853.6,220.4c-0.4,0.3-0.8,0.6-1.2,0.8C852.8,220.9,853.2,220.6,853.6,220.4z"/>
<path class="st3" d="M1589.4,343.3c6,0.1,10.8,3.7,16.1,5.8c10.4,4.1,20.8,8.4,31.2,12.7c1.2,0.5,2.6,0.7,2.9,2.4
	c-6.2-0.6-11.7-3.4-17.3-5.8C1611.3,353.4,1599.8,349.6,1589.4,343.3z"/>
<path class="st3" d="M1482.5,306.4c1.7-1.7,3.5-0.3,5.1,0.1c14.4,3.7,28.5,8.3,42.6,13.1c1.3,0.5,3,0.6,3.4,2.5
	C1516.5,317,1499.3,312.3,1482.5,306.4z"/>
<path class="st3" d="M1582.4,340.3c1.6,0,3.5-0.5,4.2,1.8C1584.8,342.3,1583.6,341.4,1582.4,340.3z"/>
<path class="st3" d="M1475.5,304.4c1.2-1.3,1.7-0.6,2.1,0.7C1476.7,305.3,1475.9,305.5,1475.5,304.4z"/>
<path class="st3" d="M1578.4,338.3c0.4,0.3,0.8,0.5,1.1,0.8C1578.9,339.3,1578.6,338.8,1578.4,338.3z"/>
<path class="st3" d="M1580.4,339.3c0.4,0.3,0.8,0.5,1.1,0.8C1580.9,340.3,1580.6,339.8,1580.4,339.3z"/>
<path class="st3" d="M1472.4,303.3c0.4,0.3,0.8,0.5,1.1,0.8C1472.9,304.3,1472.6,303.8,1472.4,303.3z"/>
<path class="st3" d="M1587.4,342.3c0.4,0.3,0.8,0.5,1.1,0.8C1587.9,343.3,1587.6,342.8,1587.4,342.3z"/>
<path class="st3" d="M1469.4,302.3c0.4,0.3,0.8,0.5,1.1,0.8C1469.9,303.3,1469.6,302.8,1469.4,302.3z"/>
<path class="st3" d="M1640.4,364.3c0.4,0.3,0.8,0.5,1.1,0.8C1640.9,365.3,1640.6,364.8,1640.4,364.3z"/>
<path class="st3" d="M1479.4,305.3c0.4,0.3,0.8,0.5,1.1,0.8C1479.9,306.3,1479.6,305.8,1479.4,305.3z"/>
<path class="st3" d="M1278.7,224.2c-5.1-1.8-7.1-6.9-10.8-10.4c-4.2-3.9-7.5-8.7-11.3-13c-1.1-1.3-2.1-2.5-1.5-4.4
	c7.4,6.3,13,14.7,21.4,19.9c0,0-0.2-0.2-0.2-0.2C1276.9,218.9,1277.2,221.7,1278.7,224.2z"/>
<path class="st3" d="M1243.7,222.1c-6,1.4-11.3-1.7-16.6-3.4c-4.3-1.3-9.2-1.4-12.4-5.4C1224.6,215.4,1234.2,218.6,1243.7,222.1z"/>
<path class="st3" d="M1224.5,224.4c6.1-0.7,11.9-0.1,17.1,3.7C1235.8,227.3,1230,226.5,1224.5,224.4z"/>
<path class="st3" d="M1245.5,228.4c1.9-1.5,3.7-2.1,5.1,0.6C1248.9,228.9,1247,230.1,1245.5,228.4z"/>
<path class="st3" d="M1250.7,223.1c-1.4,1.5-2.5,1.3-3.1-0.7C1248.7,222.4,1249.9,221.7,1250.7,223.1z"/>
<path class="st2" d="M1161.7,232.5c0.2-2,1.5-2.3,3.2-2.1C1164.1,231.6,1163.2,232.4,1161.7,232.5z"/>
<path class="st3" d="M1213.8,213.2c-0.4-0.3-0.8-0.5-1.1-0.8C1213.3,212.2,1213.6,212.7,1213.8,213.2z"/>
<path class="st2" d="M1152.6,240.1c0.4-0.3,0.8-0.6,1.2-0.8C1153.6,239.8,1153.3,240.3,1152.6,240.1z"/>
<path class="st3" d="M1279.5,225.2c-0.3-0.4-0.5-0.8-0.8-1.1C1279.2,224.3,1279.6,224.6,1279.5,225.2z"/>
<path class="st3" d="M1280.4,227.2c-0.3-0.4-0.5-0.8-0.8-1.1C1280.2,226.3,1280.6,226.5,1280.4,227.2z"/>
<path class="st3" d="M1221.4,223.3c0.4,0.3,0.8,0.5,1.1,0.8C1221.9,224.3,1221.6,223.8,1221.4,223.3z"/>
<path class="st3" d="M1218.4,222.3c0.4,0.3,0.8,0.5,1.1,0.8C1218.9,223.3,1218.6,222.8,1218.4,222.3z"/>
<path class="st2" d="M1157.6,236.2c0.4-0.3,0.8-0.6,1.2-0.8C1158.6,235.8,1158.3,236.3,1157.6,236.2z"/>
<path class="st3" d="M1215.4,221.3c0.4,0.3,0.8,0.5,1.1,0.8C1215.9,222.3,1215.6,221.8,1215.4,221.3z"/>
<path class="st3" d="M1266.7,220.3c0.3,0.4,0.5,0.8,0.8,1.2C1267,221.2,1266.6,221,1266.7,220.3z"/>
<path class="st2" d="M1147.6,244.2c0.4-0.3,0.8-0.6,1.2-0.8C1148.6,243.8,1148.3,244.3,1147.6,244.2z"/>
<path class="st3" d="M1555.4,317.3c1-0.3,2.3,0.4,3.3-1.1c-3.1-2.2-6.6-3.6-10-5.1c-2.6-1.2-5.9-1.5-7.2-4.7
	c11.9,2.8,28.5,12,32.7,18.7C1568.1,322.2,1561,321.8,1555.4,317.3z"/>
<path class="st3" d="M1531.6,310.1c0.3-1.1,0.9-1.8,2.1-1.5c6.8,1.6,13.4,3.8,19.7,6.8c0.6,0.3,0.8,1.3,1.2,2
	c-1.2,2.1-2.4,0.1-3.3-0.2C1544.7,314.9,1538.2,312.5,1531.6,310.1z"/>
<path class="st3" d="M1540.7,306.2c-0.4-0.3-0.8-0.5-1.1-0.8C1540.3,305.2,1540.5,305.7,1540.7,306.2z"/>
<path class="st3" d="M2719.5,370.1c-8-2.2-16-4.5-24.1-6.7c0.5-0.7,1.2-1.2,2.1-0.9c6.8,1.9,13.7,3.9,20.5,5.8
	C2719,368.6,2719.4,369.3,2719.5,370.1z"/>
<path class="st3" d="M2685.5,362.3c1.9,0,3.5,0.8,5.1,1.7C2688.3,365.4,2686.6,364.7,2685.5,362.3z"/>
<path class="st3" d="M2678.5,360.3c1.9,0,3.5,0.8,5.1,1.7C2681.2,363.5,2679.6,362.7,2678.5,360.3z"/>
<path class="st3" d="M2706.5,368.3c1.9,0,3.5,0.8,5.1,1.7C2709.3,371.3,2707.6,370.7,2706.5,368.3z"/>
<path class="st3" d="M2652.6,352.3c-0.1,0.3-0.1,0.6,0.1,0.9c-2.2,0.3-4.2-0.1-6.3-1.5C2648.8,350.7,2650.6,352.6,2652.6,352.3z"/>
<path class="st3" d="M2734.6,373.3c-1,1.6-2.1,1.4-3.2,0.1C2732.4,371.9,2733.5,372.8,2734.6,373.3z"/>
<path class="st3" d="M2690.5,362.1c-0.8,0.1-1.6,0.2-2.1-0.7C2689.7,360,2690.2,360.8,2690.5,362.1z"/>
<path class="st3" d="M2671.5,358.3c0.8-0.1,1.7-0.3,2.1,0.7C2672.3,360.5,2671.8,359.8,2671.5,358.3z"/>
<path class="st3" d="M2713.5,370.3c0.8-0.1,1.7-0.3,2.1,0.7C2714.3,372.5,2713.8,371.8,2713.5,370.3z"/>
<path class="st3" d="M2699.5,366.3c0.8-0.1,1.7-0.3,2.1,0.7C2700.3,368.5,2699.8,367.8,2699.5,366.3z"/>
<path class="st3" d="M2726.5,372.1c-0.8,0.1-1.7,0.3-2.1-0.7C2725.7,370,2726.2,370.7,2726.5,372.1z"/>
<path class="st3" d="M2692.5,364.3c0.8-0.1,1.7-0.3,2.1,0.7C2693.3,366.5,2692.8,365.8,2692.5,364.3z"/>
<path class="st3" d="M2726.5,374.3c1.1,0,2.4-0.6,3.2,0.8C2728.6,375.3,2727.4,375.3,2726.5,374.3z"/>
<path class="st3" d="M2730.5,375.3c0.9-0.2,1.8-0.2,2.2,0.9C2731.9,376.2,2731.1,376.1,2730.5,375.3z"/>
<path class="st3" d="M2654.5,353.3c0.4,0.3,0.8,0.6,1.2,0.8C2655.3,353.9,2654.9,353.6,2654.5,353.3z"/>
<path class="st3" d="M2658.5,354.3c0.4,0.3,0.8,0.6,1.2,0.8C2659.3,354.9,2658.9,354.6,2658.5,354.3z"/>
<path class="st3" d="M2661.5,355.3c0.4,0.3,0.8,0.6,1.2,0.8C2662.3,355.9,2661.9,355.6,2661.5,355.3z"/>
<path class="st3" d="M2665.5,356.3c0.4,0.3,0.8,0.6,1.2,0.8C2666.3,356.9,2665.9,356.6,2665.5,356.3z"/>
<path class="st3" d="M2668.5,357.3c0.4,0.3,0.8,0.6,1.2,0.8C2669.3,357.9,2668.9,357.6,2668.5,357.3z"/>
<path class="st3" d="M2675.5,359.3c0.4,0.3,0.8,0.6,1.2,0.8C2676.3,359.9,2675.9,359.6,2675.5,359.3z"/>
<path class="st3" d="M2686.5,361.1c-0.4-0.3-0.8-0.6-1.2-0.8C2685.7,360.6,2686.1,360.9,2686.5,361.1z"/>
<path class="st3" d="M2693.5,363.1c-0.4-0.3-0.8-0.6-1.2-0.8C2692.7,362.6,2693.1,362.9,2693.5,363.1z"/>
<path class="st3" d="M2703.5,367.3c0.4,0.3,0.8,0.6,1.2,0.8C2704.3,367.9,2703.9,367.6,2703.5,367.3z"/>
<path class="st3" d="M2722.5,371.1c-0.4-0.3-0.8-0.6-1.2-0.8C2721.7,370.6,2722.1,370.9,2722.5,371.1z"/>
<path class="st3" d="M2717.5,371.3c0.4,0.3,0.8,0.6,1.2,0.8C2718.3,371.9,2717.9,371.6,2717.5,371.3z"/>
<path class="st3" d="M2721.5,372.3c0.4,0.3,0.8,0.6,1.2,0.8C2722.3,372.9,2721.9,372.6,2721.5,372.3z"/>
<path class="st3" d="M2729.5,373.1c-0.4-0.3-0.8-0.6-1.2-0.8C2728.7,372.6,2729.1,372.9,2729.5,373.1z"/>
<path class="st3" d="M2724.5,373.3c0.4,0.3,0.8,0.6,1.2,0.8C2725.3,373.9,2724.9,373.6,2724.5,373.3z"/>
<path class="st3" d="M2696.5,365.3c0.4,0.3,0.8,0.6,1.2,0.8C2697.3,365.9,2696.9,365.6,2696.5,365.3z"/>
<path class="st0" d="M1555.9,192.9c7.5-0.3,14.6,0.9,21.1,5C1569.9,196.7,1563,194.2,1555.9,192.9z"/>
<path class="st0" d="M1540,199.5c0.4-0.3,0.9-0.6,1.3-1c0.4,0.8,0.3,1.4-0.7,1.7C1540.4,200.1,1540.2,199.8,1540,199.5z"/>
<path class="st0" d="M1276.6,216.4c-8.5-5.2-14-13.6-21.4-19.9l-0.1-0.1c-0.8-0.8-1.6-1.5-2.4-2.3c-2.8-3.4-5.7-6.7-8.5-10.1
	c1.2-1.2,2.1-0.6,2.9,0.2c5.2,5.7,11,10.9,16.2,16.7c3,3.4,7.6,5.4,10.5,9.3c-0.2,0.7,0.3,1,0.8,1.2c0.6,0.6,1.3,1.3,1.9,1.9
	C1276,214.4,1277.9,215.3,1276.6,216.4z"/>
<path class="st3" d="M1252.6,194.1c0.8,0.8,1.6,1.5,2.4,2.3C1252.7,197.3,1252.7,195.6,1252.6,194.1z"/>
<path class="st0" d="M1240.7,179.1c-0.3,0.3-0.6,0.6-0.7,0.5c-0.3-0.2-0.6-0.5-0.9-0.7c0.2-0.1,0.5-0.5,0.7-0.4
	C1240,178.5,1240.3,178.8,1240.7,179.1z"/>
<path class="st3" d="M1274.5,211.4c-0.5-0.2-1-0.5-0.8-1.2C1274,210.7,1274.3,211,1274.5,211.4z"/>
<path class="st3" d="M981.1,210.8c-0.4,5,2.5,9.1,3.8,13.7c1.2,4.3,3.5,8.2,3.8,12.8c-3.1-2-2.1-6.3-4.6-8.8
	c-1.3,5.3-3.1,10.4-2.3,15.8c-4-4.1-2.5-8.8-0.8-12.9c1.7-4.2,1.4-7.3-1.1-11.1c-4.3-6.6-1.6-16,5-18.9
	C984,204.7,980.6,207,981.1,210.8z"/>
<path class="st4" d="M981.7,244.3c-0.7-5.4,1.1-10.5,2.3-15.8c2.5,2.5,1.5,6.8,4.6,8.8c0,0,0-0.1,0-0.1c-0.1,1.2-0.1,2.3,1,3.1
	c0,0,0-0.1,0-0.1c-0.1,1.2-0.1,2.3,1,3.1c0,0,0-0.1,0-0.1c-0.1,1.2-0.1,2.3,1,3.1c0,0,0-0.1,0-0.1c-0.4,1.3,0.6,3-1,4
	c0,0,0.1,0.1,0.1,0.1c-0.3-0.3-0.6-0.6-1-0.9c-0.3-0.1-0.6-0.1-0.9-0.1c-0.5-0.8-1.3-0.9-2.2-1C984.9,246.9,983.3,245.6,981.7,244.3
	z"/>
<path class="st3" d="M990.6,250.2c1.6-1,0.6-2.6,1-4c1.8,1.3,2,3.4,2.5,5.2c0.5,1.7-1.1,0.4-1.5,0.8
	C991.6,251.8,991,251.2,990.6,250.2z"/>
<path class="st3" d="M986.6,248.2c0.9,0.1,1.7,0.2,2.2,1C987.9,249.3,987.1,249.1,986.6,248.2z"/>
<path class="st3" d="M985.5,200.3c0.1,0.7-0.3,1-0.8,1.2C985,201.1,985.3,200.7,985.5,200.3z"/>
<path class="st3" d="M989.7,249.3c0.3,0.3,0.6,0.6,1,0.9C990.3,249.9,990,249.6,989.7,249.3z"/>
<path class="st3" d="M991.6,246.3c-1.2-0.8-1.1-1.9-1-3.1C991.7,244,991.8,245.1,991.6,246.3z"/>
<path class="st3" d="M989.6,240.3c-1.2-0.7-1.2-1.9-1-3.1C989.7,238,989.7,239.1,989.6,240.3z"/>
<path class="st3" d="M990.6,243.3c-1.2-0.7-1.2-1.9-1-3.1C990.7,241,990.8,242.1,990.6,243.3z"/>
<path class="st2" d="M1282.6,218.2c0.2,0.2,0.4,0.4,0.6,0.6c-0.1,0.1-0.3,0.2-0.4,0.2C1282.7,218.8,1282.6,218.6,1282.6,218.2
	C1282.6,218.3,1282.6,218.2,1282.6,218.2z"/>
<polygon class="st2" points="1282.6,218.3 1282.3,218 1282.6,218.2 "/>
</svg>
