<?xml version="1.0" encoding="utf-8"?>
<!-- Generator: Adobe Illustrator 24.0.1, SVG Export Plug-In . SVG Version: 6.00 Build 0)  -->
<svg version="1.1" id="Layer_1" xmlns="http://www.w3.org/2000/svg" xmlns:xlink="http://www.w3.org/1999/xlink" x="0px" y="0px"
	 viewBox="0 0 770 276" style="enable-background:new 0 0 770 276;" xml:space="preserve">
<style type="text/css">
	.st0{fill:#FFA500;}
</style>
<path class="st0" d="M249.4,153.4c-1.4,9.6-6.2,15.2-14.5,16.4c-8.2,1.2-13-2.8-18.3-15.5c-3.4,2.8-6.8,5.4-10,8.4
	c-2.3,2.2-4.3,2.3-7,0.7c-5.2-2.9-10.6-5.5-16-8.2c-0.3-0.1-0.6,0-1.2,0c21.8,30.2,23,60-3.6,87.7c-17.4,18-44.3,21.5-67.7,11.2
	C91.8,245.6,71.2,222,75.7,188c-21.9,3.8-40.7-1.5-55-19.1c-8.9-10.9-12-23.6-11.3-37.4C10.9,99.2,42.8,77,75.1,83.7
	c-1.2-34.9,12.5-60.3,47.7-69.6c25.1-6.6,52.1,3.9,65.2,25.2c16.4,26.6,14.2,52.8-5.3,78.2c6.8-3.4,13.7-6.9,20.7-10.4
	c4.3,3.5,8.7,7,13.3,10.8c2.8-8.9,6.7-16.2,17.3-15.3c8.7,0.7,13.8,6.2,16,17.2c156.4,0,313,0,469.8,0c0,2.8,0,4.9,0,8.5
	c2.6-2.1,4.4-3.3,5.9-4.8c6.6-7,19-7.6,26.3-1.3c7.8,6.8,9.2,18.7,3.1,26.6c-7.8,10-20.5,10.9-29.7,2.1c-1.4-1.3-2.9-2.5-5.2-4.5
	c-0.3,3.2-0.6,5.4-0.9,8.2c-14,0-27.9,0-42.2,0c0,4.3,0,8,0,12.3c14.8,0,29.5,0,44.4,0c0,6.9-0.1,13.2,0,19.5
	c0.1,5.3-4.5,4.5-7.4,5.6c-2.8,1.1-5.1,1.8-5,5.6c0.1,3.4,0.7,5.4,4.5,6.4c7.8,2.1,7.8,2.3,7.8,10.2c0,12.7-0.1,25.4-0.2,38
	c0,1.6-0.2,3.3-0.3,5.1c-12.9,0-25.5,0-39.1,0c0-12.2,0-24.1,0-36.2c-6.1,0-11.2,0-17.1,0c0,11.8,0,23.6,0,35.8c-11,0-21.3,0-32,0
	c0-12,0-23.9,0-36c-6,0-11.4,0-17.6,0c0,12.2,0,24,0,36.2c-13.5,0-26.2,0-39.8,0c0-3.3,0-6.2,0-9.2c0.2-12.7,0.4-25.3,0.5-38
	c0-2.9,0.6-4.7,3.9-5.2c1.8-0.2,3.4-1.3,5.2-1.7c3.2-0.6,3.6-3,3.1-5.3c-0.5-1.9-1.6-4.6-3.1-5.3c-9.2-3.9-9.3-3.8-9.3-13.7
	c0-3.8,0-7.6,0-11.8c15.1,0,29.6,0,44.5,0c0-4.4,0-8.5,0-13.6C496.4,153.4,373.2,153.4,249.4,153.4z M109.9,169.1
	c-17.8,22.6-15.6,47.5,5.1,61.3c19.1,12.7,44.7,6.4,56-14c5.4-9.7,6.2-20,2.8-30.5c-5.2-16.1-17.3-24.2-32.9-27.2
	c-0.2-3.6-0.4-6.6-0.6-11.1c-2.4,2.2-3.7,3.2-4.7,4.4c-6.6,7.7-16.4,7.4-22.6-0.7c-6.3-8.2-6.1-22.8,0.2-31
	c4.8-6.1,15.4-9.8,22.2-0.7c1.1,1.4,2.8,2.3,4.8,3.9c0.3-1.8,0.7-2.6,0.5-3.4c-1.1-5.5,1.4-7.4,6.8-8.9
	c20.6-5.6,32.5-26.3,27.3-46.7c-5.4-21-27.1-33.9-48-28.4c-20.6,5.4-33.7,27.2-27.6,47.3c2.1,7,6.4,13.3,9.9,20.2
	c-6.5,5.5-13.4,11.4-20.3,17.3c-14.4-16.5-31.5-19.1-45.4-7.3c-12.5,10.6-13.9,28.1-3.2,40.6c5.4,6.3,12.2,10.2,20.6,11
	c12.4,1.2,20.6-5.9,28.3-14.5C96.2,157,102.9,162.9,109.9,169.1z"/>
</svg>
