<?xml version="1.0" encoding="utf-8"?>
<!-- Generator: Adobe Illustrator 24.0.1, SVG Export Plug-In . SVG Version: 6.00 Build 0)  -->
<svg version="1.1" id="Layer_1" xmlns="http://www.w3.org/2000/svg" xmlns:xlink="http://www.w3.org/1999/xlink" x="0px" y="0px"
	 viewBox="0 0 1069 446" style="enable-background:new 0 0 1069 446;" xml:space="preserve">
<style type="text/css">
	.st0{opacity:0.8;}
	.st1{fill:#202020;}
</style>
<g>
	<g>
		<g>
			<g>
				<g class="st0">
					<path class="st1" d="M448.7,204.2c-3.7-0.7-12.5-1.8-20.9-3c-8.4-1.1-16.6-2.3-19.1-2.4c-4.4-0.3-8.4,0.1-13.3-0.4
						c-1.6-0.2-3-0.6-4.2-0.6c-0.1,0.1-0.8,0.2-1.4,0.2c-3.2-0.4-6.4-1.4-8.9-1.3c-1.8-0.1-6.2-3.2-6.7-2.8
						c-1.6,1.4-0.4,0.4-4.5-0.4c-0.5-0.1-2.2,0.2-3.2,0c-3.3-1-4.3-0.6-8.2-1.1c-5.8-0.6-6.8-1.8-12-1.8c-0.3,0-2.5-0.2-4.6-0.5
						c-2.1-0.2-4.1-0.4-4.1-0.4c-6.2-1.3-10.2-1.2-14.8-3c-5.7,0.1-13.1-2.1-19.1-2.7c-6-0.5-8.5-1.6-13.7-2.7
						c-1.5-0.2-2.7-0.3-3.5-0.5c-0.9-0.3-3.1,0.2-4.6,0l0.4-0.4c-0.5-0.1-1.5-0.2-2-0.3c-0.5-0.1-0.4-0.2-0.2-0.3
						c0.3-0.3,0.5-0.6-0.3-0.8c-2.1-0.3-4.3-0.6-6.6-0.8c-2.2,0.2-4.5,0.5-6.7,0.8c-0.1,0.2-0.3,0.4-0.6,0.6l-2,0.4
						c-0.4,0.5-0.2,0.9-0.4,1.2c0.1,1.2-2.5,2.6-1.7,3.7c0.3,0.3,3.9,0.1,5.5,0.7c0.4,0.2-0.5,0.6-0.8,1c2.1,0,2.2,0.4,1.4,0.8
						c0.5,0,1,0.1,1,0.1c-0.1,0.1-0.5,0.6-0.5,0.6c5.2,0.4,11,1.7,16.2,1.5c1.1,0,3-0.2,4.2-0.3c0.6-0.1,2,0.3,2.5,0.4
						c0.9-0.3,0.8-0.8,1.2-1.2c3.8,0.8,12,2.5,11.9,0.9c3.1,0.5,3.8-0.2,7,0.2c4.3,0.4,9.7,1.2,15,2c2.9,0.4,5.7,0.9,8.5,1.4
						c1,0.2,2.1,0.4,3,0.6c21,4.1,39.1,8.2,60.1,9.7l51.3,4.4l-18.5,7.2c-0.3,1.5-1.4,2.8-3.5,3.2c-10.3,2-18.1,9.2-28.8,9.9
						c-0.7,1-1.7,1.7-2.8,2.1c-0.8,0.2-1.5,0.5-2.3,0.7l-0.7,4.6l66.4-29.1L448.7,204.2z"/>
					<path class="st1" d="M449.3,206.7"/>
				</g>
			</g>
		</g>
	</g>
</g>
<g>
	<g>
		<g>
			<g>
				<g class="st0">
					<path class="st1" d="M477.9,200.4c-1.4,0.5-1.5,2.1-2.1,2.8c-0.1,0.3-0.3,0.5-0.4,0.6c-0.1,0.1,0-0.2,0.4-0.6
						c0.1-0.2,0.2-0.4,0.3-0.7c-0.6,0.4-1.2,0.7-1.6,0.9c0,0.2-0.1,0.4-0.1,0.5c-0.2,0.8-0.3,1.6-0.6,2.4c-0.1,0.3-0.2,0.9-0.5,1.2
						l0.4-3.5l-0.1,0.1L473,206c0,0.1,0,0.2-0.1,0.3l0.1-0.3c0-0.3-0.1-0.5-0.1-0.8c0-0.2,0.3-0.4,0.3-0.6s0.3-0.3,0.5-0.4l0.1-0.3
						c0,0,0-0.1-0.1-0.1l0,0c-1.2,0.2-2.8,2.6-2.6,3c0.1,0.3,1.1,0.6,1.2,0.9c0,0.1-0.2,0.2,0,0.3c0.1,0,0.3,0.1,0.4,0.1
						c0.1,0.2-0.5,0.5,0,0.6c0.2,0.1-2.2,0.5-1.7,0.5c1.6,0.1,0.4,0,0.3,0.3c0,0,0.6,0.2,0.5,0.2c-0.4,0.2,0.1,0.3,0.3,0.6
						c0.5,0.4-0.5,0.5,0.5,0.9c0.1,0,0.8,0.6,0.8,0.6c-0.1,0.4,0.7,0.7-0.5,1.1c1,0.4-0.2,0.9,0,1.4c0.2,0.4-0.6,0.6-1.3,1
						c-0.1,0.1,0,0.2-0.3,0.2c-0.2,0.1,0.4,0.2,0.3,0.3c-0.1,0-0.3,0-0.4,0l-0.1,0.1c0,0-0.2,0-0.3,0c-0.3,0-0.6,0-0.8,0
						c-0.2,0.1-0.4,0.3-0.6,0.5c0.2,0.2,0.5,0.3,0.7,0.5c0.2,0,0.4,0,0.6,0c0.1,0,0.2,0.1,0.3,0.1c0.4,0,0.9,0,1.2,0
						c1.2,0,2.4,0.2,3.5,0.1c0.3,0,0.4-0.3,1-0.4c0.2,0,0.6,0,1,0.1c0-0.2,0.5-0.2,0.9-0.1l0.1-0.1c0.1,0,0.6,0,0.6,0
						c0.5-0.4,1.6-0.8,1-1.2c-0.1-0.1-0.4-0.2-0.6-0.3c-0.1,0,0.1-0.1,0.2-0.2c-0.4-0.1-0.9-0.1-1.3-0.1c0.4-0.3,1.2-0.9-0.4-0.8
						c0.1-0.2-0.7-0.3-0.7-0.5c-0.1-0.3-0.2-0.7-0.3-1.1c-0.1-0.2-0.1-0.4-0.1-0.6c0-0.1,0-0.1,0-0.2c-0.1-1.5,1.1-2.6-0.1-4.1
						c-2.4-3,1.2-6.2,1.5-7L477.9,200.4z"/>
				</g>
			</g>
		</g>
	</g>
</g>
<g>
	<g>
		<g>
			<g>
				<g class="st0">
					<path class="st1" d="M527.5,204.1c0.9,1.1,3.5,2.3,6.4,3c0.2,0,0.4,0.1,0.6,0.1l0.3,0.1h0.2c0.3,0.1,0.5,0.1,0.8,0.2
						c0.6,0.1,1.1,0.2,1.7,0.3c1.2,0.1,2.3,0.2,3.3,0.3c1.4,0,2.6,0,3.7,0c0.9,0-1,0.2-3.7,0c-1.1,0-2.3,0-3.5-0.2
						c0.9,0.3,2,0.6,3.1,0.8c1.1,0.2,2.3,0.4,3.3,0.5c1.1-0.1,2.2-0.3,3.4-0.5l0.5-0.1h0.1l-0.1-0.1l-0.1-0.2l-0.5-0.7l-1.1-1.4
						c-0.7-0.9-1.4-1.8-2.2-2.8l-2.4-2.9l-1.2-1.5l-1.1-1.4c-0.3-0.3-0.6-0.8-1-1.2c-0.2-0.2-0.4-0.5-0.6-0.7
						c-0.2-0.3-0.5-0.5-0.7-0.8c-1.1-1.2-2.6-1.9-3.6-2.3c1,0.3,2,0.7,2.9,1.4c0.9,0.6,1.6,1.4,2.1,2l3.5,4.1
						c2.7,3.2,5.3,6.2,7.1,8.8c0.1,0,0.1,0,0.2,0l-0.1-0.1l-0.1-0.2l-3.3-4.6l-4.2-5.2c-0.3-0.3-0.4-0.5-0.6-0.8
						c-0.2-0.2-0.4-0.5-0.6-0.7l1.2,1.5c1.4,1.6,2.9,3,4.5,4.8c0.5,0.6,0.8,1.1,1.1,1.6c0.3,0.5,0.6,1,1,1.5c0.6,0.8,0.7,1.4,1,2
						l0.2,0.3c-0.1,0-0.3,0.1-0.5,0.1l-1,0.2c-0.1,0.1-0.3,0.1-0.5,0.1l0,0c0.4,0.1,1,0.1,1.8,0.1c0.2,0,0.4,0,0.7,0
						c0.1,0,0.2,0,0.4,0c0,0,0-0.1,0-0.2c-0.1-0.2-0.2-0.5-0.4-0.8c-0.3-0.6-0.7-1.4-1.1-2.2c-0.2-0.4-0.5-0.9-0.7-1.3
						c-0.1-0.2-0.2-0.5-0.4-0.7l-0.6-0.8c-0.8-1.1-1.6-2.2-2.5-3.4c-0.4-0.6-0.9-1.1-1.3-1.7c-0.2-0.3-0.4-0.5-0.6-0.8
						c-0.1-0.2-0.3-0.4-0.4-0.5c-1-1.3-1.7-2.3-2.2-2.6c-0.3-0.3-0.8-0.7-1.3-1c-0.6-0.4-1.2-0.7-1.8-1c-1.3-0.5-2.6-0.7-4-0.8
						c-0.9-0.1-1.8-0.2-2.4,0.2c0,0.2-0.3,0.4-0.6,0.6c-0.8,0.4-1.6,0.8-2.3,1.4c-0.3,0.3-0.7,0.6-0.9,0.9c-0.2,0.3-0.4,0.5-0.5,0.8
						c-0.3,0.7-3.4,0.6-3.1,1c0.8,1.5,0.2,0.4-1,1.5c-0.2,0.1-0.1,1-0.4,1.3c-1.2,0.7-1.1,1.4-2,2.6c-1.2,2-2.3,1.7-3,3.8
						c-0.1,0.3-1.9,3-1.9,3c-1.9,1.6-2.5,3.3-4.7,3.7c-1,2.2-4.1,3.3-5.8,4.9c-1.8,1.7-3.1,1.6-5.1,2.3c-0.5,0.3-0.9,0.6-1.3,0.6
						c-0.4,0-0.7,1-1.3,1.3l-0.1-0.4c-0.2,0.1-0.5,0.3-0.7,0.3c-0.2,0.1-0.2-0.1-0.3-0.2c-0.1-0.3-0.2-0.6-0.6-0.6
						c-0.8,0.3-1.6,0.6-2.4,1c-0.6,0.7-1.1,1.3-1.7,2c0.1,0.2,0.1,0.4,0.1,0.6l-0.4,0.7c0.1,0.4,0.4,0.8,0.5,1.1
						c0.7,1,0.4,2.6,1.3,3.4c0.3,0.2,1.6-0.5,2.4-0.4c0.2,0.1,0.2,0.6,0.3,1c0.7-0.5,1-0.1,1,0.4c0.2-0.1,0.4-0.2,0.4-0.2
						c0,0.1,0.2,0.6,0.2,0.6c2.2-0.8,4.8-1.4,6.3-3.1c0.3-0.3,0.8-1.1,1.1-1.6c0.1-0.2,0.8-0.4,0.9-0.5c0-0.5-0.3-0.9-0.4-1.3
						c1.5-0.6,4.7-2.2,3.7-3.4c1.1-0.8,0.8-1.5,1.8-2.4c1.3-1.2,2.9-2.8,4.5-4.3c0.8-0.9,1.7-1.7,2.6-2.5c0.3-0.3,0.6-0.6,0.9-0.9
						c3.1-3.1,5.9-5.7,8.6-8.4c1.3-1.4,2.6-2.8,3.8-4.3c0.2-0.3,0.4-0.5,0.6-0.8c0.2-0.2,0.4-0.4,0.6-0.6c0.4-0.4,1-0.6,1.7-0.6
						c0.7,0,1.3,0.2,2,0.6c0.3,0.2,0.6,0.5,1,0.8l1.2,1.1l1.1,1.1l1,1c0.6,0.6,1.1,1.2,1.6,1.8c1.1,1.2,2,2.4,2.8,3.4l0.3,0.4
						l0.1,0.2l0.1,0.1h-0.1c-0.4,0-0.8,0.1-1.2,0.1c-0.8,0.1-1.5,0.1-2.2,0.1c-1.4,0-2.6-0.2-3.6-0.4c-0.5-0.1-0.9-0.2-1.3-0.4
						l-0.3-0.1c-0.2,0-0.3-0.1-0.5-0.1c-0.3-0.1-0.6-0.2-0.9-0.3c-2.3-0.7-3.9-1.5-4.8-1.9L527.5,204.1z"/>
				</g>
			</g>
		</g>
	</g>
</g>
<g>
	<g>
		<g>
			<g>
				<g class="st0">
					<path class="st1" d="M636,242.6c-2.4-2.1-11.7-5.1-15.6-7c-1.5-0.6-2.7-1.2-3.5-1.6c-0.7-0.4,1,0.4,3.5,1.6
						c1.2,0.5,2.5,1,4.1,1.7c-1.9-1.2-3.7-2.4-4.9-3.3c-1-0.4-2-0.8-3.1-1.2c-4.6-1.8-9.1-3.5-13.5-5.5c-1.6-0.8-5.2-2.2-6.6-3.1
						c6.6,2.8,13.2,5.5,19.9,7.9c-0.2-0.1-0.3-0.2-0.5-0.3c-3.5-1.4-6.9-2.9-10.4-4.4c-0.6-0.2-1.2-0.5-1.8-0.8l1.8,0.8
						c1.5,0.6,3.1,1,4.8,1.6c1,0.4,2.2,1,3.2,1.5c0.8,0.4,1.6,0.9,2.3,1.3l1.6,0.6c0.2,0,0.3,0.1,0.5,0.1l0,0
						c-0.5-0.8-3.9-2.7-7.5-4.5c-3.6-1.9-7.3-3.7-8.4-4c-1.8-0.5-3.7-0.3-5.7-1c-0.7-0.2-1.1-0.7-1.7-0.7c-0.1,0.1-0.4,0.1-0.7,0.1
						c-1.3-0.5-2.4-1.5-3.5-1.5c-0.8-0.1-1.7-3.1-2.1-2.8c-1.2,1.2-0.3,0.3-1.9-0.5c-0.2-0.1-1.1,0.2-1.4,0
						c-1.1-0.9-1.8-0.6-3.3-1.1c-2.4-0.6-2.5-1.7-4.9-1.7c-0.3,0-3.7-0.9-3.7-0.9c-0.5-0.3-0.8-0.4-1.2-0.6c-0.4-0.1-0.7-0.3-1-0.4
						c-0.6-0.3-1.3-0.5-1.6-0.9c0.1-0.3,0.3-0.7,0.6-1c-0.2-0.3-0.3-0.8-0.3-1.2v-0.4v-0.5c0-0.4,0.1-0.7,0.1-1.1
						c0.1-1.5,0.3-3,0-4.4c-0.5-2.6,0-3.9,0.1-6.4c-0.1-0.7-0.3-1.2-0.2-1.6c0.1-0.5-0.8-1.2-1-1.9h0.5c0-0.2-0.2-0.7-0.2-0.9
						c-0.1-0.2,0.1-0.2,0.3-0.2c0.3,0,0.6,0,0.7-0.5c-0.1-1-0.4-2.1-0.8-3.1c-0.7-0.9-1.4-1.7-2.1-2.4c-0.2,0.1-0.4,0.1-0.6,0.1
						c-0.2-0.2-0.5-0.4-0.8-0.6c-0.5,0.1-0.8,0.4-1.1,0.4c-1,0.7-2.7,0.4-3.4,1.2c-0.2,0.3,0.5,1.6,0.3,2.5c-0.1,0.2-0.6,0.1-1,0.2
						c0.4,0.7,0,1-0.5,0.9c0.1,0.2,0.1,0.4,0.1,0.4c-0.2,0-0.6,0.1-0.6,0.1c0.6,2.1,0.5,4.4,1.6,6.1c0.2,0.4,0.7,0.9,1.1,1.3
						c0.2,0.2,0,0.8,0.1,0.9c0.5,0.2,0.9,0.1,1.4,0.1c0,0.8-0.1,2,0,2.9c0.1,1,0.4,1.7,1.1,1.6c0,1.2,0.8,1.4,0.9,2.7
						c0,0.4,0.1,0.8,0.1,1.2c0,0.2,0,0.4,0,0.7v0.3c0,0.2,0,0.4,0,0.6c-0.1,1.4-0.2,2.9-0.3,4.4c0.2,0.2,0.5,0.3,0.8,0.4
						c1.6,0.7,3.1,1.4,4.5,2.1c0.4,0.2,0.9,0.4,1.3,0.6c8.4,3.8,14.1,7.7,22.9,9.9c8.8,2.3,17.6,5.8,24.8,8.9
						c7.2,3.1,12.8,5.7,14.9,6.5L636,242.6z"/>
				</g>
			</g>
		</g>
	</g>
</g>
<g>
	<g>
		<g>
			<g>
				<g class="st0">
					<path class="st1" d="M617.4,216.3c-0.8-1.2-3.1-2.7-5.4-4.8c-1.1-1.1-2.2-2.3-2.9-3.6c-0.7-1.3-1.1-2.6-1.2-3.6
						c-0.2-1.6,0-2.7,0.3-3.6c0.1-0.3,0.1-0.1-0.1,0.5c-0.2,0.6-0.4,1.7-0.2,3c0.2,1.2,0.6,2.5,1.5,3.9c-0.7-2-0.8-4-0.4-5.2
						c-0.1-0.9,0.1-1.8,0.4-2.6c0.7-1.8,2.2-3.2,4-3.4s3.7,0.4,5.6,1.1c1.4,0.5,4.4,1.5,5.6,2.3c-2.7-1.1-5.5-2.1-8.3-2.8
						c-1.3-0.3-2.7-0.4-3.7,0.1c-1.1,0.4-2,1.4-2.5,2.5c0.1-0.1,0.2-0.2,0.2-0.3c0.7-1.1,1.7-1.9,2.8-2.1c1.1-0.2,2.5,0.1,3.9,0.5
						c0.5,0.1,1,0.3,1.5,0.5l-1.5-0.5c-1.3-0.3-2.5-0.4-3.5-0.1c-0.6,0.1-1.3,0.2-1.9,0.6c-0.4,0.3-0.9,0.6-1.4,1.1
						c-0.2,0.3-0.3,0.7-0.5,1.1c0,0.1,0,0.2,0,0.4l0,0c0.3-0.2,0.8-0.9,1.5-1.5c0.4-0.3,0.8-0.5,1.2-0.6c0.4-0.1,0.8-0.1,1.3-0.1
						c0.9,0.1,2.2,0.6,3.4,1c1.3,0.5,2.2,0.8,2.7,0.9c1.4,0.3,3.1-0.1,4.7,0.4c0.5,0.2,0.9,0.6,1.4,0.6c0.1-0.1,0.3-0.1,0.6-0.1
						c1.1,0.4,1.9,1.3,2.8,1.3c0.6,0.1,1,3,1.3,2.6c1.2-1.2,0.3-0.3,1.5,0.5c0.1,0.1,0.9-0.2,1.2,0.1c0.4,0.5,0.7,0.6,1.1,0.7
						c0.2,0.1,0.4,0.1,0.6,0.2c0.1,0,0.2,0.1,0.4,0.1c0.1,0,0.2,0.1,0.3,0.1c0.7,0.2,0.9,0.7,1.2,1.1c0.2,0.4,0.4,0.7,1.2,1
						c0.1,0,0.5,0.5,0.7,0.9c0.1,0.1,0.1,0.2,0.1,0.3s0.1,0.1,0.1,0.2s0.1,0.2,0.1,0.2c-0.1,0.1-0.1,0.2-0.3,0.4
						c-0.2,0.2-0.4,0.3-0.7,0.3c-0.1,0-0.3,0-0.4,0c-0.1,0-0.1,0-0.2-0.1c-0.1,0-0.2-0.1-0.3-0.1c-0.4-0.2-0.7-0.4-1.1-0.7
						c-2.1,0.6-4.4-1.2-6.4-1.7s-2.5-1.6-3.9-2.9c-0.4-0.3-0.8-0.4-0.9-0.7c-0.2-0.3-1.1-0.1-1.5-0.4l0.3-0.3
						c-0.1-0.1-0.4-0.3-0.5-0.4c-0.1-0.1,0-0.2,0.1-0.3c0.2-0.2,0.4-0.4,0.3-0.8c-0.5-0.5-1-1.1-1.5-1.5c-0.7-0.2-1.4-0.3-2.1-0.5
						c-0.1,0.1-0.3,0.3-0.5,0.4l-0.7-0.1c-0.4,0.3-0.6,0.7-0.8,0.9c-0.7,1-2.2,1.4-2.7,2.5c-0.1,0.3,0.9,1.2,1.1,2
						c0,0.2-0.5,0.4-0.8,0.7c0.7,0.5,0.4,0.9-0.1,1c0.1,0.1,0.3,0.3,0.3,0.3c-0.1,0.1-0.5,0.4-0.5,0.4c1.4,1.6,3,3.8,5.1,4.2
						c0.4,0.1,1.2,0.2,1.8,0.2c0.3,0,0.7,0.5,0.8,0.6c0.5-0.2,0.6-0.7,0.9-1c1.2,1,4,2.8,4.4,1.3c1.1,0.5,1.6-0.2,2.8,0.1
						c1.6,0.3,3.6,0.7,5.6,1c0.8,0.1,1.6,0.1,2.5-0.2c0.4-0.1,0.9-0.3,1.3-0.5c0.2-0.1,0.4-0.2,0.6-0.4s0.4-0.4,0.6-0.6
						c0.3-0.3,0.5-0.7,0.7-1c0.2-0.3,0.3-0.7,0.3-1c0.3-1.8-0.2-3.1-0.7-4.1c-0.5-1.1-1.1-2-1.8-2.8c-0.3-0.4-0.7-0.8-1.1-1.2
						c-0.4-0.4-0.9-0.7-1.2-1c-0.7-0.5-1.4-1-2.1-1.5c-2.9-1.9-6-3.4-9.8-4.3c-1.9-0.4-3.8-0.9-5.8-1.3c-1.9-0.4-3.8-1-6-0.9
						c-1.1,0-2.3,0.3-3.3,0.8c-1,0.6-1.9,1.3-2.5,2.2c-1.3,1.8-1.7,4.1-1.5,6.1c0.5,4.1,3,7,4.9,8.8c2,1.8,3.5,2.9,4.3,3.4
						L617.4,216.3z"/>
				</g>
			</g>
		</g>
	</g>
</g>
<g>
	<g>
		<g>
			<g>
				<g class="st0">
					<path class="st1" d="M673.8,222.9c-0.9-0.8-3.1-1.6-5.2-2.6c-2.2-1-4.3-2.5-5.2-3.7c-0.8-0.8-1.3-1.6-1.6-2.2
						c-0.2-0.5,0.3,0.6,1.6,2.2c0.6,0.7,1.4,1.3,2.5,2c-1.1-1.2-1.9-2.6-2.2-3.6c-0.5-0.5-0.9-1.1-1.3-1.7c-0.9-1.3-1.4-2.8-1.6-4.2
						c-0.2-1.5,0.1-3,0.7-4.2c0.3-0.4,0.6-1.2,1.2-1.7c0.5-0.6,1.2-0.9,1.7-1.1c-0.8,0.5-1.5,1.1-2,1.9s-0.9,1.8-1,2.8
						c-0.3,2,0.3,4.2,1.5,5.9c0-0.1-0.1-0.2-0.1-0.3c-1.1-1.9-1.3-4.2-0.8-6.1c0.1-0.3,0.2-0.6,0.4-0.9c-0.1,0.3-0.3,0.6-0.4,0.9
						c-0.2,0.9-0.1,1.7,0.1,2.7c0.1,0.6,0.1,1.3,0.3,1.9c0.2,0.5,0.2,1,0.3,1.5c0.2,0.3,0.3,0.6,0.5,0.9c0.1,0.1,0.2,0.1,0.2,0.2
						l0,0c0.1-0.3-0.1-1.1-0.3-1.9c-0.2-0.9-0.2-1.9-0.1-2.9s0.4-1.8,0.7-2.4c0.3-0.6,0.6-1,0.7-1.2c0.1-0.3,0.1-0.7,0.1-1.1
						c0.1-0.4,0.2-0.9,0.6-1.2c0.3-0.2,0.6-0.1,0.8-0.4c0-0.1,0.1-0.3,0.2-0.4c0.7-0.3,1.6,0,2.1-0.5c0.4-0.3,2.1,1.9,2.1,1.4
						c0.2-1.6,0-0.4,1.2-0.5c0.1,0,0.5-0.7,0.8-0.6c1,0.3,1.2-0.3,2.2-0.6c1.5-0.7,2,0.3,3.3-0.8c0.2-0.1,2.3-0.9,2.3-0.9
						c1.7,0,2.8-0.8,4.2,0.3c1.5-1,3.7,0.1,5.3,0c1.7-0.2,2.4,0.7,3.8,1.4c0.4,0.1,0.7,0.1,1,0.3c0.2,0.2,0.8-0.4,1.3-0.2l-0.1,0.4
						c0.1,0,0.4,0.1,0.5,0.2c0.1,0,0.1,0.2,0,0.3c-0.1,0.3-0.2,0.6,0.1,0.8c0.6,0.3,1.1,0.5,1.7,0.7c0.6-0.2,1.2-0.4,1.8-0.6
						c0.1-0.2,0.1-0.4,0.2-0.5l0.5-0.3c0.1-0.4,0.2-0.9,0.3-1.2c0.1-1.2,1-2.3,0.9-3.5c0-0.3-1.1-0.5-1.5-1.2
						c-0.1-0.2,0.2-0.6,0.3-1c-0.6-0.1-0.6-0.5-0.3-0.9c-0.1,0-0.3-0.1-0.3-0.1c0-0.1,0.2-0.6,0.2-0.6c-1.5-0.7-3.2-1.9-4.8-1.4
						c-0.3,0.1-0.9,0.4-1.3,0.6c-0.2,0.1-0.6-0.2-0.7-0.2c-0.3,0.4-0.3,0.9-0.4,1.3c-1.1-0.5-3.6-1.3-3.5,0.3
						c-0.9-0.1-1.1,0.6-2,0.7c-1.2,0.1-2.8,0.2-4.4,0.4c-0.8,0.1-1.7,0.1-2.5,0.2c-0.3,0-0.6,0-0.9,0.1c-3.1,0.3-5.7,0.3-8.4,0.5
						c-1.3,0.1-2.6,0.2-4.1,0.6c-1.4,0.3-3.1,0.9-4.5,2.1c-1.5,1.2-2.7,2.9-3.2,4.5c-0.6,1.7-0.8,3.4-0.7,5.1
						c0.1,1.7,0.6,3.3,1.4,4.7c0.7,1.4,1.6,2.7,2.6,3.8c2,2.2,4.3,3.6,6.2,4.5c1.9,1,3.3,1.5,4.1,1.7L673.8,222.9z"/>
				</g>
			</g>
		</g>
	</g>
</g>
<g>
	<g>
		<g>
			<g>
				<g class="st0">
					<path class="st1" d="M695.9,273.2c1.2-2.2,0.8-9.7,0.9-12.9c0-1.3,0-2.2,0-2.9c0-0.6,0.1,0.8,0,2.9c0,1,0.1,2.1,0.1,3.4
						c0.4-1.7,0.8-3.3,1.1-4.5c-0.1-0.8-0.1-1.7-0.2-2.5c-0.3-3.8-0.8-7.4-1.2-11.1c-0.1-1.4-0.6-4.3-0.6-5.6
						c1,5.4,1.8,10.9,2.4,16.3c0-0.2,0-0.3,0-0.5c-0.2-2.9-0.4-5.8-0.8-8.7c-0.1-0.5-0.1-1-0.2-1.5l0.2,1.5c0.2,1.3,0.5,2.5,0.8,3.9
						c0.1,0.9,0,1.9,0.1,2.7c0.1,0.7-0.1,1.4-0.2,2.1l0.1,1.3c0,0.1,0.1,0.3,0.1,0.4l0,0c0.5-0.6,0.8-3.7,0.8-6.8
						c0-3.2-0.2-6.4-0.5-7.3c-0.4-1.4-1.6-2.5-2.1-4.1c-0.1-0.5,0-1-0.3-1.4c-0.1,0-0.3-0.2-0.5-0.4c-0.3-1,0-2.2-0.6-2.9
						c-0.3-0.5,1.6-2.6,1.1-2.7c-1.7-0.1-0.5,0-0.6-1.4c0-0.2-0.8-0.5-0.8-0.9c0.1-1.2-0.5-1.4-1-2.6c-1-1.7-0.1-2.4-1.6-3.7
						c-0.2-0.2-1.5-2.5-1.5-2.5c-0.5-2-1.6-3-1.1-4.9c-0.8-0.8-1.1-1.8-1.7-3c-0.5-1.2-1.3-2.4-2.4-3.1c-1.1-0.6-1.8-1.1-2.4-1.7
						c-0.3-0.3-0.7-0.5-1.1-0.8s-0.8-0.5-1.3-0.8c-0.6-0.2-1-0.1-1.4-0.4c-0.3-0.2-1.2,0.3-1.8,0.3l0.1-0.4c-0.2,0-0.6-0.1-0.8-0.1
						c-0.2,0-0.2-0.2-0.1-0.3c0.1-0.3,0.2-0.6-0.2-0.8c-0.8-0.2-1.7-0.3-2.6-0.3c-0.8,0.3-1.5,0.7-2.2,1.1c0,0.2,0,0.4-0.1,0.6
						l-0.6,0.4c0,0.5,0.1,0.9,0.1,1.2c0.2,1.2-0.3,2.6,0.1,3.6c0.2,0.3,1.3,0.2,1.9,0.6c0.1,0.2,0,0.6-0.1,1
						c0.6-0.1,0.8,0.3,0.6,0.8c0.2,0,0.3,0,0.3,0c0,0.1,0,0.6,0,0.6c0.8,0.1,1.7,0.4,2.4,0.6c0.8,0.2,1.4,0.3,2,0
						c0.3-0.1,0.7-0.4,1-0.5c0.1-0.1,0.4,0.2,0.5,0.3c0.2-0.4,0.3-0.8,0.5-1.2c0.4,0.3,0.8,0.8,1.1,1c0.3,0.2,0.6,0.2,1.1-0.4
						c0.4,0.4,1,0,1.5,0.5c0.7,0.7,1.3,2.1,1.9,3.8c0.4,0.9,0.6,1.8,0.9,2.6c0.1,0.3,0.2,0.6,0.3,1c2.1,6.6,2.2,11.8,4.8,18.2
						c2.6,6.4,3.5,13.6,3.5,19.5c0.1,5.9-0.6,10.6-0.6,12.2L695.9,273.2z"/>
				</g>
			</g>
		</g>
	</g>
</g>
<g>
	<g>
		<g>
			<g>
				<g class="st0">
					<path class="st1" d="M725.5,219.7c1.3-0.7,1.2-2.4,1.8-3.1c0.1-0.3,0.2-0.5,0.4-0.7c0.1-0.1,0,0.2-0.4,0.7
						c-0.1,0.2-0.2,0.5-0.2,0.8c0.6-0.4,1.1-0.8,1.6-1.1c0-0.2,0.1-0.4,0.1-0.5c0.2-0.8,0.2-1.6,0.6-2.4c0.1-0.3,0.2-0.9,0.5-1.2
						c-0.2,1.1-0.3,2.3-0.4,3.4l0.1-0.1c0.2-0.6,0.4-1.2,0.6-1.8c0-0.1,0-0.2,0.1-0.3l-0.1,0.3c0,0.3,0.1,0.5,0.2,0.8
						c0,0.2-0.2,0.4-0.3,0.6c0,0.1-0.3,0.3-0.5,0.4l-0.1,0.3c0,0,0,0.1,0.1,0.1l0,0c1.1-0.3,2.7-2.5,2.5-2.8
						c-0.1-0.3-1.1-0.6-1.2-0.9c0-0.1,0.2-0.2,0-0.3c-0.1,0-0.3-0.1-0.4-0.1c-0.1-0.2,0.5-0.4,0.1-0.6c-0.2-0.1,2.2-0.3,1.8-0.3
						c-1.6-0.2-0.4-0.1-0.3-0.3c0,0-0.6-0.2-0.5-0.2c0.4-0.2-0.1-0.3-0.3-0.6c-0.5-0.4,0.5-0.4-0.4-0.9c-0.1-0.1-0.7-0.7-0.7-0.7
						c0.2-0.4-0.5-0.8,0.6-0.9c-0.9-0.5,0.3-0.8,0.2-1.3c-0.1-0.4,0.7-0.4,1.5-0.6c0.1-0.1,0.1-0.2,0.3-0.2c0.2,0-0.3-0.3-0.2-0.4
						l0.4,0.1c0,0,0.1-0.1,0.2-0.1c0,0,0.2,0,0.3,0.1c0.3,0.1,0.6,0.2,0.8,0.2c0.3-0.1,0.5-0.1,0.7-0.2c-0.2-0.2-0.4-0.4-0.6-0.6
						c-0.2-0.1-0.4-0.1-0.5-0.2l-0.3-0.2c-0.4-0.1-0.9-0.3-1.1-0.3c-1.2-0.3-2.3-0.8-3.4-1.1c-0.3-0.1-0.5,0.2-1.1,0.1
						c-0.2,0-0.5-0.2-1-0.3c0,0.2-0.5,0-0.9-0.1l-0.1,0.1c-0.1,0-0.6-0.2-0.6-0.2c-0.6,0.3-1.8,0.5-1.3,1c0,0.1,0.3,0.3,0.5,0.5
						c0.1,0.1-0.2,0.1-0.2,0.2c0.4,0.2,0.8,0.2,1.3,0.4c-0.5,0.2-1.4,0.7,0.2,1c-0.1,0.2,0.6,0.4,0.6,0.7c0.1,0.3,0.1,0.8,0.1,1.2
						c0.1,0.2,0,0.4,0,0.6c0,0.1,0,0.2,0,0.2c-0.1,1.6-1.4,2.7-0.3,4.3c1.1,1.6,0.9,3.1,0.3,4.5c-0.6,1.4-1.4,2.6-1.5,3L725.5,219.7
						z"/>
				</g>
			</g>
		</g>
	</g>
</g>
<g>
	<g>
		<g>
			<g>
				<g class="st0">
					<path class="st1" d="M991.4,255.2c-2.2,0.3-5.5,1-9.5,1.3c-4,0.3-8.6,0.2-13.2-0.5c-4.6-0.5-9.3-1.5-13.4-2.4
						c-4.2-0.9-8-1.9-10.7-2.8c-4.4-1.1-7.6-2.1-10.1-2.8c-2.1-0.7,2.7,0.7,10.1,2.8c3.3,0.9,7.2,1.8,11.9,2.9
						c-5.7-1.8-11-3.6-14.9-5c-2.9-0.7-5.8-1.5-8.8-2.3c-13.1-3.4-25.6-6.9-38.2-11.1c-4.6-1.4-14.7-4.7-19-6.4
						c18.5,6.2,37.4,11.7,56.3,16.6c-0.5-0.1-1.1-0.3-1.5-0.5c-9.9-2.7-19.8-5.6-29.7-8.6c-1.6-0.4-3.4-1-5.1-1.6l5.1,1.6
						c4.4,1.3,8.7,2.3,13.5,3.7c3,0.8,6.3,2,9.3,2.7c2.4,0.7,4.6,1.4,6.8,2.3l4.4,1.2c0.4,0.1,0.9,0.1,1.4,0.3c0,0,0,0-0.1,0
						c-1.7-1-11.9-4.2-22.3-7.6c-10.5-3.5-21.1-7-24.2-7.8c-4.9-1.3-9.6-1.9-15.1-3.5c-1.8-0.6-3.3-1.3-4.7-1.6
						c-0.2,0-0.9,0-1.6-0.1c-3.6-1.1-7.1-2.9-10-3.4c-2.1-0.5-6.6-4.7-7.1-4.4c-2,1-0.6,0.3-5.1-1.5c-0.6-0.3-2.5-0.3-3.6-0.8
						c-3.6-1.8-4.8-1.6-9.1-3.1c-6.4-1.9-7.5-3.5-13.4-4.8c-0.7-0.1-9.6-3.1-9.6-3.1c-6.7-2.9-11.1-4-15.9-7.4
						c-6.5-1.7-14.2-6.2-21.2-8c-1.8-0.5-3.4-0.9-4.8-1.3c-1.7-0.3-3.3-0.9-4.9-1.2c-0.8-0.2-1.7-0.3-2.4-0.6
						c-0.9-0.1-1.7-0.3-2.6-0.5s-1.9-0.4-2.9-0.6c-0.5-0.1-1.1-0.2-1.6-0.2c-0.3-0.1-0.6-0.1-0.9-0.1l-0.4-0.1c-0.1,0-0.2,0-0.3,0
						c0.1,0.3,0.3,0.6,0.5,1c1.1,2.4,2.1,4.1,2.6,5.5c0.2,0.7,1,1.9,1.9,3.3c0.9,1.4,1.8,2.8,2.4,4l-0.8-0.5
						c0.2,0.5,0.5,1.1,0.9,1.7c0.2,0.4,0.4,0.6,0.6,1c0,0.2,0.2,0.4,0.3,0.5c0.3,0.5,0.1,0.4-0.1,0.4c-0.4-0.1-0.8-0.2-0.4,0.8
						c1.1,2.3,2.4,4.6,3.8,6.8c1.7,2,3.4,3.9,5.2,5.8c0.2,0,0.5,0,0.9,0.2l1.6,1.6c0.6,0.1,0.9-0.4,1.3-0.3c0.9-0.8,3.8,0.8,4.3-0.5
						c0-0.4-2.5-3.8-3.2-5.6c-0.1-0.4,0.8,0.1,1.4,0.2c-1.5-2-1.2-2.3-0.3-1.7c-0.3-0.5-0.7-1-0.7-1c0.2,0.1,0.8,0.1,0.8,0.1
						c-1.7-2.6-3.2-5.4-4.7-8.2c-0.4-0.7-0.8-1.3-1.2-2.1c-0.4-0.6-0.7-1.2-1-1.8c0,0,0,0.1-0.1,0.1c-0.1,0-0.6-0.3-1.2-0.7
						c-0.1-0.1-0.1-0.1,0-0.1c0.1,0,0.4,0.2,0.4,0.2c-0.6-0.5-1.2-1.2-1.7-1.6c0.6,0.2,1.1,0.4,1.6,0.6c0.5,0.2,0.8,0.3,1.2,0.4
						c-0.1,0,0.9,0.2,1.4,0.4s1.2,0.2,1.6,0.3c0.9,0.1,1.5,0.1,1.5-0.3c3.3,1.1,4.3,0.7,7.8,1.9c4.7,1.7,10.6,4.1,16.3,6.6
						c3.2,1.3,6.2,2.6,9.4,4c1.1,0.5,2.3,0.9,3.3,1.4c11.6,4.8,21.7,9,31.8,12.9c10.1,3.9,20.4,7.5,32.1,10.7
						c23.8,6.5,48.8,13.6,69.4,19.1c10.2,2.8,19.6,5.2,27.5,6c3.9,0.4,7.4,0.5,10.4,0.3c1.5-0.1,2.7-0.2,3.9-0.4
						c1.2-0.1,2.2-0.3,2.9-0.6C989,256.3,990.2,255.7,991.4,255.2z"/>
				</g>
			</g>
		</g>
	</g>
</g>
</svg>
