<?xml version="1.0" encoding="utf-8"?>
<!-- Generator: Adobe Illustrator 24.0.1, SVG Export Plug-In . SVG Version: 6.00 Build 0)  -->
<svg version="1.1" id="Layer_1" xmlns="http://www.w3.org/2000/svg" xmlns:xlink="http://www.w3.org/1999/xlink" x="0px" y="0px"
	 viewBox="0 0 1291 1283" style="enable-background:new 0 0 1291 1283;" xml:space="preserve">
<style type="text/css">
	.st0{fill:#E8A600;stroke:#BF5200;stroke-width:3;stroke-miterlimit:10;}
</style>
<path class="st0" d="M218.1,215.9c1.7,2,3.1,3.8,4.7,5.6c-12.7,13.9-25.6,28.1-38.9,42.7c16.8,13.5,33,26.6,49.2,39.6
	c-10.4,14.2-20.5,27.9-30.9,42.1c15.7,10.3,30.7,20.2,46.4,30.4c52.4-77.2,121.2-134.7,206.9-172.7c-8.2-19.4-16.3-38.4-24.8-58.5
	c19.2-7.1,37.9-13.9,57.1-21c1,3.1,1.7,5.3,2.5,7.9c-8.5,2.9-16.5,5.5-24.5,8.3c-8,2.9-15.8,6-24.5,9.3c8.3,19.5,16.3,38.5,24.6,58
	c-4.7,2.1-9.4,3.9-13.7,6.2c-21.1,11.4-42,23-63,34.4c-3.7,2-4,3.6-1.5,7.2c32.4,47.3,64.6,94.8,96.9,142.2c2.1,3.1,4.3,6.2,6.8,9.8
	c-46.9,31.4-81.3,72.8-103.8,125c18.2,7.4,36.2,14.6,54.6,22.1c-1,2.5-1.8,4.7-2.9,7.4c-57.4-23.2-114.3-46.1-171.8-69.4
	c-28.5,73.9-35.1,149.1-20.4,227.1c19.5-4,38.5-7.9,58-12c0.5,2.7,0.9,4.9,1.4,7.7c-19.3,4-38.2,8-57.6,12
	c5.4,26.2,13.9,51,24.3,75.6c-2.5,1.1-4.5,2-7.1,3.1C255,781.1,247,755.5,241,728.9c-18.1,3.8-35.7,7.4-53.1,11
	c-0.5,28,41,126.4,67.9,161.3c32.3-22,64.7-44,97.4-66.2c-12.4-19.5-23.5-39.2-32.1-60.9c19.4-8.2,38.3-16.3,57.9-24.6
	c-13.2-32.8-20.3-66.6-21.3-101.9c-19.7,0-39.1,0-58.9,0c0-2.6,0-4.8,0-7.6c2-0.1,4-0.3,5.9-0.3c16.2-0.1,32.3-0.3,48.5-0.4
	c2.5,0,4.3-0.1,4.6-3.6c1.1-14.3,2.5-28.5,3.8-42.7c0-0.5-0.1-1-0.2-2.1c-18.9-3.6-37.9-7.3-57.5-11c0.5-2.7,0.9-4.9,1.5-7.7
	c22,4.2,43.6,8.3,65,12.3c-1.9,18.3-3.7,36.1-5.6,53.9c40.3,0,79.4,0,118.9,0c1.7-44.4,17.6-82.1,49.2-113.4
	c1.9,1.8,3.5,3.3,5.5,5.2c-38.6,40.2-54.4,87.6-43,142c11.3,54.3,44.8,91.2,96.3,112.8c-16.7,41.2-33.3,82.3-50.2,124.2
	c-8.7-4-17.3-7.4-25.5-11.7c-8.9-4.6-17.4-9.7-26-14.9c-5.8-3.5-5.7-3.7-1.4-9.2c15.9,8.6,31.8,17.1,48.2,26
	c15.2-37.5,29.8-73.7,44.6-110.3c-28.7-12.9-51.8-31.8-69.3-57.4c-17.5-25.6-26.7-54.1-28-84.9c-39.4,0-78.5,0-118.2,0
	c0.8,37.4,8.8,72.5,23.6,106.9c-19.4,8.2-38.4,16.3-57.9,24.6c8.8,20.7,19.8,39.8,32.7,58.7c-34.8,23.7-69.4,47.2-104.2,70.9
	c17.5,25.7,37.5,48.5,59.2,70.1c-0.9,1.1-1.5,1.9-2.2,2.6c-0.8,0.8-1.7,1.6-2.9,2.7c-22.8-21.2-42.3-45.1-60.7-70.8
	c-17.4,11.8-34.7,23.5-52.6,35.7c-10.6-17.4-21-34.4-31.7-51.8c2.8-1.5,4.9-2.7,7-3.8c9,15,17.8,29.6,26.9,44.6
	c15.6-10.6,30.6-20.8,45.9-31.2c-17.4-26.3-32.2-53.6-44.1-82.3C193,795,184,765.5,177.7,734.1c20.5-4.3,40.7-8.5,61.6-12.9
	c-15.1-79.1-8.2-156.2,20.9-231.7c-36.4-14.7-72.6-29.3-109.9-44.4c-5.7,16.5-11.2,32.6-16.9,49.2c-2-0.5-4.2-1.1-7.1-1.9
	c10.5-36.8,24.6-71.7,42.6-105.3c2,1,3.5,1.7,5,2.5c0.6,0.3,1,0.8,1.5,1.2c-7.3,15.6-14.6,31-22,46.9
	c76.1,30.7,151.4,61.1,226.4,91.4c7.6-14.5,15-28.6,22.5-43.1c-15.9-10.4-32-21-48.6-31.9c1.3-2.1,2.5-4.2,4-6.7
	c16.5,10.8,32.7,21.4,49.5,32.3c20-29.1,44.2-53.8,73.3-74.5c-34-49.9-67.9-99.6-102.1-149.8c-48.9,33.9-89.6,75.4-123,124.9
	c15.4,10.1,30.5,20,45.1,29.5c17.1-20.8,34-41.5,52-63.4c17,16.7,32.9,32.4,49.3,48.4c-2,2.1-3.9,4.1-6.1,6.5
	c-14.3-14-28.4-27.8-42.8-41.9c-18.5,19.2-34.4,39.8-49.1,62c-37.4-24.5-74.5-48.8-112.4-73.6c10.3-14.4,20.4-28.5,30.9-43.1
	c-14-11.3-28-22.6-42.8-34.5C93.7,380,51,503.4,49.7,641.6c39.7,0,78.7,0,117.1,0c2.6-28.8,5.1-56.9,7.7-85.7
	c-17-3.2-34.7-6.6-53.3-10.1c-2.3,17.5-4.6,34.4-6.9,51.7c-2.4-0.2-4.6-0.4-8-0.8c2.8-20.3,5.6-40,8.4-60.3
	c23.9,4.5,46.8,8.9,70.1,13.3c-1.6,10.1-3.6,19.7-4.4,29.4c-1.7,21.4-3.1,42.8-4.1,64.2c-0.2,4.8-1.5,6.2-6.2,6.1
	c-17-0.1-34,0.1-51,0.1c-1.8,0-3.6,0-6,0c0.4,35.5,4.6,69.9,11.9,103.9c7.3,33.9,17.9,66.8,31.7,98.9c-1.4,0.7-2.3,1.3-3.4,1.7
	c-1,0.5-2.1,0.9-3.9,1.6c-3.4-8.5-6.9-16.7-10-25c-21.1-56.5-32.7-115-34-175.5c-0.1-3.9-1-5.5-5.3-5.4c-15.2,0.4-30.3,0.4-45.5,0.6
	c-1.3,0-2.6,0.2-4.8,0.4c3.6,138.4,48.6,261.1,135.8,369.1c15.4-12.8,30.3-25.2,45.6-38c1.6,2,3.1,3.8,4.9,6
	c-15.1,12.7-30,25.1-45.2,37.9c49.5,58,107.3,104.8,174.7,140.9c4.9-9.2,9.5-18,14.1-26.8c3.5-6.6,6.9-13.3,10.4-19.9
	c3.2-6.2,3.2-6.2,9.8-1.8c-8.9,17.1-17.9,34.3-27.3,52.2c104.8,53,215.1,73.6,332.3,62.9c-2-18.6-3.9-36.4-5.8-54.4
	c-17.8,0.9-35.1,1.7-53.7,2.6c0-42.6,0-84.3,0-126.5c-45.8-0.3-89.3-7.3-131.7-21.5c-9-3-17.7-6.5-27.2-10c1.2-3.2,2.2-5.8,3.2-8.3
	c6.2-15.4,12.4-30.9,18.8-46.3c1.4-3.4,0.4-4.6-2.6-5.9c-33-14.1-62.9-33.2-90.2-56.4c-4.4-3.8-8.5-7.9-12.1-11.2
	c-13.3,12.8-26.4,25.3-39.9,38.3c19.2,18.6,39.8,34.5,62.1,49.1c-11.4,17.8-22.7,35-34.4,52.8c52.5,33.6,109.1,55.8,170.4,67.2
	c-3.9,20.8-7.8,41-11.8,62.2c17.4,2.3,34.3,4.6,51.6,6.9c-0.1,2.3-0.3,4.6-0.5,7.4c-38.2-3-75.1-10.1-111.8-21.2
	c0.8-2.6,1.5-4.8,2.2-7.1c16.9,4.2,33.4,8.2,50.6,12.5c3.5-18.6,6.9-36.3,10.2-53.2c-27.6-8.1-54.7-16.1-82.4-24.2
	c-7,17.1-14.2,35.1-21.7,53.5c-2.5-1-4.6-1.8-7.3-2.9c7.4-18.3,14.6-36.3,21.6-53.6c-25.4-13.3-50.4-26.3-76.1-39.8
	c-10.9,16.6-22.3,33.9-33.8,51.3c-20.8-11.3-77.2-56.6-88.7-71.5c1.8-1.3,3.6-2.7,6-4.5c24.2,23.8,50.8,45.8,80.2,65.3
	c21.5-32.8,42.9-65.4,64.8-98.7c-22.2-15.4-43.2-32-62.7-52c29.5-30.1,58.8-59.9,87.7-89.3c-11.8-14.6-23.4-28.9-35.3-43.5
	c3-2,4.8-3.3,6.5-4.4c11.5,14.1,22.7,27.8,33.6,41.3c13.8-13.2,26.8-25.7,40.3-38.7c-20.7-21.6-36.9-45.6-47.9-73.1
	c1.2-0.7,2.1-1.2,3.1-1.7s2.2-0.8,3.9-1.5c12,28.8,29,54.1,52.5,76.6c-29.5,30.1-58.9,59.9-88.4,90c32.9,31.3,70.2,54.8,112.3,71.6
	c-7.9,19.5-15.6,38.6-23.6,58.3c47.6,18.6,96.5,27.9,147.6,28.1c0-21.1,0-41.7,0-62.8c23.9-0.5,47.4-2.5,70.6-7.4
	c23.2-4.8,45.6-12.1,67.8-21.5c1.1,2.5,2.1,4.5,3.2,7c-21.2,9.5-42.7,17-65.2,21.1c-22.4,4.1-45,6.7-67.8,10c0,37.8,0,76.8,0,116.4
	c31.5-0.4,61.7-4.1,91.7-10.5c29.9-6.4,58.8-15.8,87.6-28.1c8.2,19.2,16.3,38.3,24.7,58.1c8.6-4,16.8-7.8,25-11.7
	c5.4-2.6,10.7-5.5,16-8.3c6.3-3.3,6.2-3.4,9.5,4.5c-17.9,8.7-35.9,17.4-54.4,26.4c-8.5-20-16.5-38.9-24.9-58.5
	c-55.9,23-113.9,35-174.1,36.4c0,18.5,0,36.5,0,55.4c17.5-1.1,34.4-2.2,52.1-3.3c2.2,20.6,4.4,41.1,6.7,62.2
	c36.3-4.1,71.4-11.4,106.5-22c-5.5-17.5-10.9-34.8-16.3-52.2c-17.1,4.3-34,8.5-51.3,12.8c-0.7-3.1-1.2-5.3-1.7-7.5
	c19.3-5,38.3-9.9,58.2-15.1c6.1,19.4,12.4,39.3,18.8,59.7c72.7-23.4,138.1-59,197.1-107.6c-12.6-15.1-25-29.9-37.7-45.2
	c1.8-1.7,3.6-3.3,5.7-5.3c12.8,15.2,25.3,30.1,37.7,44.9c21.4-11.6,98.3-97.6,111-124.3c-32.7-21.4-65.4-42.9-97.5-63.9
	c-17.9,22.2-35.5,44.1-52.7,65.4c12,12.5,24.5,25.5,37.6,39.1c7.5-8.3,14.6-16.1,21.6-24c2.9-3.2,5.7-6.6,8.3-10
	c4.5-5.8,5-5.8,10.1,0.9c-13,14.6-26.2,29.3-40.4,45.1c-15.4-15.1-30.2-29.6-44.5-43.7c-21.8,18.2-43.3,36.1-65.5,54.7
	c10.4,15.2,21.3,31.4,32.5,47.9c-2,1.4-4.1,2.7-6.5,4.3c-12.6-18.4-25-36.6-37.8-55.3c25.4-17.1,48.8-36.1,70.8-58
	c-28.2-27.7-56.1-55.1-83.8-82.3c-15.6,13-30.8,25.6-46.5,38.8c11.3,16.6,22.9,33.7,35,51.4c-47.4,32.8-99.1,54.7-155.8,66.1
	c-0.6-2.8-1.1-5-1.6-7.7c26.3-5.5,51.6-13,76.1-23.2c24.5-10.1,47.8-22.5,70.3-37.4c-11.9-17.5-23.6-34.6-34.7-51
	c19.4-16.2,38.2-31.9,58.3-48.6c29.1,28.5,58.9,57.8,89.1,87.4c21.3-22.3,40-45.9,56.7-71.7c17.6,11.5,35,22.9,52.7,34.5
	c19.2-29.4,34.7-60.1,47.8-92.6c2.5,1,4.6,1.8,7.2,2.8c-12.8,33.1-29.2,64-48.3,94.2c15.4,10.1,30.5,20,46.1,30.3
	c30.6-47.2,53.7-97.3,70.1-151.4c-19-5.6-37.6-11.1-56.6-16.7c0.6-2.5,1.2-4.6,2-7.6c19,5.5,37.6,11,56.8,16.6
	c10.1-34.9,16.7-70.1,20.2-106.8c-19.4-1.8-38.8-3.6-58.6-5.4c0.1-2.5,0.3-4.7,0.4-7.8c19.7,1.7,39,3.4,58.9,5.2
	c4.6-56,1.4-111-9.6-166.4c-18.1,3.7-35.8,7.4-53.9,11.2c6.5,34.8,10.6,69.6,10.2,105.1c-2.7,0-4.9,0-7.7,0
	c-0.5-34.7-3.4-68.9-10.6-103.4c-39.9,8.3-79.4,16.5-119.5,24.8c-0.5-2.5-1-4.6-1.7-7.7c60.5-12.6,120.7-25.1,181.5-37.8
	c-16.1-74.6-45.2-143.1-87.7-206.6c-35,23.8-69.6,47.3-104.4,71c-17.1-25.3-36.2-48.7-57.9-70.5c-86.7,88.1-173.1,176-258.9,263.3
	c5.7,9.6,12.3,18.4,16.5,28.2c4,9.5,6.1,20,8.1,30.2c0.8,3.9,2,4.8,5.6,4.7c16-0.3,32-0.3,48-0.4c1.8,0,3.6,0,5.8,0c0,2.6,0,4.8,0,8
	c-19.4,0-38.9,0-58.7,0c-1.3,24.2-9.4,44.9-25.3,63c14.6,15.2,29.1,30.2,43.8,45.5c-15.9,16.8-35.1,29.8-57.5,38.9
	c-1.1-2.4-2.1-4.4-3.3-7c18.6-8.1,35.5-18,49-31.4c-11.3-11.8-22.4-23.3-33.4-34.8c-3.1-3.2-7.8-6.3-8.4-10
	c-0.4-2.9,4.5-6.5,6.9-9.8c23.1-31.1,27.5-64.6,9.5-98.9c-17.8-33.9-47.4-50.6-85.7-48.4c-35.5,2.1-61.9,20.1-76.6,52.5
	c-14.6,31.9-11.3,63.1,9.6,91.6c17.7,24.1,42.2,36.1,72,36.6c5.1,0.1,5.7,2.1,5.7,6.1c0.2,38,0.5,75.9,0.8,113.9c0,1.8,0,3.6,0,6.2
	c39.1-1.1,74.7-11.7,107.4-31.7c39.1-24,67.8-57.3,86.4-99.9c-18.5-7.5-36.5-14.8-54.8-22.2c1.1-2.6,1.9-4.7,3-7.3
	c18.3,7.3,36.2,14.6,54.1,21.8c19.9-30.5,19.1-125.7-1.3-157.9c-17.8,7.5-35.6,15-53.8,22.8c-1-2.6-1.9-4.6-3-7.3
	c37.5-15.9,74.7-31.7,113.2-48.1c-9-16-17.7-31.6-26.9-48c36.1-24.6,72.8-49.5,110-74.8c15.7,22.1,28.6,45.6,39.7,70.7
	c36.2-15.4,72.2-30.6,109.2-46.3c-7.6-15.6-15.1-30.9-22.9-46.7c1.9-1.1,3.9-2.3,5.9-3.4c10.7,13.5,40.1,82.3,44.6,104.2
	c-2.2,0.7-4.4,1.5-6.9,2.4c-3-8.6-5.7-16.8-8.6-24.9c-2.9-7.9-5.9-15.8-9.1-24.1c-56,23.7-111.2,47.2-167.1,70.9
	c16.5,40.5,25.2,82.2,26.3,125.7c42,0,83.8,0,126.7,0c-0.6,15.5-0.8,30.9-2.1,46.2c-1.2,15.4-3.5,30.7-5.4,46.6
	c18.9,3.6,38,7.3,57.5,11c-0.5,2.7-0.9,4.9-1.5,7.7c-19.3-3.6-38.2-7.2-57.9-10.9c-6.4,30.5-15.1,60-27.3,89.4
	c-19.4-7.8-38.6-15.6-58.4-23.5c-10.8,24.9-23.1,48.7-38.6,71.4c-35.1-23-70-45.8-105.3-69c-16.3,23.3-35,44.1-56.9,61.9
	c-22,17.9-46.1,32.1-72.7,43.2c-1.1-2.4-2-4.5-3.1-6.8c92.8-41.4,149.4-111.6,170.3-211.1c42.3,8,84.6,16,126.7,24.1
	c0.1,7.9-0.2,8.2-7.3,6.8c-15.2-2.9-30.4-5.8-45.6-8.7c-1.8-0.3-3.6-0.6-4.8-0.8c-6.7,21.9-13.4,43.5-20.2,65.6
	c-3.5-1.4-5.7-2.2-8.3-3.3c8.4-21,15.2-41.9,19.4-64.2c-18-3.4-35.6-6.8-54-10.2c-7.4,34.6-20.2,66.7-39.3,96.8
	c33,21.6,65.7,43.1,98.9,64.8c14.7-22.4,26.3-45.9,36.4-70.8c19.5,7.9,38.7,15.6,58.5,23.6c21.7-55.4,32.6-112.3,32.6-171.4
	c-42.2,0-83.9,0-125,0c-2.1-22.1-4.3-43.9-6.5-66.7c-20.3,4.2-39.3,8.1-58.9,12.2c-0.5-2.5-1-4.7-1.7-7.7
	c19.3-4.1,38.4-8.1,58.9-12.4c-7-21.6-13.8-42.4-20.8-64c18.3-7.8,37.4-15.9,56.9-24.2c-9.4-22-20.8-42.5-34.2-62.9
	c-32.6,22.2-64.9,44.2-97,66c8.8,16.7,17.4,33,26.5,50c-20.2,8.6-39.4,16.8-58.9,25.1c10.1,25.2,15.3,51,16.4,77.8
	c19.8,0,39.1,0,58.7,0c0,2.5,0,4.7,0,7.9c-19.4,0-38.7,0-58.5,0c-1.9,60.8-22.7,113-65,155.8c-42.1,42.7-93.7,64.5-153.7,67.3
	c0,18.3,0,36.3,0,55.8c18.4-2.2,36.2-4.3,54.5-6.5c0.3,1.6,0.8,3.9,1.5,6.8c-37.3,8.3-74.3,8.9-112.2,2.7
	c-3.7,19.3-7.4,38.3-11.2,57.8c-2.6-0.5-4.8-0.9-7.7-1.4c4.2-22,8.3-43.7,12.3-64.9c18.3,1.9,35.9,3.7,54.2,5.6
	c0.2-2.8,0.4-4.5,0.4-6.3c-0.5-56.8-1-113.6-1.3-170.3c0-4.2-1.1-5.6-5.5-5.9c-73.9-5.9-114.9-90.1-74.2-151.7
	c31.2-47.1,93.3-59.1,139.6-26.8c3,2.1,5.8,4.5,8.2,6.4c13.1-12.7,26.2-25.2,39.6-38.2c-23-22-49.7-34.8-80.2-39.8
	c-30.4-4.9-59.7-0.8-88.2,11.7c-8.3-19.5-16.3-38.4-24.6-57.8c-26.5,11.4-48.8,28.1-69,48.1c-0.9-0.7-1.6-1.1-2.2-1.7
	c-0.9-0.9-1.8-1.9-3.1-3.3c22-23.8,48.2-41,78.4-53.7c8.3,19.5,16.5,38.6,24.7,58c29.4-11.1,59.1-14.2,89.7-8.4
	c30.4,5.8,56.8,19.4,80.1,40.4c71.8-73,143.5-145.9,215.6-219.2c-22.1-21.4-46-40-71.8-56.9c11.6-17.6,22.9-35,34.7-53
	c-15.2-8.8-30-17.4-45.1-26.1c1-2.1,2-4.1,3.6-7.2c17.7,10.4,34.9,20.5,52.6,30.9c-11.9,18.1-23.2,35.5-34.1,52.1
	c22.3,18,44.3,35.7,65.8,53.1c13.5-12.9,27.6-26.3,41.9-40c1.4,1.7,3.1,3.8,5.5,6.8c-13.5,12.8-27.6,26.2-41.2,39.1
	c19.2,22.9,37.2,44.5,55.6,66.4c31.7-21.6,64.1-43.6,97.1-66.1c-10.3-13.6-20.2-26.7-30.5-40.3c-15.4,12.9-30.4,25.3-45.7,38
	c-1.6-1.9-3.1-3.7-4.9-6c15.1-12.6,29.9-25.1,45.2-37.9c-23.5-27.9-49.3-52.9-77.6-76.2c-12.5,15.4-24.7,30.5-37.1,45.8
	c-2.2-1.7-4-3-6.2-4.7c12.4-15.4,24.6-30.5,37.1-46.1c-75.9-59.9-160.7-99-255.7-118.1c-3.5,18.3-6.8,36-10.3,54.2
	c34.9,7.1,68.3,17,101.3,30.7c-16.7,41.3-33.3,82.4-50.2,124.1c-24.8-9.8-49.8-18-76.3-22.9c-3.9,20.8-7.8,41-11.7,61.7
	c-22.3-4-44.1-6.8-66.6-6.5c-0.1,1.8-0.3,3.3-0.3,4.7c0.3,36.1,0.6,72.2,0.9,108.4c0,2.9,0,5,4,5.1c24.3,0.5,48,5,70.9,13.4
	c1.1,0.4,2.2,0.6,3.8,1c6.8-16.7,13.5-33.3,20.5-50.5c-16.9-7.2-34.4-11.4-52.6-15.1c0.4-2.4,0.8-4.7,1.3-7.5
	c18.7,2.8,36.4,8.3,54.4,14.9c7.9-19.4,15.6-38.6,23.6-58.3c21.7,8.2,41.7,18.9,61.4,31c10.8-16.5,21.4-32.5,32.3-49.1
	c2.2,1.4,4.2,2.6,6.7,4.2c-23.2,35.3-46,70.1-69.1,105.3c-2.4-1.6-4.3-2.9-6.5-4.4c10.8-16.4,21.3-32.5,32.2-49.2
	c-16.6-11-33.9-19.8-52.5-27.6c-15.8,39.1-31.4,77.8-47.2,116.9c-29.1-12.1-59.1-17.9-91.2-17.2c0-21.2,0-41.9,0-63
	c-37.6,0.9-72.5,8.9-106.9,23.7c-16.9-39.8-33.7-79.4-50.7-119.4c2.4-1.1,4.5-2.1,7.2-3.4c16,37.6,31.7,74.7,47.6,112.1
	c1.6-0.5,2.9-0.7,4.1-1.2c30.2-11.8,61.5-18.4,93.9-19.5c3.6-0.1,4.5-1.4,4.4-4.8c-0.3-17.1-0.4-34.3-0.6-51.5c0-2.1,0-4.2,0-6.9
	c23.4-0.8,46,1.4,68.8,5.1c7.3-38.7,14.6-76.9,22-115.9c-30.3-5.9-60.6-7.8-91.8-7.7c0-3.8,0-7.2,0-10.7
	c-0.2-17.8-0.4-35.6-0.7-53.4c-0.1-6.9-0.2-7.1,6.7-6.9c16.1,0.5,32.3,1.3,48.4,2c1.8,0.1,3.6,0.5,5.3,0.7c1.1,7.5,0.9,7.6-6.1,7.2
	c-13.6-0.8-27.3-1.3-40.9-2c-3.7-0.2-5.3,0.6-5.2,4.9c0.3,16.5,0.1,32.9,0.1,50.2c31.8,0.3,62.5,2.9,93.6,9.3
	c-3.9,20.5-7.7,40.9-11.5,60.8c23.5,6.9,46.6,13.7,70.5,20.7c14.4-35.5,29-71.8,43.9-108.5c-32.6-13.1-65.7-22.2-100.3-28.8
	c3.9-20.6,7.8-40.8,11.6-60.9c-16.5-9-135.8-14.2-166.5-7.2c2,19.2,4,38.4,6.1,58.1c-2.7,0.3-4.8,0.6-7.8,1
	c-2.1-19.5-4.2-38.9-6.5-59.2c-16.8,2.6-33,5.2-49.9,7.8c12.4,59.5,24.6,118.3,37,177.7c26.6-4.9,53.1-7.9,80.4-7.7c0,2.6,0,5,0,7.9
	c-26.4,0.2-52.5,2.4-78.6,7.8c4,19.3,7.9,38.2,11.8,57.6c-2.6,0.6-5,1.1-7.7,1.7c-16.9-81.1-33.7-161.6-50.6-243
	c-6.7,1.6-13,2.9-19.2,4.5c-46.3,11.5-90.5,28.4-132.8,50.4c-4,2.1-4.3,3.8-2.2,7.5c8.6,15,16.8,30.2,25.1,45.4
	c0.9,1.6,1.5,3.3,1.8,3.8c-23,15.4-46.5,29.5-68.2,45.8c-21.7,16.4-41.7,35-62.8,53c0.1,0.1-0.8-0.6-1.6-1.4
	c-0.9-0.9-1.8-1.9-2.8-3.1c37.1-38,78.6-69.9,125.5-96.1c-8.8-16.1-17.4-31.9-26.7-49.1c-16.7,10.6-33.3,20.5-49.2,31.5
	c-15.9,10.9-31,23-46.9,34.9c-1.2-1.4-2.6-3.1-4.7-5.7c108.5-89.7,232.6-138.3,373.5-142c140.6-3.7,268.2,36.5,380.2,121.7
	c287.5,218.7,316,623.9,88.2,880.3c-235.8,265.3-641.3,270.9-883.7,21.9C-31,810.9-1,431,218.1,215.9z"/>
</svg>
