<?xml version="1.0" encoding="utf-8"?>
<!-- Generator: Adobe Illustrator 24.0.1, SVG Export Plug-In . SVG Version: 6.00 Build 0)  -->
<svg version="1.1" id="Layer_1" xmlns="http://www.w3.org/2000/svg" xmlns:xlink="http://www.w3.org/1999/xlink" x="0px" y="0px"
	 viewBox="0 0 682 681" style="enable-background:new 0 0 682 681;" xml:space="preserve">
<style type="text/css">
	.st0{fill:#FEFDFC;}
	.st1{fill:#F99F00;}
	.st2{fill:#FEFEFE;}
</style>
<path class="st0" d="M7.1,316c0-101.3,0-202.6-0.1-303.9C7,8.7,7.7,8,11.1,8C112.7,8.1,214.4,8.1,316,8.1
	c-6.6,2.2-13.6,1.9-20.4,2.8c-63.3,8.1-119,33.6-168.3,73.7c-1.9,1.5-5.3,2.4-2.1,6.4c2.9,3.5,4.7,3.6,8.2,0.8
	c13.8-11.2,28.5-21.4,43.7-30.7c2.9-1.8,4.3-1.9,5.9,1.4c2.3,5,5,9.8,7.8,14.5c1.9,3.1,1.6,4.5-1.8,6.4
	c-22.7,13.2-43.3,29.3-61.8,47.9c-2,2-3.2,3.5-0.6,6.1c2.4,2.3,4.3,2.7,6.8,0.3c21.1-19.7,44.2-36.9,68.9-51.9
	c2.4-1.4,2.7-2.7,1.4-5.1c-4.4-7.8-8.7-15.7-13.1-23.6c-0.8-1.5-1.8-2.7,0.6-3.8c24.2-12.2,49.3-21.7,75.7-27.7
	c2.3-0.5,2.8,0.1,3.2,2.2c0.8,4.7,1.9,9.4,2.9,14.2c7.8,37.3,15.6,74.6,23.2,111.9c0.7,3.5,2.2,4,5.4,3.2c3.1-0.8,5.1-1.4,4.1-5.5
	c-1.9-7.7-3.1-15.7-4.9-23.4c-0.7-2.9-0.5-3.9,2.8-4.4c11.4-1.8,22.8-3.1,34.3-2.8c4.3,0.1,4.8-1.9,4.8-5.5c0.1-3.6-1.3-4.5-4.6-4.4
	c-12,0.3-23.9,1.2-35.7,3.3c-3.5,0.6-4.6,0-5.3-3.4c-5.8-28.2-11.6-56.4-17.6-84.5c-0.7-3.1,0.4-3.9,2.9-4.2
	c4.9-0.7,9.9-1.4,14.8-2.3c2.7-0.5,3.8,0.1,4.1,3.1c0.7,8.3,1.9,16.5,2.7,24.8c0.2,2.3,0.2,4.6,3.6,3.3c2.2-0.9,6.6,1.6,5.8-4.2
	c-1.1-8.1-1.5-16.2-2.5-24.3c-0.5-3.7,1-4.6,4.3-4.8c11.6-0.6,23.2-1,34.9-0.4c13.8,0.7,27.6,1.3,41.3,3.4c3.2,0.5,4.6,1.7,3.8,5.2
	c-1.7,8-3,16-4.8,24c-1,4.3,0,6.1,4.6,6.9c15.3,2.7,30.1,7,44.7,12.3c2.5,0.9,4.5,1.6,3,5.2c-6.7,16-13.1,32-19.5,48.1
	c-1.1,2.7-2.5,2.9-5,2.2c-9.1-2.7-18.2-5.4-27.3-8c-2.8-0.8-3.1-2.2-2.6-4.8c1.6-7.7,3-15.3,4.5-23c1.4-6.9,1.4-6.9-5.4-8.1
	c-13.3-2.3-26.7-4.1-40.2-4c-3.8,0-5.3-1.1-5-5.1c0.4-5.3,0.3-10.7,0-16c-0.2-3.4,1.1-4.3,4.3-4.1c6.3,0.5,12.6,0.7,18.9,1
	c2.9,0.1,5.3-0.5,5.7-4.1c0.3-3.5-1-5.3-4.6-5.4c-9.5-0.3-18.9-0.8-28.4-1.2c-3.9-0.2-5.3,1.9-5.2,5.6c0.2,11.3,0.3,22.7,0.2,34
	c0,3.4,0.8,4.6,4.4,4.5c13.5-0.2,26.9,0.9,40.3,2.7c3.7,0.5,5.2,1.5,4.4,5.6c-3.3,16.5-6.5,32.9-9.4,49.5c-0.7,3.9-2.5,4.3-5.7,3.8
	c-9.7-1.8-19.5-1.8-29.4-1.9c-3.3,0-4.3,1-4.2,4.2c0.3,8.8,0.2,17.6,0.6,26.5c0.1,3.3-1,4.2-4.2,4.3c-15.1,0.5-29.7,3.7-43.8,9
	c-3.2,1.2-4.5,0.7-5.9-2.5c-7.5-18-15.2-35.8-22.8-53.8c-0.9-2.2-1.3-4.8-4.7-2.6c-2.4,1.6-6.5,1.3-4.1,6.7
	c9.1,20.4,17.7,40.9,26.2,61.5c1.5,3.6,2.9,4.3,6.5,2.7c15.4-6.8,31.5-10.3,48.2-11.8c3.5-0.3,4.7,0.5,4.6,4.2
	c-0.3,8.2,0.2,16.3-0.2,24.5c-0.2,4.3,0.8,5.6,5.4,5.6c15.1-0.1,29.9,2.4,43.8,8.4c4.3,1.8,5.5,0.7,7-3.2
	c7.1-18.3,14.7-36.4,21.9-54.7c1.4-3.6,2.9-4.2,6.1-2.4c5.1,2.9,10.2,5.5,15.5,8.1c3.2,1.6,4.1,3,1.6,6.3
	c-4.7,6.5-8.7,13.4-13.3,19.9c-2.9,4.1,0.8,4.6,2.7,6.3c2.2,1.9,3.6,1.8,5.4-0.9c11.9-18.5,24-36.8,36.1-55.1c1.5-2.3,2.8-4-0.7-5.8
	c-2.9-1.6-5-3.6-7.5,0.8c-4,6.9-8.8,13.3-13,20.1c-1.6,2.7-2.9,2.7-5.4,1.1c-8.5-5.2-17.5-9.6-26.8-13.3c-3.1-1.3-4.6-1-5.9,2.4
	c-3,8.1-6.6,16-9.6,24.1c-1.3,3.5-2.8,3.6-5.8,2.5c-7-2.6-14.3-4.4-21.7-5.8c-3.1-0.6-5-0.2-5.5,3.5c-0.4,3.1-0.6,5.2,3.5,5.8
	c7.2,1.1,14.3,3.1,21.2,5.6c2,0.7,3,1.3,1.9,3.8c-2.6,5.8-4.8,11.7-7.1,17.6c-0.8,2-1.6,2.8-4,2c-10.7-3.7-21.9-5.8-33.2-6.3
	c-2.1-0.1-2.9-0.8-2.9-2.9c-0.2-18-0.4-36-0.6-53.9c0-2.4,0.7-3.1,3.2-2.9c9.6,0.8,19.3,1.3,28.7,3.4c3.4,0.8,4.6-0.3,5.2-3.8
	c1.3-8.4,3.3-16.6,4.6-25c0.6-3.6,1.7-4.2,5.2-3.4c11.4,2.7,22.4,6.3,33.2,10.6c2.9,1.2,3.9,0.6,5-2.2c8.7-21.8,17.5-43.5,26.4-65.2
	c1.2-2.9,1.1-4.2-2.1-5.4c-12.3-4.7-24.7-9-37.4-12.3c-4.7-1.2-11-1-13.5-4c-2.8-3.5,0.8-9.4,1.5-14.3c1.5-10,1.6-9.9,11.3-7.7
	c44.3,10.5,84.7,29.5,121.1,56.9c3.2,2.4,3.4,3.8,0.8,6.8c-5.2,5.9-9.8,12.2-14.8,18.2c-1.8,2.1-2.8,3.7,0.3,5.4
	c2.3,1.3,4.1,4.7,7.2,0.5c4.9-6.6,10.3-12.7,15.3-19.1c1.6-2.1,2.8-2.7,5.1-0.7c11.8,10.3,23,21.2,33.5,32.9c1.9,2.1,1.9,3.2-0.4,5
	c-6.5,5.2-12.6,10.9-19.3,15.9c-3.6,2.7-1.4,4.2,0.3,6.3c1.6,1.9,2.7,4,5.7,1.2c6.3-5.7,13.1-10.9,19.5-16.4c2-1.7,3.1-1.7,4.6,0.5
	c2.8,4.1,5.8,8.1,9,12c2,2.4,1.8,3.7-0.8,5.4c-14.2,9.5-28.4,19.2-42.5,28.9c-2.4,1.7-3.8,1.6-5.7-0.7c-7.4-9-14.8-18-22.5-26.8
	c-2.3-2.6-1.7-4,0.5-6c5.8-5.3,11.4-10.7,17.1-16.1c4.3-4-1-5.6-2.3-8c-1.7-3.1-3.2-0.3-4.5,0.9c-5.9,5.6-11.9,11.2-17.7,16.9
	c-1.9,1.9-3.2,2.1-5.4,0.3c-8.8-7.4-17.8-14.6-26.8-21.7c-2.4-1.9-2.5-3.3-0.8-5.7c5-7.3,9.6-14.8,14.6-22.1c1.9-2.8,1.5-4-1.4-5.6
	c-9-5-17.8-10.4-26.7-15.6c-1.8-1.1-3.7-2.4-4.5,0.8c-0.6,2.5-5.2,4.9-0.1,7.7c6.1,3.3,12.1,7.1,18.2,10.4c2.7,1.5,3.1,2.6,1.3,5.3
	c-4.9,7.1-9.3,14.6-14.4,21.6c-2.4,3.4-1.6,4.8,1.5,6.8c11.1,7.1,21.4,15.3,31.3,24c2.9,2.6,3.6,4,0.4,7.2
	c-36.2,36.5-72.3,73.2-108.4,110c-2.2,2.2-3.4,2.1-5.6,0.4c-25.5-19.8-53.7-25.1-84.7-16c-3.2,0.9-4.3,0.2-5.5-2.7
	c-3.3-8.3-7.1-16.5-10.5-24.8c-1-2.3-1.8-3.1-4.3-2c-15.7,6.9-29.9,16-41.9,28.3c-2.3,2.4-2.7,4,0,6.4c2.5,2.2,4,3.1,6.8,0.2
	c8.7-8.8,18.6-16.1,29.7-21.8c2.7-1.4,3.9-1.2,5.1,1.8c3.1,7.9,6.8,15.5,9.8,23.5c1.5,3.9,2.7,4.3,6.7,2.8c29.5-11.5,57-8,82.3,11.4
	c2.3,1.8,2.6,2.9,0.3,4.9c-4,3.5-8,7.1-11.5,11.1c-2.9,3.2-4.9,3.2-8.6,0.8c-21.1-14.2-48.8-12.3-68.1,4.4
	c-19.2,16.6-25,43.3-14.1,66.3c8.5,17.9,22.6,28.8,42.4,31.9c2.3,0.4,4.7,0.3,4.7,4.2c0,29,0.2,58,0.5,87c0,3.3-1.3,3.9-4.2,3.6
	c-7.3-0.9-14.6-1.5-21.8-2.4c-2.1-0.3-3.4-0.3-3.9,2.3c-2.1,11.6-4.4,23.2-6.6,34.8c-0.9,4.7,3.3,3.1,5.2,4c2.2,0.9,3.5,0.3,4-2.5
	c1.4-8,3.3-16,4.6-24c0.6-3.9,2.2-4.5,5.7-4c17.8,2.4,35.5,1.8,53.1-2c2.1-0.5,5,0.1,4.1-3.9c-0.8-3.2-1.1-6-5.8-5.2
	c-6.5,1.2-13.2,1.5-19.8,2.6c-3.8,0.6-5.6,0.2-5.2-4.2c0.4-4.1,0.1-8.3,0.1-12.5c0-8,0-7.9,8-8.9c41.3-4.9,72.4-25.8,94.2-60.9
	c10.1-16.2,15.3-34.2,16.8-53.3c0.6-6.9,0.6-6.9,7.3-6.9c7.2,0,14.3-0.3,21.5,0.1c4.3,0.2,3.9-2.2,3.9-5c0.1-3-0.1-5-4.1-4.9
	c-8,0.3-16,0-24,0.1c-3.1,0.1-4.5-0.9-4.7-4.1c-0.5-10.5-2.9-20.8-6.4-30.7c-1.2-3.3-0.1-4.4,2.7-5.5c8-3.2,15.9-6.9,23.9-10
	c3.6-1.4,4.6-2.8,2.5-6.4c-3.9-6.6-7.2-13.5-10.8-20.2c-1-1.9-1.7-3.3,0.7-4.9c14.7-9.8,29.3-19.7,43.8-29.7c2.2-1.5,3.3-1.1,4.7,1
	c4.8,7.6,8.9,15.6,12.9,23.7c1.3,2.7,0.2,3.4-2,4.3c-8,3.3-15.9,6.9-23.9,10.1c-3,1.2-3.7,2.5-2.6,5.6c3,8.6,5.5,17.5,8.6,26.1
	c1.3,3.6,0.7,5-3.1,5.6c-8,1.4-15.9,3.4-23.9,4.9c-3.4,0.6-3.5,2.4-2.5,5c0.8,2.1-0.4,5.7,4.4,4.4c7.9-2,15.9-3.3,23.9-5.1
	c3.4-0.8,5-0.4,5.3,3.8c0.5,8.8,2,17.5,2.4,26.3c0.2,4.4,2,4.9,5.8,4.9c19.5-0.2,39,0,58.5-0.1c3.1,0,4.6,0.7,4.3,4.1
	c-0.6,6.6-0.6,13.3-1.2,19.9c-2.1,21-7,41.3-14.2,61.1c-0.9,2.5-2,2.8-4.3,1.8c-8.3-3.5-16.7-6.6-24.9-10.2c-3-1.3-4.3-0.8-5.5,2.3
	c-4.3,10.8-9.5,21.2-15.5,31.3c-1.5,2.5-2.6,3.3-5.4,1.5c-14.5-9.7-29.2-19.3-43.8-28.8c-2.1-1.4-2.6-2.4-1.2-4.7
	c8.2-13.5,13.8-28,17.6-43.3c0.6-2.5,1.4-3.2,4-2.6c5.7,1.3,11.4,2.6,17.1,3.3c4,0.4,4,2.3,3.2,5.3c-2.3,9.1-5.1,17.9-8.6,26.6
	c-2.3,5.7,3,4.6,5.3,6.1c3.1,2,3.5-0.8,4.1-2.7c3-9.5,6-19,8.7-28.6c0.9-3.2,2.3-3.8,5.3-3.2c7.3,1.6,14.7,2.8,22,4.3
	c3,0.6,5.4,0.1,6-3.3c0.6-3.3,0-5.4-4.1-6.1c-21.6-3.9-43.2-7.9-64.7-12.3c-4.5-0.9-5.3,0.6-6,4.2c-3.1,14.9-8.2,29.1-15.3,42.6
	c-16.5,31.3-41.9,52.9-73.8,67.5c-2.5,1.1-4.9,1.8-2.9,5.6c1.7,3.3,2.8,4.7,6.9,2.9c26.2-11.5,48-28.5,65.1-51.4
	c2.7-3.6,4.4-3.5,7.8-1.2c16.3,10.9,32.9,21.5,49.2,32.4c3.2,2.1,4.6,1.6,6.6-1.4c6.6-10.2,12.5-20.9,17.4-32
	c1.2-2.7,2.4-3.3,5.2-2.1c7.8,3.4,15.8,6.3,23.5,9.7c3.6,1.6,5.4,1.3,6.9-2.8c4.8-13,9.5-26,12.2-39.5c0.9-4.5,2.8-5.1,6.8-4.2
	c7.3,1.6,14.8,2.6,22,4.3c3.6,0.9,4.7-0.1,5.2-3.5c0.6-3.4,0.6-5.4-3.7-6c-7.6-1-15-2.8-22.6-4.1c-3.2-0.5-4.7-1.2-4.1-5.3
	c2.2-14,3-28.1,3.4-42.3c0.1-3.4-0.8-4.5-4.4-4.5c-19.8,0.2-39.7-0.1-59.5,0.2c-4.2,0.1-5.9-1-6.1-5.3c-0.7-19.5-5-38.2-11.8-56.4
	c-0.9-2.5-0.6-3.8,2.1-4.9c26.8-11.3,53.6-22.6,80.4-34.1c2.5-1.1,3.4-0.5,4.2,1.9c2.2,6.5,4.6,12.8,6.8,19.3
	c0.8,2.3,1.1,4.6,4.6,3.3c2.9-1.1,5.9-1.7,4.3-6c-2-5.5-3.6-11.1-5.7-16.5c-5-12.9-10.3-25.6-17.3-37.6c-1.4-2.4-2.6-4.4-6.1-2.1
	c-2.9,1.9-4,3-2,6.5c3.1,5.5,5.5,11.4,8.5,17c1.7,3.1,1.6,4.7-2.2,6.2c-15.6,6.3-31,12.9-46.4,19.6c-3.3,1.4-4.8,1.3-6.3-2.3
	c-4.9-11-11-21.3-17.7-31.2c-1.7-2.6-2.9-3.6-6.1-1.4c-19,13.2-38.2,26.1-57.4,39c-2.6,1.7-3.2,3.1-1.5,5.9
	c3.6,5.8,6.5,12,10.2,17.8c2.3,3.7,1.5,5.1-2.4,6.7c-17.5,7.2-34.9,14.9-52.4,22c-4.2,1.7-3.7,3.7-2.5,7.2c1.4,3.9,3.2,3,5.9,1.8
	c7-3.1,14.2-5.8,21.1-9.1c3.7-1.7,5.2-0.9,6.4,2.8c3.2,9.7,4.5,19.8,5,29.9c0.7,14-0.2,27.9-4.5,41.5c-1,3.2-2.3,4.1-5.7,2.6
	c-7.6-3.4-15.4-6.3-23.1-9.5c-4.4-1.8-3.9,2.2-5.1,4.1c-1.2,2-1.6,3.6,1.6,4.8c7.8,2.8,15.4,6.3,23.1,9.3c2.6,1,3.8,1.9,2.2,4.9
	c-19.9,38.1-51.3,59.3-93.8,64.4c-3.8,0.5-4.7-0.8-4.7-4.6c0-19-0.3-38-0.5-56.9c-0.1-5.8-1.2-7.1-6.8-7.3
	c-20.1-0.8-33.9-11.2-41.8-29c-7.9-17.8-3.8-34.5,8.1-49c12.4-15,29.3-18.6,47.5-14.3c33.6,8,46,49.9,23.1,76.6
	c-4,4.6-3.8,6.8,0.4,11c5.3,5.3,10.4,10.8,15.7,16c2.2,2.2,2.1,3.5-0.4,5.4c-6.2,4.9-13,8.7-20.2,11.8c-3.2,1.3-3,2.9-1.6,5.3
	c1.2,2.2,1.4,5.1,5.6,3.4c11.3-4.9,21.3-11.6,30.1-20.1c2.5-2.4,2.3-4-0.2-6.4c-6.3-6.2-12.2-12.7-18.4-19c-1.7-1.8-2.4-3-0.6-5.4
	c5.8-7.7,9.3-16.5,10.4-26.1c0.3-2.8,1.6-3.2,3.9-3.2c8.3,0.1,16.7-0.2,25,0.1c3.8,0.1,3.9-1.7,3.9-4.6c0-2.9,0.1-5.1-4-4.9
	c-8.1,0.4-16.3,0-24.5,0.3c-3.1,0.1-4.4-0.8-4.9-3.9c-1.4-8.8-4.5-17-9.9-24.3c-1.7-2.4-1.7-4,0.5-6.3
	c44.2-44.8,88.4-89.7,132.4-134.7c3-3.1,4.5-2.2,6.9,0.4c9,9.8,17.6,20.1,24.9,31.2c2.1,3.2,3.5,3.2,6.5,1.1
	c16.4-11.4,33-22.5,49.5-33.8c2.7-1.9,4.1-2.2,6.1,1c19.6,30.9,33.8,64.1,42.4,99.7c0.9,3.5-0.1,4.7-3.4,5.4
	c-10.3,2-20.5,4.1-30.8,6.3c-19.9,4.1-39.7,8.2-59.6,12.4c-1.4,0.3-3.6-0.3-4.3,1.8c-1.4,4.2,2.3,8.2,6.7,7.3
	c18.9-3.9,37.8-7.7,56.6-11.8c3-0.6,3.9-0.3,4.4,2.9c2.9,15.9,4.2,32,4.5,48.2c0.1,4.3,2,4.2,5.1,4.4c3.8,0.2,4.3-1.4,4.3-4.7
	c0-16.9-1.8-33.6-4.6-50.1c-0.5-2.6,0-3.5,2.5-4c6.1-1.1,12.1-2.3,18.1-3.7c2.9-0.7,3.5,0.1,4,2.9c4.7,25.5,5.8,51.2,4.7,77.1
	c-0.2,4-1.8,4.7-5.2,4.3c-7.9-0.8-15.9-1.4-23.9-2.1c-2-0.2-4.4-0.7-3.8,2.6c0.5,2.4-2.5,6.3,3.1,6.7c7.8,0.5,15.6,1.4,23.4,2
	c3.6,0.3,5.2,1.3,4.7,5.5c-1.9,15-4.8,29.9-8.5,44.6c-0.8,3.2-2.4,3.2-5,2.4c-7.8-2.4-15.7-4.4-23.4-7c-3.2-1.1-4.3-0.1-4.7,2.7
	c-0.4,2.5-2.7,5.3,2,6.5c7.9,2,15.6,4.7,23.5,6.8c2.9,0.8,3.9,1.9,2.9,4.8c-8.3,25.1-19.2,48.9-33.2,71.3c-1.3,2.1-2.3,2.3-4.3,0.9
	c-4.4-3.1-8.6-6.3-13.4-8.7c-4.8-2.4-4.3-4.8-1.8-8.8c8.6-13.7,15.6-28.2,21.8-43.2c1.7-3.9-0.6-4.3-3.1-5.4c-2.7-1.1-4.5-1.8-5.9,2
	c-5.4,14.2-12.3,27.7-20.1,40.7c-3.7,6.2-3.7,6.2-9.6,2.3c-6.5-4.3-13.2-8.4-19.6-12.9c-2.8-2-4-1.5-5.7,1.2
	c-7.2,11.2-15.5,21.6-24.3,31.7c-2.6,3-4.2,4-7.6,0.5c-13.7-13.9-27.8-27.3-41.6-41.1c-2.4-2.4-3.9-2.6-6.5-0.4
	c-9.7,8.4-19.6,16.5-29.5,24.6c-2.1,1.7-2.3,3-0.7,5.2c4.8,6.8,9.2,13.9,14.2,20.5c2.6,3.5,1.8,5-1.7,7.1
	c-22.2,13.3-45.8,23-71.1,28c-4.4,0.9-3.5,3.2-3,5.9c0.4,2.8,1.3,4.3,4.8,3.6c30.2-6.4,58-18.1,83.6-35.4c2.8-1.9,3-3.2,1.1-5.8
	c-5.1-7.2-9.9-14.6-15-21.8c-1.8-2.5-1.4-3.8,0.9-5.6c5-3.9,10.1-7.7,14.6-12.2c3.6-3.5,5.8-2.5,8.8,0.5
	c11.4,11.5,22.8,22.9,34.5,34.1c3,2.8,2.6,4.4-0.2,7c-10,9.1-20.4,17.6-31.7,25.1c-2.7,1.8-3.1,3.1-1.1,5.8
	c6.6,9.2,13.1,18.5,19.2,28c2.5,3.8,4.1,1.5,6.3,0.2c2.3-1.4,4-2.5,1.6-5.7c-4.9-6.5-9.1-13.6-13.9-20.2c-1.8-2.5-1.4-3.7,0.9-5.6
	c8.8-7.1,17.5-14.3,26.1-21.8c2.7-2.4,4.2-1.9,6.5,0.4c6.2,6.3,12.6,12.3,18.9,18.6c2,2,3.3,1.9,5.2-0.2c6.4-7.4,13-14.8,19.7-21.9
	c2.6-2.8,2.9-4.9,0-7.4c-3.1-2.7-5.2-1.6-7.5,1.2c-4,4.9-8.3,9.6-12.4,14.4c-1.6,1.9-2.8,2.3-4.7,0.2c-4.1-4.6-8.4-9.1-12.8-13.4
	c-2.1-2.1-1-3.3,0.3-5c7.3-8.9,14.5-17.8,21.6-26.9c1.9-2.4,3.1-2,5.2-0.6c14.3,9.5,28.6,18.9,43,28.2c2.7,1.8,3.1,3.2,1.2,5.9
	c-15.2,21-32.2,40.3-51.4,57.7c-2.5,2.3-3.9,1.8-5.9-0.6c-5-6.2-10.2-12.3-15.4-18.4c-1.5-1.8-2.9-3.9-5.4-1.1
	c-2,2.2-5.4,3.5-1.8,7.4c5.4,5.9,10.2,12.3,15.5,18.3c2.1,2.4,1.9,3.6-0.5,5.5c-29.1,22.8-61,40.3-96,52.3c-3,1-4,0.4-4.8-2.5
	c-2.5-8.5-5.3-16.8-7.9-25.2c-0.6-2-1-3.8-3.9-3c-10.3,2.8-20.6,5.5-30.9,8.1c-4.6,1.2-1.8,4-1.7,6.3c0.2,2.5,1.1,3.7,4.2,2.8
	c6.9-2,13.9-3.5,20.8-5.4c2.9-0.8,4.5-0.3,5.3,3c1.4,5.3,3,10.6,4.9,15.7c1.2,3.2,0.6,4.4-2.9,5.4c-15,4.1-30.1,7.1-45.4,9.3
	c-2.7,0.4-3.4-0.2-3.6-2.9c-0.8-8.9-2-17.9-2.8-26.8c-0.3-3.1-1.3-4-4.3-3.8c-6.8,0.6-13.6,0.8-20.4,1.6c-3.5,0.4-4.4-0.7-4.3-3.9
	c0.2-5.7,0.2-11.3,0-17c-0.1-3,0.8-4,3.9-4.2c29-1.4,57.1-7,84.1-17.6c2.8-1.1,4-0.7,5.1,2.2c3.4,8.5,7.1,16.8,10.7,25.3
	c0.9,2.2,1.7,3.3,4.4,2c9.5-4.8,19.1-9.4,28.8-13.9c2.2-1,2.4-2.2,1.5-4.3c-1.8-4.4-3.7-5.3-8.1-3.2c-5.6,2.7-11.1,5.3-16.5,8.2
	c-3,1.7-4.3,0.8-5.5-2.1c-3.1-7.7-6.6-15.3-9.6-23c-1.4-3.7-3-4.8-6.9-3c-5.6,2.6-11.4,4.7-17.2,6.6c-22.8,7.8-46.3,12.1-70.4,13.3
	c-2.2,0.1-4.6,0.7-4.6-3.2c0.2-17.5,0.1-35,0-52.5c0-2.7,1.1-3.3,3.5-3.5c6.6-0.8,13.2-1.9,19.8-2.8c16.3-2.1,31.9-6.5,46.9-13.1
	c2.3-1,3.9-2.3,1.9-4.7c-1.4-1.6-0.2-6.3-4.8-4.3c-23.6,10.1-48.1,15.2-73.8,15.4c-2.7,0-3.4,1-3.3,3.5c0.1,7.2,0,14.3,0,21.5
	c0,9.6,0,9.5-9.7,9c-20.4-1-40.2-5.3-59.6-11.7c-4.4-1.4-5.9-2.9-3.7-7.6c3.3-7,5.8-14.5,9-21.6c1.6-3.6,1.4-5.1-2.7-6.8
	c-19.3-7.7-36.8-18.6-52.6-32.2c-3.2-2.8-3.7-4.3-0.4-7.6c14.2-14.1,28-28.5,42.1-42.7c2.2-2.2,2.1-3.2-0.1-5.3
	c-11.4-11-20.4-23.7-26.4-38.4c-1.2-3-2.5-4.2-5.8-2.6c-3.1,1.5-4.8,2.6-2.9,6.6c5.6,12.4,12.6,23.8,21.7,33.9
	c2,2.2,2.3,3.5-0.1,5.6c-4.2,3.8-8.3,7.7-12.2,11.8c-2.3,2.4-3.8,2.9-6.1-0.3c-4.1-5.6-8.9-10.8-13.2-16.3c-3.4-4.4-5.4,0.1-7.7,1.2
	c-3.2,1.5-0.9,3.2,0.2,4.6c4.7,5.9,9.3,11.8,14.2,17.4c2.4,2.7,2.4,4.3-0.3,6.9c-14.2,14.1-28,28.5-42.2,42.6
	c-2.5,2.5-2.5,3.8,0,6.2c8.8,8.4,18,16.4,28,23.3c3.2,2.2,3.1,3.6,1.1,6.6c-9.5,14.1-18.8,28.3-28,42.6c-1.8,2.8-3,2.9-5.6,1.1
	c-12.9-9.2-25.3-19-36.4-30.4c-4.1-4.2-6.1-0.8-8.5,1.1c-3.2,2.6,0.4,4.2,1.6,5.4c14,13.9,29.4,26,45.9,36.8c2.7,1.8,4.3,1.4,6-1.3
	c4.6-7.3,9.6-14.4,14.2-21.8c1.4-2.3,2.6-2.8,5.1-1.5c10.3,5.5,20.6,10.9,31,16.2c3,1.5,3.2,3,2,5.8c-3.1,7.2-5.7,14.6-8.9,21.7
	c-1.5,3.4-0.4,4.6,2.7,5.7c2.9,1.1,4.9,2,6.3-2.1c2.6-7.5,5.9-14.8,8.8-22.2c0.9-2.3,1.6-3.5,4.6-2.5c11.4,3.6,22.9,6.9,34.5,10.1
	c2.6,0.7,3,1.7,2.4,4.2c-1.3,5.3-2.5,10.7-3,16.2c-0.4,4.6-2.6,4.5-5.9,3.6c-6.4-1.7-13-3-19.3-4.9c-4.1-1.2-3.7,1.9-4.6,4
	c-0.9,2.2-1.4,4.1,1.8,5c19.7,5.7,39.7,9.8,60.2,11.3c4.7,0.4,3.3-3,3.9-5.1c0.7-2.8-0.7-3.8-3.4-4.1c-6.9-0.8-13.8-2-20.8-2.7
	c-3-0.3-3.5-1.3-3-4.1c1.8-8.5,3-17,5-25.4c0.9-3.9,0.2-5.1-3.8-5.8c-30.1-5.6-58.1-16.5-84.4-32.2c-3.1-1.9-3.2-3.2-1.2-6
	c4.9-7.1,9.4-14.5,14.3-21.7c1.8-2.6,1.7-3.9-1.1-5.7c-9.8-6.3-19-13.4-27.7-21.2c-2-1.8-2.6-3-0.3-5c4.6-4.1,9-8.4,13.3-12.8
	c2-2,3.2-1.3,4.9,0.2c14.8,13.2,31.1,23.9,49.2,32c2.7,1.2,2.9,2.3,1.8,4.9c-3.6,8.4-6.8,17-10.3,25.4c-1.1,2.6-0.6,3.7,2.1,4.7
	c25.3,10,51.4,16,78.7,16.6c4.4,0.1,5.9,1.3,5.8,5.9c-0.3,19.7-0.1,39.3-0.1,59c0,2.5-0.5,5.1,3.6,4.8c7.5-0.6,14.9-0.8,22.4-1.4
	c2.9-0.3,3.8,0.8,4,3.4c0.4,5.5,0.9,11,1.8,16.4c0.6,3.7-0.3,5.1-4.4,5.4c-23.8,1.5-47.6,1-71.2-2.4c-33.5-4.8-65.4-14.8-96-29.4
	c-2.8-1.3-3.2-2.7-1.7-5.3c3.9-7.1,7.5-14.5,11.4-21.6c1.3-2.4,1.2-3.6-1.2-5.1c-3.7-2.3-6.1-1.4-8,2.3c-3.4,6.7-7.1,13.2-10.3,19.9
	c-1.4,2.9-2.5,3.3-5.5,1.7c-32.1-18.1-60.3-40.8-84.8-68.4c-2-2.2-2.2-3.5,0.3-5.5c6.5-5.2,12.7-10.8,19.2-15.9
	c3.7-2.9,0.6-4.3-0.7-6.3c-1.5-2.3-2.8-3.3-5.4-1c-5.9,5.2-12.2,9.9-17.9,15.2c-3.2,3-4.9,2.9-7.6-0.7c-17.2-22.6-31.8-46.8-43-72.9
	c-15.7-36.7-23.8-75-25.6-114.8c-0.2-3.5,1.2-4.2,4.3-4.1c5.5,0.1,11,0.1,16.5-0.2c3.5-0.2,4.5,1.1,4.6,4.5
	c1,36.2,9.2,70.8,22.9,104.2c1.8,4.3,3.4,4.5,7.2,2.8c3.4-1.6,3-3.4,1.8-6.3c-13.5-31.5-20.7-64.5-22.7-98.7
	c-0.4-6.4-0.4-6.3,6.2-6.4c7.2-0.1,14.3-0.6,21.5-0.4c5.1,0.1,6.9-2.2,7-6.8c0.6-16.3,1.3-32.6,4.3-48.7c0.5-2.9-0.3-3.7-3-4.2
	c-12.3-2.2-24.5-4.4-36.8-7c-3-0.6-3.2,0.5-3.6,2.9c-1.4,10.2-2.8,20.4-4.4,30.6c-0.5,3.2,0.3,4.6,3.6,4.7c2.9,0.1,5.9,1.2,6.2-3.8
	c0.4-6.6,1.9-13.2,2.5-19.8c0.3-3.6,1.8-4,4.8-3.3c5.2,1.1,10.4,2.3,15.7,2.9c3.5,0.4,4.3,2,4,5.3c-1.1,11.6-2.2,23.2-3.1,34.8
	c-0.2,2.9-1.7,3-3.9,3c-17.2-0.1-34.3-0.1-51.5,0c-3.2,0-4.1-0.8-4.1-4.2c0.7-32.9,6.2-64.9,16.6-96c11.3-33.9,28.2-65,49.6-93.5
	c1.9-2.6,3.2-3,5.8-0.8c4.1,3.6,8.4,7.1,12.9,10.3c3.2,2.2,2.9,4,0.7,6.8c-4.3,5.5-8.1,11.4-12.3,17c-1.8,2.3-1.4,3.4,1,4.9
	c20,13,39.9,26,59.7,39.1c2.7,1.8,3.8,1.3,5.4-1.2c6.3-9.8,13.5-19,21.3-27.7c2-2.3,3.2-2.5,5.4-0.3c5.8,5.9,12,11.5,17.8,17.5
	c2.4,2.5,4,2.4,5.8-0.2c1.4-2.1,5.3-3.3,1.3-6.9c-8.6-7.9-16.8-16.2-25-24.5c-2.5-2.6-3.8-2.5-6,0.3c-7.6,9.7-15.6,19.1-23.3,28.7
	c-1.9,2.4-3.3,3-6,1c-4.4-3.3-9-6.3-13.8-9c-2.9-1.7-3-3-1.1-5.7c16-22.4,35-41.8,57.2-58.1c2.5-1.8,3.9-2.1,5.9,0.8
	c16.2,24,32.5,47.9,48.9,71.8c1.5,2.2,1,3.2-0.9,4.7c-12.4,9.4-23.3,20.4-32.5,33c-1.6,2.2-2.9,2.5-5.2,0.9
	c-6.9-4.7-13.9-9.2-20.8-13.7c-1.9-1.2-3.7-2.7-5,0.6c-0.9,2.5-5.1,4.6-0.1,7.5c6.9,4,13.3,8.8,20.1,13c2.6,1.6,3.5,3,1.7,5.9
	c-2.5,4.1-4.7,8.4-6.8,12.8c-1.2,2.5-2.5,2.8-5.1,1.8c-37.6-15.2-75.2-30.4-112.9-45.5c-2.6-1-2.6-2.1-1.5-4.3
	c3.2-6.4,6-13,9.2-19.4c2.1-4.3-1.9-4.4-3.8-5.9c-2.3-1.8-3.4-0.5-4.5,1.6c-9.5,18-17.1,36.8-22.8,56.4c-0.8,2.9-0.1,4.1,2.5,4.5
	c2.4,0.4,5.2,2.8,6.5-2c1.8-6.6,4.5-12.9,6.5-19.4c1-3.2,2.2-3.6,5.3-2.4c15.5,6.5,31.1,12.8,46.7,18.9c3.9,1.5,4.4,3.1,3,6.9
	c-7.7,21.1-12,42.9-13,65.3c-0.7,16-0.2,32,2.8,47.8c0.8,4.2-0.3,5.9-4.7,6.5c-7.9,1.2-15.6,3.2-23.5,4.8c-3.2,0.6-5,1.2-4.1,5.7
	c6.6,31.1,18.3,60.1,35.3,86.9c2,3.2,1.8,4.6-1.4,6.5c-4.8,2.9-9.5,6.2-14,9.5c-2.3,1.7-3.5,1.4-5-1.1c-3.5-6.2-7.4-12.3-11-18.4
	c-2.8-4.7-5-0.1-7.4,0.5c-3.1,0.8-1.9,2.7-0.7,4.5c5.5,8.8,11,17.5,16.1,26.4c1.8,3.1,3.1,2.9,5.6,1.1c7.2-5.1,14.7-9.8,21.8-15
	c2.9-2.1,4.3-1.6,6.3,1.1c8.4,11.7,17.8,22.4,28.1,32.4c2.3,2.2,3.9,2.6,6.1,0.1c2-2.2,3.6-3.8,0.5-6.8
	c-9.8-9.3-18.4-19.7-26.7-30.4c-2.8-3.5-1.9-4.9,1.3-7.1c16.5-11,32.8-22.3,49.2-33.3c2.8-1.9,3.4-3.2,1.3-6.1
	c-5.3-7.4-9.7-15.5-13.9-23.6c-1.8-3.5-1.1-4.7,2.4-6.1c7.9-3,15.6-6.7,23.5-9.8c3.2-1.2,3.8-2.5,2.4-5.7
	c-6.8-15.7-10.8-32.1-11.9-49.2c-0.2-3.5,1-4.2,4.1-4.1c16.8,0.1,33.7,0.2,50.5-0.1c3.9-0.1,5,1.4,5.5,4.9
	c4,31.8,20.7,54.8,48.5,70.1c2.3,1.3,3.1,2.2,1.9,4.9c-6.7,16.1-13.2,32.3-19.6,48.6c-1.2,3.1-2.5,3.1-5.1,1.7
	c-6.4-3.6-13-6.8-19.3-10.5c-2.6-1.5-3.9-0.6-5.2,1.5c-2.2,3.4-0.7,5.5,2.2,7.4c8.6,5.4,17.7,10,26.9,14.1c3.6,1.6,4.7,0.9,6-2.5
	c7.9-20,16-39.8,24-59.7c3.4-8.5,3.5-8.6-4.8-12.4c-42.8-20-54.9-67.2-42.6-101.1c4.2-11.6,11-21.6,19.4-30.5
	c2.2-2.3,1.9-3.5-0.2-5.6c-2.7-2.8-4.8-3.6-7.4,0c-1.7,2.3-3.8,4.2-5.6,6.4c-11.7,14.4-18,30.9-20,49.2c-0.2,2,0.1,3.9-3,3.9
	c-18-0.1-36-0.1-54,0c-2.5,0-3-0.7-2.7-3.2c0.9-6.9,1.4-13.9,2.3-20.8c0.4-3.3,0-5.1-3.9-5.7c-10.8-1.8-21.6-3.9-32.4-6.1
	c-3-0.6-4.4,0.3-4.6,3.3c-0.2,2.5-2.1,5.4,2.7,6.1c7.9,1.2,15.7,3,23.6,4.3c3.5,0.6,5.3,1.5,4.3,5.7c-0.9,4.4-1.2,8.9-1.3,13.4
	c-0.1,3.1-1.1,3.9-4.1,3.9c-8.2-0.1-16.3,0.3-24.5,0c-4.3-0.1-3.7,2.5-3.8,5.2c-0.2,2.9,0.6,4.2,3.8,4.1c8.2-0.2,16.3,0,24.5-0.1
	c2.5,0,3.9,0.3,4.1,3.4c0.9,15.5,4,30.7,9.4,45.3c0.9,2.5,0.6,3.8-2.1,4.9c-8,3.2-15.8,7-23.9,10c-4.1,1.5-4.2,3.3-2.6,6.9
	c3.9,8.8,8.3,17.5,13.4,25.6c1.8,2.8,1.4,4.1-1.2,5.8c-14.4,9.6-28.7,19.3-43,29.2c-2.4,1.6-3.4,1.4-4.9-1
	c-6.8-10.7-12.4-22-17.6-33.6c-5.8-13.1-11-26.4-14.6-40.3c-1.1-4.3-0.7-6.6,4.3-7.2c5.1-0.6,10.1-1.9,15.2-3c3-0.7,4.3,0,5.1,3.2
	c2.8,11.8,6.8,23.3,11.4,34.5c1.5,3.8,3.4,3.4,6.5,2.1c3.2-1.3,3.8-2.7,2.4-5.9c-4.4-9.7-7.7-19.8-10.5-30.1
	c-1.8-6.6-1.8-6.6,4.6-7.9c7-1.4,14-3,21-4.2c4-0.6,4.1-2.5,3.4-5.9c-0.7-3.2-1.4-4.6-5.1-3.6c-7.7,1.9-15.7,3-23.4,5
	c-3.4,0.9-4.4-0.1-4.9-3.2c-5.9-37.4-2.7-73.9,9.8-109.7c1.3-3.9,2.9-3.7,6.1-2.4c28.6,11.7,57.4,23.2,86,34.9
	c3.6,1.5,4.3-0.2,5.1-2.8c0.7-2.3,3-4.6-1.4-6.1c-7.4-2.6-14.4-6-21.8-8.6c-4-1.4-4.6-2.9-2.7-6.7c12-24.3,29.1-44.1,51.5-59.3
	c2.6-1.7,3.3-2.9,1.2-5.7c-4.8-6.6-9.3-13.4-13.9-20.1c-13.2-19.4-26.4-38.8-39.6-58.2c-1.2-1.8-3.5-3.5,0.2-5.4
	c12.6-6.4,24.5-14.1,37.5-19.8c3.3-1.4,3.6-2.7,2.2-5.8c-3.6-7.9-6.7-15.9-10.3-23.8c-1.4-3.1-0.8-4.4,2.3-5.4
	c6.3-2,12.5-4.7,18.9-6.4c4.7-1.3,3.1-3.8,2.4-6.7c-0.8-3.2-2.3-3.8-5.4-2.7c-9.6,3.7-19.3,7.2-29,10.6c-2.6,0.9-3.1,2-2,4.6
	c3.7,8.2,6.9,16.6,10.7,24.7c1.4,3.1,1,4.5-2.3,6c-16.2,7.6-31.5,16.6-45.8,27.2c-22.5,16.7-41.9,36.5-58.1,59.4
	c-2.1,3-3.5,3.6-6.6,1.3c-4.5-3.4-9.3-6.4-14.2-9.3c-2.5-1.5-2.6-2.8-0.9-5c4.2-5.4,8-11.1,12.2-16.5c2-2.5,2-3.9-0.7-5.9
	c-6.8-5.1-13.1-10.8-19.9-15.8c-3.3-2.5-3.1-4-0.4-6.8c5.4-5.5,10.4-11.2,15.5-16.9c0.8-0.9,2.3-1.4,1.5-3.2c-2.3-5.3-5.3-6-9.3-2
	c-51.8,53-82.2,116.4-92.2,189.7C9,303.7,9.4,310.1,7.1,316z"/>
<path class="st1" d="M7.1,316c2.3-5.9,1.9-12.3,2.8-18.4c10-73.3,40.4-136.7,92.2-189.7c3.9-4,7-3.3,9.3,2c0.8,1.9-0.7,2.4-1.5,3.2
	c-5.1,5.7-10.2,11.5-15.5,16.9c-2.7,2.8-2.9,4.3,0.4,6.8c6.8,5.1,13.2,10.7,19.9,15.8c2.7,2.1,2.6,3.4,0.7,5.9
	c-4.2,5.4-8,11-12.2,16.5c-1.7,2.2-1.7,3.5,0.9,5c4.8,2.9,9.7,5.9,14.2,9.3c3.1,2.3,4.5,1.6,6.6-1.3c16.2-22.9,35.5-42.7,58.1-59.4
	c14.4-10.6,29.7-19.7,45.8-27.2c3.2-1.5,3.7-2.8,2.3-6c-3.7-8.2-7-16.6-10.7-24.7c-1.2-2.6-0.7-3.7,2-4.6c9.7-3.4,19.4-7,29-10.6
	c3.1-1.2,4.6-0.5,5.4,2.7c0.7,2.8,2.4,5.4-2.4,6.7c-6.4,1.7-12.6,4.4-18.9,6.4c-3.1,1-3.8,2.3-2.3,5.4c3.6,7.9,6.7,15.9,10.3,23.8
	c1.4,3.1,1.1,4.4-2.2,5.8c-13,5.7-24.9,13.3-37.5,19.8c-3.7,1.9-1.4,3.7-0.2,5.4c13.2,19.4,26.4,38.8,39.6,58.2
	c4.6,6.7,9.1,13.6,13.9,20.1c2.1,2.8,1.3,3.9-1.2,5.7c-22.4,15.2-39.5,35-51.5,59.3c-1.9,3.8-1.3,5.3,2.7,6.7
	c7.4,2.6,14.4,6,21.8,8.6c4.3,1.5,2.1,3.8,1.4,6.1c-0.8,2.6-1.5,4.3-5.1,2.8c-28.6-11.7-57.3-23.2-86-34.9c-3.2-1.3-4.8-1.5-6.1,2.4
	c-12.5,35.8-15.7,72.3-9.8,109.7c0.5,3.1,1.5,4.1,4.9,3.2c7.7-2,15.7-3.1,23.4-5c3.7-0.9,4.4,0.5,5.1,3.6c0.7,3.3,0.6,5.2-3.4,5.9
	c-7.1,1.1-14,2.8-21,4.2c-6.4,1.3-6.4,1.3-4.6,7.9c2.8,10.3,6.1,20.4,10.5,30.1c1.4,3.2,0.9,4.6-2.4,5.9c-3.1,1.2-4.9,1.6-6.5-2.1
	c-4.6-11.3-8.6-22.7-11.4-34.5c-0.8-3.2-2.1-4-5.1-3.2c-5,1.2-10.1,2.4-15.2,3c-5,0.6-5.5,2.9-4.3,7.2c3.6,13.9,8.8,27.2,14.6,40.3
	c5.1,11.6,10.8,22.9,17.6,33.6c1.5,2.4,2.6,2.6,4.9,1c14.3-9.8,28.6-19.6,43-29.2c2.7-1.8,3-3.1,1.2-5.8
	c-5.2-8.2-9.5-16.8-13.4-25.6c-1.6-3.6-1.5-5.3,2.6-6.9c8.1-3,15.9-6.8,23.9-10c2.7-1.1,3-2.4,2.1-4.9c-5.4-14.6-8.5-29.7-9.4-45.3
	c-0.2-3.1-1.6-3.4-4.1-3.4c-8.2,0.1-16.3-0.1-24.5,0.1c-3.2,0.1-4-1.2-3.8-4.1c0.2-2.7-0.5-5.3,3.8-5.2c8.2,0.2,16.3-0.2,24.5,0
	c3,0,4.1-0.8,4.1-3.9c0.1-4.5,0.3-9,1.3-13.4c0.9-4.2-0.8-5.1-4.3-5.7c-7.9-1.3-15.7-3.1-23.6-4.3c-4.8-0.7-2.8-3.6-2.7-6.1
	c0.2-3,1.6-3.9,4.6-3.3c10.8,2.2,21.5,4.3,32.4,6.1c3.9,0.6,4.3,2.4,3.9,5.7c-0.9,6.9-1.4,13.9-2.3,20.8c-0.3,2.5,0.2,3.3,2.7,3.2
	c18-0.1,36-0.1,54,0c3.1,0,2.8-1.9,3-3.9c1.9-18.3,8.3-34.9,20-49.2c1.8-2.2,4-4.1,5.6-6.4c2.6-3.6,4.8-2.7,7.4,0
	c2,2.1,2.4,3.3,0.2,5.6c-8.4,8.9-15.2,18.9-19.4,30.5c-12.3,33.9-0.2,81.1,42.6,101.1c8.3,3.9,8.2,4,4.8,12.4
	c-8,19.9-16.2,39.7-24,59.7c-1.3,3.4-2.4,4.1-6,2.5c-9.3-4.2-18.3-8.8-26.9-14.1c-2.9-1.8-4.5-3.9-2.2-7.4c1.4-2.1,2.6-3,5.2-1.5
	c6.4,3.6,12.9,6.9,19.3,10.5c2.6,1.5,3.9,1.4,5.1-1.7c6.4-16.2,13-32.4,19.6-48.6c1.1-2.7,0.4-3.7-1.9-4.9
	c-27.8-15.3-44.5-38.3-48.5-70.1c-0.4-3.5-1.5-4.9-5.5-4.9c-16.8,0.3-33.7,0.2-50.5,0.1c-3.1,0-4.3,0.6-4.1,4.1
	c1.1,17.1,5.1,33.5,11.9,49.2c1.4,3.3,0.8,4.5-2.4,5.7c-7.9,3.1-15.6,6.7-23.5,9.8c-3.5,1.3-4.2,2.6-2.4,6.1
	c4.2,8.1,8.6,16.2,13.9,23.6c2.1,3,1.5,4.3-1.3,6.1c-16.5,11-32.8,22.3-49.2,33.3c-3.3,2.2-4.1,3.6-1.3,7.1
	c8.3,10.6,16.9,21.1,26.7,30.4c3.2,3,1.5,4.6-0.5,6.8c-2.2,2.5-3.8,2.1-6.1-0.1c-10.3-10-19.8-20.7-28.1-32.4
	c-2-2.7-3.4-3.2-6.3-1.1c-7.1,5.2-14.6,9.9-21.8,15c-2.5,1.8-3.9,2-5.6-1.1c-5.2-8.9-10.7-17.7-16.1-26.4c-1.1-1.8-2.4-3.7,0.7-4.5
	c2.4-0.6,4.6-5.2,7.4-0.5c3.7,6.1,7.5,12.2,11,18.4c1.4,2.5,2.7,2.8,5,1.1c4.6-3.3,9.2-6.6,14-9.5c3.2-1.9,3.4-3.3,1.4-6.5
	c-17.1-26.8-28.7-55.8-35.3-86.9c-0.9-4.4,0.9-5,4.1-5.7c7.8-1.6,15.6-3.5,23.5-4.8c4.4-0.7,5.5-2.3,4.7-6.5
	c-3-15.8-3.5-31.8-2.8-47.8c1-22.4,5.3-44.2,13-65.3c1.4-3.8,0.9-5.4-3-6.9c-15.7-6.1-31.2-12.4-46.7-18.9c-3.1-1.3-4.3-0.8-5.3,2.4
	c-2,6.5-4.7,12.8-6.5,19.4c-1.3,4.9-4.1,2.4-6.5,2c-2.7-0.4-3.3-1.6-2.5-4.5c5.7-19.5,13.3-38.3,22.8-56.4c1.1-2.1,2.2-3.4,4.5-1.6
	c1.9,1.5,6,1.6,3.8,5.9c-3.2,6.4-6,13-9.2,19.4c-1.1,2.2-1,3.3,1.5,4.3c37.7,15.1,75.3,30.3,112.9,45.5c2.5,1,3.9,0.7,5.1-1.8
	c2.1-4.3,4.3-8.7,6.8-12.8c1.8-2.9,0.8-4.3-1.7-5.9c-6.8-4.2-13.2-9-20.1-13c-5-2.9-0.8-5,0.1-7.5c1.2-3.3,3.1-1.9,5-0.6
	c6.9,4.6,14,9,20.8,13.7c2.3,1.6,3.6,1.3,5.2-0.9c9.2-12.6,20-23.6,32.5-33c1.9-1.5,2.5-2.5,0.9-4.7c-16.4-23.9-32.7-47.8-48.9-71.8
	c-1.9-2.9-3.3-2.6-5.9-0.8c-22.2,16.3-41.2,35.7-57.2,58.1c-1.9,2.7-1.8,4,1.1,5.7c4.7,2.8,9.4,5.7,13.8,9c2.7,2,4.1,1.4,6-1
	c7.7-9.6,15.7-19,23.3-28.7c2.3-2.9,3.5-2.9,6-0.3c8.2,8.3,16.4,16.6,25,24.5c3.9,3.6,0.1,4.9-1.3,6.9c-1.8,2.6-3.4,2.7-5.8,0.2
	c-5.8-6-12-11.6-17.8-17.5c-2.2-2.3-3.4-2-5.4,0.3c-7.7,8.8-14.9,17.9-21.3,27.7c-1.6,2.5-2.8,3-5.4,1.2
	c-19.8-13.2-39.8-26.2-59.7-39.1c-2.3-1.5-2.8-2.6-1-4.9c4.2-5.6,8-11.5,12.3-17c2.2-2.8,2.5-4.5-0.7-6.8
	c-4.5-3.2-8.8-6.7-12.9-10.3c-2.5-2.3-3.8-1.8-5.8,0.8c-21.5,28.6-38.3,59.6-49.6,93.5c-10.4,31.2-15.9,63.2-16.6,96
	c-0.1,3.4,0.9,4.2,4.1,4.2c17.2-0.1,34.3-0.1,51.5,0c2.2,0,3.7-0.1,3.9-3c0.9-11.6,1.9-23.2,3.1-34.8c0.3-3.3-0.5-4.8-4-5.3
	c-5.3-0.7-10.5-1.8-15.7-2.9c-3-0.7-4.5-0.3-4.8,3.3c-0.6,6.6-2.1,13.2-2.5,19.8c-0.3,5-3.2,3.8-6.2,3.8c-3.3-0.1-4.1-1.5-3.6-4.7
	c1.7-10.2,3.1-20.4,4.4-30.6c0.3-2.3,0.5-3.5,3.6-2.9c12.2,2.5,24.5,4.8,36.8,7c2.7,0.5,3.5,1.3,3,4.2c-3,16.1-3.6,32.4-4.3,48.7
	c-0.2,4.6-1.9,7-7,6.8c-7.1-0.2-14.3,0.3-21.5,0.4c-6.6,0.1-6.6,0.1-6.2,6.4c2,34.2,9.3,67.2,22.7,98.7c1.2,2.8,1.6,4.6-1.8,6.3
	c-3.8,1.8-5.4,1.5-7.2-2.8c-13.7-33.4-21.9-68-22.9-104.2c-0.1-3.4-1.1-4.7-4.6-4.5c-5.5,0.3-11,0.4-16.5,0.2
	c-3.1-0.1-4.4,0.6-4.3,4.1c1.7,39.8,9.9,78.1,25.6,114.8c11.2,26.2,25.8,50.3,43,72.9c2.7,3.6,4.4,3.7,7.6,0.7
	c5.8-5.3,12-10,17.9-15.2c2.6-2.3,3.9-1.3,5.4,1c1.3,2,4.4,3.4,0.7,6.3c-6.6,5.1-12.7,10.8-19.2,15.9c-2.5,2-2.3,3.3-0.3,5.5
	c24.5,27.5,52.7,50.3,84.8,68.4c3,1.7,4.1,1.3,5.5-1.7c3.3-6.7,6.9-13.3,10.3-19.9c1.9-3.8,4.3-4.6,8-2.3c2.4,1.5,2.6,2.7,1.2,5.1
	c-4,7.1-7.5,14.5-11.4,21.6c-1.5,2.7-1.1,4,1.7,5.3c30.5,14.6,62.4,24.7,96,29.4c23.7,3.4,47.4,3.9,71.2,2.4
	c4.1-0.3,4.9-1.7,4.4-5.4c-0.8-5.4-1.3-10.9-1.8-16.4c-0.2-2.7-1.1-3.7-4-3.4c-7.5,0.6-14.9,0.8-22.4,1.4c-4.1,0.3-3.6-2.3-3.6-4.8
	c0-19.7-0.2-39.3,0.1-59c0.1-4.7-1.4-5.8-5.8-5.9c-27.2-0.6-53.4-6.6-78.7-16.6c-2.7-1.1-3.2-2.1-2.1-4.7c3.5-8.4,6.8-17,10.3-25.4
	c1.1-2.6,0.8-3.7-1.8-4.9c-18.1-8-34.5-18.8-49.2-32c-1.7-1.5-3-2.2-4.9-0.2c-4.3,4.4-8.7,8.7-13.3,12.8c-2.3,2.1-1.7,3.2,0.3,5
	c8.7,7.8,17.9,15,27.7,21.2c2.9,1.8,2.9,3.1,1.1,5.7c-4.9,7.2-9.4,14.6-14.3,21.7c-2,2.8-1.9,4.2,1.2,6
	c26.3,15.7,54.4,26.5,84.4,32.2c4,0.7,4.7,1.9,3.8,5.8c-2,8.4-3.2,17-5,25.4c-0.6,2.8,0,3.8,3,4.1c6.9,0.7,13.8,1.9,20.8,2.7
	c2.7,0.3,4.1,1.3,3.4,4.1c-0.6,2.2,0.8,5.5-3.9,5.1c-20.5-1.6-40.5-5.7-60.2-11.3c-3.2-0.9-2.6-2.8-1.8-5c0.8-2.1,0.4-5.2,4.6-4
	c6.4,1.9,12.9,3.2,19.3,4.9c3.4,0.9,5.5,1,5.9-3.6c0.5-5.4,1.7-10.8,3-16.2c0.6-2.5,0.3-3.5-2.4-4.2c-11.5-3.2-23-6.5-34.5-10.1
	c-3-0.9-3.7,0.2-4.6,2.5c-2.9,7.4-6.2,14.7-8.8,22.2c-1.4,4.1-3.4,3.2-6.3,2.1c-3.1-1.1-4.2-2.3-2.7-5.7c3.2-7.1,5.8-14.5,8.9-21.7
	c1.2-2.8,1-4.3-2-5.8c-10.4-5.2-20.7-10.6-31-16.2c-2.5-1.3-3.7-0.8-5.1,1.5c-4.6,7.3-9.6,14.4-14.2,21.8c-1.7,2.7-3.3,3.1-6,1.3
	c-16.5-10.8-31.9-22.9-45.9-36.8c-1.2-1.2-4.8-2.8-1.6-5.4c2.4-1.9,4.4-5.4,8.5-1.1c11.1,11.4,23.5,21.2,36.4,30.4
	c2.6,1.8,3.8,1.7,5.6-1.1c9.2-14.3,18.5-28.5,28-42.6c2-2.9,2.1-4.3-1.1-6.6c-10-6.9-19.2-14.9-28-23.3c-2.5-2.4-2.5-3.8,0-6.2
	c14.1-14.1,28-28.5,42.2-42.6c2.6-2.6,2.7-4.2,0.3-6.9c-5-5.6-9.5-11.6-14.2-17.4c-1.1-1.4-3.4-3.2-0.2-4.6c2.4-1.1,4.3-5.6,7.7-1.2
	c4.3,5.5,9,10.7,13.2,16.3c2.3,3.1,3.8,2.6,6.1,0.3c4-4,8-8,12.2-11.8c2.4-2.1,2-3.4,0.1-5.6c-9.1-10.1-16.1-21.5-21.7-33.9
	c-1.8-4-0.2-5.1,2.9-6.6c3.4-1.6,4.6-0.4,5.8,2.6c6.1,14.7,15.1,27.4,26.4,38.4c2.2,2.1,2.3,3.1,0.1,5.3
	c-14.1,14.2-27.9,28.6-42.1,42.7c-3.3,3.3-2.8,4.9,0.4,7.6c15.8,13.6,33.2,24.5,52.6,32.2c4,1.6,4.3,3.1,2.7,6.8
	c-3.2,7.1-5.7,14.6-9,21.6c-2.2,4.7-0.7,6.2,3.7,7.6c19.4,6.4,39.1,10.6,59.6,11.7c9.7,0.5,9.7,0.6,9.7-9c0-7.2,0.1-14.3,0-21.5
	c0-2.5,0.7-3.5,3.3-3.5c25.6-0.2,50.2-5.4,73.8-15.4c4.6-2,3.5,2.7,4.8,4.3c2,2.4,0.4,3.6-1.9,4.7c-15,6.7-30.6,11-46.9,13.1
	c-6.6,0.9-13.2,2-19.8,2.8c-2.3,0.3-3.5,0.8-3.5,3.5c0.1,17.5,0.2,35,0,52.5c0,3.9,2.3,3.3,4.6,3.2c24.1-1.2,47.6-5.4,70.4-13.3
	c5.8-2,11.6-4.1,17.2-6.6c3.9-1.8,5.5-0.8,6.9,3c3,7.8,6.5,15.3,9.6,23c1.2,3,2.5,3.8,5.5,2.1c5.4-2.9,11-5.5,16.5-8.2
	c4.4-2.1,6.2-1.3,8.1,3.2c0.9,2.1,0.7,3.3-1.5,4.3c-9.6,4.5-19.2,9.1-28.8,13.9c-2.7,1.3-3.4,0.2-4.4-2c-3.5-8.4-7.3-16.8-10.7-25.3
	c-1.1-2.9-2.4-3.3-5.1-2.2c-27,10.6-55.1,16.2-84.1,17.6c-3.1,0.1-4,1.2-3.9,4.2c0.2,5.7,0.2,11.3,0,17c-0.1,3.3,0.8,4.4,4.3,3.9
	c6.8-0.8,13.6-1,20.4-1.6c3-0.3,4,0.7,4.3,3.8c0.7,9,2,17.9,2.8,26.8c0.2,2.6,0.9,3.3,3.6,2.9c15.3-2.2,30.5-5.3,45.4-9.3
	c3.5-1,4-2.2,2.9-5.4c-1.9-5.2-3.5-10.4-4.9-15.7c-0.8-3.2-2.4-3.8-5.3-3c-6.9,1.9-13.9,3.3-20.8,5.4c-3.1,0.9-4-0.3-4.2-2.8
	c-0.2-2.2-3-5.1,1.7-6.3c10.3-2.6,20.6-5.3,30.9-8.1c3-0.8,3.3,1,3.9,3c2.6,8.4,5.4,16.8,7.9,25.2c0.8,2.9,1.8,3.5,4.8,2.5
	c35-12,66.9-29.5,96-52.3c2.4-1.9,2.6-3.1,0.5-5.5c-5.3-6-10.1-12.4-15.5-18.3c-3.6-3.9-0.2-5.3,1.8-7.4c2.5-2.8,3.9-0.7,5.4,1.1
	c5.1,6.1,10.4,12.2,15.4,18.4c2,2.5,3.4,2.9,5.9,0.6c19.2-17.4,36.2-36.7,51.4-57.7c1.9-2.7,1.6-4.1-1.2-5.9
	c-14.4-9.3-28.7-18.7-43-28.2c-2.1-1.4-3.3-1.9-5.2,0.6c-7,9.1-14.3,18-21.6,26.9c-1.4,1.7-2.5,2.9-0.3,5c4.4,4.3,8.6,8.8,12.8,13.4
	c1.9,2.1,3.1,1.6,4.7-0.2c4.1-4.8,8.3-9.5,12.4-14.4c2.3-2.7,4.4-3.9,7.5-1.2c2.9,2.6,2.6,4.7,0,7.4c-6.7,7.2-13.2,14.5-19.7,21.9
	c-1.9,2.2-3.2,2.2-5.2,0.2c-6.2-6.3-12.7-12.3-18.9-18.6c-2.3-2.4-3.8-2.8-6.5-0.4c-8.5,7.4-17.3,14.7-26.1,21.8
	c-2.3,1.8-2.7,3-0.9,5.6c4.8,6.6,9,13.6,13.9,20.2c2.4,3.2,0.7,4.3-1.6,5.7c-2.2,1.3-3.8,3.6-6.3-0.2c-6.1-9.5-12.6-18.8-19.2-28
	c-1.9-2.7-1.6-4,1.1-5.8c11.3-7.5,21.7-16,31.7-25.1c2.8-2.5,3.1-4.1,0.2-7c-11.7-11.2-23.1-22.6-34.5-34.1c-3-3.1-5.2-4.1-8.8-0.5
	c-4.5,4.4-9.6,8.3-14.6,12.2c-2.3,1.8-2.7,3.1-0.9,5.6c5.2,7.2,9.9,14.6,15,21.8c1.9,2.6,1.7,4-1.1,5.8
	c-25.5,17.3-53.4,29-83.6,35.4c-3.5,0.8-4.4-0.8-4.8-3.6c-0.4-2.7-1.4-5.1,3-5.9c25.4-5,49-14.7,71.1-28c3.5-2.1,4.3-3.6,1.7-7.1
	c-5-6.7-9.4-13.8-14.2-20.5c-1.6-2.3-1.4-3.5,0.7-5.2c9.9-8.1,19.8-16.3,29.5-24.6c2.6-2.3,4.1-2,6.5,0.4
	c13.8,13.8,27.9,27.2,41.6,41.1c3.4,3.5,5,2.6,7.6-0.5c8.7-10.1,17.1-20.5,24.3-31.7c1.7-2.7,2.9-3.2,5.7-1.2
	c6.4,4.5,13.1,8.6,19.6,12.9c5.9,3.9,5.9,3.9,9.6-2.3c7.8-13,14.7-26.5,20.1-40.7c1.4-3.8,3.2-3.1,5.9-2c2.5,1.1,4.8,1.5,3.1,5.4
	c-6.2,14.9-13.2,29.5-21.8,43.2c-2.5,4-2.9,6.3,1.8,8.8c4.7,2.4,9,5.7,13.4,8.7c1.9,1.4,3,1.2,4.3-0.9
	c13.9-22.4,24.9-46.3,33.2-71.3c1-3,0-4.1-2.9-4.8c-7.9-2.1-15.6-4.8-23.5-6.8c-4.7-1.2-2.4-4-2-6.5c0.4-2.8,1.5-3.8,4.7-2.7
	c7.7,2.6,15.6,4.6,23.4,7c2.6,0.8,4.2,0.8,5-2.4c3.7-14.7,6.6-29.5,8.5-44.6c0.5-4.2-1.1-5.2-4.7-5.5c-7.8-0.6-15.6-1.5-23.4-2
	c-5.6-0.3-2.6-4.3-3.1-6.7c-0.6-3.2,1.8-2.7,3.8-2.6c8,0.7,15.9,1.3,23.9,2.1c3.4,0.4,5.1-0.3,5.2-4.3c1-25.9,0-51.6-4.7-77.1
	c-0.5-2.8-1.1-3.6-4-2.9c-6,1.5-12,2.6-18.1,3.7c-2.5,0.5-3,1.4-2.5,4c2.9,16.6,4.7,33.3,4.6,50.1c0,3.3-0.5,4.9-4.3,4.7
	c-3.1-0.2-5-0.1-5.1-4.4c-0.3-16.1-1.6-32.2-4.5-48.2c-0.6-3.2-1.5-3.5-4.4-2.9c-18.9,4.1-37.8,7.9-56.6,11.8
	c-4.3,0.9-8-3.1-6.7-7.3c0.7-2.1,2.8-1.5,4.3-1.8c19.8-4.2,39.7-8.3,59.6-12.4c10.3-2.1,20.5-4.3,30.8-6.3c3.3-0.6,4.2-1.8,3.4-5.4
	c-8.6-35.6-22.8-68.8-42.4-99.7c-2-3.2-3.4-2.8-6.1-1c-16.4,11.3-33.1,22.4-49.5,33.8c-3,2.1-4.4,2.1-6.5-1.1
	c-7.3-11.2-15.9-21.4-24.9-31.2c-2.4-2.6-3.8-3.5-6.9-0.4c-44,45-88.2,89.9-132.4,134.7c-2.3,2.3-2.3,3.9-0.5,6.3
	c5.3,7.3,8.5,15.4,9.9,24.3c0.5,3.1,1.8,4,4.9,3.9c8.2-0.3,16.3,0,24.5-0.3c4.2-0.2,4,2.1,4,4.9c0,2.8-0.2,4.7-3.9,4.6
	c-8.3-0.3-16.7,0-25-0.1c-2.3,0-3.6,0.4-3.9,3.2c-1.1,9.6-4.6,18.4-10.4,26.1c-1.8,2.4-1.1,3.6,0.6,5.4c6.2,6.3,12.1,12.8,18.4,19
	c2.5,2.4,2.6,4,0.2,6.4c-8.8,8.5-18.8,15.3-30.1,20.1c-4.1,1.8-4.3-1.2-5.6-3.4c-1.4-2.4-1.5-4,1.6-5.3c7.2-3.1,14-6.9,20.2-11.8
	c2.5-2,2.6-3.2,0.4-5.4c-5.3-5.2-10.4-10.8-15.7-16c-4.2-4.2-4.4-6.3-0.4-11c22.9-26.6,10.5-68.6-23.1-76.6
	c-18.2-4.3-35.1-0.8-47.5,14.3c-11.9,14.5-16.1,31.1-8.1,49c8,17.9,21.7,28.2,41.8,29c5.6,0.2,6.8,1.5,6.8,7.3
	c0.2,19,0.5,38,0.5,56.9c0,3.7,0.9,5,4.7,4.6c42.5-5.1,73.9-26.3,93.8-64.4c1.6-3.1,0.5-3.9-2.2-4.9c-7.7-3-15.3-6.4-23.1-9.3
	c-3.2-1.2-2.8-2.8-1.6-4.8c1.2-1.9,0.7-6,5.1-4.1c7.7,3.2,15.5,6.1,23.1,9.5c3.4,1.5,4.7,0.6,5.7-2.6c4.3-13.5,5.2-27.4,4.5-41.5
	c-0.5-10.1-1.8-20.2-5-29.9c-1.2-3.7-2.8-4.5-6.4-2.8c-6.9,3.3-14.1,6-21.1,9.1c-2.7,1.2-4.5,2.1-5.9-1.8c-1.2-3.4-1.7-5.4,2.5-7.2
	c17.5-7.2,34.9-14.8,52.4-22c3.9-1.6,4.7-2.9,2.4-6.7c-3.6-5.8-6.6-12-10.2-17.8c-1.7-2.8-1.1-4.2,1.5-5.9
	c19.2-12.9,38.4-25.8,57.4-39c3.2-2.2,4.4-1.2,6.1,1.4c6.7,10,12.9,20.2,17.7,31.2c1.6,3.5,3.1,3.7,6.3,2.3
	c15.4-6.7,30.8-13.3,46.4-19.6c3.8-1.5,3.8-3,2.2-6.2c-3-5.6-5.3-11.5-8.5-17c-2-3.4-0.9-4.6,2-6.5c3.5-2.2,4.7-0.2,6.1,2.1
	c7,11.9,12.4,24.7,17.3,37.6c2.1,5.4,3.7,11,5.7,16.5c1.6,4.3-1.4,4.9-4.3,6c-3.5,1.3-3.8-1-4.6-3.3c-2.2-6.4-4.6-12.8-6.8-19.3
	c-0.8-2.4-1.7-3-4.2-1.9c-26.8,11.5-53.6,22.8-80.4,34.1c-2.6,1.1-3,2.4-2.1,4.9c6.8,18.2,11.1,36.9,11.8,56.4
	c0.2,4.3,1.9,5.4,6.1,5.3c19.8-0.2,39.7,0,59.5-0.2c3.6,0,4.5,1.1,4.4,4.5c-0.4,14.2-1.2,28.3-3.4,42.3c-0.6,4.1,0.9,4.8,4.1,5.3
	c7.5,1.3,15,3,22.6,4.1c4.3,0.6,4.3,2.6,3.7,6c-0.6,3.4-1.7,4.4-5.2,3.5c-7.3-1.7-14.7-2.7-22-4.3c-4-0.9-5.9-0.2-6.8,4.2
	c-2.7,13.6-7.4,26.6-12.2,39.5c-1.5,4-3.3,4.3-6.9,2.8c-7.8-3.4-15.8-6.3-23.5-9.7c-2.8-1.2-4-0.6-5.2,2.1
	c-4.9,11.1-10.8,21.7-17.4,32c-2,3-3.4,3.5-6.6,1.4c-16.3-10.9-32.9-21.5-49.2-32.4c-3.4-2.3-5.1-2.4-7.8,1.2
	c-17.1,22.9-38.9,39.9-65.1,51.4c-4.1,1.8-5.2,0.5-6.9-2.9c-2-3.9,0.5-4.5,2.9-5.6c31.8-14.6,57.2-36.2,73.8-67.5
	c7.1-13.5,12.2-27.7,15.3-42.6c0.8-3.6,1.5-5.2,6-4.2c21.5,4.4,43.1,8.4,64.7,12.3c4.1,0.7,4.7,2.9,4.1,6.1c-0.6,3.4-3,4-6,3.3
	c-7.3-1.5-14.7-2.8-22-4.3c-3-0.6-4.4,0-5.3,3.2c-2.7,9.6-5.8,19.1-8.7,28.6c-0.6,2-1,4.7-4.1,2.7c-2.3-1.5-7.6-0.5-5.3-6.1
	c3.5-8.6,6.3-17.5,8.6-26.6c0.8-3,0.8-4.8-3.2-5.3c-5.8-0.6-11.5-1.9-17.1-3.3c-2.6-0.6-3.4,0.1-4,2.6c-3.8,15.2-9.4,29.8-17.6,43.3
	c-1.4,2.3-0.9,3.4,1.2,4.7c14.7,9.5,29.3,19.1,43.8,28.8c2.7,1.8,3.9,1.1,5.4-1.5c5.9-10.1,11.1-20.5,15.5-31.3
	c1.2-3.1,2.5-3.6,5.5-2.3c8.2,3.5,16.7,6.7,24.9,10.2c2.4,1,3.4,0.8,4.3-1.8c7.2-19.8,12.1-40.1,14.2-61.1
	c0.7-6.6,0.7-13.3,1.2-19.9c0.3-3.4-1.1-4.1-4.3-4.1c-19.5,0.1-39,0-58.5,0.1c-3.8,0-5.6-0.5-5.8-4.9c-0.5-8.8-1.9-17.5-2.4-26.3
	c-0.2-4.2-1.8-4.5-5.3-3.8c-7.9,1.8-16,3.1-23.9,5.1c-4.8,1.3-3.6-2.3-4.4-4.4c-1-2.6-0.9-4.3,2.5-5c8-1.5,15.9-3.4,23.9-4.9
	c3.8-0.7,4.4-2,3.1-5.6c-3.1-8.6-5.6-17.4-8.6-26.1c-1.1-3.1-0.4-4.4,2.6-5.6c8-3.2,15.9-6.7,23.9-10.1c2.1-0.9,3.3-1.6,2-4.3
	c-4.1-8-8.2-16-12.9-23.7c-1.4-2.2-2.5-2.6-4.7-1c-14.5,10-29.1,19.9-43.8,29.7c-2.4,1.6-1.8,3-0.7,4.9c3.6,6.7,7,13.6,10.8,20.2
	c2.1,3.6,1.1,5-2.5,6.4c-8.1,3.1-15.9,6.8-23.9,10c-2.8,1.1-3.8,2.2-2.7,5.5c3.5,9.9,5.9,20.1,6.4,30.7c0.2,3.2,1.6,4.2,4.7,4.1
	c8-0.2,16,0.1,24-0.1c4-0.1,4.2,1.8,4.1,4.9c-0.1,2.8,0.3,5.2-3.9,5c-7.1-0.3-14.3-0.1-21.5-0.1c-6.8,0-6.8,0-7.3,6.9
	c-1.6,19-6.7,37-16.8,53.3c-21.8,35-52.9,55.9-94.2,60.9c-8,1-8,0.9-8,8.9c0,4.2,0.3,8.4-0.1,12.5c-0.4,4.4,1.4,4.8,5.2,4.2
	c6.6-1.1,13.2-1.4,19.8-2.6c4.7-0.9,5,2,5.8,5.2c0.9,3.9-2,3.4-4.1,3.9c-17.6,3.8-35.3,4.4-53.1,2c-3.4-0.5-5.1,0.1-5.7,4
	c-1.2,8-3.2,16-4.6,24c-0.5,2.8-1.8,3.5-4,2.5c-2-0.9-6.1,0.8-5.2-4c2.2-11.6,4.5-23.2,6.6-34.8c0.5-2.6,1.8-2.6,3.9-2.3
	c7.3,0.9,14.6,1.5,21.8,2.4c2.9,0.3,4.2-0.2,4.2-3.6c-0.3-29-0.5-58-0.5-87c0-3.9-2.4-3.8-4.7-4.2c-19.8-3.2-33.9-14-42.4-31.9
	c-10.9-23-5.1-49.7,14.1-66.3c19.2-16.7,46.9-18.6,68.1-4.4c3.6,2.4,5.7,2.4,8.6-0.8c3.5-4,7.5-7.5,11.5-11.1c2.2-2,2-3.1-0.3-4.9
	c-25.3-19.5-52.8-22.9-82.3-11.4c-3.9,1.5-5.2,1.1-6.7-2.8c-3-7.9-6.7-15.6-9.8-23.5c-1.2-3-2.4-3.2-5.1-1.8
	c-11.1,5.7-21,13-29.7,21.8c-2.8,2.9-4.3,2-6.8-0.2c-2.7-2.4-2.3-4,0-6.4c12.1-12.3,26.2-21.5,41.9-28.3c2.5-1.1,3.4-0.4,4.3,2
	c3.4,8.3,7.1,16.5,10.5,24.8c1.2,2.9,2.3,3.6,5.5,2.7c30.9-9.1,59.2-3.8,84.7,16c2.2,1.7,3.5,1.8,5.6-0.4
	c36-36.8,72.1-73.5,108.4-110c3.2-3.2,2.5-4.7-0.4-7.2c-9.9-8.7-20.2-16.9-31.3-24c-3.1-2-4-3.4-1.5-6.8c5-7,9.5-14.5,14.4-21.6
	c1.8-2.6,1.4-3.8-1.3-5.3c-6.2-3.3-12.1-7.1-18.2-10.4c-5.1-2.8-0.5-5.2,0.1-7.7c0.8-3.2,2.7-1.8,4.5-0.8
	c8.9,5.2,17.7,10.6,26.7,15.6c2.9,1.6,3.3,2.9,1.4,5.6c-5,7.3-9.6,14.8-14.6,22.1c-1.7,2.4-1.5,3.8,0.8,5.7c9,7.1,18,14.3,26.8,21.7
	c2.2,1.8,3.5,1.6,5.4-0.3c5.8-5.7,11.7-11.3,17.7-16.9c1.3-1.2,2.8-4,4.5-0.9c1.3,2.4,6.6,4,2.3,8c-5.7,5.4-11.3,10.8-17.1,16.1
	c-2.2,2-2.8,3.4-0.5,6c7.7,8.8,15.1,17.8,22.5,26.8c1.9,2.3,3.3,2.4,5.7,0.7c14.1-9.7,28.3-19.4,42.5-28.9c2.6-1.7,2.8-3.1,0.8-5.4
	c-3.2-3.8-6.2-7.8-9-12c-1.5-2.2-2.6-2.2-4.6-0.5c-6.4,5.5-13.2,10.7-19.5,16.4c-3.1,2.8-4.1,0.7-5.7-1.2c-1.7-2-3.9-3.5-0.3-6.3
	c6.6-5,12.8-10.7,19.3-15.9c2.3-1.8,2.2-2.9,0.4-5c-10.5-11.7-21.7-22.6-33.5-32.9c-2.3-2-3.5-1.4-5.1,0.7
	c-5,6.4-10.5,12.5-15.3,19.1c-3.1,4.2-4.8,0.8-7.2-0.5c-3.1-1.7-2-3.3-0.3-5.4c5-6,9.6-12.3,14.8-18.2c2.6-3,2.4-4.4-0.8-6.8
	C499.1,55.5,458.8,36.5,414.4,26c-9.7-2.3-9.8-2.3-11.3,7.7c-0.7,4.9-4.4,10.8-1.5,14.3c2.4,3,8.8,2.8,13.5,4
	c12.7,3.3,25.1,7.6,37.4,12.3c3.2,1.2,3.3,2.5,2.1,5.4c-8.9,21.7-17.7,43.4-26.4,65.2c-1.1,2.8-2.2,3.4-5,2.2
	c-10.8-4.3-21.9-7.9-33.2-10.6c-3.5-0.8-4.6-0.2-5.2,3.4c-1.3,8.4-3.3,16.6-4.6,25c-0.5,3.5-1.7,4.5-5.2,3.8
	c-9.4-2.1-19.1-2.7-28.7-3.4c-2.5-0.2-3.2,0.5-3.2,2.9c0.3,18,0.5,36,0.6,53.9c0,2.2,0.9,2.8,2.9,2.9c11.4,0.5,22.5,2.6,33.2,6.3
	c2.4,0.8,3.3,0,4-2c2.3-5.9,4.6-11.8,7.1-17.6c1.1-2.5,0-3.1-1.9-3.8c-6.9-2.4-14-4.4-21.2-5.6c-4.2-0.7-3.9-2.7-3.5-5.8
	c0.5-3.7,2.4-4.1,5.5-3.5c7.4,1.4,14.6,3.2,21.7,5.8c3.1,1.1,4.6,1,5.8-2.5c2.9-8.1,6.6-16,9.6-24.1c1.3-3.5,2.8-3.7,5.9-2.4
	c9.3,3.8,18.2,8.1,26.8,13.3c2.5,1.5,3.8,1.5,5.4-1.1c4.2-6.8,9-13.2,13-20.1c2.5-4.4,4.6-2.3,7.5-0.8c3.4,1.9,2.2,3.6,0.7,5.8
	c-12.1,18.3-24.2,36.7-36.1,55.1c-1.8,2.7-3.1,2.8-5.4,0.9c-1.9-1.7-5.6-2.2-2.7-6.3c4.6-6.5,8.6-13.5,13.3-19.9
	c2.4-3.3,1.5-4.8-1.6-6.3c-5.2-2.6-10.4-5.3-15.5-8.1c-3.2-1.8-4.7-1.2-6.1,2.4c-7.2,18.3-14.7,36.4-21.9,54.7
	c-1.5,3.9-2.7,5.1-7,3.2c-13.9-6-28.7-8.5-43.8-8.4c-4.6,0-5.6-1.3-5.4-5.6c0.3-8.2-0.1-16.3,0.2-24.5c0.1-3.7-1.1-4.5-4.6-4.2
	c-16.7,1.5-32.9,5-48.2,11.8c-3.6,1.6-5,0.9-6.5-2.7c-8.6-20.6-17.2-41.1-26.2-61.5c-2.4-5.3,1.7-5.1,4.1-6.7
	c3.3-2.2,3.7,0.5,4.7,2.6c7.6,17.9,15.3,35.8,22.8,53.8c1.3,3.2,2.7,3.7,5.9,2.5c14.1-5.3,28.7-8.5,43.8-9c3.2-0.1,4.3-1,4.2-4.3
	c-0.4-8.8-0.3-17.6-0.6-26.5c-0.1-3.3,0.9-4.2,4.2-4.2c9.8,0.1,19.6,0.2,29.4,1.9c3.2,0.6,5,0.2,5.7-3.8c2.9-16.5,6.1-33,9.4-49.5
	c0.8-4.1-0.7-5.1-4.4-5.6c-13.4-1.8-26.8-2.9-40.3-2.7c-3.6,0.1-4.4-1.1-4.4-4.5c0.1-11.3,0-22.7-0.2-34c-0.1-3.7,1.4-5.8,5.2-5.6
	c9.5,0.4,18.9,0.9,28.4,1.2c3.7,0.1,5,1.9,4.6,5.4c-0.3,3.6-2.7,4.2-5.7,4.1c-6.3-0.3-12.6-0.5-18.9-1c-3.2-0.2-4.5,0.6-4.3,4.1
	c0.3,5.3,0.3,10.7,0,16c-0.3,4,1.2,5.2,5,5.1c13.5-0.1,26.9,1.6,40.2,4c6.8,1.2,6.7,1.2,5.4,8.1c-1.5,7.7-2.9,15.4-4.5,23
	c-0.5,2.5-0.2,4,2.6,4.8c9.1,2.5,18.2,5.2,27.3,8c2.4,0.7,3.9,0.5,5-2.2c6.4-16.1,12.8-32.1,19.5-48.1c1.5-3.6-0.4-4.3-3-5.2
	c-14.6-5.2-29.4-9.6-44.7-12.3c-4.6-0.8-5.6-2.6-4.6-6.9c1.8-7.9,3-16,4.8-24c0.8-3.5-0.6-4.7-3.8-5.2c-13.7-2.1-27.5-2.7-41.3-3.4
	c-11.7-0.6-23.3-0.2-34.9,0.4c-3.3,0.2-4.8,1-4.3,4.8c1,8.1,1.4,16.3,2.5,24.3c0.8,5.8-3.5,3.3-5.8,4.2c-3.4,1.3-3.3-1-3.6-3.3
	c-0.8-8.3-2-16.5-2.7-24.8c-0.3-3-1.4-3.6-4.1-3.1c-4.9,0.9-9.9,1.6-14.8,2.3c-2.6,0.4-3.6,1.2-2.9,4.2c6,28.1,11.8,56.3,17.6,84.5
	c0.7,3.4,1.8,4,5.3,3.4c11.8-2.1,23.8-3,35.7-3.3c3.4-0.1,4.7,0.7,4.6,4.4c-0.1,3.6-0.6,5.6-4.8,5.5c-11.5-0.3-22.9,1-34.3,2.8
	c-3.4,0.5-3.5,1.6-2.8,4.4c1.8,7.8,3,15.7,4.9,23.4c1,4.1-1,4.7-4.1,5.5c-3.1,0.8-4.6,0.3-5.4-3.2c-7.7-37.3-15.5-74.6-23.2-111.9
	c-1-4.7-2.1-9.4-2.9-14.2c-0.4-2.1-0.9-2.8-3.2-2.2c-26.4,6-51.6,15.5-75.7,27.7c-2.3,1.2-1.4,2.3-0.6,3.8
	c4.4,7.8,8.6,15.8,13.1,23.6c1.4,2.4,1,3.7-1.4,5.1c-24.7,15-47.8,32.1-68.9,51.9c-2.5,2.3-4.4,2-6.8-0.3c-2.6-2.6-1.4-4,0.6-6.1
	c18.5-18.7,39-34.8,61.8-47.9c3.3-1.9,3.6-3.4,1.8-6.4c-2.9-4.7-5.5-9.5-7.8-14.5c-1.6-3.4-2.9-3.2-5.9-1.4
	c-15.2,9.3-29.9,19.4-43.7,30.7c-3.4,2.8-5.2,2.7-8.2-0.8c-3.3-4,0.2-4.9,2.1-6.4c49.3-40.1,105-65.6,168.3-73.7
	c6.8-0.9,13.8-0.5,20.4-2.8c16.3,0,32.7,0,49,0c0.9,1.5,2.4,0.9,3.6,1c13.5,1,26.8,2.8,40,5.6C489.1,31.8,554,74,604.4,138.5
	c36.3,46.5,57.9,99.5,65.6,158c1,7.8,1.9,15.7,2.9,23.5c0,15,0,30,0,45c-1.6,0.8-0.9,2.3-1,3.5c-1.2,12.8-2.9,25.4-5.5,38
	c-14.5,69.8-47.8,129-100,177.5c-51.5,47.8-112.3,76.4-182,86c-6.8,0.9-13.8,0.7-20.4,2.9c-16.3,0-32.7,0-49,0c-1-1.7-2.7-0.9-4-1.1
	c-10.9-1.1-21.8-2.5-32.6-4.6c-70.8-13.7-131.2-46.6-180.6-99.1c-48.5-51.6-78-112.5-87.8-182.7C9,378.9,9.5,372.2,7.1,366
	C7.1,349.3,7.1,332.7,7.1,316z"/>
<path class="st2" d="M364,672.9c6.6-2.2,13.6-1.9,20.4-2.9c69.7-9.7,130.5-38.3,182-86c52.2-48.4,85.5-107.7,100-177.5
	c2.6-12.5,4.3-25.2,5.5-38c0.1-1.2-0.6-2.7,1-3.5c0,101.2,0,202.4,0.1,303.7c0,3.6-0.7,4.3-4.3,4.3
	C567.1,672.9,465.5,672.9,364,672.9z"/>
<path class="st2" d="M7.1,366c2.4,6.3,1.9,12.9,2.9,19.4c9.8,70.3,39.3,131.1,87.8,182.7c49.4,52.6,109.8,85.5,180.6,99.1
	c10.8,2.1,21.7,3.4,32.6,4.6c1.4,0.1,3.1-0.6,4,1.1c-101.2,0-202.4,0-303.7,0.1c-3.6,0-4.3-0.7-4.3-4.3C7.1,567.8,7.1,466.9,7.1,366
	z"/>
<path class="st2" d="M672.9,320c-1-7.8-1.9-15.7-2.9-23.5c-7.7-58.6-29.3-111.5-65.6-158C554,74,489.1,31.8,408.6,14.7
	c-13.2-2.8-26.6-4.6-40-5.6c-1.2-0.1-2.7,0.5-3.6-1c101.3,0,202.6,0,303.9-0.1c3.4,0,4.1,0.7,4.1,4.1
	C672.9,114.7,672.9,217.4,672.9,320z"/>
</svg>
