<?xml version="1.0" standalone="no"?>
<!DOCTYPE svg PUBLIC "-//W3C//DTD SVG 1.1//EN" "http://www.w3.org/Graphics/SVG/1.1/DTD/svg11.dtd" >
<svg>
<metadata>
Created by FontForge 20120731 at Thu Sep  1 06:38:38 2016
 By ,,,
Copyright (c) 1993, Cosmorama Enterprises, PO Box 5362, Irvine CA 92716. All Rights Reserved. A $5.00 shareware font.  Send $15 for extended version.
</metadata>
<defs>
<font id="Astro" horiz-adv-x="1000" >
  <font-face 
    font-family="Astro"
    font-weight="400"
    font-stretch="normal"
    units-per-em="1000"
    panose-1="0 0 4 0 0 0 0 0 0 0"
    ascent="800"
    descent="-200"
    x-height="567"
    cap-height="704"
    bbox="-15 -142 1340 844"
    underline-thickness="40"
    underline-position="-80"
    unicode-range="U+0020-2122"
  />
<missing-glyph horiz-adv-x="500" 
d="M63 0v844h375v-844h-375zM125 63h250v719h-250v-719z" />
    <glyph glyph-name=".notdef" horiz-adv-x="500" 
d="M63 0v844h375v-844h-375zM125 63h250v719h-250v-719z" />
    <glyph glyph-name=".null" horiz-adv-x="0" 
 />
    <glyph glyph-name="nonmarkingreturn" horiz-adv-x="366" 
 />
    <glyph glyph-name="space" unicode=" " horiz-adv-x="366" 
 />
    <glyph glyph-name="exclam" unicode="!" horiz-adv-x="544" 
d="M524 466l-198 -198q28 -49 28 -92q0 -67 -47.5 -114.5t-114.5 -47.5t-115 47.5t-48 114.5t48 115t115 48q69 0 106 -41l197 197zM306 176q0 47 -33.5 81t-80.5 34t-81 -34t-34 -81q0 -46 34 -79.5t81 -33.5t80.5 33t33.5 80z" />
    <glyph glyph-name="quotedbl" unicode="&#x22;" horiz-adv-x="628" 
d="M597 375q0 -55 -40 -95t-96 -40q-48 0 -87 31l-94 -79q18 -28 18 -66q0 -56 -39.5 -96t-94.5 -40t-95 40t-40 96q0 55 39 93.5t95 39.5q48 0 86 -31l96 79q-19 32 -19 68q0 56 40 95.5t95 39.5q56 0 96 -40t40 -95zM551 375q0 37 -26.5 63t-63.5 26t-62.5 -26t-25.5 -63
t25.5 -62.5t62.5 -25.5t63.5 25.5t26.5 62.5zM252 126q0 37 -26 62.5t-63 25.5q-36 0 -62 -25.5t-26 -62.5t26 -63t63 -26t62.5 26t25.5 63z" />
    <glyph glyph-name="numbersign" unicode="#" horiz-adv-x="501" 
d="M470 25h-437v440h437v-440zM423 71v349h-344v-349h344z" />
    <glyph glyph-name="dollar" unicode="$" horiz-adv-x="595" 
d="M566 22h-537l268 463zM485 68l-188 323l-187 -323h375z" />
    <glyph glyph-name="percent" unicode="%" horiz-adv-x="593" 
d="M564 47h-535v46h214l-214 367h54l213 -367l214 367h52l-212 -367h214v-46z" />
    <glyph glyph-name="ampersand" unicode="&#x26;" horiz-adv-x="593" 
d="M564 415h-214l212 -367h-52l-214 367l-213 -367h-54l214 367h-214v46h535v-46z" />
    <glyph glyph-name="quotesingle" unicode="'" horiz-adv-x="501" 
d="M481 232h-170l120 -120l-33 -33l-120 120v-170h-46v170l-120 -120l-33 33l120 120h-170v46h170l-120 120l33 33l120 -120v170h46v-170l120 120l33 -33l-120 -120h170v-46z" />
    <glyph glyph-name="parenleft" unicode="(" horiz-adv-x="610" 
d="M581 29h-552l261 452h54l-234 -406h471v-46z" />
    <glyph glyph-name="parenright" unicode=")" horiz-adv-x="510" 
d="M481 0h-329v133h-123v377h394v-377h-225v-87h283v-46zM376 179v285h-301v-285h77v78h46v-78h178z" />
    <glyph glyph-name="asterisk" unicode="*" horiz-adv-x="340" 
d="M319 151q0 -58 -43 -96q-39 -34 -92 -34h-23l13 -70h-31l-13 70h-109v484h144q54 0 93 -31q45 -34 45 -92q0 -84 -99 -108q47 -5 79 -36q36 -34 36 -87zM227 382q0 93 -76 93h-60v-188h68q30 0 49 27t19 68zM242 151q0 52 -26.5 81t-70.5 29h-54v-212h33l-6 40h32l6 -39
q37 4 61.5 31.5t24.5 69.5z" />
    <glyph glyph-name="plus" unicode="+" horiz-adv-x="344" 
d="M324 275q0 -223 -132 -233l12 -85h-31l-13 85q-74 3 -109 75q-30 60 -30 158q0 97 34 159q40 74 118 74t118 -74q33 -61 33 -159zM246 275q0 210 -73 210q-74 0 -74 -210q0 -199 57 -214l-8 55h33l7 -55q58 15 58 214z" />
    <glyph glyph-name="comma" unicode="," horiz-adv-x="320" 
d="M292 2h-62l-175 394v-394h-31v506h64l175 -385v385h29v-506z" />
    <glyph glyph-name="hyphen" unicode="-" horiz-adv-x="364" 
d="M334 286h-130v-129h-46v129h-129v46h129v130h46v-130h130v-46zM334 48h-305v46h305v-46z" />
    <glyph glyph-name="hyphen" unicode="&#x2010;" horiz-adv-x="364" 
d="M334 286h-130v-129h-46v129h-129v46h129v130h46v-130h130v-46zM334 48h-305v46h305v-46z" />
    <glyph glyph-name="period" unicode="." horiz-adv-x="146" 
d="M122 43q0 -20 -15 -34.5t-35 -14.5t-35 14.5t-15 34.5t15 35t35 15t35 -15t15 -35z" />
    <glyph glyph-name="slash" unicode="/" horiz-adv-x="344" 
d="M358 568l-317 -612h-55l317 612h55z" />
    <glyph glyph-name="zero" unicode="0" horiz-adv-x="372" 
d="M350 252q0 -260 -164 -260t-164 260t164 260t164 -260zM260 252q0 107 -7 147q-15 87 -67 87t-67 -87q-7 -40 -7 -147q0 -108 7 -148q15 -86 67 -86t67 86q7 40 7 148z" />
    <glyph glyph-name="one" unicode="1" horiz-adv-x="372" 
d="M258 0h-84v415q-26 -31 -88 -35v36q87 10 112 96h60v-512z" />
    <glyph glyph-name="two" unicode="2" horiz-adv-x="372" 
d="M338 382q1 -57 -46 -116q-49 -54 -99 -107q-32 -38 -70 -84h207v-75h-287v39q31 55 119 157q93 108 93 186q0 37 -22 68t-53 31q-39 0 -61.5 -32t-22.5 -74q0 -43 15 -77l-51 14q-11 24 -11 62q0 61 47 103q43 39 97 39q56 0 98 -35q46 -38 47 -99z" />
    <glyph glyph-name="three" unicode="3" horiz-adv-x="372" 
d="M344 140q0 -59 -49 -102t-114 -43q-55 0 -95 25q-51 31 -51 93q0 22 6 49l45 8q-10 -31 -10 -57q0 -44 28 -68q24 -21 61 -21q43 0 71 36q25 33 25 80q0 53 -40 81q-36 25 -93 25v36q120 0 120 110q0 36 -24.5 63t-58.5 27q-77 0 -77 -72q0 -19 11 -54l-45 8q-9 24 -9 46
q0 46 40 76t96 30q62 0 104.5 -33.5t42.5 -90.5q0 -95 -100 -128q116 -15 116 -124z" />
    <glyph glyph-name="four" unicode="4" horiz-adv-x="372" 
d="M353 114h-56v-114h-82v114h-183v44l203 352h62v-352h56v-44zM215 158v248l-143 -248h143z" />
    <glyph glyph-name="five" unicode="5" horiz-adv-x="372" 
d="M352 167q0 -74 -56.5 -126.5t-127.5 -52.5q-61 0 -103.5 36t-42.5 90q0 11 5 29l46 15q-10 -25 -10 -44q0 -35 26.5 -62t60.5 -27q51 0 85 46q30 42 30 96q0 53 -28 87.5t-77 34.5q-28 0 -53.5 -16t-33.5 -38l-37 16l42 259h251l-14 -75h-211l-23 -142q38 38 112 38
q73 0 116 -43.5t43 -120.5z" />
    <glyph glyph-name="six" unicode="6" horiz-adv-x="372" 
d="M340 171q0 -77 -38 -126q-42 -53 -117 -53q-151 0 -151 243q0 116 36 189q46 92 140 92q36 0 68 -26q37 -30 37 -74q0 -8 -2 -30l-45 -10q6 20 6 40q0 30 -19 50.5t-45 20.5q-52 0 -73 -71q-22 -76 -22 -146q29 61 101 61q57 0 92 -49q32 -45 32 -111zM264 171
q0 39 -18 75q-21 44 -56 46q-34 2 -56 -39q-20 -37 -20 -83q0 -50 15 -93q20 -58 56 -58q40 0 62 57q17 44 17 95z" />
    <glyph glyph-name="seven" unicode="7" horiz-adv-x="372" 
d="M342 450q-126 -217 -144 -450h-96q48 218 183 437h-253l16 75h294v-62z" />
    <glyph glyph-name="eight" unicode="8" horiz-adv-x="372" 
d="M342 146q0 -74 -47 -114q-43 -37 -111 -37q-61 0 -105 35q-49 39 -49 104q0 40 27 75q24 31 57 44q-29 15 -50 48t-21 72q0 62 42.5 102t101.5 40q49 0 85 -29q43 -33 43 -89q0 -36 -29 -69q-25 -29 -60 -43q40 -18 72 -50q44 -43 44 -89zM274 382q0 43 -24.5 72.5
t-62.5 29.5q-35 0 -59 -21q-28 -24 -28 -64q0 -76 105 -105q27 14 47 36q22 26 22 52zM277 114q0 52 -53 85l-80 38q-73 -32 -74 -100q-1 -50 34 -84t80 -34q35 0 64 27t29 68z" />
    <glyph glyph-name="nine" unicode="9" horiz-adv-x="372" 
d="M339 273q0 -118 -34 -189q-44 -92 -140 -92q-42 0 -78 27q-39 30 -39 73q0 20 2 29l43 12q-5 -18 -5 -40q0 -30 23.5 -51.5t55.5 -21.5q47 0 72 81q19 61 19 137q-29 -61 -101 -61q-57 0 -92 49q-32 45 -32 111q0 77 39 126q42 53 116 53q151 0 151 -243zM259 338
q0 50 -15 94q-20 58 -56 58q-40 0 -62 -58q-17 -44 -17 -95q0 -39 18 -75q21 -44 56 -46q34 -2 56 39q20 37 20 83z" />
    <glyph glyph-name="colon" unicode=":" horiz-adv-x="142" 
d="M128 398q0 -22 -15 -37t-37 -15t-37 15.5t-15 36.5t15.5 36.5t36.5 15.5t36.5 -15t15.5 -37zM128 112q0 -21 -15.5 -36.5t-36.5 -15.5t-36.5 15.5t-15.5 36.5t15.5 36.5t36.5 15.5t36.5 -15.5t15.5 -36.5z" />
    <glyph glyph-name="semicolon" unicode=";" horiz-adv-x="628" 
d="M605 299q0 -120 -85 -205t-206 -85q-119 0 -204.5 85t-85.5 205t85 205t205 85q121 0 206 -84.5t85 -205.5zM553 321q-8 88 -66 146.5t-153 70.5v-217h219zM292 321v217q-93 -12 -151 -75q-54 -57 -65 -142h216zM553 279h-219v-219q90 11 152 74q59 62 67 145zM292 60
v219h-216q8 -78 69 -141q63 -66 147 -78z" />
    <glyph glyph-name="less" unicode="&#x3c;" horiz-adv-x="656" 
d="M624 133q0 -55 -39 -94t-94 -39t-94 39t-39 94q0 48 30.5 85t76.5 46q34 50 34 107q0 69 -49.5 120t-122.5 51q-69 0 -119 -51.5t-50 -119.5q0 -62 35 -107q45 -9 75 -46t30 -85q0 -56 -38.5 -94.5t-94.5 -38.5q-55 0 -94 39t-39 94q0 45 27 80.5t69 47.5q-27 48 -27 111
q0 92 61 158q65 70 165 70q98 0 165 -70q64 -67 64 -158q0 -57 -28 -111q42 -12 69 -47.5t27 -80.5zM569 133q0 32 -23 55t-55 23t-55 -23t-23 -55t23 -55t55 -23t55 23t23 55zM243 133q0 32 -23 55t-55 23t-55 -23t-23 -55t23 -55t55 -23t55 23t23 55z" />
    <glyph glyph-name="equal" unicode="=" horiz-adv-x="344" 
d="M316 270h-295v44h295v-44zM316 141h-295v43h295v-43z" />
    <glyph glyph-name="greater" unicode="&#x3e;" horiz-adv-x="656" 
d="M624 467q0 -45 -27 -80.5t-69 -47.5q28 -54 28 -111q0 -91 -64 -158q-67 -70 -165 -70q-100 0 -165 70q-61 66 -61 158q0 63 27 111q-42 12 -69 47.5t-27 80.5q0 55 39 94t94 39q56 0 94.5 -38.5t38.5 -94.5q0 -48 -30 -85t-75 -46q-35 -45 -35 -107q0 -68 50 -119.5
t119 -51.5q73 0 122.5 51t49.5 120q0 57 -34 107q-46 9 -76.5 46t-30.5 85q0 56 39 94.5t94 38.5t94 -39t39 -94zM569 467q0 32 -23 55t-55 23t-55 -23t-23 -55t23 -55t55 -23t55 23t23 55zM243 467q0 32 -23 55t-55 23t-55 -23t-23 -55t23 -55t55 -23t55 23t23 55z" />
    <glyph glyph-name="question" unicode="?" horiz-adv-x="647" 
d="M614 304q0 -119 -85.5 -204t-205.5 -85q-119 0 -204.5 85t-85.5 204q0 120 85.5 205.5t204.5 85.5q120 0 205.5 -85.5t85.5 -205.5zM561 302q0 87 -54 153l-154 -154l151 -152q57 72 57 153zM477 485q-69 57 -152 57t-157 -57l155 -155zM293 301l-154 154
q-53 -67 -53 -153q0 -84 56 -153zM473 120l-150 150l-151 -150q61 -52 151 -52q84 0 150 52z" />
    <glyph glyph-name="at" unicode="@" horiz-adv-x="689" 
d="M655 288h-44q-11 -94 -78.5 -162t-161.5 -77v-45h-53v45q-95 9 -162.5 77t-77.5 162h-45v53h45q9 94 77 162t163 79v44h53v-44q95 -11 162.5 -79t77.5 -162h44v-53zM558 341q-9 74 -61.5 126.5t-125.5 60.5v-187h187zM318 341v187q-73 -8 -125.5 -60.5t-61.5 -126.5h187z
M557 288h-186v-186q73 9 125 61t61 125zM318 102v186h-187q10 -73 62 -125t125 -61z" />
    <glyph glyph-name="A" unicode="A" horiz-adv-x="880" 
d="M847 549q0 -68 -29.5 -116.5t-78.5 -64.5l-54 73q53 7 94 38.5t41 69.5q0 50 -40.5 82.5t-93.5 32.5q-79 0 -135 -75q-52 -68 -52 -150v-439h-112v439q0 84 -50 152q-53 73 -129 73q-60 0 -101 -28q-47 -32 -47 -87q0 -41 41 -74t91 -40l-41 -67q-51 11 -85 61.5
t-34 119.5q0 73 55 120q52 43 121 43q89 0 154 -61q61 -59 75 -148h10q16 90 79 148q67 61 161 61q64 0 112 -47t48 -116z" />
    <glyph glyph-name="B" unicode="B" horiz-adv-x="556" 
d="M526 240q0 -103 -72.5 -176t-176.5 -73q-101 0 -174 71q-76 73 -76 180q0 82 57 152q52 63 122 85q-152 51 -171 212q40 -91 123 -136q62 -35 129 -35q153 0 217 158q-17 -74 -64 -130q-50 -59 -109 -66q75 -14 132 -78q63 -71 63 -164zM448 171q0 114 -68.5 200.5
t-154.5 86.5q-50 0 -87 -47t-37 -113q0 -105 70.5 -193t151.5 -88q47 0 86 45t39 109z" />
    <glyph glyph-name="C" unicode="C" horiz-adv-x="649" 
d="M620 0h-593v5q26 0 45.5 16t19.5 43v566q0 31 -18.5 50t-46.5 19v5h593v-4q-26 0 -43.5 -20.5t-17.5 -49.5v-566q0 -26 17.5 -42.5t43.5 -16.5v-5zM444 64v566q0 56 -57 56h-130q-50 0 -50 -56v-566q0 -53 50 -53h130q25 0 41 14.5t16 38.5z" />
    <glyph glyph-name="D" unicode="D" horiz-adv-x="888" 
d="M853 470q0 -82 -67 -132q-60 -45 -139 -45q-81 0 -128 41q-42 36 -42 88q0 55 29 94t74 48q-59 -35 -59 -102q0 -59 37 -92q33 -30 88 -30q12 0 25 2q35 5 64 35t29 70q0 91 -83 137q-74 41 -206 41q-100 0 -200 -26q-116 -31 -190 -89q48 92 167 147q107 51 220 51
q381 0 381 -238zM804 193q-48 -92 -168 -148q-109 -51 -222 -51q-379 0 -379 239q0 79 67 130q61 46 140 46q81 0 128 -41q41 -36 41 -88q0 -55 -29 -94.5t-75 -48.5q61 36 61 104q0 59 -35.5 90.5t-90.5 31.5q-12 0 -25 -2q-35 -4 -64 -35t-29 -71q0 -177 290 -177
q100 0 200 26q116 31 190 89z" />
    <glyph glyph-name="E" unicode="E" horiz-adv-x="774" 
d="M739 128q0 -67 -50 -102q-45 -33 -119 -33q-72 0 -122 37.5t-50 97.5q0 54 47 131q43 68 87 136q47 84 47 155q0 138 -144 138q-52 0 -84 -32t-32 -79q0 -14 3 -27q20 -96 20 -130q0 -37 -13 -70q-46 -118 -174 -118q-63 0 -93 35q-24 28 -24 68q0 59 60 80
q-29 -21 -29 -75q0 -33 23.5 -55t62.5 -22q94 0 94 145q0 25 -24 147q-3 14 -3 27q0 61 57 96q51 31 127 31q266 0 266 -177q0 -60 -46 -144q-42 -70 -85 -139q-46 -78 -46 -121t34.5 -72t81.5 -29q45 0 75 33q23 26 23 48q0 23 -23 34q-19 -27 -45 -27q-16 0 -31.5 14
t-15.5 36q0 19 14 32.5t35 13.5q40 0 68 -26t28 -57z" />
    <glyph glyph-name="F" unicode="F" horiz-adv-x="816" 
d="M781 0h-32q-52 48 -95 123q-52 -85 -95 -123h-54q64 64 118 163q-92 142 -92 265q0 55 20 93t57 43v47q0 27 -23 43.5t-54 16.5q-30 0 -52.5 -16t-22.5 -44v-448h-96v448q0 35 -14 47.5t-52 12.5q-71 0 -71 -60v-448h-96v448q0 65 -55 65q-23 0 -38 -15q18 47 97 47
q42 0 61 -13t33 -49q32 62 124 62q90 0 112 -62q20 36 47 49q24 13 68 13q48 0 82 -22q40 -26 40 -75v-46q40 -1 62 -43q20 -38 20 -94q0 -87 -41 -171q-13 -25 -71 -113q60 -87 113 -144zM708 428q0 49 -18 79q-21 33 -58 33q-36 0 -57 -37q-19 -32 -19 -75q0 -101 84 -240
q41 80 52 119q16 50 16 121z" />
    <glyph glyph-name="G" unicode="G" horiz-adv-x="654" 
d="M618 146h-227q61 36 96 121q32 77 32 168q0 90 -52 165q-58 83 -144 83q-82 0 -139 -83q-51 -76 -51 -165q0 -98 33 -173q35 -80 99 -116h-231v72h100q-100 68 -100 217q0 124 82 200q80 73 207 73q126 0 209 -73q86 -77 86 -200q0 -142 -110 -217h110v-72zM618 0h-584
v71h584v-71z" />
    <glyph glyph-name="H" unicode="H" 
d="M967 160l-42 -20q11 -33 11 -49q0 -40 -26 -66q-35 -33 -107 -33q-203 0 -203 189v426q0 65 -71 65q-70 0 -70 -65l1 -445h-97v445q0 65 -69 65t-69 -65v-445h-97v444q0 66 -55 66q-20 0 -34 -12q24 48 93 48q83 0 93 -62h10q16 62 114 62q100 0 110 -62h10q14 62 112 62
q117 0 117 -101v-426q0 -71 33 -114.5t83 -43.5q106 0 106 68q0 19 -12 41l-44 -21v148z" />
    <glyph glyph-name="I" unicode="I" horiz-adv-x="718" 
d="M681 704l-69 -174v78l-304 -359q45 -60 56 -103l-37 -17q-12 43 -50 84l-180 -213l-62 69l194 195q-34 37 -84 57l17 39q51 -19 95 -64l335 332h-79z" />
    <glyph glyph-name="J" unicode="J" horiz-adv-x="778" 
d="M751 709q-299 -191 -420 -339q61 23 115 23q98 0 161 -54q65 -57 65 -151q0 -88 -76 -144q-72 -54 -175 -54q-255 0 -256 218q0 37 11 69q-37 -21 -72 -57q-43 -45 -57 -91q5 65 52 126q41 52 91 75q23 59 109 131q71 59 161 108q-40 -17 -83 -17q-117 0 -191 72
q-46 -61 -159 -61q100 32 149 146q104 -92 216 -92q68 0 182 31q97 27 177 61zM576 191q0 63 -42.5 112.5t-103.5 49.5q-40 0 -127 -28q-34 -73 -34 -117q0 -72 35 -125q42 -65 117 -65q68 0 111.5 45.5t43.5 127.5z" />
    <glyph glyph-name="K" unicode="K" horiz-adv-x="860" 
d="M826 501q-11 -175 -86 -175q-46 0 -78 58q-47 80 -121 213q-16 30 -35 30q-20 0 -33 -30l-100 -224q-22 -48 -62 -48q-39 0 -61.5 43.5t-111.5 228.5q-13 27 -30 27q-24 0 -56 -75q7 66 30.5 109.5t55.5 43.5q43 0 81 -84q51 -111 91 -182q20 -35 29 -35q10 0 25 35
q33 72 96 216q24 56 71 56t78 -56q48 -87 124 -217q17 -29 34 -29q30 0 59 95zM809 181q-7 -189 -83 -189q-46 0 -80 60q-47 80 -122 212q-16 31 -36 31q-19 0 -33 -31q-35 -80 -98 -222q-23 -50 -63 -50q-39 0 -61 43q-2 4 -113 229q-14 29 -31 29q-25 0 -57 -71
q8 65 31.5 107t55.5 42q43 0 83 -86q53 -114 91 -181q19 -35 29 -35q11 0 26 35q32 72 95 216q24 56 69 56q50 0 80 -56.5t124 -216.5q19 -32 36 -32q25 0 57 110z" />
    <glyph glyph-name="L" unicode="L" horiz-adv-x="592" 
d="M567 -2q-89 28 -149.5 124t-66.5 216q-22 3 -57 3q-19 0 -52 -3q-5 -119 -66 -215.5t-150 -124.5q64 59 89 146q18 66 20 184q-36 -6 -95 -27l7 42q53 25 88 29q-6 216 -109 332q89 -27 149 -118t67 -203q34 4 52 4q32 0 57 -4q7 113 66 202q60 93 150 119
q-103 -116 -108 -332q38 -5 87 -25q7 -29 10 -51q-46 24 -97 32q1 -113 18 -178q24 -92 90 -152z" />
    <glyph glyph-name="M" unicode="M" horiz-adv-x="396" 
d="M370 -2l-39 -59l-78 103l-74 -101l-32 25l85 105l-91 120h-40v-171h-73v409h120q141 0 141 -122q0 -62 -41 -91q-30 -22 -73 -22l86 -87l71 88l20 -19l-68 -93zM213 306q0 42 -23.5 66.5t-63.5 24.5h-25v-178q112 0 112 87z" />
    <glyph glyph-name="N" unicode="N" horiz-adv-x="306" 
d="M296 20h-87l-71 171h-37v-171h-73v409h121q57 0 93 -25q45 -32 45 -97q0 -55 -36 -86q-32 -27 -78 -27zM213 300q0 97 -76 97h-36v-178q59 0 79 10q33 17 33 71z" />
    <glyph glyph-name="O" unicode="O" horiz-adv-x="376" 
d="M350 397h-125v-377h-78v377h-123v32h326v-32z" />
    <glyph glyph-name="P" unicode="P" horiz-adv-x="310" 
d="M288 307q0 -60 -44 -90q-39 -26 -102 -26h-42v-171h-74v409h116q65 0 103 -28q43 -32 43 -94zM211 307q0 39 -19.5 64.5t-55.5 25.5h-36v-178h36q36 0 55.5 25t19.5 63z" />
    <glyph glyph-name="Q" unicode="Q" horiz-adv-x="798" 
d="M761 350q0 -150 -106 -256t-256 -106q-151 0 -257 106t-106 256t106 256.5t257 106.5q150 0 256 -106.5t106 -256.5zM640 224q0 132 -100 283q-105 158 -213 154q-65 -2 -115 -55q-51 -56 -51 -132q0 -139 98 -284q101 -149 203 -149q69 0 121 48q57 53 57 135zM457 346
q0 -25 -18 -42.5t-43 -17.5q-26 0 -43.5 18.5t-17.5 43.5t18 42.5t44 17.5q25 0 42.5 -18t17.5 -44z" />
    <glyph glyph-name="R" unicode="R" horiz-adv-x="760" 
d="M724 351q0 -151 -108 -257t-255 -106q-66 0 -113 18q70 34 108.5 98t38.5 147q0 113 -80.5 193t-193.5 80q-36 0 -82 -19q36 90 122 148q90 61 200 61q151 0 257 -107.5t106 -255.5zM622 331q0 130 -92.5 222.5t-223.5 92.5q-139 0 -234 -113q56 30 126 30q118 0 201 -83
t83 -201q0 -87 -52 -160.5t-133 -105.5h9q130 0 223 93.5t93 224.5z" />
    <glyph glyph-name="S" unicode="S" horiz-adv-x="407" 
d="M384 384q0 -60 -37 -107.5t-95 -61.5v-101h84v-26h-84v-88h-81v88h-82v26h82v101q-54 8 -94 57.5t-40 110.5q0 110 106 161q-97 25 -116 164q52 -129 201 -130q58 0 103 40t50 90q0 -46 -28 -92q-31 -51 -81 -70q46 -18 78 -61q34 -46 34 -101zM322 346q0 71 -46 128
t-101 57q-32 0 -52.5 -28t-20.5 -73q0 -69 46.5 -128.5t99.5 -59.5q74 0 74 104z" />
    <glyph glyph-name="T" unicode="T" horiz-adv-x="480" 
d="M464 485q0 -82 -53 -145.5t-132 -77.5v-116h101v-27h-101v-119h-91v119h-99v27h99v120q-73 16 -122 78t-49 139q0 90 64.5 157t154.5 67q95 0 161.5 -64.5t66.5 -157.5zM382 439q0 86 -60 158q-58 68 -121 68q-42 0 -70.5 -37t-28.5 -90q0 -88 52 -162q55 -79 129 -79
q46 0 72.5 38.5t26.5 103.5z" />
    <glyph glyph-name="U" unicode="U" horiz-adv-x="866" 
d="M777 708l-114 -288v142l-159 -159q47 -66 47 -149q0 -107 -75.5 -183t-182.5 -76t-183 76t-76 183t76 182.5t183 75.5q110 0 188 -81l158 158h-141zM466 171q0 99 -67 196q-70 101 -152 101q-47 0 -80 -40t-33 -98q0 -108 65 -200.5t141 -92.5q51 0 86 31q40 37 40 103z
" />
    <glyph glyph-name="V" unicode="V" horiz-adv-x="540" 
d="M516 146h-121v-146h-75v146h-291q90 101 179 202q107 126 107 195q0 43 -32.5 72t-70.5 29q-110 0 -160 -98q10 78 66 122q51 40 124 40q69 0 116 -37.5t47 -102.5t-48 -135q-36 -52 -116 -126q-71 -65 -141 -130h220v89l75 90v-179h121v-31z" />
    <glyph glyph-name="W" unicode="W" horiz-adv-x="558" 
d="M530 328q0 -84 -78 -166q-68 -73 -172 -122q-100 -47 -176 -47h-6q139 43 242 142q107 102 107 200q0 57 -13 81.5t-44 24.5q-92 0 -123 -143h-98v290h-142v27h142v89h98v-89h223v-27h-223v-219q11 45 51 79t82 34q130 0 130 -154z" />
    <glyph glyph-name="X" unicode="X" horiz-adv-x="490" 
d="M464 413h-51q-38 64 -48 129h-81v-166q66 -14 109.5 -68t43.5 -123q0 -79 -57.5 -134.5t-135.5 -55.5q-80 0 -136.5 56.5t-55.5 135.5q1 74 40 124q43 55 118 65v166h-86q-6 -61 -43 -129h-53q38 72 38 141t-38 143h53q36 -63 43 -130h86v137h74v-137h81q7 63 48 130h51
q-40 -73 -40 -142t40 -142zM359 145q0 74 -47.5 134t-106.5 60q-35 0 -56.5 -29.5t-21.5 -75.5q0 -74 45 -135q48 -65 111 -65q76 0 76 111z" />
    <glyph glyph-name="Y" unicode="Y" horiz-adv-x="644" 
d="M611 600l-51 12v-194q0 -109 -101 -109h-104v-153h108v-33h-108v-123h-73v123h-107v33h107v153h-105q-101 0 -101 109v194l-49 -12l86 106l85 -107l-49 13v-194q0 -71 54 -71h79v265l-46 -13l82 109l88 -109l-51 13v-265h78q55 0 55 71v194l-49 -13l84 109z" />
    <glyph glyph-name="Z" unicode="Z" horiz-adv-x="517" 
d="M425 542q0 -69 -49.5 -119t-118.5 -50q-68 0 -117 50t-49 119q0 67 49.5 116.5t116.5 49.5q69 0 118.5 -49.5t49.5 -116.5zM492 487q-4 -71 -70 -134q-62 -60 -122 -66v-165h96v-27h-98v-95h-77v95h-97v27h97v165q-68 10 -126 64q-65 59 -70 136l32 21q6 -69 65.5 -124
t133.5 -55q76 0 137 54t63 119zM359 503q0 63 -46 117q-45 51 -89 51q-31 0 -50 -27t-19 -67q0 -63 44.5 -118t90.5 -55q32 0 50.5 27.5t18.5 71.5z" />
    <glyph glyph-name="bracketleft" unicode="[" horiz-adv-x="776" 
d="M744 120q-39 -123 -194 -123q-108 0 -209 44q-84 39 -167 79q-54 -61 -90 -61q-21 0 -40 18.5t-19 42.5q0 28 20 48.5t52 20.5q30 0 70 -20q48 58 61 89q31 75 31 224q0 93 71 159.5t176 66.5q97 0 149.5 -44t52.5 -125q0 -90 -90 -143q-82 -48 -207 -48q218 42 218 183
q0 135 -124 135q-71 0 -116 -58q-41 -54 -41 -126q0 -116 -47 -205q-29 -55 -94 -122q83 -32 165 -65q99 -37 178 -36q78 1 99 6q57 12 95 60zM136 132q-30 16 -52 17q-22 3 -24 -22q-2 -23 23 -26q20 -2 53 31z" />
    <glyph glyph-name="backslash" unicode="\" horiz-adv-x="344" 
d="M359 -42h-55l-319 611h55z" />
    <glyph glyph-name="bracketright" unicode="]" horiz-adv-x="488" 
d="M460 27h-428v476h45v-425h383v-51z" />
    <glyph glyph-name="asciicircum" unicode="^" horiz-adv-x="242" 
d="M222 465q0 -40 -28 -68.5t-69 -28.5q-40 0 -68.5 28.5t-28.5 68.5q0 41 28.5 69t68.5 28q41 0 69 -28t28 -69zM194 465q0 29 -20 49t-49 20q-28 0 -48.5 -20t-20.5 -49q0 -28 20.5 -48.5t48.5 -20.5q29 0 49 20.5t20 48.5z" />
    <glyph glyph-name="underscore" unicode="_" horiz-adv-x="590" 
d="M594 -142h-597v54h597v-54z" />
    <glyph glyph-name="grave" unicode="`" horiz-adv-x="130" 
d="M95 543l-40 -152h-23l20 152h43z" />
    <glyph glyph-name="a" unicode="a" horiz-adv-x="644" 
d="M634 106q0 -47 -22 -76q-23 -32 -64 -32q-104 0 -104 190q0 91 26 151q30 68 85 68q33 0 52.5 -30t19.5 -76l-20 -15q0 38 -12 65q-14 32 -40 32q-59 0 -59 -195q0 -167 58 -167q59 0 59 92zM419 106q0 -49 -27 -80q-23 -28 -52 -28q-80 0 -80 108l21 7q0 -97 57 -97
q41 0 41 66q0 42 -28 74q-26 26 -53 52q-28 36 -28 90q0 51 19.5 80.5t50.5 29.5q33 0 52.5 -30t19.5 -76l-20 -15q0 38 -12 65q-14 33 -40 33q-40 0 -40 -66q0 -43 31 -72q28 -24 57 -49q31 -34 31 -92zM248 0h-65l-22 138h-102l-23 -138h-25l94 545h49zM154 173l-47 273
l-43 -273h90z" />
    <glyph glyph-name="b" unicode="b" horiz-adv-x="600" 
d="M588 159q0 -77 -29.5 -119.5t-84.5 -42.5q-72 0 -109 75q-32 66 -32 181q0 121 37 199q41 88 117 88q43 0 70.5 -38t27.5 -98l-23 -17q0 121 -75 121q-53 0 -72 -93q-10 -52 -10 -158q0 -230 76 -230q84 0 84 146zM288 0h-67v420l-71 -420h-39l-73 415v-415h-28v538h69
l71 -394l71 394h67v-538z" />
    <glyph glyph-name="c" unicode="c" horiz-adv-x="400" 
d="M384 167q0 -76 -40 -124q-37 -43 -86 -43q-72 0 -110 73q-35 67 -35 181q0 117 38 196q42 88 116 88q100 0 107 -154l-36 -24v29q0 47 -16 79q-17 37 -49 37q-55 0 -79 -91q-17 -64 -17 -157q0 -84 18 -145q24 -83 75 -83q38 0 60 47q21 43 21 102v27l33 -11v-27zM75 0
h-63v531h63v-531z" />
    <glyph glyph-name="d" unicode="d" horiz-adv-x="960" 
d="M933 315q0 -189 -132.5 -321.5t-321.5 -132.5t-321.5 133t-132.5 321t132.5 321t321.5 133t321.5 -132.5t132.5 -321.5zM927 315q0 186 -131 317t-317 131t-317 -131.5t-131 -316.5t131 -316.5t317 -131.5t317 131t131 317zM858 315q0 -157 -111 -268t-268 -111t-268 111
t-111 268t111 268t268 111t268 -111t111 -268zM800 505q-49 82 -135 132l-121 -209q26 -16 45 -45zM852 319q-2 99 -49 180l-211 -121q14 -27 16 -59h244zM660 641q-81 47 -178 47v-244q31 0 57 -14zM852 311h-244q-1 -29 -16 -58l212 -120q46 79 48 178zM476 444v244
q-100 -2 -181 -49l122 -212q26 16 59 17zM801 127l-212 121q-13 -24 -42 -43l121 -211q82 47 133 133zM602 315q0 51 -36 87t-87 36t-87 -36t-36 -87t36 -87t87 -36t87 36t36 87zM411 424l-122 212q-81 -48 -131 -132q57 -32 211 -122q19 29 42 42zM366 377l-211 121
q-47 -81 -49 -179h244q1 29 16 58zM663 -9l-121 211q-29 -15 -60 -16v-244q98 1 181 49zM365 253q-13 25 -15 58h-244q2 -97 48 -179zM476 -58v244q-33 0 -62 16l-121 -210q82 -48 183 -50zM409 205q-26 18 -41 43l-211 -122q49 -82 131 -131z" />
    <glyph glyph-name="e" unicode="e" horiz-adv-x="1356" 
d="M1340 468q0 -86 -142 -180q-79 -52 -238 -123q-45 -70 -124 -112.5t-167 -42.5q-76 0 -129 29q-136 -21 -233 -21q-121 0 -202 37q-85 39 -85 100q0 66 90 135q86 66 225 112q15 112 106 197q98 91 229 91q157 0 265 -127q78 15 153 15q107 0 173 -23q79 -29 79 -87z
M1098 460q0 31 -53 47q-36 12 -81 13q46 -78 46 -164q88 67 88 104zM1000 349q0 134 -97.5 232.5t-232.5 98.5t-231.5 -98.5t-96.5 -229.5q0 -97 58 -182q145 10 296 52q174 48 304 127zM1328 468q0 53 -81 79q-63 20 -159 20q-90 0 -146 -13q12 -16 17 -26q48 0 87 -11
q62 -18 62 -57q0 -59 -120 -130q-124 -74 -295 -120q-144 -39 -284 -50q-13 -1 -28 -1q-61 0 -107 14q-54 18 -54 49q0 35 39 71q31 29 73 47q0 29 2 52q-131 -44 -215 -109q-87 -67 -87 -128q0 -54 79.5 -89.5t195.5 -35.5q79 0 232 21q191 26 426 130q363 160 363 287z
M942 157q-202 -88 -385 -116q44 -20 113 -20q79 0 153 37.5t119 98.5zM388 170q-55 80 -55 160q-100 -49 -101 -108q0 -23 50 -38q46 -14 106 -14z" />
    <glyph glyph-name="f" unicode="f" horiz-adv-x="624" 
d="M614 366l-258 -18l44 -69l-63 48l-1 -19l-22 -396h-3l-19 416l-83 -61l63 81l-39 3l-223 15v2l263 20l-29 45l48 -23l19 340h3l20 -338l53 33l-32 -57l259 -20v-2zM547 367l-201 16l26 46l-43 -28l-16 273l-15 -273l-39 18l24 -36l-206 -16l206 -14l-45 -58l60 44l1 -31
l14 -307l19 337l47 -36l-33 51z" />
    <glyph glyph-name="g" unicode="g" horiz-adv-x="624" 
d="M614 366l-258 -18l44 -69l-63 48l-23 -415h-3l-18 417l-83 -62l62 81l-262 18v2l262 20l-28 45l49 -23l19 340h2l20 -337l53 32l-32 -57l259 -20v-2z" />
    <glyph glyph-name="h" unicode="h" horiz-adv-x="804" 
d="M789 305l-222 -17l177 -128l-211 68l110 -191l-161 149l36 -215l-97 198l-51 -215l-13 220l-126 -179l76 205l-189 -121l140 172l-217 -41l198 110l-221 46l222 19l-178 137l212 -71l-113 193l173 -149l-36 220l92 -208l44 229l14 -229l120 188l-66 -214l194 116
l-143 -168l218 37l-196 -106z" />
    <glyph glyph-name="i" unicode="i" horiz-adv-x="724" 
d="M697 378l-76 -61l32 -94l-86 54l-83 -60l32 100l-74 61h96l29 86l32 -86h98zM560 52q-30 -21 -58 -33q-66 -29 -129 -29q-138 0 -240 94q-107 97 -107 237q0 151 100 250q97 97 238 97q111 0 194 -62q-48 17 -96 17q-124 0 -210 -81q-90 -86 -90 -217q0 -120 83 -205.5
t207 -85.5q39 0 50 2q33 6 58 16z" />
    <glyph glyph-name="j" unicode="j" horiz-adv-x="780" 
d="M766 346q0 -155 -110 -265t-266 -110q-155 0 -265 110t-110 265t110 265.5t265 110.5q156 0 266 -110t110 -266zM634 221v246h-109v111h-259v-111h-111v-246h111v-110h259v110h109z" />
    <glyph glyph-name="k" unicode="k" horiz-adv-x="787" 
d="M767 360q0 -154 -110 -263t-265 -109q-154 0 -263 109.5t-109 264.5t109 264t263 109q155 0 265 -110t110 -265zM568 536q0 73 -53 124t-123 51q-142 0 -245 -102.5t-103 -246.5q0 -140 104.5 -242.5t243.5 -107.5q-71 7 -121 54q-54 50 -54 121t49.5 122t124.5 51
t126 49.5t51 126.5zM441 190q0 20 -14.5 34t-34.5 14q-19 0 -33.5 -14t-14.5 -34q0 -19 14 -33t34 -14t34.5 14t14.5 33zM441 536q0 -20 -14.5 -34.5t-34.5 -14.5t-34.5 14.5t-14.5 34.5t14.5 34t34.5 14t34.5 -14t14.5 -34z" />
    <glyph glyph-name="l" unicode="l" horiz-adv-x="530" 
d="M510 261l-223 -192l19 114h-278v164h278l-19 110z" />
    <glyph glyph-name="m" unicode="m" horiz-adv-x="530" 
d="M507 177h-279l18 -111l-223 198l223 191l-18 -115h279v-163z" />
    <glyph glyph-name="o" unicode="o" horiz-adv-x="578" 
d="M550 522l-52 -52l46 -46l-35 -35l-46 46l-77 -77q38 -52 38 -114q0 -82 -58 -139.5t-139 -57.5q-82 0 -139.5 57.5t-57.5 139.5t57.5 139.5t139.5 57.5q66 0 116 -36l75 75l-48 48l35 34l48 -48l53 53zM362 244q0 56 -39.5 95.5t-95.5 39.5q-55 0 -95 -39.5t-40 -95.5
q0 -55 39.5 -94.5t95.5 -39.5t95.5 39.5t39.5 94.5z" />
    <glyph glyph-name="t" unicode="t" horiz-adv-x="463" 
d="M438 134q0 -60 -60 -99.5t-148 -39.5q-85 0 -145.5 39.5t-60.5 99.5q0 53 49 90q46 36 120 45v435h74v-120l111 112h31l-117 -117l129 -129h-53l-101 102v-283q76 -9 123.5 -46t47.5 -89zM365 103q0 52 -55 95.5t-120 43.5q-40 0 -67 -22.5t-27 -55.5q0 -54 53 -98
t122 -44q39 0 66.5 23t27.5 58z" />
    <glyph glyph-name="quotesinglbase" unicode="&#x201a;" horiz-adv-x="658" 
d="M635 559q-58 27 -130 27q-120 0 -210 -88q-94 -92 -94 -227q0 -91 54.5 -168.5t138.5 -112.5h-20q-143 0 -245.5 103.5t-102.5 246.5q0 144 102 245.5t246 101.5q153 0 261 -128z" />
    <glyph glyph-name="n" unicode="n" 
 />
    <glyph glyph-name="p" unicode="p" 
 />
    <glyph glyph-name="q" unicode="q" 
 />
    <glyph glyph-name="r" unicode="r" 
 />
    <glyph glyph-name="s" unicode="s" 
 />
    <glyph glyph-name="u" unicode="u" 
 />
    <glyph glyph-name="v" unicode="v" 
 />
    <glyph glyph-name="w" unicode="w" 
 />
    <glyph glyph-name="x" unicode="x" 
 />
    <glyph glyph-name="y" unicode="y" 
 />
    <glyph glyph-name="z" unicode="z" 
 />
    <glyph glyph-name="braceleft" unicode="{" 
 />
    <glyph glyph-name="bar" unicode="|" 
 />
    <glyph glyph-name="braceright" unicode="}" 
 />
    <glyph glyph-name="asciitilde" unicode="~" 
 />
    <glyph glyph-name="glyph99" 
 />
    <glyph glyph-name="glyph100" 
 />
    <glyph glyph-name="glyph101" 
 />
    <glyph glyph-name="florin" unicode="&#x192;" 
 />
    <glyph glyph-name="quotedblbase" unicode="&#x201e;" 
 />
    <glyph glyph-name="ellipsis" unicode="&#x2026;" 
 />
    <glyph glyph-name="dagger" unicode="&#x2020;" 
 />
    <glyph glyph-name="daggerdbl" unicode="&#x2021;" 
 />
    <glyph glyph-name="circumflex" unicode="&#x2c6;" 
 />
    <glyph glyph-name="perthousand" unicode="&#x2030;" 
 />
    <glyph glyph-name="Scaron" unicode="&#x160;" 
 />
    <glyph glyph-name="guilsinglleft" unicode="&#x2039;" 
 />
    <glyph glyph-name="OE" unicode="&#x152;" 
 />
    <glyph glyph-name="glyph112" 
 />
    <glyph glyph-name="glyph113" 
 />
    <glyph glyph-name="glyph114" 
 />
    <glyph glyph-name="glyph115" 
 />
    <glyph glyph-name="quoteleft" unicode="&#x2018;" 
 />
    <glyph glyph-name="quoteright" unicode="&#x2019;" 
 />
    <glyph glyph-name="quotedblleft" unicode="&#x201c;" 
 />
    <glyph glyph-name="quotedblright" unicode="&#x201d;" 
 />
    <glyph glyph-name="bullet" unicode="&#x2022;" 
 />
    <glyph glyph-name="endash" unicode="&#x2013;" 
 />
    <glyph glyph-name="emdash" unicode="&#x2014;" 
 />
    <glyph glyph-name="tilde" unicode="&#x2dc;" 
 />
    <glyph glyph-name="trademark" unicode="&#x2122;" 
 />
    <glyph glyph-name="scaron" unicode="&#x161;" 
 />
    <glyph glyph-name="guilsinglright" unicode="&#x203a;" 
 />
    <glyph glyph-name="oe" unicode="&#x153;" 
 />
    <glyph glyph-name="glyph128" 
 />
    <glyph glyph-name="glyph129" 
 />
    <glyph glyph-name="Ydieresis" unicode="&#x178;" 
 />
    <glyph glyph-name="nonbreakingspace" unicode="&#xa0;" 
 />
    <glyph glyph-name="exclamdown" unicode="&#xa1;" 
 />
    <glyph glyph-name="cent" unicode="&#xa2;" 
 />
    <glyph glyph-name="sterling" unicode="&#xa3;" 
 />
    <glyph glyph-name="currency" unicode="&#xa4;" 
 />
    <glyph glyph-name="yen" unicode="&#xa5;" 
 />
    <glyph glyph-name="brokenbar" unicode="&#xa6;" 
 />
    <glyph glyph-name="section" unicode="&#xa7;" 
 />
    <glyph glyph-name="dieresis" unicode="&#xa8;" 
 />
    <glyph glyph-name="copyright" unicode="&#xa9;" 
 />
    <glyph glyph-name="ordfeminine" unicode="&#xaa;" 
 />
    <glyph glyph-name="guillemotleft" unicode="&#xab;" 
 />
    <glyph glyph-name="logicalnot" unicode="&#xac;" 
 />
    <glyph glyph-name="minus" unicode="&#xad;" 
 />
    <glyph glyph-name="minus" unicode="&#x2212;" 
 />
    <glyph glyph-name="registered" unicode="&#xae;" 
 />
    <glyph glyph-name="macron" unicode="&#xaf;" 
 />
    <glyph glyph-name="macron" unicode="&#x2c9;" 
 />
    <glyph glyph-name="degree" unicode="&#xb0;" 
 />
    <glyph glyph-name="plusminus" unicode="&#xb1;" 
 />
    <glyph glyph-name="twosuperior" unicode="&#xb2;" 
 />
    <glyph glyph-name="threesuperior" unicode="&#xb3;" 
 />
    <glyph glyph-name="acute" unicode="&#xb4;" 
 />
    <glyph glyph-name="mu1" unicode="&#xb5;" 
 />
    <glyph glyph-name="paragraph" unicode="&#xb6;" 
 />
    <glyph glyph-name="periodcentered" unicode="&#xb7;" 
 />
    <glyph glyph-name="periodcentered" unicode="&#x2219;" 
 />
    <glyph glyph-name="cedilla" unicode="&#xb8;" 
 />
    <glyph glyph-name="onesuperior" unicode="&#xb9;" 
 />
    <glyph glyph-name="ordmasculine" unicode="&#xba;" 
 />
    <glyph glyph-name="guillemotright" unicode="&#xbb;" 
 />
    <glyph glyph-name="onequarter" unicode="&#xbc;" 
 />
    <glyph glyph-name="onehalf" unicode="&#xbd;" 
 />
    <glyph glyph-name="threequarters" unicode="&#xbe;" 
 />
    <glyph glyph-name="questiondown" unicode="&#xbf;" 
 />
    <glyph glyph-name="Agrave" unicode="&#xc0;" 
 />
    <glyph glyph-name="Aacute" unicode="&#xc1;" 
 />
    <glyph glyph-name="Acircumflex" unicode="&#xc2;" 
 />
    <glyph glyph-name="Atilde" unicode="&#xc3;" 
 />
    <glyph glyph-name="Adieresis" unicode="&#xc4;" 
 />
    <glyph glyph-name="Aring" unicode="&#xc5;" 
 />
    <glyph glyph-name="AE" unicode="&#xc6;" 
 />
    <glyph glyph-name="Ccedilla" unicode="&#xc7;" 
 />
    <glyph glyph-name="Egrave" unicode="&#xc8;" 
 />
    <glyph glyph-name="Eacute" unicode="&#xc9;" 
 />
    <glyph glyph-name="Ecircumflex" unicode="&#xca;" 
 />
    <glyph glyph-name="Edieresis" unicode="&#xcb;" 
 />
    <glyph glyph-name="Igrave" unicode="&#xcc;" 
 />
    <glyph glyph-name="Iacute" unicode="&#xcd;" 
 />
    <glyph glyph-name="Icircumflex" unicode="&#xce;" 
 />
    <glyph glyph-name="Idieresis" unicode="&#xcf;" 
 />
    <glyph glyph-name="Eth" unicode="&#xd0;" 
 />
    <glyph glyph-name="Ntilde" unicode="&#xd1;" 
 />
    <glyph glyph-name="Ograve" unicode="&#xd2;" 
 />
    <glyph glyph-name="Oacute" unicode="&#xd3;" 
 />
    <glyph glyph-name="Ocircumflex" unicode="&#xd4;" 
 />
    <glyph glyph-name="Otilde" unicode="&#xd5;" 
 />
    <glyph glyph-name="Odieresis" unicode="&#xd6;" 
 />
    <glyph glyph-name="multiply" unicode="&#xd7;" 
 />
    <glyph glyph-name="Oslash" unicode="&#xd8;" 
 />
    <glyph glyph-name="Ugrave" unicode="&#xd9;" 
 />
    <glyph glyph-name="Uacute" unicode="&#xda;" 
 />
    <glyph glyph-name="Ucircumflex" unicode="&#xdb;" 
 />
    <glyph glyph-name="Udieresis" unicode="&#xdc;" 
 />
    <glyph glyph-name="Yacute" unicode="&#xdd;" 
 />
    <glyph glyph-name="Thorn" unicode="&#xde;" 
 />
    <glyph glyph-name="germandbls" unicode="&#xdf;" 
 />
    <glyph glyph-name="agrave" unicode="&#xe0;" 
 />
    <glyph glyph-name="aacute" unicode="&#xe1;" 
 />
    <glyph glyph-name="acircumflex" unicode="&#xe2;" 
 />
    <glyph glyph-name="atilde" unicode="&#xe3;" 
 />
    <glyph glyph-name="adieresis" unicode="&#xe4;" 
 />
    <glyph glyph-name="aring" unicode="&#xe5;" 
 />
    <glyph glyph-name="ae" unicode="&#xe6;" 
 />
    <glyph glyph-name="ccedilla" unicode="&#xe7;" 
 />
    <glyph glyph-name="egrave" unicode="&#xe8;" 
 />
    <glyph glyph-name="eacute" unicode="&#xe9;" 
 />
    <glyph glyph-name="ecircumflex" unicode="&#xea;" 
 />
    <glyph glyph-name="edieresis" unicode="&#xeb;" 
 />
    <glyph glyph-name="igrave" unicode="&#xec;" 
 />
    <glyph glyph-name="iacute" unicode="&#xed;" 
 />
    <glyph glyph-name="icircumflex" unicode="&#xee;" 
 />
    <glyph glyph-name="idieresis" unicode="&#xef;" 
 />
    <glyph glyph-name="eth" unicode="&#xf0;" 
 />
    <glyph glyph-name="ntilde" unicode="&#xf1;" 
 />
    <glyph glyph-name="ograve" unicode="&#xf2;" 
 />
    <glyph glyph-name="oacute" unicode="&#xf3;" 
 />
    <glyph glyph-name="ocircumflex" unicode="&#xf4;" 
 />
    <glyph glyph-name="otilde" unicode="&#xf5;" 
 />
    <glyph glyph-name="odieresis" unicode="&#xf6;" 
 />
    <glyph glyph-name="divide" unicode="&#xf7;" 
 />
    <glyph glyph-name="oslash" unicode="&#xf8;" 
 />
    <glyph glyph-name="ugrave" unicode="&#xf9;" 
 />
    <glyph glyph-name="uacute" unicode="&#xfa;" 
 />
    <glyph glyph-name="ucircumflex" unicode="&#xfb;" 
 />
    <glyph glyph-name="udieresis" unicode="&#xfc;" 
 />
    <glyph glyph-name="yacute" unicode="&#xfd;" 
 />
    <glyph glyph-name="thorn" unicode="&#xfe;" 
 />
    <glyph glyph-name="ydieresis" unicode="&#xff;" 
 />
    <glyph glyph-name="glyph227" 
 />
    <glyph glyph-name="mu" unicode="&#x3bc;" 
 />
  </font>
</defs>
</svg>
