<?xml version="1.0" standalone="no"?>
<!DOCTYPE svg PUBLIC "-//W3C//DTD SVG 20010904//EN"
 "http://www.w3.org/TR/2001/REC-SVG-20010904/DTD/svg10.dtd">
<svg version="1.0" xmlns="http://www.w3.org/2000/svg"
 width="668.000000pt" height="668.000000pt" viewBox="0 0 668.000000 668.000000"
 preserveAspectRatio="xMidYMid meet">
<metadata>
Created by potrace 1.11, written by Peter Selinger 2001-2013
</metadata>
<g transform="translate(0.000000,668.000000) scale(0.100000,-0.100000)"
fill="#000000" stroke="none">
<path d="M2572 6661 c-12 -10 -43 -29 -69 -42 -27 -13 -49 -27 -51 -31 -2 -5
-9 -8 -15 -8 -7 0 -29 -15 -49 -33 -20 -17 -46 -39 -57 -47 -12 -8 -21 -19
-21 -25 0 -12 -27 -50 -52 -73 -10 -9 -18 -22 -18 -29 0 -7 -6 -13 -14 -13 -8
0 -16 -7 -20 -15 -10 -27 -71 -104 -82 -105 -7 0 -14 -9 -17 -20 -3 -11 -9
-20 -14 -19 -20 4 -29 -2 -30 -21 -1 -11 -20 -38 -43 -60 -22 -22 -37 -40 -33
-40 4 0 1 -5 -7 -10 -13 -8 -12 -10 3 -10 9 0 17 5 17 12 0 6 2 9 5 6 10 -10
-8 -39 -21 -34 -7 3 -16 0 -20 -5 -11 -18 -11 -69 0 -69 7 0 6 -3 -1 -8 -7 -4
-12 -16 -11 -27 1 -27 -19 -75 -31 -75 -6 0 -8 -7 -5 -15 4 -10 -5 -21 -25
-32 -17 -10 -31 -21 -31 -26 0 -4 11 0 25 9 31 20 35 17 28 -19 -4 -18 -10
-26 -19 -23 -7 3 -16 0 -20 -6 -4 -7 -3 -8 4 -4 7 4 12 2 12 -3 0 -6 -4 -11
-10 -11 -14 0 -12 -27 3 -34 6 -3 -2 -5 -19 -3 -33 3 -36 -3 -17 -38 10 -20 7
-49 -5 -41 -4 2 -13 -3 -21 -11 -12 -13 -11 -14 10 -8 l24 8 -20 -23 c-17 -20
-18 -23 -2 -17 18 7 24 -8 6 -18 -6 -5 -8 -22 -3 -49 8 -46 8 -46 -1 -101 -17
-114 -31 -184 -37 -191 -4 -4 -5 -18 -1 -32 4 -19 3 -23 -7 -17 -9 5 -10 2 -6
-11 3 -11 1 -46 -5 -79 -13 -77 -13 -78 -21 -90 -3 -5 -9 -34 -13 -63 -6 -53
-37 -134 -60 -162 -7 -8 -18 -40 -25 -70 -7 -30 -17 -60 -22 -67 -15 -19 -13
-124 3 -134 10 -6 11 -9 2 -9 -9 0 -13 -17 -13 -49 0 -31 -6 -55 -15 -65 -20
-19 -19 -26 3 -26 15 -1 15 -2 -3 -16 -15 -11 -20 -26 -19 -67 0 -29 3 -59 8
-68 5 -12 1 -18 -13 -22 -17 -4 -19 -11 -16 -58 3 -34 10 -58 20 -65 9 -7 12
-15 7 -18 -5 -3 -15 -32 -21 -65 -7 -33 -16 -63 -21 -66 -6 -4 -7 -17 -4 -29
3 -13 -2 -47 -10 -77 -9 -30 -17 -70 -19 -89 -5 -43 -16 -89 -27 -115 -11 -25
-24 -78 -22 -87 1 -4 -2 -18 -8 -32 -5 -14 -12 -44 -15 -68 -9 -62 -13 -79
-24 -115 -5 -18 -8 -33 -6 -33 3 0 0 -11 -5 -24 -5 -13 -11 -50 -14 -82 -3
-33 -11 -84 -16 -114 -6 -30 -13 -75 -15 -100 -3 -25 -7 -61 -9 -80 -5 -48 -8
-101 -7 -125 1 -17 3 -17 11 -5 7 11 10 -3 10 -46 0 -49 -3 -63 -17 -68 -14
-6 -15 -9 -4 -15 15 -9 18 -27 20 -108 1 -57 11 -65 38 -33 10 11 22 20 28 20
5 0 32 23 59 50 30 30 59 50 72 50 12 0 27 7 34 15 7 9 15 13 18 11 2 -3 -8
-16 -22 -29 -14 -13 -26 -29 -26 -36 0 -6 -4 -11 -10 -11 -5 0 -9 -3 -8 -7 5
-20 -14 -52 -28 -46 -8 3 -23 -2 -33 -11 -10 -9 -24 -15 -32 -13 -8 2 -10 2
-6 -1 4 -2 3 -10 -4 -18 -9 -11 -8 -14 4 -14 8 0 18 8 21 17 5 12 10 13 18 5
12 -12 57 4 71 25 4 7 17 13 27 13 12 0 20 7 20 16 0 13 7 15 30 11 17 -4 30
-2 30 3 0 6 -7 10 -15 10 -9 0 -15 10 -15 26 l0 25 29 -21 c30 -21 47 -15 30
10 -15 26 -10 29 35 25 41 -4 45 -2 54 23 6 15 11 21 11 15 1 -7 8 -13 16 -13
13 0 13 -4 2 -32 -7 -17 -21 -32 -31 -34 -10 -1 -28 -12 -41 -24 -19 -18 -40
-25 -87 -29 -5 -1 -8 -8 -8 -16 0 -9 -8 -18 -17 -22 -10 -3 -34 -13 -53 -21
-19 -8 -39 -14 -43 -13 -5 1 -6 -3 -2 -9 4 -6 1 -18 -7 -27 -10 -13 -10 -17 0
-20 6 -3 10 -9 6 -14 -3 -5 1 -9 9 -9 8 0 17 7 21 15 3 8 9 14 13 13 14 -4 83
23 83 33 0 5 -4 9 -9 9 -5 0 -7 8 -4 19 5 20 53 48 53 31 0 -6 11 -10 25 -10
14 0 25 5 25 12 0 9 3 9 12 0 7 -7 18 -12 25 -12 18 0 -6 38 -27 43 -8 2 6 3
31 3 31 -1 45 -5 42 -13 -3 -7 7 -13 23 -15 39 -4 44 -28 5 -28 -20 0 -35 -7
-43 -20 -8 -12 -24 -20 -39 -20 -14 0 -41 -11 -60 -24 -19 -14 -53 -34 -77
-45 -23 -11 -50 -27 -58 -36 -15 -14 -14 -18 7 -36 19 -16 32 -19 62 -15 20 4
37 2 37 -3 0 -12 -28 -25 -63 -30 -5 0 -2 -8 7 -16 18 -19 55 -19 80 0 27 21
53 20 36 0 -7 -8 -21 -15 -31 -15 -11 0 -19 -4 -19 -8 0 -14 -84 -32 -97 -20
-10 8 -13 6 -13 -6 0 -19 -16 -21 -23 -3 -3 7 -6 4 -6 -6 -1 -15 -6 -17 -29
-12 -27 5 -29 4 -27 -25 1 -21 -3 -30 -14 -30 -11 0 -10 -3 5 -15 15 -12 16
-14 3 -15 -18 0 -21 -28 -6 -47 7 -9 5 -13 -7 -13 -9 0 -16 -8 -16 -19 0 -10
-7 -24 -15 -31 -8 -7 -15 -19 -15 -27 0 -11 -7 -9 -24 8 -22 21 -23 25 -8 31
9 4 12 7 5 7 -6 1 -9 10 -6 24 4 13 2 19 -3 14 -5 -5 -9 -12 -10 -15 0 -4 -5
-18 -11 -32 -6 -14 -10 -49 -9 -79 1 -35 -3 -55 -11 -58 -7 -3 -13 -11 -13
-18 0 -7 -6 -15 -12 -18 -10 -3 -10 -7 1 -20 8 -10 11 -28 8 -46 -3 -15 -2
-32 4 -38 6 -6 3 -18 -9 -34 -11 -13 -19 -39 -20 -56 -1 -44 -8 -53 -44 -53
-22 0 -29 -4 -25 -14 3 -8 -1 -17 -9 -20 -22 -8 -26 -7 -19 4 3 6 -1 7 -9 4
-18 -7 -21 -24 -5 -24 7 0 0 -11 -15 -25 -15 -14 -31 -23 -36 -20 -14 9 -41
-7 -36 -21 3 -8 2 -14 -2 -14 -4 0 -22 -12 -39 -27 -18 -15 -41 -28 -50 -29
-59 -9 -88 -21 -91 -39 -6 -29 -21 -43 -31 -27 -8 13 -30 7 -71 -17 -20 -11
-112 -41 -127 -41 -7 0 -13 7 -13 15 0 8 -7 15 -16 15 -8 0 -13 -4 -10 -9 3
-4 -10 -21 -29 -37 -21 -17 -35 -38 -35 -51 0 -21 -10 -28 -33 -24 -5 1 -11
-8 -14 -19 -3 -11 -11 -20 -17 -20 -6 0 -43 -33 -82 -72 -39 -40 -91 -90 -117
-111 -26 -21 -53 -51 -61 -65 -7 -15 -24 -90 -37 -167 -19 -112 -23 -173 -22
-305 1 -91 4 -176 6 -190 2 -14 5 -53 6 -87 l1 -63 170 0 170 0 6 26 c6 22 10
24 38 19 20 -4 26 -3 18 3 -19 13 -10 48 11 44 12 -2 17 4 17 23 0 14 5 25 10
25 6 0 10 -4 10 -10 0 -23 28 -8 33 18 4 19 12 28 27 29 16 1 20 -2 16 -13 -5
-12 -1 -14 16 -9 19 7 20 5 14 -25 -3 -18 -6 -45 -6 -61 0 -23 -5 -29 -21 -29
-17 0 -19 -3 -10 -14 9 -11 9 -15 -1 -19 -7 -3 -1 -6 14 -6 17 -1 28 5 31 17
4 16 5 16 6 0 1 -23 56 -25 65 -3 3 8 2 15 -2 15 -5 0 1 179 7 198 1 2 10 0
21 -3 11 -4 20 -2 20 4 0 6 9 11 20 11 11 0 20 4 20 10 0 17 25 1 36 -24 10
-21 5 -106 -10 -193 l-6 -33 780 0 c833 0 810 -1 763 46 -12 12 -14 19 -6 21
8 3 10 15 6 33 -3 16 -2 41 1 56 l7 26 18 -21 c10 -12 22 -21 25 -21 11 0 36
-27 36 -39 0 -6 11 -11 25 -11 18 0 28 -7 35 -24 8 -23 45 -56 62 -56 5 0 8 7
8 15 0 8 9 15 20 15 22 0 28 -25 8 -33 -7 -3 238 -6 546 -6 547 -1 590 1 648
30 10 5 24 9 32 9 9 0 24 9 34 20 11 12 26 18 35 14 12 -4 8 -12 -21 -40 l-36
-34 717 0 717 0 -20 41 c-12 22 -20 48 -18 57 2 10 15 -6 31 -41 30 -60 47
-69 88 -46 16 8 18 13 9 24 -7 8 -8 20 -4 27 14 21 16 58 3 58 -6 0 -8 7 -5
16 3 9 2 12 -5 9 -6 -4 -9 9 -7 38 4 54 24 47 33 -12 3 -20 13 -51 21 -69 8
-18 14 -48 14 -67 l0 -35 139 1 c136 0 139 1 133 21 -3 14 -1 19 6 14 7 -4 12
-14 12 -22 0 -9 10 -14 28 -14 25 1 26 2 9 14 -13 10 -15 16 -6 22 7 4 19 -1
29 -14 13 -15 20 -18 29 -9 8 8 11 8 11 -1 0 -9 85 -12 350 -12 l351 0 -3 121
c-2 112 -3 122 -22 129 -20 8 -20 9 2 9 15 1 22 7 22 22 0 11 -4 18 -9 15 -5
-4 -20 -2 -33 3 -17 7 -18 10 -5 10 9 1 17 6 17 11 0 6 7 10 15 10 8 0 15 4
15 9 0 5 -16 9 -36 9 -20 0 -41 5 -47 12 -9 9 -6 11 13 9 27 -4 50 6 50 21 0
5 -7 7 -15 4 -22 -9 -41 7 -21 18 19 11 21 39 4 56 -7 7 -8 12 -2 12 5 0 10
11 10 25 1 14 -2 25 -8 25 -5 0 -6 5 -2 11 4 8 9 7 14 -2 7 -10 11 -10 24 0
14 12 16 51 16 293 0 252 -2 279 -15 268 -11 -9 -19 -10 -27 -2 -15 15 1 35
23 29 16 -4 19 0 19 30 0 22 -7 41 -20 51 -23 20 -17 68 9 75 11 3 9 5 -6 6
-25 1 -32 21 -8 21 8 0 12 6 9 14 -3 8 -1 17 5 20 6 4 10 79 11 197 0 190 -7
224 -30 138 -9 -31 -8 -50 6 -93 14 -43 15 -60 5 -87 -8 -23 -8 -35 -1 -39 7
-4 6 -11 -5 -20 -8 -7 -15 -19 -15 -27 0 -7 -7 -16 -15 -19 -8 -4 -15 -12 -15
-20 0 -8 -6 -14 -12 -14 -7 -1 0 -7 17 -14 18 -7 25 -15 18 -19 -17 -10 -82
-4 -80 8 1 6 -21 9 -55 7 -35 -1 -58 2 -58 8 0 5 -9 10 -21 10 -11 0 -18 -4
-15 -9 9 -14 -15 -71 -30 -71 -18 0 -17 10 1 34 17 23 20 46 5 46 -5 0 -10 -9
-10 -19 0 -20 -17 -37 -27 -28 -9 10 7 43 38 75 l30 31 -33 -9 c-46 -14 -71
-4 -65 26 3 18 0 24 -14 24 -22 0 -26 28 -5 36 8 3 13 12 12 19 -3 18 -16 32
-16 17 0 -7 -7 -12 -15 -12 -9 0 -12 6 -8 17 5 13 2 15 -11 10 -19 -7 -59 9
-52 21 6 10 -15 37 -34 45 -10 4 -8 6 8 6 27 1 30 21 2 21 -21 0 -28 20 -7 21
6 0 2 4 -11 10 -13 5 -20 13 -17 19 3 5 0 10 -7 10 -10 0 -9 3 2 9 8 6 18 7
22 5 15 -10 8 18 -13 47 l-21 29 31 6 c21 5 31 12 31 25 0 11 5 16 13 13 10
-3 12 4 9 29 -3 24 1 36 12 40 11 4 13 1 9 -11 -4 -13 -2 -12 10 3 19 23 22
45 7 45 -5 0 -10 4 -10 9 0 5 10 7 23 4 21 -4 21 -3 -3 11 l-25 15 30 1 c23 0
27 3 15 10 -12 8 -12 10 5 11 12 0 6 5 -15 11 -30 9 -32 12 -16 18 15 5 20 17
21 48 1 23 -3 42 -7 42 -13 0 -9 38 5 43 9 4 9 7 -1 15 -7 5 -10 16 -6 25 4
12 1 17 -10 17 -9 0 -16 7 -16 15 0 8 4 15 8 15 7 0 8 22 3 50 -1 3 -6 -2 -12
-10 -8 -11 -9 -6 -6 21 6 38 -9 53 -58 61 -16 3 -19 10 -17 33 2 28 1 29 -12
12 -10 -12 -16 -15 -21 -7 -4 6 1 20 11 31 18 20 18 20 -11 13 -17 -4 -33 -11
-36 -17 -4 -5 -9 -3 -12 4 -4 10 -6 8 -6 -4 -1 -14 -6 -17 -21 -12 -11 3 -20
2 -20 -4 0 -5 8 -11 18 -14 13 -3 10 -7 -13 -17 -28 -13 -29 -14 -7 -17 28 -5
29 -23 1 -23 -18 0 -20 -5 -16 -26 3 -20 -1 -27 -19 -34 -13 -5 -24 -16 -24
-25 0 -8 -6 -15 -14 -15 -11 0 -13 -9 -9 -36 6 -35 5 -36 -16 -24 -20 10 -25
8 -47 -17 -13 -15 -24 -32 -24 -36 0 -5 -9 -5 -20 -2 -21 7 -27 -4 -11 -20 6
-6 2 -19 -10 -34 -10 -13 -19 -19 -19 -15 0 11 -20 -18 -20 -30 0 -5 6 -3 13
3 22 17 28 1 10 -26 -13 -20 -14 -26 -3 -33 10 -6 10 -13 -1 -39 -14 -31 -32
-38 -58 -22 -8 5 -24 6 -37 1 -14 -6 -26 -5 -29 1 -4 5 -16 9 -28 8 -48 -4
-60 0 -47 16 8 9 9 15 2 15 -6 0 -14 -4 -17 -10 -3 -5 -21 -10 -38 -9 l-32 1
28 11 c31 12 36 27 10 28 -10 0 -13 3 -6 5 7 3 22 0 34 -6 30 -17 44 0 31 37
-6 15 -11 22 -11 16 -1 -15 -47 -17 -56 -3 -3 6 3 10 14 10 12 0 21 7 21 15 0
9 7 18 15 21 20 8 9 24 -18 25 -12 0 -16 3 -9 6 17 7 15 21 -5 26 -11 3 -5 5
12 6 30 2 30 2 -13 23 -30 14 -41 25 -37 36 3 8 0 22 -7 30 -10 12 -10 14 0 8
6 -4 12 -2 12 4 0 6 -6 13 -14 16 -8 3 -12 12 -10 19 3 7 1 16 -5 20 -21 12
-11 27 14 21 14 -4 25 -2 25 4 0 5 -12 10 -26 10 -19 0 -25 4 -20 15 4 11 -1
15 -17 15 -19 0 -61 18 -47 21 3 0 23 3 45 5 22 3 42 9 43 15 3 6 8 6 16 0 9
-8 13 -7 13 3 0 15 -74 19 -83 5 -11 -18 -25 -8 -19 13 5 18 4 19 -4 8 -8 -12
-11 -12 -17 3 -4 10 -2 23 5 30 15 15 14 47 -1 47 -6 0 -4 6 6 13 16 12 15 14
-9 35 -27 23 -40 29 -30 12 14 -23 13 -53 -2 -68 -14 -14 -13 -16 7 -24 19 -7
20 -10 7 -23 -9 -8 -17 -20 -19 -26 -3 -9 -14 -8 -41 2 -25 9 -34 16 -27 23
18 18 11 28 -14 24 -22 -5 -24 -2 -19 22 3 15 0 37 -7 49 -6 13 -8 27 -3 34
10 15 10 38 -1 55 -5 9 -1 19 10 28 14 11 15 17 7 20 -23 10 -14 25 11 18 24
-6 65 23 49 35 -4 3 -9 14 -9 24 -1 12 6 17 27 17 26 0 28 -2 19 -19 -7 -15
-6 -23 6 -35 17 -17 25 -20 22 -8 -4 15 14 52 23 47 5 -4 9 -1 9 4 0 6 -4 11
-10 11 -5 0 -10 8 -10 18 0 14 2 15 10 2 8 -13 10 -12 10 3 0 9 5 17 11 17 6
0 9 7 5 15 -3 10 1 15 13 15 15 0 18 5 14 23 -3 12 -10 28 -16 35 -7 9 -3 12
16 12 14 0 28 -5 30 -10 3 -6 4 -5 3 2 -1 7 -11 15 -22 16 -32 6 -37 19 -14
40 21 19 21 21 4 30 -15 8 -9 10 28 10 26 0 52 3 58 7 20 12 10 21 -25 21 -21
0 -30 -3 -22 -8 6 -4 7 -8 1 -8 -18 0 -34 23 -34 52 0 21 -5 28 -20 28 -41 0
-18 20 30 26 48 6 61 16 41 29 -5 3 -12 1 -16 -4 -3 -6 -12 -8 -20 -4 -8 3
-15 0 -15 -6 0 -6 -10 -11 -22 -11 l-23 0 25 20 c22 17 23 19 7 26 -14 5 -15
9 -6 20 14 17 30 9 22 -11 -3 -9 1 -15 10 -15 21 0 27 22 10 38 -19 20 -16 32
10 32 17 0 19 -2 7 -10 -21 -13 -4 -25 35 -25 22 0 30 4 24 10 -5 5 -9 17 -9
28 0 11 -6 18 -17 16 -10 -1 -31 -1 -48 0 -22 1 -26 4 -15 10 8 6 18 7 22 5 4
-3 8 0 8 6 0 8 10 9 30 5 l30 -7 -5 42 c-5 36 -3 42 15 47 12 3 19 11 17 17
-7 19 13 46 33 46 11 0 20 -4 20 -10 0 -5 -4 -10 -10 -10 -19 0 -10 -23 20
-52 l30 -28 0 30 c0 16 -4 30 -8 30 -5 0 -9 14 -9 30 0 29 9 35 45 31 10 -2
12 35 10 176 -3 150 -5 178 -18 179 -35 2 -40 5 -40 24 0 11 5 20 10 20 6 0
10 7 10 15 0 8 5 15 11 15 6 0 9 -9 6 -20 -3 -11 -1 -20 4 -20 5 0 9 9 9 20 0
10 8 24 18 29 16 10 16 10 0 11 -11 0 -18 8 -18 20 0 23 19 26 40 8 8 -7 6 -2
-3 12 -32 47 -40 68 -33 95 4 14 11 23 16 20 6 -3 10 1 10 9 0 9 -6 16 -14 16
-8 0 -16 7 -20 15 -3 8 -1 15 4 15 6 0 10 6 10 14 0 8 8 16 18 19 13 3 8 8
-18 20 -20 9 -27 16 -17 17 9 0 17 7 17 16 0 8 4 13 9 9 5 -3 12 -1 15 4 3 5
-5 12 -19 15 -16 4 -25 13 -25 26 0 13 -5 18 -15 14 -8 -4 -15 -2 -15 2 1 20
28 43 56 47 16 2 10 3 -14 2 -45 -3 -61 8 -43 29 9 10 8 21 -3 42 -23 45 -40
88 -38 96 1 4 -13 4 -31 2 -27 -5 -34 -1 -43 20 -10 21 -9 25 9 30 18 4 18 6
4 20 -9 9 -20 16 -26 16 -14 0 -14 17 0 26 7 4 21 8 33 9 11 1 28 3 36 4 12 1
11 4 -3 12 -10 6 -27 9 -37 6 -11 -3 -21 1 -24 10 -5 12 -1 14 18 9 20 -5 23
-3 19 14 -3 11 -9 23 -14 26 -5 3 -9 14 -9 25 0 10 -5 19 -11 19 -5 0 -7 -4
-4 -10 3 -5 -1 -10 -9 -10 -10 0 -16 9 -16 22 0 16 -3 19 -11 11 -8 -8 -7 -16
2 -31 11 -17 10 -23 -1 -37 -12 -15 -12 -19 4 -31 16 -11 17 -16 6 -29 -7 -9
-19 -14 -27 -11 -11 5 -18 -12 -14 -36 0 -4 -7 -5 -17 -2 -16 5 -16 5 1 -9 9
-8 17 -16 17 -19 0 -9 -75 5 -82 15 -4 6 -7 -2 -7 -18 0 -34 -4 -58 -21 -134
-9 -38 -18 -55 -31 -58 -10 -3 -19 -10 -19 -15 0 -5 10 -6 21 -3 16 5 19 4 14
-5 -5 -9 -1 -10 16 -6 l24 7 -22 -17 c-23 -17 -31 -44 -13 -44 6 0 5 -8 -2
-20 -7 -11 -17 -20 -23 -20 -12 0 -45 -56 -37 -64 3 -3 16 -6 29 -6 13 0 23
-4 23 -10 0 -16 -48 -12 -76 6 -20 14 -27 15 -37 4 -9 -10 -9 -11 1 -6 15 9
16 -6 1 -21 -17 -17 -1 -33 34 -34 l32 -1 -30 -7 c-20 -5 -36 -3 -47 7 -13 11
-18 12 -18 3 0 -8 -11 -11 -27 -9 -20 2 -27 8 -25 21 3 20 -9 22 -26 5 -6 -6
-15 -8 -19 -4 -4 4 -2 11 5 15 10 6 10 11 -3 21 -11 10 -13 16 -4 26 6 8 8 21
5 30 -4 11 -2 14 6 11 7 -3 22 -8 33 -12 20 -8 20 -7 1 7 -12 9 -17 21 -13 32
4 9 2 16 -2 16 -5 0 -11 -6 -14 -12 -10 -28 -19 3 -12 42 5 29 13 44 28 50 21
8 21 9 2 10 -19 1 -19 2 3 17 22 16 30 43 12 43 -5 0 -7 -7 -3 -17 5 -14 1
-15 -27 -9 -37 7 -47 13 -37 22 4 4 13 1 22 -6 13 -10 15 -9 15 8 0 12 4 23
10 27 5 3 7 12 3 20 -3 8 0 15 6 15 28 0 7 18 -31 27 -24 6 -33 11 -21 12 15
1 21 7 20 21 -1 14 -6 18 -19 14 -10 -3 -18 -1 -18 5 0 6 4 11 9 11 7 0 41 54
41 65 0 1 -15 7 -34 15 -23 9 -32 18 -29 27 4 10 0 14 -13 13 -36 -4 -41 0
-36 27 4 22 2 25 -12 20 -10 -4 -15 -3 -11 3 3 6 1 10 -5 10 -6 0 -8 5 -5 10
4 6 10 8 15 5 11 -7 40 5 40 16 0 5 -7 9 -15 9 -18 0 -20 16 -2 23 6 3 2 6
-11 6 -12 1 -31 -3 -42 -9 -11 -5 -29 -15 -40 -20 -17 -9 -20 -7 -20 11 0 16
-4 19 -20 14 -23 -7 -55 19 -45 36 4 6 -2 13 -14 16 -26 7 -26 12 -3 30 15 13
14 14 -13 8 -29 -6 -29 -6 -12 13 10 11 15 26 11 36 -4 11 -1 16 11 16 16 0
16 2 -3 18 -11 9 -29 22 -39 29 -17 11 -17 12 5 12 26 1 29 16 5 26 -17 7 -16
8 2 16 17 8 16 9 -7 6 -22 -3 -26 0 -25 17 0 12 6 24 12 28 6 5 3 8 -6 8 -9 0
-19 -9 -22 -20 -6 -23 -37 -27 -37 -5 0 8 5 15 10 15 6 0 10 9 10 20 0 11 -7
20 -15 20 -8 0 -15 5 -15 10 0 12 20 13 39 1 9 -6 22 -6 35 1 15 8 21 8 24 -1
2 -6 8 -8 14 -5 6 4 13 2 17 -4 4 -7 13 -5 26 5 16 13 17 15 3 10 -10 -4 -18
-3 -18 2 0 9 -5 10 -73 14 -26 2 -53 9 -59 15 -8 8 -15 7 -25 -6 -13 -15 -13
-15 -8 6 5 16 2 22 -10 22 -9 0 -13 -5 -9 -11 4 -7 1 -10 -7 -7 -8 3 -15 14
-17 26 -2 12 -7 22 -11 22 -9 0 -37 89 -33 103 1 4 -4 20 -12 35 -7 15 -14 41
-14 59 0 17 -5 40 -10 50 -5 10 -17 59 -27 108 -9 50 -21 95 -25 100 -4 6 -11
25 -15 44 -7 31 -24 74 -82 200 -20 44 -22 55 -11 63 10 7 9 8 -5 4 -13 -4
-20 2 -27 19 -5 14 -19 35 -29 47 -11 11 -27 35 -35 52 -8 17 -27 44 -41 60
-14 16 -25 33 -25 38 0 5 -16 30 -35 55 -19 25 -32 50 -29 55 4 5 -15 30 -40
55 -25 24 -44 49 -40 54 3 5 -2 12 -10 15 -9 3 -14 9 -13 13 2 3 -4 14 -15 24
-10 9 -18 14 -18 11 0 -3 -7 2 -16 11 -9 9 -14 18 -11 21 7 7 -46 61 -55 56
-5 -2 -8 3 -8 10 0 7 -18 28 -40 46 l-39 32 -654 0 c-622 0 -655 -1 -675 -19z
m697 -390 c7 -5 11 -13 7 -19 -3 -6 4 -12 16 -14 14 -2 25 -12 29 -28 l6 -25
12 28 c6 16 11 33 11 38 0 5 4 9 9 9 20 0 20 -19 0 -44 -11 -14 -17 -30 -14
-36 9 -15 25 -12 25 4 0 8 9 24 20 37 l19 24 1 -35 2 -35 14 40 14 40 -5 -37
c-4 -40 13 -64 22 -30 3 11 11 23 19 26 11 4 14 -5 14 -35 0 -28 4 -39 13 -36
6 2 11 15 10 28 -3 41 5 53 22 35 8 -8 15 -19 15 -24 0 -12 70 -47 88 -44 7 2
15 -11 19 -28 3 -18 13 -34 22 -38 8 -3 25 -16 37 -29 12 -13 24 -23 28 -23
17 0 37 -31 31 -48 -6 -20 16 -70 36 -83 11 -6 10 -13 -1 -34 -10 -19 -11 -28
-3 -33 6 -4 14 -43 18 -87 4 -44 12 -89 18 -100 6 -11 10 -24 9 -28 -1 -5 3
-5 9 -1 18 11 29 -16 29 -71 0 -32 -3 -45 -9 -36 -11 17 -51 -2 -51 -24 0 -18
31 -20 48 -3 9 9 12 5 12 -18 0 -36 -29 -54 -90 -54 -21 0 -45 -6 -52 -13 -9
-9 -39 -13 -90 -13 -66 1 -78 4 -78 18 0 9 3 18 8 21 4 2 2 2 -5 1 -6 -2 -18
10 -25 26 -16 37 -37 46 -54 23 -13 -17 -13 -17 -14 0 0 15 -5 17 -30 12 -21
-5 -30 -3 -30 6 0 7 -3 9 -7 5 -7 -6 -32 74 -32 104 -1 13 0 13 9 0 8 -12 10
-11 10 7 0 34 -19 37 -32 6 -7 -15 -13 -29 -14 -31 -1 -2 -15 3 -31 12 -15 8
-22 15 -15 16 10 0 10 5 2 20 -6 11 -16 17 -25 14 -12 -5 -15 4 -15 50 0 45
-3 54 -15 50 -8 -4 -15 -15 -15 -25 0 -10 -4 -19 -10 -19 -5 0 -10 5 -10 11 0
6 -14 -3 -31 -21 -17 -17 -39 -30 -48 -29 -33 3 -40 -2 -43 -33 l-3 -33 -20
23 c-27 30 -44 28 -51 -7 -7 -36 -34 -31 -34 5 0 15 -6 24 -15 24 -8 0 -15 5
-15 10 0 14 13 13 28 -2 9 -9 15 -9 24 0 7 7 22 12 35 12 24 0 31 14 12 26 -6
3 -8 16 -5 27 3 12 0 27 -6 35 -9 11 -7 12 15 7 31 -8 57 8 57 35 0 18 44 39
84 41 20 0 20 1 -2 9 -12 5 -41 6 -67 1 -39 -7 -48 -6 -67 14 -13 12 -35 25
-50 29 -16 3 -28 11 -28 17 0 6 5 7 10 4 6 -3 10 -1 10 5 0 7 6 10 14 7 14 -5
36 10 36 25 0 4 -15 8 -34 8 -34 0 -35 2 -42 46 -6 44 -8 46 -34 40 -23 -4
-27 -2 -24 12 2 9 0 24 -6 32 -8 12 -13 13 -30 2 -11 -7 -20 -8 -20 -3 0 5 7
12 15 15 13 5 14 10 5 27 -15 27 -5 37 20 21 17 -10 20 -10 20 3 0 19 14 19
30 0 17 -20 28 -11 23 19 -3 13 0 27 6 30 7 5 14 -4 17 -23 6 -29 27 -46 23
-18 -1 6 1 24 5 38 6 19 13 25 26 22 10 -3 21 0 24 6 4 6 16 11 28 11 11 0 22
8 25 20 3 13 19 22 47 29 55 12 59 12 75 2z m191 -1 c0 -5 -2 -10 -4 -10 -3 0
-8 5 -11 10 -3 6 -1 10 4 10 6 0 11 -4 11 -10z m-505 -100 c3 -5 1 -10 -4 -10
-6 0 -11 5 -11 10 0 6 2 10 4 10 3 0 8 -4 11 -10z m-45 -198 c0 -5 -6 -15 -13
-21 -11 -8 -16 -3 -24 24 -6 18 -8 36 -5 39 6 7 42 -29 42 -42z m42 11 c9 -10
17 -29 20 -44 4 -23 2 -25 -24 -21 -33 5 -33 5 -12 37 14 21 14 24 -3 34 -10
6 -13 11 -7 11 6 0 18 -8 26 -17z m-102 -163 c0 -5 -2 -10 -4 -10 -3 0 -8 5
-11 10 -3 6 -1 10 4 10 6 0 11 -4 11 -10z m18 -38 c6 -18 -15 -14 -22 4 -4 10
-1 14 6 12 6 -2 14 -10 16 -16z m101 -28 c1 -1 1 -7 0 -13 -2 -5 -15 0 -29 11
l-25 21 25 -8 c14 -4 27 -9 29 -11z m71 -4 c0 -5 -8 -10 -17 -10 -15 0 -16 2
-3 10 19 12 20 12 20 0z m-140 -40 c0 -5 -7 -10 -15 -10 -8 0 -15 5 -15 10 0
6 7 10 15 10 8 0 15 -4 15 -10z m66 -28 c-4 -3 -12 0 -19 7 -9 9 -9 14 3 21
11 7 16 5 18 -6 2 -9 1 -18 -2 -22z m59 28 c13 0 27 -35 18 -44 -9 -9 -32 6
-49 31 -15 25 -15 26 1 20 9 -4 22 -7 30 -7z m-175 -40 c0 -4 -11 -5 -24 -3
-18 4 -22 10 -19 24 5 19 7 19 24 3 11 -9 19 -20 19 -24z m105 -30 c3 -5 2
-10 -4 -10 -5 0 -13 5 -16 10 -3 6 -2 10 4 10 5 0 13 -4 16 -10z m-55 -30 c0
-5 -8 -10 -17 -10 -15 0 -16 2 -3 10 19 12 20 12 20 0z m240 -41 c0 -5 -4 -9
-10 -9 -5 0 -10 7 -10 16 0 8 5 12 10 9 6 -3 10 -10 10 -16z m-111 -196 c0 -5
-20 -22 -43 -39 -31 -23 -51 -30 -70 -27 -14 3 -26 9 -26 13 0 5 -10 11 -22
14 -13 2 -6 4 14 2 20 -1 34 2 32 6 -3 4 6 8 20 8 14 0 31 7 38 15 13 15 58
21 57 8z m-189 -43 c0 -5 -5 -10 -11 -10 -5 0 -7 5 -4 10 3 6 8 10 11 10 2 0
4 -4 4 -10z m-33 -6 c-3 -3 -12 -4 -19 -1 -8 3 -5 6 6 6 11 1 17 -2 13 -5z
m383 -162 c0 -7 -4 -10 -10 -7 -5 3 -10 16 -10 28 0 18 2 19 10 7 5 -8 10 -21
10 -28z m-200 13 c0 -10 -11 -15 -35 -15 -41 0 -47 17 -7 23 15 2 30 5 35 6 4
0 7 -6 7 -14z m298 -292 l12 -42 50 4 c51 4 60 -1 38 -23 -9 -9 -9 -12 -1 -12
7 0 15 -9 18 -20 4 -11 11 -18 16 -14 18 11 102 -20 107 -39 5 -19 68 -51 83
-41 5 3 19 -2 31 -10 25 -18 42 -21 33 -6 -3 6 1 10 9 10 8 0 18 -5 21 -10 4
-6 11 -8 16 -5 5 4 9 -1 9 -10 0 -11 6 -15 19 -10 32 10 52 -49 46 -141 -8
-131 -17 -193 -29 -203 -16 -13 -68 43 -54 57 12 12 0 55 -13 47 -5 -4 -9 -17
-9 -31 0 -35 -16 -30 -25 9 -7 28 -9 29 -12 10 -6 -31 -18 -29 -33 7 l-12 29
-18 -21 c-17 -21 -17 -21 -27 -2 -17 34 -10 69 15 72 36 5 15 22 -29 22 -37 0
-46 -8 -39 -35 2 -5 2 -19 2 -29 -1 -11 3 -27 9 -38 7 -13 6 -18 -3 -18 -23 0
-40 17 -37 36 1 11 -1 27 -6 37 -4 10 -2 23 5 32 13 16 6 35 -14 35 -22 0 -51
40 -52 72 -2 28 -17 47 -36 48 -5 0 -8 -15 -8 -33 0 -21 -7 -36 -19 -44 -17
-11 -21 -9 -30 18 -15 44 -42 35 -47 -14 -3 -32 1 -40 22 -49 20 -10 27 -8 38
8 13 16 17 17 28 5 7 -8 8 -11 2 -8 -7 4 -14 -6 -17 -26 -9 -56 -26 -92 -39
-79 -12 12 -46 -3 -61 -25 -4 -7 -14 -10 -22 -7 -8 4 -18 -1 -21 -10 -7 -18
-80 -23 -86 -6 -2 7 -14 7 -36 -1 -24 -8 -37 -8 -45 0 -8 8 -15 2 -29 -19 -19
-31 -48 -41 -48 -15 0 8 8 19 19 24 12 7 21 27 25 55 4 25 11 48 15 51 5 2 9
33 9 67 1 45 -2 57 -8 42 -15 -37 -30 -38 -31 -2 0 18 -3 27 -6 21 -8 -22 -23
-14 -23 12 0 14 -4 25 -10 25 -5 0 -10 -10 -10 -22 0 -33 -13 -49 -30 -38 -12
7 -12 13 -1 33 7 14 23 30 35 35 16 8 17 11 5 11 -24 1 -29 22 -14 56 7 17 14
24 14 17 1 -7 6 -10 11 -7 6 4 8 15 5 25 -3 11 0 20 10 23 8 4 12 13 9 22 -4
10 -2 15 7 13 20 -4 29 -20 23 -40 -8 -28 12 -53 45 -56 l31 -2 -5 62 c-5 51
-3 58 5 38 6 -14 9 -33 6 -42 -6 -24 10 -33 19 -10 4 9 8 38 10 64 2 26 11 59
22 75 11 15 23 41 27 58 4 16 12 33 18 36 17 11 83 -63 96 -108z m632 12 c5
-20 0 -35 -12 -32 -19 3 -27 28 -21 67 8 60 16 67 23 20 4 -25 8 -49 10 -55z
m50 -10 c0 -15 -18 -30 -27 -22 -2 3 -2 15 2 26 7 23 25 19 25 -4z m910 -115
c0 -5 -4 -10 -10 -10 -5 0 -10 5 -10 10 0 6 5 10 10 10 6 0 10 -4 10 -10z
m-2182 -22 c15 -20 25 -97 14 -111 -7 -8 -6 -18 4 -31 14 -19 14 -19 14 3 0
19 3 21 14 12 11 -9 18 -8 30 4 15 15 16 15 17 -2 0 -10 3 -13 6 -5 6 16 28
15 42 -2 9 -11 9 -15 0 -18 -8 -3 -7 -9 4 -20 9 -8 14 -17 13 -19 -2 -2 -6
-35 -9 -74 -5 -70 -31 -140 -47 -130 -5 3 -14 -4 -20 -15 -7 -13 -7 -20 0 -20
5 0 10 -14 10 -31 0 -19 -4 -28 -11 -23 -6 3 -9 15 -6 25 3 11 2 19 -3 19 -4
0 -10 -10 -13 -22 -5 -18 -8 -19 -21 -8 -17 13 -20 8 -16 -25 2 -20 2 -20 -19
-1 -21 19 -21 19 -22 0 0 -17 -1 -16 -9 3 -6 15 -15 21 -25 17 -10 -4 -15 0
-15 10 0 9 -8 16 -17 16 -14 0 -15 2 -5 9 11 6 10 10 -3 15 -12 4 -16 14 -12
32 6 33 -11 97 -24 89 -5 -4 -6 -17 -3 -31 10 -39 -14 -28 -36 18 -24 51 -25
62 -3 54 9 -4 20 -1 25 6 14 24 8 30 -24 24 -18 -3 -27 -3 -20 0 17 8 15 34
-3 34 -16 0 -18 12 -9 48 4 13 13 21 22 20 10 -2 19 10 27 37 l11 40 12 -35
c6 -19 16 -64 22 -100 6 -36 14 -72 17 -80 11 -28 20 33 11 75 -5 22 -8 61 -7
87 2 26 0 51 -4 54 -19 19 -5 33 28 29 30 -4 35 -2 35 15 0 23 13 26 28 8z
m2182 -8 c0 -5 -7 -10 -16 -10 -8 0 -12 5 -9 10 3 6 10 10 16 10 5 0 9 -4 9
-10z m-935 -48 c1 -4 7 -18 14 -31 l14 -25 11 34 c22 66 42 47 50 -46 3 -27 5
-54 6 -59 1 -6 1 -12 0 -15 -11 -30 -15 -110 -6 -139 6 -16 5 -21 -3 -17 -7 4
-9 1 -5 -8 9 -24 -31 -39 -71 -26 -37 12 -34 2 -54 155 -12 94 -5 169 15 161
9 -4 14 2 14 16 0 18 14 18 15 0z m-77 -95 c2 -35 -1 -57 -7 -57 -14 0 -25 45
-18 72 4 12 2 27 -4 34 -7 9 -5 12 8 10 14 -2 19 -14 21 -59z m1676 -62 c3 -8
1 -15 -4 -15 -6 0 -10 7 -10 15 0 8 2 15 4 15 2 0 6 -7 10 -15z m-384 -65 c0
-5 -5 -10 -11 -10 -5 0 -7 5 -4 10 3 6 8 10 11 10 2 0 4 -4 4 -10z m510 -110
c0 -5 -5 -10 -11 -10 -5 0 -7 5 -4 10 3 6 8 10 11 10 2 0 4 -4 4 -10z m-523
-26 c-3 -3 -12 -4 -19 -1 -8 3 -5 6 6 6 11 1 17 -2 13 -5z m-2210 -80 c-7 -37
11 -95 37 -120 45 -43 26 -164 -26 -164 -8 0 -18 -4 -23 -9 -15 -15 -63 -1
-68 19 -4 14 -15 18 -50 18 -26 0 -51 3 -56 6 -5 4 -17 -4 -25 -16 -9 -12 -18
-19 -22 -16 -7 8 9 39 22 41 5 1 8 5 7 10 -12 34 -3 57 38 102 23 25 48 45 55
45 8 0 14 7 14 15 0 8 6 15 13 15 6 0 28 18 47 40 19 22 37 40 39 40 2 0 1
-12 -2 -26z m-207 -33 c0 -6 -4 -13 -10 -16 -5 -3 -10 1 -10 9 0 9 5 16 10 16
6 0 10 -4 10 -9z m2390 -11 c0 -5 -5 -10 -11 -10 -5 0 -7 5 -4 10 3 6 8 10 11
10 2 0 4 -4 4 -10z m268 -36 c-25 -25 -42 -14 -22 14 12 17 19 21 27 13 8 -8
7 -16 -5 -27z m-1858 -62 c0 -7 -4 -10 -10 -7 -5 3 -10 1 -10 -6 0 -9 -3 -9
-14 0 -7 6 -21 9 -30 5 -18 -7 -20 0 -6 26 8 16 14 17 40 7 16 -6 30 -17 30
-25z m1840 -17 c0 -8 5 -15 12 -15 6 0 8 -3 5 -6 -8 -8 -37 14 -37 27 0 5 5 9
10 9 6 0 10 -7 10 -15z m-52 -44 c3 -8 -1 -12 -9 -9 -7 2 -15 10 -17 17 -3 8
1 12 9 9 7 -2 15 -10 17 -17z m-45 2 c-7 -2 -19 -2 -25 0 -7 3 -2 5 12 5 14 0
19 -2 13 -5z m454 -45 c-3 -7 -5 -2 -5 12 0 14 2 19 5 13 2 -7 2 -19 0 -25z
m-462 12 c3 -5 -1 -10 -10 -10 -9 0 -13 5 -10 10 3 6 8 10 10 10 2 0 7 -4 10
-10z m-80 -20 c-3 -5 -11 -10 -16 -10 -6 0 -7 5 -4 10 3 6 11 10 16 10 6 0 7
-4 4 -10z m120 -9 c-3 -6 -11 -11 -17 -11 -6 0 -6 6 2 15 14 17 26 13 15 -4z
m-1568 -25 c-5 -16 -24 -18 -30 -4 -3 9 3 14 14 14 11 0 18 -5 16 -10z m1601
-41 c-2 -1 -18 -5 -35 -8 -23 -5 -33 -3 -33 6 0 9 11 12 36 9 19 -2 34 -5 32
-7z m-17 -60 c11 4 19 2 19 -4 0 -6 -13 -11 -30 -11 -16 0 -30 4 -30 10 0 5
-8 6 -17 3 -16 -6 -16 -5 -5 10 13 15 16 15 29 1 9 -8 23 -12 34 -9z m406 -97
c-3 -8 -6 -5 -6 6 -1 11 2 17 5 13 3 -3 4 -12 1 -19z m-577 -7 c0 -10 -35 -21
-65 -20 -13 0 -8 5 15 14 43 17 50 17 50 6z m-1670 -41 c0 -23 -4 -24 -32 -9
-17 9 -18 13 -7 20 23 15 39 10 39 -11z m1880 5 c0 -8 -4 -15 -10 -15 -5 0 -7
7 -4 15 4 8 8 15 10 15 2 0 4 -7 4 -15z m-1812 -31 c2 -17 -2 -21 -25 -20 -20
1 -29 7 -31 22 -2 17 2 21 25 20 20 -2 29 -8 31 -22z m1602 11 c0 -11 -29 -11
-33 -1 -4 10 1 12 14 9 10 -3 19 -7 19 -8z m138 -2 c-2 -10 -14 -23 -28 -30
-24 -11 -24 -11 -3 -12 12 -1 25 -6 29 -13 4 -7 3 -8 -4 -4 -24 15 -32 -6 -10
-24 21 -18 22 -19 4 -20 -11 0 -16 -3 -13 -7 4 -3 1 -13 -6 -21 -10 -13 -9
-15 7 -9 15 6 17 4 12 -18 -5 -21 -2 -26 21 -31 16 -4 34 -11 41 -17 9 -7 16
-5 25 8 8 10 22 15 33 13 17 -4 16 -6 -7 -16 -14 -5 -34 -19 -44 -29 -16 -15
-18 -15 -13 -2 5 13 0 18 -20 22 -15 3 -28 1 -30 -4 -2 -5 -15 -9 -28 -9 -13
0 -24 -4 -24 -10 0 -5 -4 -10 -10 -10 -5 0 -7 7 -4 15 4 8 1 15 -6 15 -7 0
-10 6 -7 13 4 10 -4 12 -27 10 l-31 -3 30 12 c21 9 30 19 27 31 -4 19 -17 23
-27 7 -9 -15 -25 -12 -25 5 0 8 -4 15 -10 15 -18 0 -10 19 11 25 15 5 17 10 9
20 -6 7 -19 15 -30 18 -14 3 -17 1 -13 -11 5 -11 2 -14 -10 -9 -9 3 -19 2 -22
-3 -4 -6 -1 -10 5 -10 6 0 8 -4 5 -10 -10 -16 -23 -12 -56 21 l-31 30 42 21
c35 18 43 19 51 7 6 -11 14 -11 38 -2 24 9 34 8 51 -4 12 -8 24 -12 27 -9 4 3
1 6 -5 6 -7 0 -12 5 -12 11 0 7 10 9 25 7 14 -3 23 -1 22 6 -1 6 6 10 16 10 9
-1 17 2 17 7 0 5 2 9 5 9 3 0 5 -8 3 -17z m-91 1 c-3 -3 -12 -4 -19 -1 -8 3
-5 6 6 6 11 1 17 -2 13 -5z m523 -14 c-6 -11 -8 -20 -4 -20 3 0 2 -6 -3 -12
-6 -7 -13 -26 -17 -42 -6 -23 -9 -27 -17 -15 -6 9 -9 10 -9 2 0 -7 -4 -13 -8
-13 -5 0 -9 7 -9 15 0 8 9 15 20 15 16 0 18 5 13 28 -5 20 -4 23 4 12 8 -13
10 -13 11 3 1 9 3 22 4 27 1 6 3 12 4 15 0 3 6 5 11 5 7 0 7 -6 0 -20z m-4141
-37 c-2 -44 -47 -173 -59 -173 -7 0 0 26 26 95 4 11 8 27 9 35 2 21 16 70 21
70 2 0 3 -12 3 -27z m3751 -8 c-7 -9 -15 -13 -17 -11 -7 7 7 26 19 26 6 0 6
-6 -2 -15z m-260 -66 c0 -4 -9 -7 -20 -6 -11 1 -20 7 -20 13 0 7 8 10 20 7 11
-3 20 -9 20 -14z m445 11 c3 -5 2 -10 -4 -10 -5 0 -13 5 -16 10 -3 6 -2 10 4
10 5 0 13 -4 16 -10z m-405 -15 c-7 -9 -15 -13 -17 -11 -7 7 7 26 19 26 6 0 6
-6 -2 -15z m360 -4 c0 -5 -7 -11 -15 -15 -15 -5 -20 5 -8 17 9 10 23 9 23 -2z
m-347 -16 c-3 -9 -8 -14 -10 -11 -3 3 -2 9 2 15 9 16 15 13 8 -4z m-82 -18
c-10 -9 -11 -8 -5 6 3 10 9 15 12 12 3 -3 0 -11 -7 -18z m479 15 c0 -4 -9 -13
-19 -19 -16 -10 -18 -9 -14 8 5 18 33 28 33 11z m-135 -16 c-32 -14 -41 -13
-30 3 3 6 18 11 33 11 l27 -1 -30 -13z m330 -16 c-3 -5 -1 -10 4 -10 6 0 11
-11 11 -25 0 -16 -6 -25 -15 -25 -8 0 -15 5 -15 10 0 6 5 10 11 10 8 0 8 4 -1
15 -10 13 -7 35 6 35 3 0 2 -4 -1 -10z m-193 -22 c-6 -6 -15 -8 -19 -4 -4 4
-1 11 7 16 8 5 17 7 19 4 3 -2 -1 -10 -7 -16z m145 0 c-3 -8 -6 -5 -6 6 -1 11
2 17 5 13 3 -3 4 -12 1 -19z m-490 -24 c-3 -3 -12 -4 -19 -1 -8 3 -5 6 6 6 11
1 17 -2 13 -5z m108 -8 c-11 -8 -24 -12 -29 -8 -5 3 -1 9 10 13 31 12 39 10
19 -5z m239 8 c9 -3 16 -15 16 -26 0 -14 -5 -18 -16 -14 -9 3 -18 6 -20 6 -2
0 -4 9 -4 20 0 22 1 23 24 14z m-119 -14 c4 -6 -5 -10 -20 -10 -15 0 -24 4
-20 10 3 6 12 10 20 10 8 0 17 -4 20 -10z m-187 -21 c-11 -6 -15 -16 -11 -27
3 -9 4 -15 2 -12 -2 3 -13 15 -23 28 l-19 22 34 0 c27 -1 31 -3 17 -11z m92 1
c0 -5 -4 -10 -10 -10 -5 0 -10 5 -10 10 0 6 5 10 10 10 6 0 10 -4 10 -10z
m-3809 -47 c-9 -16 -10 -16 -11 -1 0 9 3 25 7 35 7 16 8 17 11 1 2 -10 -1 -25
-7 -35z m3776 41 c-3 -3 -12 -4 -19 -1 -8 3 -5 6 6 6 11 1 17 -2 13 -5z m90
-36 c-3 -7 -5 -2 -5 12 0 14 2 19 5 13 2 -7 2 -19 0 -25z m66 15 c-7 -2 -19
-2 -25 0 -7 3 -2 5 12 5 14 0 19 -2 13 -5z m110 -14 c-13 -14 -26 -18 -34 -13
-10 6 -5 11 16 20 41 18 43 17 18 -7z m-94 -30 c-7 -4 -17 -5 -22 -2 -5 3 -3
9 4 14 7 4 17 5 22 2 5 -3 3 -9 -4 -14z m-3949 -9 c0 -5 -4 -10 -10 -10 -5 0
-10 5 -10 10 0 6 5 10 10 10 6 0 10 -4 10 -10z m4028 3 c-10 -2 -26 -2 -35 0
-10 3 -2 5 17 5 19 0 27 -2 18 -5z m-1962 -30 c-10 -10 -19 5 -10 18 6 11 8
11 12 0 2 -7 1 -15 -2 -18z m1517 20 c-7 -2 -19 -2 -25 0 -7 3 -2 5 12 5 14 0
19 -2 13 -5z m114 1 c-3 -3 -12 -4 -19 -1 -8 3 -5 6 6 6 11 1 17 -2 13 -5z
m323 -20 c0 -17 -22 -14 -28 4 -2 7 3 12 12 12 9 0 16 -7 16 -16z m-4031 -32
c-6 -15 -11 -29 -11 -32 0 -3 -2 -9 -3 -15 -6 -20 -17 -91 -16 -107 0 -10 -5
-18 -11 -18 -13 0 -7 53 17 142 10 37 21 65 26 62 5 -2 4 -17 -2 -32z m3791
28 c0 -5 -4 -10 -9 -10 -5 0 -17 -3 -27 -7 -16 -6 -17 -5 -4 10 17 18 40 22
40 7z m295 -10 c3 -5 2 -10 -4 -10 -5 0 -13 5 -16 10 -3 6 -2 10 4 10 5 0 13
-4 16 -10z m-425 -10 c12 -8 11 -10 -7 -10 -13 0 -23 5 -23 10 0 13 11 13 30
0z m-3 -26 c-3 -3 -12 -4 -19 -1 -8 3 -5 6 6 6 11 1 17 -2 13 -5z m130 0 c-3
-3 -12 -4 -19 -1 -8 3 -5 6 6 6 11 1 17 -2 13 -5z m-205 -36 c-9 -9 -15 -9
-24 0 -9 9 -7 12 12 12 19 0 21 -3 12 -12z m128 -8 c0 -5 -9 -10 -20 -10 -11
0 -20 5 -20 10 0 6 9 10 20 10 11 0 20 -4 20 -10z m80 -5 c-13 -16 -70 -21
-70 -7 0 16 13 22 48 22 29 0 33 -2 22 -15z m177 9 c-3 -3 -12 -4 -19 -1 -8 3
-5 6 6 6 11 1 17 -2 13 -5z m-305 -35 c3 -8 10 -8 26 2 17 11 24 11 34 1 6 -6
20 -12 30 -12 28 0 21 -29 -9 -41 -18 -7 -30 -6 -37 1 -12 12 -26 13 -26 2 0
-4 17 -14 37 -22 33 -11 35 -14 18 -20 -11 -4 -24 -4 -29 1 -6 5 -24 9 -40 8
-32 -1 -29 -3 17 -13 15 -4 27 -13 27 -21 0 -9 13 -18 30 -21 34 -7 41 -24 10
-24 -22 0 -27 -16 -8 -22 9 -3 8 -9 -4 -22 -20 -19 -58 -30 -58 -15 0 5 9 9
20 9 11 0 20 5 20 11 0 5 -5 7 -10 4 -6 -3 -13 1 -16 10 -6 13 -8 14 -15 3 -7
-10 -9 -9 -9 5 0 12 -9 17 -32 18 l-33 2 35 6 35 7 -37 18 c-21 10 -35 22 -32
27 3 5 0 9 -5 9 -6 0 -11 5 -11 10 0 6 7 10 15 10 8 0 15 5 15 10 0 6 6 10 14
10 22 0 12 35 -10 36 -35 2 -39 6 -14 14 36 12 48 11 52 -1z m-52 -43 c0 -3
-4 -8 -10 -11 -5 -3 -10 -1 -10 4 0 6 5 11 10 11 6 0 10 -2 10 -4z m0 -86 c0
-5 -7 -10 -16 -10 -8 0 -12 5 -9 10 3 6 10 10 16 10 5 0 9 -4 9 -10z m287 -20
c2 -23 -1 -24 -28 -9 -22 11 -17 29 9 29 11 0 18 -8 19 -20z m-317 -6 c0 -2
-7 -4 -15 -4 -8 0 -15 4 -15 10 0 5 7 7 15 4 8 -4 15 -8 15 -10z m55 -60 c22
-34 3 -30 -23 6 -14 19 -17 27 -8 24 8 -3 22 -17 31 -30z m-3688 -6 c-3 -7 -5
-2 -5 12 0 14 2 19 5 13 2 -7 2 -19 0 -25z m4023 -8 c0 -5 -4 -10 -10 -10 -5
0 -10 5 -10 10 0 6 5 10 10 10 6 0 10 -4 10 -10z m-4020 -14 c0 -3 -4 -8 -10
-11 -5 -3 -10 -1 -10 4 0 6 5 11 10 11 6 0 10 -2 10 -4z m3708 -5 c44 -1 33
-17 -19 -25 -34 -5 -40 -9 -29 -19 10 -9 13 -9 17 1 3 6 12 12 20 12 13 0 13
-3 3 -15 -10 -12 -9 -15 6 -16 14 -1 13 -3 -6 -9 -23 -7 -23 -8 10 -11 30 -2
32 -3 8 -6 -18 -3 -25 -9 -21 -19 3 -8 -1 -14 -11 -14 -9 0 -16 -5 -16 -11 0
-5 4 -8 9 -4 5 3 12 1 16 -5 3 -5 -1 -10 -9 -10 -18 0 -19 -2 -10 -24 5 -12
10 -13 25 -5 10 5 19 6 19 1 0 -12 -70 -40 -97 -39 -24 1 -33 17 -10 17 8 0 9
3 1 8 -13 8 -15 42 -3 42 5 0 7 16 5 35 -2 31 0 35 21 35 14 0 21 4 18 10 -3
6 -17 10 -29 10 -26 0 -39 28 -24 53 6 12 19 16 41 13 18 -2 47 -4 65 -5z
m298 -14 c4 -4 -14 -7 -40 -7 -26 0 -45 4 -42 8 6 10 72 9 82 -1z m-1 -67 c3
-6 -1 -7 -9 -4 -18 7 -21 14 -7 14 6 0 13 -4 16 -10z m-3240 -40 c-28 -12 -37
-12 -30 0 3 6 16 10 28 9 21 0 21 -1 2 -9z m2 -71 c-11 -18 -72 -51 -80 -43
-3 3 2 18 10 34 12 24 20 29 48 28 29 -1 32 -3 22 -19z m-114 -30 c-6 -6 -9
-17 -6 -25 4 -10 0 -11 -20 -1 -28 13 -26 27 4 27 10 0 19 5 19 12 0 6 3 8 7
5 4 -4 2 -12 -4 -18z m1082 -23 c11 -8 16 -15 10 -15 -5 0 -23 11 -40 25 -31
26 -6 18 30 -10z m2152 28 c-3 -3 -12 -4 -19 -1 -8 3 -5 6 6 6 11 1 17 -2 13
-5z m-201 -39 c1 -14 -2 -23 -6 -20 -4 3 -11 -2 -14 -10 -3 -9 3 -20 14 -27
18 -11 18 -14 3 -30 -15 -17 -15 -19 0 -36 10 -10 14 -22 10 -25 -3 -4 -1 -7
6 -7 9 0 9 -5 0 -21 -9 -17 -8 -23 2 -30 12 -7 11 -9 -1 -10 -8 -1 -19 -1 -23
0 -4 1 -3 -8 3 -20 14 -24 5 -72 -12 -67 -20 7 -20 26 -1 31 12 3 8 5 -9 6
-23 1 -28 6 -28 25 0 13 -3 31 -6 40 -4 11 -1 16 11 16 9 0 13 5 10 10 -4 6
-11 8 -16 5 -5 -4 -9 3 -9 14 0 11 5 23 10 26 6 3 10 16 9 28 0 12 -3 16 -6 9
-2 -6 -9 -10 -13 -7 -5 3 -7 12 -3 20 3 8 0 15 -6 15 -6 0 -10 18 -8 45 l2 45
40 0 c36 0 40 -3 41 -25z m-1651 -135 c3 -5 2 -10 -4 -10 -5 0 -13 5 -16 10
-3 6 -2 10 4 10 5 0 13 -4 16 -10z m-904 -72 c11 -21 11 -22 -4 -9 -10 7 -17
17 -17 22 0 15 9 10 21 -13z m130 -4 c12 -14 11 -16 -5 -13 -11 2 -21 10 -24
17 -5 17 13 15 29 -4z m-386 -14 c-3 -5 -13 -10 -21 -10 -8 0 -12 5 -9 10 3 6
13 10 21 10 8 0 12 -4 9 -10z m2845 -30 c0 -5 -2 -10 -4 -10 -3 0 -8 5 -11 10
-3 6 -1 10 4 10 6 0 11 -4 11 -10z m-2910 -57 c0 -2 -12 -8 -26 -13 -14 -6
-28 -18 -31 -28 -2 -10 -13 -23 -24 -30 -33 -21 -20 3 28 52 19 19 53 31 53
19z m2900 -3 c0 -5 -7 -10 -16 -10 -8 0 -12 5 -9 10 3 6 10 10 16 10 5 0 9 -4
9 -10z m248 -17 c-27 -7 -21 -23 8 -23 14 0 23 -4 19 -10 -7 -12 -55 -2 -72
15 -16 17 -6 25 31 24 17 -1 23 -3 14 -6z m-3490 -14 c-12 -7 -24 -7 -35 0
-15 9 -12 10 17 10 29 0 32 -1 18 -10z m3196 -15 c3 -8 2 -12 -4 -9 -6 3 -10
10 -10 16 0 14 7 11 14 -7z m1103 0 c-3 -3 -12 -4 -19 -1 -8 3 -5 6 6 6 11 1
17 -2 13 -5z m-4073 -26 c-9 -29 -23 -38 -51 -33 -18 3 -23 -1 -23 -16 0 -12
-10 -23 -27 -30 -15 -6 -31 -16 -35 -22 -6 -9 -8 -9 -8 1 0 7 7 15 15 18 8 3
17 21 21 40 5 25 11 34 26 34 11 0 26 7 34 15 9 8 24 15 35 15 17 0 19 -4 13
-22z m-320 -14 c4 -9 5 -18 4 -18 -47 -27 -93 -33 -85 -11 4 8 1 17 -5 21 -16
10 12 24 48 24 20 0 34 -6 38 -16z m196 -38 c0 -3 -4 -8 -10 -11 -5 -3 -10 -1
-10 4 0 6 5 11 10 11 6 0 10 -2 10 -4z m1091 -17 l24 -20 -23 11 c-13 6 -30 9
-37 6 -8 -3 -17 -1 -20 4 -5 7 8 17 26 19 4 1 17 -8 30 -20z m-1356 -9 c-3 -5
-15 -10 -25 -10 -10 0 -22 5 -25 10 -4 6 7 10 25 10 18 0 29 -4 25 -10z m235
6 c0 -11 -19 -15 -25 -6 -3 5 1 10 9 10 9 0 16 -2 16 -4z m-40 -10 c0 -3 -4
-8 -10 -11 -5 -3 -10 -1 -10 4 0 6 5 11 10 11 6 0 10 -2 10 -4z m1254 -22 c21
-20 20 -34 -1 -34 -15 0 -16 2 -3 10 8 5 10 10 4 10 -5 0 -19 7 -30 15 -16 12
-17 14 -2 15 9 0 24 -7 32 -16z m-1364 -4 c0 -5 -5 -10 -11 -10 -5 0 -7 5 -4
10 3 6 8 10 11 10 2 0 4 -4 4 -10z m350 -20 c0 -5 -4 -10 -10 -10 -5 0 -10 5
-10 10 0 6 5 10 10 10 6 0 10 -4 10 -10z m125 1 c-10 -10 -64 -15 -100 -10
-11 1 5 5 35 9 30 4 59 7 65 8 6 1 6 -1 0 -7z m3642 -93 c-3 -8 -6 -5 -6 6 -1
11 2 17 5 13 3 -3 4 -12 1 -19z m-4200 -84 c-3 -3 -12 -4 -19 -1 -8 3 -5 6 6
6 11 1 17 -2 13 -5z m4087 -21 c-11 -12 -18 -13 -27 -4 -8 8 -7 11 6 11 9 0
17 5 17 11 0 5 5 7 10 4 6 -4 4 -12 -6 -22z m-4224 -38 c-7 -8 -20 -15 -28
-15 -13 0 -12 3 4 15 25 19 40 19 24 0z m4370 -9 c0 -3 -4 -8 -10 -11 -5 -3
-10 -1 -10 4 0 6 5 11 10 11 6 0 10 -2 10 -4z m-4415 -16 c3 -5 1 -10 -4 -10
-6 0 -11 5 -11 10 0 6 2 10 4 10 3 0 8 -4 11 -10z m4379 -24 c-4 -18 -1 -25
15 -29 12 -3 19 -12 17 -23 -4 -27 -28 -28 -57 -5 -13 11 -19 20 -12 21 7 0
10 7 6 17 -4 11 -3 14 5 9 8 -5 12 0 12 13 0 12 5 21 10 21 6 0 8 -10 4 -24z
m-41 7 c-7 -2 -19 -2 -25 0 -7 3 -2 5 12 5 14 0 19 -2 13 -5z m-4366 -16 c-10
-7 -38 -31 -63 -54 -24 -24 -48 -43 -54 -43 -16 0 -12 20 6 27 8 3 32 23 52
44 20 21 46 38 57 38 19 0 19 -1 2 -12z m4200 7 c-3 -3 -12 -4 -19 -1 -8 3 -5
6 6 6 11 1 17 -2 13 -5z m243 -4 c0 -5 -4 -10 -10 -10 -5 0 -10 5 -10 10 0 6
5 10 10 10 6 0 10 -4 10 -10z m30 -30 c0 -5 -4 -10 -10 -10 -5 0 -10 5 -10 10
0 6 5 10 10 10 6 0 10 -4 10 -10z m-4227 -115 c-3 -16 -10 -39 -16 -49 -9 -18
-10 -18 -22 4 -13 24 -13 23 -13 -12 0 -49 -7 -58 -46 -58 -25 0 -35 -5 -39
-20 -6 -25 -35 -26 -76 -2 -36 20 -40 32 -11 32 11 0 20 5 20 10 0 6 -5 10
-11 10 -6 0 -3 7 5 16 9 8 16 22 16 29 0 21 65 48 105 43 19 -2 32 -2 30 1 -8
7 25 27 45 27 15 0 18 -6 13 -31z m-346 -54 c1 -11 -4 -22 -11 -24 -9 -4 -11
2 -8 19 5 29 17 32 19 5z m-11 -113 c-17 -11 -26 14 -13 36 11 21 11 20 17 -4
4 -14 2 -28 -4 -32z m839 3 c-13 -11 -106 -33 -113 -26 -10 9 5 16 55 25 69
11 68 11 58 1z m-848 -53 c-3 -7 -5 -2 -5 12 0 14 2 19 5 13 2 -7 2 -19 0 -25z
m2278 12 c3 -5 14 -10 23 -10 9 0 26 -7 36 -15 18 -14 17 -14 -10 -14 -16 -1
-49 -2 -74 -5 -25 -2 -39 -2 -32 1 22 9 2 23 -34 23 -32 0 -42 8 -27 23 10 11
111 8 118 -3z m-1880 -49 c-14 -12 -85 -34 -92 -28 -3 4 10 13 28 21 38 16 78
21 64 7z m2030 -28 c0 -11 12 -31 28 -43 15 -12 34 -37 42 -56 8 -19 20 -34
28 -34 8 0 17 -6 20 -14 3 -7 22 -22 43 -33 47 -24 53 -39 20 -54 -27 -12 -34
-33 -16 -44 6 -3 10 -1 10 5 0 6 4 9 9 5 5 -3 13 4 16 16 5 16 9 18 15 9 5 -7
6 -20 2 -28 -4 -11 -1 -14 11 -9 11 4 20 -1 27 -14 6 -11 16 -16 22 -13 7 5 8
2 3 -7 -17 -27 -15 -102 3 -115 9 -8 13 -14 8 -14 -5 0 -2 -8 6 -17 8 -10 17
-27 20 -38 4 -16 0 -21 -18 -23 -15 -1 -24 4 -24 13 0 7 -4 17 -10 20 -9 6
-19 0 -55 -33 -9 -8 -15 -9 -15 -3 0 6 -6 8 -14 5 -23 -9 -49 26 -41 55 10 42
7 68 -14 101 -12 21 -21 27 -24 18 -4 -10 -6 -10 -6 0 -1 7 6 15 15 19 11 4
13 13 8 37 -4 17 -6 43 -6 58 0 18 -6 29 -19 33 -10 4 -19 11 -19 17 0 17 -33
37 -60 38 -20 0 -31 10 -50 45 -14 25 -32 48 -41 50 -10 3 -19 12 -22 19 -4
10 5 12 38 10 31 -2 45 1 49 11 3 9 0 15 -9 15 -7 0 -17 5 -21 11 -4 7 2 9 17
7 17 -2 24 -10 24 -25z m-110 -54 c9 -17 14 -38 10 -47 -6 -15 -9 -14 -25 6
-10 12 -23 22 -29 22 -17 0 -13 21 7 36 9 7 18 14 19 14 1 0 10 -14 18 -31z
m-2468 4 c-4 -3 0 -15 10 -25 15 -17 15 -18 -1 -18 -19 0 -48 -24 -40 -33 3
-3 -3 -10 -14 -16 -11 -6 -23 -7 -27 -3 -3 4 -5 0 -3 -8 2 -11 -5 -15 -31 -13
-24 1 -40 -6 -56 -23 -12 -13 -29 -24 -38 -24 -8 0 -17 -4 -19 -8 -1 -5 -19
-12 -38 -15 -29 -6 -32 -5 -15 5 11 6 36 24 56 39 28 22 39 26 49 16 10 -10
11 -7 5 13 -4 14 -4 22 0 18 7 -6 44 21 74 55 8 9 21 17 27 17 6 0 17 7 24 15
7 8 19 15 28 15 8 0 12 -3 9 -7z m5077 -54 c-8 -14 -34 -10 -34 5 0 9 7 12 20
9 11 -3 17 -9 14 -14z m191 -49 c3 -6 -1 -13 -10 -16 -19 -8 -30 0 -20 15 8
14 22 14 30 1z m-5568 -52 c-3 -8 -6 -5 -6 6 -1 11 2 17 5 13 3 -3 4 -12 1
-19z m5517 9 c-3 -9 -15 -12 -37 -8 l-32 5 35 7 c19 3 36 7 37 8 1 0 0 -5 -3
-12z m-7 -69 c-3 -8 -6 -5 -6 6 -1 11 2 17 5 13 3 -3 4 -12 1 -19z m-5757 -32
c0 -3 -4 -8 -10 -11 -5 -3 -10 -1 -10 4 0 6 5 11 10 11 6 0 10 -2 10 -4z
m3190 -15 c0 -6 -4 -13 -10 -16 -5 -3 -10 -13 -10 -21 0 -9 5 -12 12 -8 8 5 9
2 5 -10 -4 -10 -7 -22 -7 -27 0 -5 -9 -9 -20 -9 -19 0 -27 20 -13 34 4 3 8 14
9 22 4 27 13 44 24 44 5 0 10 -4 10 -9z m240 -26 c10 -12 10 -15 -4 -15 -9 0
-16 7 -16 15 0 8 2 15 4 15 2 0 9 -7 16 -15z m2438 -91 c-10 -10 -28 6 -28 24
0 15 1 15 17 -1 9 -9 14 -19 11 -23z m-38 6 c0 -5 -7 -10 -15 -10 -8 0 -15 5
-15 10 0 6 7 10 15 10 8 0 15 -4 15 -10z m-1135 -58 c22 -15 48 -45 58 -66 19
-39 13 -65 -7 -32 -29 49 -57 74 -81 72 -14 0 -25 -7 -26 -16 -1 -8 -2 -22 -3
-30 0 -8 -7 -14 -14 -12 -20 4 -43 -24 -35 -44 4 -11 3 -15 -4 -11 -21 13 -26
100 -8 144 16 40 18 41 48 32 18 -5 50 -21 72 -37z m-1240 -88 l0 -31 -25 26
c-25 26 -20 44 10 38 10 -1 15 -14 15 -33z m22 -6 c-3 -8 -6 -5 -6 6 -1 11 2
17 5 13 3 -3 4 -12 1 -19z m-107 -12 c0 -2 -7 -6 -15 -10 -8 -3 -15 -1 -15 4
0 6 7 10 15 10 8 0 15 -2 15 -4z m214 -11 c3 -8 1 -15 -4 -15 -6 0 -10 7 -10
15 0 8 2 15 4 15 2 0 6 -7 10 -15z m1289 -133 c15 -29 25 -58 21 -64 -4 -5 -3
-13 2 -17 5 -3 14 -15 21 -26 6 -11 16 -19 22 -17 13 3 59 -47 102 -110 43
-65 35 -67 -16 -5 -25 30 -56 58 -68 61 -26 7 -74 80 -93 141 -16 56 -29 79
-59 109 -14 14 -25 31 -25 38 0 22 64 -54 93 -110z m-1383 91 c7 -6 -31 -33
-47 -33 -15 0 -17 16 -3 25 6 4 7 11 4 17 -6 10 34 2 46 -9z m1009 -88 c57
-28 141 -39 148 -19 2 7 -4 19 -13 28 -9 9 -13 20 -9 24 12 12 47 -40 41 -62
-3 -10 0 -28 5 -38 21 -39 -22 -87 -47 -54 -6 9 -21 16 -32 16 -11 0 -24 4
-27 10 -3 5 -36 25 -73 43 -37 19 -81 42 -98 52 -43 26 -68 15 -61 -28 3 -17
8 -43 12 -57 l7 -25 -20 23 c-24 27 -37 94 -24 119 6 9 25 23 44 29 29 10 37
9 63 -11 17 -12 54 -35 84 -50z m-4119 40 c0 -8 -4 -15 -10 -15 -5 0 -10 7
-10 15 0 8 5 15 10 15 6 0 10 -7 10 -15z m-55 -34 c-7 -25 -18 -27 -34 -7 -10
12 -8 13 8 9 12 -3 21 -1 21 6 0 6 -5 11 -11 11 -5 0 -7 5 -3 11 11 18 27 -7
19 -30z m3275 -19 c0 -15 -4 -33 -9 -41 -5 -8 -8 3 -7 32 1 47 16 56 16 9z
m-3604 -19 c-6 -6 -36 9 -36 18 0 5 9 4 20 -3 10 -7 18 -14 16 -15z m-76 -46
c-8 -9 -10 -8 -5 6 4 10 2 17 -5 17 -6 0 -8 5 -4 11 5 8 10 6 16 -6 7 -11 6
-21 -2 -28z m-30 13 c0 -5 -7 -10 -15 -10 -8 0 -15 5 -15 10 0 6 7 10 15 10 8
0 15 -4 15 -10z m3697 -42 c-3 -8 -6 -5 -6 6 -1 11 2 17 5 13 3 -3 4 -12 1
-19z m-3302 -8 c3 -4 -6 -7 -18 -6 -13 0 -24 6 -24 12 0 12 34 7 42 -6z m3305
-19 c0 -6 -4 -13 -10 -16 -5 -3 -10 1 -10 9 0 9 5 16 10 16 6 0 10 -4 10 -9z
m-3385 -11 c4 -6 -6 -10 -22 -10 -22 0 -25 2 -13 10 19 12 27 12 35 0z m4478
-10 c3 -11 1 -18 -4 -14 -5 3 -9 12 -9 20 0 20 7 17 13 -6z m-4427 -13 c8 3
14 0 14 -7 0 -17 -35 -7 -36 10 0 8 1 10 3 3 2 -7 11 -9 19 -6z m-6 -49 c0 -3
-6 -9 -12 -12 -10 -5 -10 -7 0 -12 6 -3 12 -15 12 -25 0 -14 -4 -18 -12 -13
-7 5 -3 -5 10 -20 17 -22 20 -32 11 -43 -7 -7 -19 -12 -28 -9 -9 2 -29 7 -44
10 -30 7 -28 22 7 37 19 8 19 9 1 5 -11 -2 -29 -7 -40 -11 -17 -7 -17 -5 3 13
13 11 29 23 35 26 8 3 7 8 -3 15 -12 8 -12 11 3 17 13 5 15 9 6 20 -9 11 -5
13 20 11 17 -1 31 -5 31 -9z m3320 -3 c0 -8 -4 -15 -10 -15 -5 0 -7 7 -4 15 4
8 8 15 10 15 2 0 4 -7 4 -15z m-3463 -1 c-3 -3 -12 -4 -19 -1 -8 3 -5 6 6 6
11 1 17 -2 13 -5z m3447 -49 c-4 -8 -8 -15 -10 -15 -2 0 -4 7 -4 15 0 8 4 15
10 15 5 0 7 -7 4 -15z m956 -49 c0 -7 7 -19 15 -26 8 -7 15 -19 15 -28 0 -8 6
-22 14 -31 8 -9 26 -29 40 -44 14 -15 26 -32 26 -37 0 -6 6 -10 13 -10 7 0 18
-9 25 -20 13 -21 12 -21 -15 -4 l-28 18 29 -32 c34 -37 28 -43 -9 -10 -14 12
-23 28 -21 34 3 7 1 14 -3 16 -5 2 -32 31 -60 66 -29 34 -55 60 -59 58 -7 -4
-9 32 -4 57 3 13 22 7 22 -7z m-4405 -6 c4 -6 -7 -9 -28 -8 -19 2 -33 6 -30
11 6 11 51 9 58 -3z m5032 -55 c24 -27 44 -66 40 -79 -2 -5 -24 22 -50 62 -47
73 -63 108 -27 62 10 -14 27 -34 37 -45z m-4917 9 c0 -11 5 -14 18 -9 13 5 14
3 5 -6 -6 -6 -19 -9 -27 -6 -17 7 -22 37 -6 37 6 0 10 -7 10 -16z m2080 -4 c0
-5 -5 -10 -11 -10 -5 0 -7 5 -4 10 3 6 8 10 11 10 2 0 4 -4 4 -10z m-62 -7
c18 -4 20 -8 10 -14 -10 -7 -7 -14 12 -29 l25 -20 -29 0 c-16 0 -37 -7 -46
-15 -15 -14 -18 -13 -30 9 -7 15 -24 26 -38 28 -38 5 -40 28 -3 28 17 0 31 5
31 10 0 11 33 13 68 3z m2317 -73 c3 -5 1 -10 -4 -10 -6 0 -11 5 -11 10 0 6 2
10 4 10 3 0 8 -4 11 -10z m226 -51 c8 -17 8 -20 -1 -14 -7 4 -17 1 -22 -6 -8
-11 -8 -10 -4 4 3 10 6 23 6 28 0 15 9 10 21 -12z m-4841 -4 c0 -1 -6 -8 -14
-15 -12 -9 -15 -8 -13 8 0 12 6 18 14 15 7 -3 13 -6 13 -8z m-103 -11 c-3 -3
-12 -4 -19 -1 -8 3 -5 6 6 6 11 1 17 -2 13 -5z m190 -16 c-3 -8 -6 -5 -6 6 -1
11 2 17 5 13 3 -3 4 -12 1 -19z m1793 1 c0 -6 -4 -7 -10 -4 -5 3 -10 11 -10
16 0 6 5 7 10 4 6 -3 10 -11 10 -16z m2905 -19 c5 -8 11 -7 21 1 11 9 17 9 29
-1 13 -11 13 -14 0 -27 -8 -8 -15 -21 -15 -28 0 -9 -6 -12 -15 -9 -10 4 -15 0
-15 -11 0 -17 -1 -17 -20 0 -27 24 -34 52 -18 69 16 18 25 20 33 6z m-4575
-56 c0 -14 -4 -23 -9 -20 -5 3 -7 15 -4 26 7 28 13 25 13 -6z m4994 -7 c9 -34
7 -67 -4 -67 -5 0 -10 8 -10 18 0 10 -3 22 -7 26 -5 4 -8 18 -8 31 -1 28 21
22 29 -8z m-5307 -39 c-3 -8 -6 -5 -6 6 -1 11 2 17 5 13 3 -3 4 -12 1 -19z
m270 -30 c-2 -13 -4 -5 -4 17 -1 22 1 32 4 23 2 -10 2 -28 0 -40z m30 10 c-3
-8 -6 -5 -6 6 -1 11 2 17 5 13 3 -3 4 -12 1 -19z m5783 -24 c0 -2 -7 -4 -15
-4 -8 0 -15 4 -15 10 0 5 7 7 15 4 8 -4 15 -8 15 -10z"/>
<path d="M3010 6089 c-9 -15 -7 -21 5 -25 9 -4 14 -13 11 -20 -3 -7 -1 -16 4
-19 6 -4 10 -15 10 -26 0 -28 17 -24 22 6 6 30 -12 93 -29 99 -7 3 -17 -4 -23
-15z"/>
<path d="M3491 6044 c0 -11 3 -14 6 -6 3 7 2 16 -1 19 -3 4 -6 -2 -5 -13z"/>
<path d="M3090 5970 c0 -5 5 -10 10 -10 6 0 10 5 10 10 0 6 -4 10 -10 10 -5 0
-10 -4 -10 -10z"/>
<path d="M3316 5849 c-16 -16 -17 -19 -4 -19 9 0 19 7 22 16 9 24 4 24 -18 3z"/>
<path d="M3445 5800 c-3 -5 -1 -10 4 -10 6 0 11 5 11 10 0 6 -2 10 -4 10 -3 0
-8 -4 -11 -10z"/>
<path d="M3216 5792 c7 -4 14 -16 17 -27 4 -15 5 -14 6 8 1 20 -4 27 -16 27
-12 0 -14 -3 -7 -8z"/>
<path d="M3142 5773 c5 -24 25 -27 31 -3 4 15 0 20 -15 20 -13 0 -18 -6 -16
-17z"/>
<path d="M3101 5714 c0 -11 3 -14 6 -6 3 7 2 16 -1 19 -3 4 -6 -2 -5 -13z"/>
<path d="M3345 5670 c-3 -6 1 -13 10 -16 19 -8 30 0 20 15 -8 14 -22 14 -30 1z"/>
<path d="M3420 5615 c0 -8 7 -15 15 -15 8 0 15 7 15 15 0 8 -7 15 -15 15 -8 0
-15 -7 -15 -15z"/>
<path d="M3421 5564 c0 -11 3 -14 6 -6 3 7 2 16 -1 19 -3 4 -6 -2 -5 -13z"/>
<path d="M3775 5440 c-3 -5 -1 -10 4 -10 6 0 11 5 11 10 0 6 -2 10 -4 10 -3 0
-8 -4 -11 -10z"/>
<path d="M3265 4790 c3 -5 8 -10 11 -10 2 0 4 5 4 10 0 6 -5 10 -11 10 -5 0
-7 -4 -4 -10z"/>
<path d="M2956 4687 c3 -10 9 -15 12 -12 3 3 0 11 -7 18 -10 9 -11 8 -5 -6z"/>
<path d="M3037 4693 c-13 -13 -7 -32 8 -27 8 4 15 12 15 20 0 15 -12 19 -23 7z"/>
<path d="M3042 4520 c-1 -38 2 -60 9 -60 6 0 9 -6 6 -14 -3 -8 1 -22 8 -33 11
-14 15 -15 15 -3 1 8 3 43 6 77 5 56 3 62 -17 68 -17 6 -19 9 -8 16 11 7 11 9
-2 9 -12 0 -16 -13 -17 -60z"/>
<path d="M3254 4514 c3 -9 6 -18 6 -20 0 -3 4 -3 10 1 11 7 2 35 -12 35 -6 0
-7 -7 -4 -16z"/>
<path d="M3660 4485 c-15 -18 -6 -45 14 -45 22 0 28 16 11 30 -8 7 -12 16 -9
21 9 15 -3 10 -16 -6z"/>
<path d="M2642 4640 c0 -14 2 -19 5 -12 2 6 2 18 0 25 -3 6 -5 1 -5 -13z"/>
<path d="M2670 4300 c0 -5 5 -10 10 -10 6 0 10 5 10 10 0 6 -4 10 -10 10 -5 0
-10 -4 -10 -10z"/>
<path d="M3971 4614 c0 -11 3 -14 6 -6 3 7 2 16 -1 19 -3 4 -6 -2 -5 -13z"/>
<path d="M5068 3653 c7 -3 16 -2 19 1 4 3 -2 6 -13 5 -11 0 -14 -3 -6 -6z"/>
<path d="M5155 3653 c6 -6 24 -14 40 -17 20 -5 27 -4 20 3 -5 5 -23 13 -40 17
-20 4 -27 3 -20 -3z"/>
<path d="M5178 3063 c7 -3 16 -2 19 1 4 3 -2 6 -13 5 -11 0 -14 -3 -6 -6z"/>
<path d="M5078 2773 c7 -3 16 -2 19 1 4 3 -2 6 -13 5 -11 0 -14 -3 -6 -6z"/>
<path d="M5105 2510 c-3 -5 -1 -10 4 -10 6 0 11 5 11 10 0 6 -2 10 -4 10 -3 0
-8 -4 -11 -10z"/>
<path d="M3980 1250 c0 -5 7 -10 16 -10 8 0 12 5 9 10 -3 6 -10 10 -16 10 -5
0 -9 -4 -9 -10z"/>
<path d="M4040 1009 c0 -5 5 -7 10 -4 6 3 10 8 10 11 0 2 -4 4 -10 4 -5 0 -10
-5 -10 -11z"/>
<path d="M908 413 c6 -2 18 -2 25 0 6 3 1 5 -13 5 -14 0 -19 -2 -12 -5z"/>
<path d="M5470 175 c-8 -9 -8 -15 -2 -15 12 0 26 19 19 26 -2 2 -10 -2 -17
-11z"/>
<path d="M5570 6440 c-1 -8 -2 -22 -1 -30 2 -13 1 -13 -8 0 -9 13 -25 8 -27
-8 0 -4 -8 -23 -16 -42 -9 -19 -13 -39 -10 -45 3 -5 9 1 12 15 5 22 7 23 13 7
11 -30 8 -47 -8 -47 -8 0 -15 -7 -15 -15 0 -8 5 -15 10 -15 7 0 9 -17 4 -47
-3 -27 -6 -58 -5 -71 0 -13 -4 -32 -9 -43 -8 -15 -7 -19 5 -19 8 0 15 -4 15
-10 0 -5 -7 -7 -15 -4 -17 7 -21 -11 -5 -21 15 -9 12 -34 -5 -52 -8 -8 -13
-19 -10 -24 3 -4 -6 -46 -20 -92 -29 -95 -31 -125 -10 -153 19 -25 19 -35 0
-28 -13 5 -15 -7 -16 -72 0 -44 -1 -106 -2 -138 -1 -41 3 -64 13 -74 11 -12
12 -16 2 -20 -6 -2 -12 -18 -11 -35 l1 -32 9 33 c5 18 13 31 17 28 4 -2 8 4 8
15 0 10 -4 19 -8 19 -4 0 -8 16 -8 35 0 19 5 35 11 35 8 0 7 6 -2 17 -11 13
-11 17 -1 20 6 3 12 14 12 26 1 22 1 22 17 2 14 -17 15 -18 9 -2 -9 26 19 50
49 43 14 -4 25 -2 25 4 0 5 -4 10 -10 10 -5 0 -10 5 -10 10 0 6 7 10 15 10 8
0 15 5 15 10 0 6 7 10 15 10 8 0 15 5 15 10 0 14 -28 12 -33 -2 -2 -8 -8 -9
-13 -4 -5 5 -4 11 4 13 6 3 10 9 7 14 -4 5 1 6 9 3 12 -4 16 0 16 16 0 20 4
22 30 17 17 -4 30 -2 30 3 0 6 -11 10 -25 10 -29 0 -33 22 -13 66 10 22 10 28
-5 38 -13 10 -14 15 -4 25 8 8 9 14 1 19 -12 8 -14 53 -2 46 4 -3 13 -2 19 2
7 4 -3 20 -26 41 l-37 35 31 -7 c20 -4 31 -3 31 4 0 6 -7 11 -15 11 -8 0 -15
4 -15 9 0 5 -8 12 -17 14 -17 4 -17 5 0 6 9 0 17 6 17 12 0 7 -10 9 -27 5 -16
-4 -23 -3 -17 1 7 4 14 17 16 28 2 11 10 19 18 17 17 -4 30 16 30 46 0 12 5
22 10 22 6 0 10 11 10 25 0 29 -16 34 -23 8 -3 -10 -5 1 -6 24 0 23 -5 45 -11
48 -5 3 -10 19 -10 36 0 20 -5 29 -16 29 -11 0 -14 6 -9 20 5 15 2 20 -11 20
-13 0 -14 3 -4 14 6 8 10 25 7 38 -2 13 -5 16 -7 8z m24 -118 c3 -5 -1 -9 -9
-9 -8 0 -15 4 -15 9 0 4 4 8 9 8 6 0 12 -4 15 -8z m-14 -606 c0 -2 -7 -6 -15
-10 -8 -3 -15 -1 -15 4 0 6 7 10 15 10 8 0 15 -2 15 -4z m-38 -48 c-6 -6 -15
-8 -19 -4 -4 4 -1 11 7 16 19 12 27 3 12 -12z m-65 -50 c-3 -8 -6 -5 -6 6 -1
11 2 17 5 13 3 -3 4 -12 1 -19z m35 -20 c-7 -7 -12 -8 -12 -2 0 14 12 26 19
19 2 -3 -1 -11 -7 -17z"/>
<path d="M5715 6290 c-17 -7 -15 -9 13 -9 17 -1 32 4 32 9 0 12 -17 12 -45 0z"/>
<path d="M5740 6242 c0 -15 11 -21 27 -15 12 5 12 7 1 14 -17 11 -28 11 -28 1z"/>
<path d="M5721 6218 c-1 -16 4 -28 9 -28 12 0 12 8 0 35 -8 18 -9 17 -9 -7z"/>
<path d="M5676 6215 c-3 -8 -1 -15 4 -15 13 0 22 18 11 24 -5 3 -11 -1 -15 -9z"/>
<path d="M5815 6110 c3 -5 10 -10 16 -10 5 0 9 5 9 10 0 6 -7 10 -16 10 -8 0
-12 -4 -9 -10z"/>
<path d="M1805 5640 c3 -5 10 -10 16 -10 5 0 9 5 9 10 0 6 -7 10 -16 10 -8 0
-12 -4 -9 -10z"/>
<path d="M5625 5630 c-3 -5 1 -10 9 -10 8 0 18 5 21 10 3 6 -1 10 -9 10 -8 0
-18 -4 -21 -10z"/>
<path d="M4940 5580 c0 -5 5 -10 10 -10 6 0 10 5 10 10 0 6 -4 10 -10 10 -5 0
-10 -4 -10 -10z"/>
<path d="M5600 5580 c0 -5 5 -10 11 -10 5 0 7 5 4 10 -3 6 -8 10 -11 10 -2 0
-4 -4 -4 -10z"/>
<path d="M5545 5559 c-4 -6 -4 -13 -1 -16 8 -8 36 5 36 17 0 13 -27 13 -35 -1z"/>
<path d="M4915 5510 c3 -5 8 -10 11 -10 2 0 4 5 4 10 0 6 -5 10 -11 10 -5 0
-7 -4 -4 -10z"/>
<path d="M4985 5510 c-3 -5 -2 -10 4 -10 5 0 13 5 16 10 3 6 2 10 -4 10 -5 0
-13 -4 -16 -10z"/>
<path d="M5552 5508 c-7 -7 -12 -16 -12 -22 0 -6 5 -5 12 2 7 7 21 12 33 12
16 0 17 2 5 10 -19 13 -24 12 -38 -2z"/>
<path d="M5500 5474 c0 -8 5 -12 10 -9 6 3 10 10 10 16 0 5 -4 9 -10 9 -5 0
-10 -7 -10 -16z"/>
<path d="M5545 5370 c-3 -5 1 -10 10 -10 9 0 13 5 10 10 -3 6 -8 10 -10 10 -2
0 -7 -4 -10 -10z"/>
<path d="M5450 5264 c0 -8 5 -12 10 -9 6 3 10 10 10 16 0 5 -4 9 -10 9 -5 0
-10 -7 -10 -16z"/>
<path d="M4828 5223 c-24 -6 -23 -19 2 -26 11 -3 18 -1 14 4 -8 13 10 11 24
-3 7 -7 12 -9 12 -4 0 8 -26 37 -32 35 -2 -1 -11 -3 -20 -6z"/>
<path d="M4890 5220 c0 -5 4 -10 9 -10 6 0 13 5 16 10 3 6 -1 10 -9 10 -9 0
-16 -4 -16 -10z"/>
<path d="M5461 5214 c0 -11 3 -14 6 -6 3 7 2 16 -1 19 -3 4 -6 -2 -5 -13z"/>
<path d="M5450 5150 c-9 -6 -10 -10 -3 -10 6 0 15 5 18 10 8 12 4 12 -15 0z"/>
<path d="M4890 5100 c0 -5 5 -10 11 -10 5 0 7 5 4 10 -3 6 -8 10 -11 10 -2 0
-4 -4 -4 -10z"/>
<path d="M4838 5083 c7 -3 16 -2 19 1 4 3 -2 6 -13 5 -11 0 -14 -3 -6 -6z"/>
<path d="M4879 5037 c5 -5 19 -7 32 -5 20 3 19 5 -9 9 -20 3 -29 2 -23 -4z"/>
<path d="M4905 4990 c-3 -5 -2 -10 4 -10 5 0 13 5 16 10 3 6 2 10 -4 10 -5 0
-13 -4 -16 -10z"/>
<path d="M4905 4860 c3 -5 8 -10 11 -10 2 0 4 5 4 10 0 6 -5 10 -11 10 -5 0
-7 -4 -4 -10z"/>
<path d="M5536 4856 c3 -9 11 -16 16 -16 13 0 5 23 -10 28 -7 2 -10 -2 -6 -12z"/>
<path d="M5015 4840 c-3 -5 -1 -10 4 -10 6 0 11 5 11 10 0 6 -2 10 -4 10 -3 0
-8 -4 -11 -10z"/>
<path d="M5751 4834 c0 -11 3 -14 6 -6 3 7 2 16 -1 19 -3 4 -6 -2 -5 -13z"/>
<path d="M5648 4823 c-15 -4 -26 -23 -14 -23 2 0 12 -3 22 -7 12 -5 15 -3 9 6
-4 8 -2 17 6 22 15 9 6 10 -23 2z"/>
<path d="M5596 4807 c3 -10 9 -15 12 -12 3 3 0 11 -7 18 -10 9 -11 8 -5 -6z"/>
<path d="M5640 4770 c0 -5 9 -10 20 -10 11 0 20 5 20 10 0 6 -9 10 -20 10 -11
0 -20 -4 -20 -10z"/>
<path d="M5690 4760 c0 -5 5 -10 10 -10 6 0 10 5 10 10 0 6 -4 10 -10 10 -5 0
-10 -4 -10 -10z"/>
<path d="M5632 4681 c2 -14 9 -26 16 -29 17 -5 15 10 -3 34 -15 18 -15 18 -13
-5z"/>
<path d="M5117 4670 c3 -11 9 -17 14 -15 10 7 1 35 -11 35 -5 0 -6 -9 -3 -20z"/>
<path d="M5498 4653 c7 -3 16 -2 19 1 4 3 -2 6 -13 5 -11 0 -14 -3 -6 -6z"/>
<path d="M20 4540 c0 -5 7 -10 16 -10 8 0 12 5 9 10 -3 6 -10 10 -16 10 -5 0
-9 -4 -9 -10z"/>
<path d="M5658 4503 c7 -3 16 -2 19 1 4 3 -2 6 -13 5 -11 0 -14 -3 -6 -6z"/>
<path d="M5170 4150 c8 -5 22 -10 30 -10 13 0 13 1 0 10 -8 5 -22 10 -30 10
-13 0 -13 -1 0 -10z"/>
<path d="M5238 4123 c7 -3 16 -2 19 1 4 3 -2 6 -13 5 -11 0 -14 -3 -6 -6z"/>
<path d="M5215 4100 c3 -5 11 -10 16 -10 6 0 7 5 4 10 -3 6 -11 10 -16 10 -6
0 -7 -4 -4 -10z"/>
<path d="M5780 4011 c0 -5 7 -12 16 -15 24 -9 27 -7 10 9 -17 17 -26 19 -26 6z"/>
<path d="M5775 3860 c28 -12 37 -12 30 0 -3 6 -16 10 -28 9 -21 0 -21 -1 -2
-9z"/>
<path d="M5820 3790 c-11 -7 -12 -12 -4 -20 8 -8 13 -6 17 9 3 12 4 21 4 21
-1 0 -9 -5 -17 -10z"/>
<path d="M5742 3410 c0 -19 2 -27 5 -17 2 9 2 25 0 35 -3 9 -5 1 -5 -18z"/>
<path d="M5768 3373 c7 -3 16 -2 19 1 4 3 -2 6 -13 5 -11 0 -14 -3 -6 -6z"/>
<path d="M5660 3330 c0 -17 5 -30 13 -30 8 0 7 -4 -3 -10 -12 -8 -9 -10 13
-10 25 0 27 2 21 27 -7 27 -26 53 -38 53 -3 0 -6 -13 -6 -30z"/>
<path d="M5740 3323 c0 -43 5 -41 13 5 4 18 2 32 -3 32 -6 0 -10 -16 -10 -37z"/>
<path d="M5660 3254 c0 -8 5 -12 10 -9 6 3 10 10 10 16 0 5 -4 9 -10 9 -5 0
-10 -7 -10 -16z"/>
<path d="M5736 3255 c-3 -9 0 -15 9 -15 8 0 15 7 15 15 0 8 -4 15 -9 15 -5 0
-11 -7 -15 -15z"/>
<path d="M5820 3262 c0 -6 6 -13 13 -15 7 -3 5 -6 -5 -6 -10 -1 -18 -8 -18
-16 0 -8 -5 -15 -12 -15 -6 0 -3 -9 7 -20 10 -11 25 -20 33 -20 12 0 11 -3 -4
-14 -19 -15 -19 -15 1 -30 11 -8 17 -18 13 -22 -4 -4 -14 -2 -21 5 -12 9 -14
6 -13 -18 1 -19 5 -26 11 -20 14 14 28 11 22 -5 -4 -10 8 -13 54 -13 32 0 59
5 59 10 0 5 -11 7 -25 5 -25 -5 -34 5 -15 17 6 4 8 16 4 27 -4 13 2 28 17 44
l22 24 -21 19 c-12 10 -22 25 -22 34 0 9 -13 17 -36 21 -19 4 -42 10 -50 13
-8 3 -14 1 -14 -5z m23 -52 c-3 -12 -8 -19 -11 -16 -5 6 5 36 12 36 2 0 2 -9
-1 -20z"/>
<path d="M5700 3244 c0 -8 5 -12 10 -9 6 4 8 11 5 16 -9 14 -15 11 -15 -7z"/>
<path d="M5735 3208 c-4 -10 -4 -26 0 -35 6 -17 7 -17 16 0 7 11 7 23 0 35 -9
16 -10 16 -16 0z"/>
<path d="M5566 3184 c-5 -14 -4 -15 9 -4 17 14 19 20 6 20 -5 0 -12 -7 -15
-16z"/>
<path d="M5660 3182 c0 -10 7 -19 14 -19 11 0 13 5 5 19 -5 10 -12 18 -14 18
-3 0 -5 -8 -5 -18z"/>
<path d="M5740 3136 c0 -9 5 -16 10 -16 6 0 10 4 10 9 0 6 -4 13 -10 16 -5 3
-10 -1 -10 -9z"/>
<path d="M5654 3116 c-4 -11 -3 -32 3 -47 7 -19 8 -29 1 -31 -6 -2 -4 -9 4
-16 12 -10 15 -6 16 23 1 19 -3 35 -10 35 -7 0 -7 4 0 13 7 8 7 18 2 27 -7 12
-10 11 -16 -4z"/>
<path d="M5533 3103 c9 -2 23 -2 30 0 6 3 -1 5 -18 5 -16 0 -22 -2 -12 -5z"/>
<path d="M5560 3080 c0 -13 11 -13 30 0 12 8 11 10 -7 10 -13 0 -23 -4 -23
-10z"/>
<path d="M5533 3053 c9 -2 23 -2 30 0 6 3 -1 5 -18 5 -16 0 -22 -2 -12 -5z"/>
<path d="M5980 3031 c8 -6 19 -7 25 -4 5 4 2 -3 -9 -15 -10 -12 -22 -20 -26
-17 -4 2 -16 -4 -28 -15 -19 -18 -21 -18 -25 -2 -4 16 -5 16 -6 0 -1 -22 18
-33 32 -19 14 14 30 15 22 1 -7 -12 40 -12 70 -1 17 7 17 8 -8 15 -26 6 -38
26 -17 26 6 0 10 -4 10 -10 0 -5 9 -10 20 -10 11 0 20 5 20 10 0 6 -7 10 -16
10 -10 0 -14 6 -11 14 6 16 -13 26 -46 26 -17 0 -19 -2 -7 -9z"/>
<path d="M5740 2999 c0 -16 4 -28 9 -25 8 5 3 56 -5 56 -2 0 -4 -14 -4 -31z"/>
<path d="M5853 3003 c-25 -9 -13 -19 18 -15 22 3 27 7 18 13 -15 10 -18 10
-36 2z"/>
<path d="M5650 2991 c0 -6 5 -13 10 -16 6 -3 10 1 10 9 0 9 -4 16 -10 16 -5 0
-10 -4 -10 -9z"/>
<path d="M5540 2980 c0 -5 7 -10 15 -10 8 0 15 5 15 10 0 6 -7 10 -15 10 -8 0
-15 -4 -15 -10z"/>
<path d="M5741 2944 c0 -11 3 -14 6 -6 3 7 2 16 -1 19 -3 4 -6 -2 -5 -13z"/>
<path d="M5880 2935 c-17 -20 -5 -32 15 -15 10 8 30 11 60 7 27 -4 45 -3 45 3
0 6 -15 10 -32 10 -18 0 -42 3 -54 6 -12 3 -26 -1 -34 -11z"/>
<path d="M5828 2922 c-5 -18 -2 -22 15 -22 13 0 17 3 11 8 -6 4 -13 14 -16 22
-3 10 -6 8 -10 -8z"/>
<path d="M5710 2921 c0 -11 31 -24 39 -16 3 3 -1 10 -9 15 -19 12 -30 12 -30
1z"/>
<path d="M5550 2911 c0 -5 7 -11 15 -15 9 -3 15 0 15 9 0 8 -7 15 -15 15 -8 0
-15 -4 -15 -9z"/>
<path d="M5933 2903 c15 -2 37 -2 50 0 12 2 0 4 -28 4 -27 0 -38 -2 -22 -4z"/>
<path d="M5725 2874 c9 -9 19 -13 23 -10 3 4 0 11 -8 16 -24 15 -33 11 -15 -6z"/>
<path d="M5900 2870 c-20 -6 -21 -8 -5 -8 11 0 29 3 40 8 25 11 -1 11 -35 0z"/>
<path d="M5918 2840 c-13 -21 -48 -28 -48 -10 0 6 -5 10 -11 10 -5 0 -8 -4 -5
-9 4 -5 0 -12 -6 -14 -7 -3 5 -6 27 -6 36 0 85 25 85 43 0 14 -31 4 -42 -14z"/>
<path d="M5676 2841 c-4 -5 -3 -16 0 -25 5 -13 -1 -16 -26 -16 -18 0 -29 -4
-25 -10 3 -6 18 -7 32 -4 23 6 25 4 20 -12 -5 -14 -2 -12 13 6 24 30 25 40 4
40 -10 0 -14 6 -10 15 6 16 1 20 -8 6z"/>
<path d="M5705 2840 c3 -5 8 -10 11 -10 2 0 4 5 4 10 0 6 -5 10 -11 10 -5 0
-7 -4 -4 -10z"/>
<path d="M6300 2756 c0 -2 7 -7 16 -10 8 -3 12 -2 9 4 -6 10 -25 14 -25 6z"/>
<path d="M5692 2731 c-11 -7 -11 -9 2 -14 10 -4 16 -1 16 8 0 17 -1 17 -18 6z"/>
<path d="M5332 2690 c-30 -25 -10 -37 23 -13 13 10 25 21 25 26 0 13 -25 7
-48 -13z"/>
<path d="M5730 2690 c0 -5 5 -10 10 -10 6 0 10 5 10 10 0 6 -4 10 -10 10 -5 0
-10 -4 -10 -10z"/>
<path d="M5680 2683 c1 -12 29 -47 34 -42 7 7 -13 49 -24 49 -5 0 -10 -3 -10
-7z"/>
<path d="M5376 2655 c-3 -9 0 -15 9 -15 16 0 20 16 6 24 -5 3 -11 -1 -15 -9z"/>
<path d="M5707 2614 c3 -7 9 -14 14 -14 14 0 10 17 -5 23 -10 4 -13 1 -9 -9z"/>
<path d="M5688 2583 c-7 -25 -1 -33 21 -33 11 0 12 3 5 8 -7 4 -14 16 -16 27
-4 19 -4 19 -10 -2z"/>
<path d="M5740 2570 c0 -19 3 -21 12 -12 9 9 9 15 0 24 -9 9 -12 7 -12 -12z"/>
<path d="M6190 2570 c8 -5 20 -10 25 -10 6 0 3 5 -5 10 -8 5 -19 10 -25 10 -5
0 -3 -5 5 -10z"/>
<path d="M5460 2480 c19 -13 30 -13 30 0 0 6 -10 10 -22 10 -19 0 -20 -2 -8
-10z"/>
<path d="M5355 2469 c-4 -6 -5 -12 -2 -15 2 -3 7 2 10 11 7 17 1 20 -8 4z"/>
<path d="M5945 2310 c-3 -5 -2 -10 4 -10 5 0 13 5 16 10 3 6 2 10 -4 10 -5 0
-13 -4 -16 -10z"/>
<path d="M6248 2313 c7 -3 16 -2 19 1 4 3 -2 6 -13 5 -11 0 -14 -3 -6 -6z"/>
<path d="M5532 2291 c2 -7 7 -12 11 -12 12 1 9 15 -3 20 -7 2 -11 -2 -8 -8z"/>
<path d="M6278 2243 c7 -3 16 -2 19 1 4 3 -2 6 -13 5 -11 0 -14 -3 -6 -6z"/>
<path d="M1540 2230 c0 -5 5 -10 11 -10 5 0 7 5 4 10 -3 6 -8 10 -11 10 -2 0
-4 -4 -4 -10z"/>
<path d="M5920 2214 c0 -8 5 -12 10 -9 6 3 10 10 10 16 0 5 -4 9 -10 9 -5 0
-10 -7 -10 -16z"/>
<path d="M1514 2151 c3 -5 14 -11 25 -14 14 -3 18 -1 14 9 -3 8 -14 14 -25 14
-10 0 -17 -4 -14 -9z"/>
<path d="M1480 2110 c0 -5 5 -10 10 -10 6 0 10 5 10 10 0 6 -4 10 -10 10 -5 0
-10 -4 -10 -10z"/>
<path d="M5706 2011 c-3 -5 1 -14 9 -21 11 -9 14 -8 12 9 -1 22 -12 28 -21 12z"/>
<path d="M5757 1966 c-4 -10 -1 -13 8 -9 8 3 12 9 9 14 -7 12 -11 11 -17 -5z"/>
<path d="M6160 1780 c0 -6 7 -10 15 -10 8 0 15 2 15 4 0 2 -7 6 -15 10 -8 3
-15 1 -15 -4z"/>
<path d="M6375 1520 c3 -5 10 -10 16 -10 5 0 9 5 9 10 0 6 -7 10 -16 10 -8 0
-12 -4 -9 -10z"/>
<path d="M6410 1501 c0 -5 -8 -11 -17 -14 -17 -4 -17 -4 1 -12 12 -5 21 -3 27
6 8 12 10 12 18 -1 6 -8 13 -11 17 -8 8 8 -20 38 -35 38 -6 0 -11 -4 -11 -9z"/>
<path d="M6608 1443 c7 -3 16 -2 19 1 4 3 -2 6 -13 5 -11 0 -14 -3 -6 -6z"/>
<path d="M6464 1405 c-4 -9 -19 -15 -35 -15 -16 0 -29 -3 -29 -8 0 -4 18 -6
40 -4 31 3 40 8 40 23 0 23 -8 25 -16 4z"/>
<path d="M6580 1390 c0 -5 5 -10 11 -10 5 0 7 5 4 10 -3 6 -8 10 -11 10 -2 0
-4 -4 -4 -10z"/>
<path d="M1088 1371 c-8 -10 -22 -21 -29 -23 -8 -3 -11 -9 -7 -13 4 -4 14 0
23 9 9 9 20 16 25 16 4 0 10 7 14 15 8 21 -6 19 -26 -4z"/>
<path d="M684 1297 c-13 -28 9 -58 29 -38 6 6 7 11 3 11 -5 0 -3 7 5 16 10 13
10 17 -2 25 -20 13 -23 12 -35 -14z"/>
<path d="M6665 500 c-3 -5 -1 -10 4 -10 6 0 11 5 11 10 0 6 -2 10 -4 10 -3 0
-8 -4 -11 -10z"/>
<path d="M775 90 c-3 -5 -1 -10 4 -10 6 0 11 5 11 10 0 6 -2 10 -4 10 -3 0 -8
-4 -11 -10z"/>
</g>
</svg>
